<svg width="65" height="65" viewBox="0 0 65 65" fill="none" xmlns="http://www.w3.org/2000/svg">
<path d="M31.107 64.0046C30.8081 63.9342 30.5059 63.8684 30.2085 63.7949C26.3531 62.8352 23.9738 60.4008 22.9611 56.5777C22.8985 56.3398 22.6887 56.0548 22.4727 55.9547C20.1732 54.8917 19.0352 53.0897 18.9836 50.5802C18.9507 48.9567 19.0274 47.3238 18.8912 45.7098C18.6189 42.4707 17.2461 39.6887 15.1345 37.2402C11.3401 32.8426 9.54937 27.7186 9.60886 21.9183C9.69651 13.3454 15.2299 5.11383 23.1505 1.8262C33.8902 -2.63088 45.7616 1.30175 51.6253 11.3228C54.169 15.6703 55.044 20.3903 54.3944 25.3922C53.8418 29.6505 52.206 33.4391 49.4761 36.7455C47.9671 38.5725 46.5537 40.4668 45.9463 42.7885C45.5753 44.2053 45.3953 45.6816 45.2544 47.1438C45.1464 48.2788 45.2497 49.4342 45.2294 50.5786C45.1824 53.0881 44.0429 54.8916 41.7403 55.9515C41.5337 56.047 41.3208 56.2975 41.2629 56.5151C40.1687 60.6497 37.5734 63.1577 33.3298 63.9076C33.2515 63.9217 33.1811 63.9718 33.1059 64.0046H31.1055H31.107ZM41.5258 45.1133C41.7559 44.0894 41.9391 43.1094 42.1989 42.1497C43.0113 39.1517 44.7113 36.6657 46.6397 34.2782C50.1195 29.9714 51.4343 25.0322 50.5985 19.5481C49.9895 15.5497 48.2364 12.0899 45.3624 9.2719C41.1361 5.12792 36.0034 3.25241 30.1146 3.89115C23.0409 4.65826 17.8425 8.36545 15.0108 14.8562C11.8895 22.0138 13.0119 28.7785 18.0021 34.8183C19.8179 37.0163 21.258 39.3913 22.0188 42.1466C22.288 43.1188 22.4649 44.1161 22.6871 45.1133H41.5243H41.5258ZM41.4742 48.9223H22.731C22.731 49.4827 22.7278 50.0009 22.731 50.5175C22.7419 51.8874 23.4823 52.6248 24.8661 52.6279C26.9057 52.6326 28.9453 52.6279 30.9849 52.6279C33.815 52.6279 36.6467 52.6341 39.4768 52.6248C40.5945 52.6216 41.3959 51.9234 41.4663 50.8839C41.5086 50.2451 41.4742 49.6001 41.4742 48.9207V48.9223ZM26.876 56.3867C27.5944 58.7366 30.0786 60.4274 32.4548 60.2348C34.701 60.0532 37.0631 58.1777 37.2854 56.3867H26.876Z" fill="white"/>
<path d="M0.103516 23.8768C0.602854 22.8013 1.44813 22.4099 2.61586 22.4882C3.60984 22.5555 4.61165 22.4929 5.60876 22.5054C6.77023 22.5179 7.59829 23.3054 7.59986 24.3762C7.59986 25.4455 6.7718 26.2345 5.61189 26.2502C4.61478 26.2627 3.61297 26.2048 2.61899 26.2658C1.45752 26.3378 0.602854 25.9574 0.105081 24.8788V23.8784L0.103516 23.8768Z" fill="white"/>
<path d="M4.90317 16.3293C4.67304 16.204 4.18302 16.0444 3.83391 15.7266C2.94155 14.9156 2.09616 14.0499 1.26173 13.1779C0.45548 12.3356 0.463307 11.1849 1.23981 10.4444C1.9944 9.72429 3.10437 9.75403 3.92784 10.554C4.80924 11.4088 5.68124 12.2745 6.52663 13.1653C7.09649 13.7649 7.20921 14.4898 6.86009 15.2459C6.53133 15.9567 5.93643 16.2886 4.90317 16.3293Z" fill="white"/>
<path d="M63.5718 12.0178C63.4591 12.2448 63.3338 12.7364 63.0317 13.0667C62.1612 14.0186 61.2423 14.9266 60.3014 15.8096C59.539 16.525 58.4102 16.4765 57.7104 15.7689C57.0028 15.055 56.9589 13.9466 57.6807 13.1763C58.5621 12.2354 59.4826 11.329 60.4172 10.4382C60.9965 9.88557 61.7072 9.77912 62.4446 10.1001C63.1632 10.4132 63.5029 11.0034 63.5749 12.0178H63.5718Z" fill="white"/>
<path d="M5.00707 32.4215C5.90413 32.4606 6.4912 32.7706 6.83249 33.4454C7.17221 34.1139 7.17847 34.834 6.6775 35.3819C5.69591 36.4559 4.66735 37.4923 3.58713 38.466C2.93743 39.0516 1.876 38.9122 1.24196 38.3079C0.587562 37.6848 0.399698 36.5984 0.999298 35.9267C1.99498 34.8121 3.08303 33.7788 4.17421 32.7534C4.40904 32.5327 4.81451 32.4935 5.00707 32.4215Z" fill="white"/>
<path d="M59.2774 32.4121C59.5279 32.5483 60.0382 32.7158 60.403 33.0462C61.2828 33.8399 62.1063 34.6978 62.9298 35.551C63.747 36.398 63.7595 37.5299 62.994 38.2844C62.2519 39.0171 61.1263 39.0046 60.3059 38.2156C59.4214 37.3639 58.551 36.4966 57.7025 35.6089C57.1326 35.0125 57.0027 34.2939 57.3408 33.5315C57.6586 32.8145 58.2488 32.4763 59.2774 32.4137V32.4121Z" fill="white"/>
<path d="M60.3122 26.2501C59.708 26.2501 59.1038 26.2658 58.4996 26.247C57.4211 26.2126 56.6228 25.4157 56.6134 24.3918C56.604 23.3414 57.4179 22.5242 58.5309 22.5085C59.7597 22.4913 60.9884 22.4881 62.2172 22.5085C63.2926 22.5273 64.094 23.3351 64.1034 24.359C64.1128 25.3844 63.3192 26.2047 62.2485 26.2439C61.6036 26.2674 60.9571 26.2486 60.3107 26.2486L60.3122 26.2501Z" fill="white"/>
<path d="M47.0934 22.0451C47.0934 21.959 47.0934 22.0013 47.0934 22.0435C47.1466 23.4212 46.461 24.3182 45.3152 24.3715C44.1725 24.4231 43.4008 23.5746 43.3491 22.2095C43.1206 16.1508 38.4465 11.4605 32.3637 11.2789C30.6481 11.2272 29.9515 9.78537 30.3366 8.77403C30.6309 7.99909 31.2899 7.48559 32.1555 7.51064C37.512 7.66093 41.718 9.94349 44.7016 14.3974C46.2184 16.6628 46.965 19.1989 47.0934 22.0467V22.0451Z" fill="white"/>
</svg>
