<svg width="65" height="64" viewBox="0 0 65 64" fill="none" xmlns="http://www.w3.org/2000/svg">
<g clip-path="url(#clip0_282_495)">
<path d="M7.17273 15.4133C6.67973 14.4252 6.20742 13.4853 5.742 12.542C3.89412 8.79479 5.58514 4.72333 9.5136 3.33169C10.1186 3.11786 10.6392 2.64363 11.1684 2.24873C12.4974 1.25716 13.9489 0.553579 15.5795 0.222482C17.7291 -0.215532 19.8114 -0.00169854 21.8247 0.853635C22.6935 1.22267 23.552 1.62102 24.4087 2.01592C28.4664 3.89214 30.2384 7.17552 29.5782 11.5022H34.1359C34.1221 11.3832 34.1169 11.2452 34.0859 11.1142C33.2861 7.71872 35.0615 4.54399 38.3505 3.35928C38.9745 3.1351 39.5209 2.66087 40.0639 2.25045C41.9997 0.78983 44.1682 -0.00342293 46.5884 0.0120972C47.4813 0.0172706 48.4345 0.070729 49.2516 0.382857C51.1874 1.1261 53.1731 1.8521 54.9331 2.92299C58.2324 4.93027 59.4942 9.16727 58.1031 12.7835C57.7653 13.6629 57.3722 14.52 57.0016 15.3926C59.1736 15.9461 60.1303 17.0757 59.9872 18.8846C59.8614 20.4694 58.6358 21.5299 56.6862 21.6886C56.6086 21.9697 56.5345 22.2749 56.4397 22.575C55.695 24.9616 54.2988 26.8689 52.1941 28.226C51.8114 28.4726 51.689 28.7296 51.708 29.1572C51.739 29.8643 51.7166 30.573 51.7166 31.2939C54.6573 32.5217 57.5653 33.7409 60.4802 34.9497C63.0107 35.9982 64.1036 37.6226 64.1036 40.3749C64.1036 44.6774 64.1036 48.9782 64.1036 53.2808C64.1036 54.381 63.7812 54.7034 62.6883 54.7052C60.4354 54.7052 58.1807 54.7052 55.8467 54.7052C55.8467 54.9776 55.8467 55.2053 55.8467 55.4346C55.8467 57.823 55.8467 60.2097 55.8467 62.598C55.8467 63.6603 55.5158 64 54.4729 64C39.552 64 24.6293 64 9.70839 64C8.70516 64 8.36557 63.6534 8.36557 62.6343C8.36385 60.2459 8.36557 57.8592 8.36557 55.4708C8.36557 55.238 8.36557 55.007 8.36557 54.7052C7.35028 54.7052 6.39014 54.7052 5.43 54.7052C4.09753 54.7052 2.76333 54.7086 1.43086 54.7052C0.460381 54.7017 0.108733 54.3534 0.108733 53.3825C0.105285 48.9299 0.103561 44.4774 0.108733 40.0248C0.11218 37.7451 1.3033 35.9672 3.3994 35.0911C6.25051 33.8995 9.10162 32.7045 11.9614 31.5284C12.3475 31.3697 12.4681 31.18 12.5164 30.7455C12.6733 29.328 12.332 28.3364 11.0391 27.4414C9.10679 26.1032 8.07253 24.0356 7.55023 21.7438C5.15592 21.2023 4.18372 20.2814 4.18027 18.5587C4.17682 16.9377 5.21798 15.8237 7.17445 15.4098L7.17273 15.4133ZM37.3093 42.5529C37.4696 42.6029 37.6317 42.6581 37.7954 42.7029C42.5513 44.029 47.3106 45.3379 52.0596 46.6899C54.104 47.2727 55.3382 48.6678 55.7433 50.7544C55.8605 51.3545 55.8484 51.9805 55.895 52.5927H62.0402C62.0402 52.3323 62.0402 52.1202 62.0402 51.9064C62.0402 48.0556 62.0402 44.2049 62.0402 40.3542C62.0402 38.4987 61.4386 37.5916 59.7407 36.8811C56.6707 35.5981 53.6041 34.3065 50.5272 33.0425C49.9014 32.7855 49.6291 32.3889 49.6446 31.7164C49.6705 30.5334 49.6705 29.3504 49.6446 28.1674C49.6308 27.55 49.9273 27.2155 50.4117 26.8723C51.2977 26.2446 52.1958 25.5928 52.9336 24.803C53.9644 23.6976 54.5005 22.306 54.7194 20.8005C54.8573 19.8486 55.171 19.5985 56.1294 19.5934C56.388 19.5934 56.6465 19.6072 56.9034 19.5865C57.5084 19.5382 57.9204 19.095 57.9066 18.5363C57.8928 18 57.4929 17.5809 56.9189 17.5378C56.5759 17.5119 56.2311 17.5413 55.8881 17.524C55.2365 17.4895 54.8004 17.1119 54.8366 16.4704C54.8762 15.7789 54.9831 15.0736 55.1934 14.4148C55.452 13.5991 55.8743 12.8387 56.176 12.0351C57.3119 9.02069 56.0415 5.69938 53.1732 4.24393C52.0251 3.66106 50.8512 3.1213 49.6532 2.65397C47.1607 1.68138 44.7181 1.88142 42.3927 3.19373C40.9086 4.03182 39.6295 5.16307 38.0247 5.87182C36.4612 6.56333 35.8355 8.14122 35.9907 9.87258C36.132 11.4367 36.7353 12.7197 38.4367 13.1766C38.8038 13.2749 39.1762 13.4439 39.483 13.6681C40.4138 14.3458 41.4705 14.9356 42.1962 15.7978C44.3561 18.3638 44.775 21.292 43.5442 24.4288C43.2356 25.2151 42.8857 25.9842 42.5289 26.8206C42.8702 26.8206 43.1064 26.8189 43.3408 26.8206C45.1663 26.8378 46.5487 28.1605 46.5573 29.8988C46.566 31.6646 45.1766 32.9994 43.3132 33.0149C42.9529 33.0183 42.591 33.0149 42.2324 33.0149C41.6998 35.3257 40.5983 37.2277 38.8538 38.7453C38.3212 39.2091 37.5731 39.5885 37.3317 40.1748C37.068 40.8181 37.2749 41.6562 37.2783 42.408C37.2783 42.4287 37.2886 42.4494 37.3145 42.5477L37.3093 42.5529ZM21.6248 26.7844C21.0784 25.6825 20.544 24.6564 20.0544 23.6097C18.5255 20.3383 19.9148 16.4549 23.1986 15.0408C24.1449 14.6338 24.9672 14.0975 25.7756 13.4991C26.0687 13.2818 26.3962 13.1111 26.6789 12.8818C26.8702 12.7266 27.0667 12.5334 27.1615 12.3144C28.4837 9.2466 27.2288 5.74076 24.2484 4.23358C23.1193 3.66279 21.9592 3.1489 20.7888 2.66605C19.196 2.01075 17.5481 1.90901 15.8571 2.26597C14.1574 2.62293 12.7974 3.57484 11.4666 4.60952C11.1339 4.86819 10.7651 5.12858 10.3686 5.25447C7.4606 6.17878 6.26603 8.92412 7.61229 11.6695C8.12252 12.711 8.72067 13.7164 9.13782 14.7942C9.36536 15.384 9.37398 16.091 9.33605 16.7377C9.30675 17.224 8.88098 17.4982 8.37247 17.5223C8.00703 17.5395 7.63987 17.5102 7.27615 17.5395C6.70214 17.5861 6.30912 18.0103 6.30222 18.5501C6.29533 19.0864 6.68662 19.5261 7.25374 19.583C7.55196 19.6123 7.85534 19.5917 8.157 19.5951C9.00509 19.6037 9.34295 19.8589 9.46878 20.6884C9.898 23.4993 11.3667 25.5721 13.8523 26.9275C14.3401 27.1931 14.5642 27.5725 14.5591 28.1243C14.547 29.2642 14.5556 30.404 14.5556 31.5439C14.5556 32.5579 14.4384 32.7321 13.4834 33.1304C10.4513 34.391 7.4175 35.6481 4.38712 36.9139C2.80126 37.5761 2.17036 38.5297 2.17036 40.2473C2.16863 44.1411 2.17036 48.0349 2.17036 51.9271C2.17036 52.153 2.17036 52.3806 2.17036 52.6065H8.36385C8.36385 52.3237 8.36385 52.0719 8.36385 51.8201C8.37764 49.2421 9.85491 47.3038 12.3475 46.6105C15.533 45.7259 18.7202 44.8516 21.904 43.9687C23.5761 43.5048 25.2464 43.0306 26.9426 42.5546C26.9426 41.8321 26.9202 41.1457 26.9512 40.4594C26.9702 40.049 26.8443 39.8127 26.4858 39.5799C24.2897 38.1486 22.8418 36.1586 22.1402 33.6271C22.085 33.427 22.0161 33.2322 21.9592 33.0511C18.8978 32.8252 17.6722 31.9336 17.6532 29.9505C17.636 28.0191 18.9047 26.9827 21.6248 26.7809V26.7844ZM53.7385 61.9065C53.7575 61.7875 53.7765 61.7255 53.7765 61.6634C53.7765 58.3076 53.792 54.9518 53.7713 51.596C53.7627 50.1698 52.8508 49.0438 51.4201 48.6437C46.6246 47.3003 41.8239 45.9759 37.0301 44.6274C36.6681 44.5257 36.4457 44.5843 36.1889 44.8481C35.1529 45.9121 34.0997 46.9554 33.0447 48.0005C32.3466 48.6937 31.8674 48.6937 31.1744 48.0056C30.1367 46.9761 29.0904 45.9518 28.0803 44.8947C27.7838 44.586 27.5252 44.5308 27.1288 44.6429C22.397 45.9742 17.6601 47.2865 12.9249 48.6092C11.2408 49.08 10.4289 50.1595 10.4272 51.9029C10.4237 55.0432 10.4272 58.1851 10.4272 61.3254C10.4272 61.5116 10.4479 61.6979 10.4582 61.8876H16.6345V53.7119H18.7082V61.9014H45.5334V53.7222H47.6071V61.9065H53.7385ZM25.2568 24.327C24.3501 25.867 23.564 27.3707 23.8295 29.2038C23.9174 29.8143 23.8381 30.4489 23.8467 31.0731C23.9002 35.2584 27.0564 38.6884 31.3055 39.1833C35.2753 39.6454 39.2313 36.8984 40.0777 32.8942C40.4018 31.3611 40.2363 29.7298 40.3725 28.1502C40.5052 26.6206 39.4658 25.5911 38.99 24.2908C34.3617 27.6811 29.8265 27.6604 25.2568 24.327ZM22.8263 24.4857C23.221 23.6959 23.5451 23.0199 23.895 22.3577C24.2949 21.5989 24.9034 21.4523 25.5981 21.9473C26.229 22.3956 26.8254 22.8923 27.4684 23.3199C29.4645 24.6495 31.6347 25.0479 33.9894 24.5357C35.7338 24.1563 37.0852 23.0992 38.4574 22.0628C39.3382 21.3989 39.9019 21.5403 40.4 22.5284C40.6896 23.1027 40.9792 23.6786 41.2999 24.315C42.8202 21.3851 42.2014 17.9758 39.6692 16.2427C37.6162 14.839 35.358 13.7268 32.8155 13.4612C31.0452 13.2767 29.3921 13.7078 27.8166 14.6355C30.4367 16.0358 31.1555 16.6325 31.876 18.0172C31.3365 18.3759 30.7918 18.7398 30.2247 19.1157C29.9747 18.7863 29.7765 18.4776 29.5351 18.2104C28.2509 16.7808 26.653 16.1807 24.7776 16.6532C23.0159 17.0981 21.9506 18.3035 21.5748 20.0797C21.2318 21.7076 22.0264 23.0302 22.8245 24.4857H22.8263ZM32.1191 46.019C33.1223 45.0085 34.0773 44.0514 35.0219 43.0857C35.115 42.9892 35.1874 42.8288 35.1908 42.6943C35.2081 42.0959 35.1994 41.4958 35.1994 40.8146C33.1206 41.4268 31.09 41.4234 29.0077 40.8112C29.0077 41.463 28.9922 42.0407 29.018 42.6184C29.0249 42.7909 29.1094 42.9978 29.2283 43.1185C30.1592 44.0704 31.1055 45.0068 32.1208 46.0208L32.1191 46.019ZM21.7541 28.8831C21.0473 28.9469 20.2682 28.6416 19.8821 29.4314C19.7424 29.7177 19.7666 30.223 19.9338 30.4937C20.3595 31.1818 21.087 30.9248 21.7541 30.9334V28.8831ZM42.4531 30.9403C43.1615 30.9214 43.9303 31.1887 44.3216 30.4144C44.4647 30.1316 44.4388 29.6246 44.2733 29.3521C43.8493 28.6589 43.1201 28.9244 42.4531 28.9072V30.9421V30.9403Z" fill="white"/>
</g>
<defs>
<clipPath id="clip0_282_495">
<rect width="64" height="64" fill="white" transform="translate(0.103516)"/>
</clipPath>
</defs>
</svg>
