<svg width="65" height="61" viewBox="0 0 65 61" fill="none" xmlns="http://www.w3.org/2000/svg">
<path d="M0.103516 32.7445C0.46914 32.0234 1.06758 31.7909 1.8457 31.8412C2.50664 31.8836 3.17383 31.8349 3.83633 31.8584C4.59726 31.8851 5.08789 32.3533 5.11914 33.0319C5.15039 33.7247 4.7207 34.2714 3.96601 34.3233C3.07851 34.3861 2.18476 34.361 1.29414 34.3311C0.686328 34.3107 0.33789 33.896 0.103516 33.3713L0.103516 32.7445Z" fill="white"/>
<path d="M64.1031 33.3712C63.8078 34.108 63.2406 34.3814 62.4781 34.3609C61.8156 34.3421 61.15 34.3735 60.4875 34.3515C59.6109 34.3232 59.0844 33.8362 59.0859 33.0916C59.0859 32.3391 59.6125 31.8679 60.4938 31.8506C61.1156 31.838 61.7406 31.8804 62.3594 31.8396C63.1375 31.7893 63.7375 32.0218 64.1016 32.7429V33.3697L64.1031 33.3712Z" fill="white"/>
<path d="M33.3734 6.34789C33.3734 7.62193 33.3797 8.89597 33.3719 10.17C33.3656 11.0843 32.8672 11.664 32.1234 11.653C31.4 11.6436 30.8875 11.0827 30.8828 10.2077C30.8672 7.61722 30.8672 5.0283 30.8828 2.43781C30.8875 1.53295 31.425 0.970547 32.1797 0.995682C32.9187 1.02082 33.3672 1.55808 33.3734 2.46295C33.3828 3.7574 33.3766 5.05344 33.3766 6.34789H33.3734Z" fill="white"/>
<path d="M55.1086 11.4801C54.993 11.6718 54.8555 12.0347 54.6086 12.2892C53.3305 13.6072 52.0336 14.9079 50.7258 16.1961C50.0946 16.8166 49.3633 16.8449 48.8399 16.3202C48.318 15.7971 48.3446 15.0572 48.9602 14.4272C50.2446 13.1155 51.5461 11.8195 52.8461 10.5234C53.2758 10.0946 53.7774 9.87776 54.3742 10.1574C54.8524 10.382 55.082 10.7826 55.1086 11.4801Z" fill="white"/>
<path d="M15.7743 15.1798C15.779 16.3329 14.8258 16.9393 14.0133 16.5261C13.8133 16.424 13.6321 16.2701 13.4727 16.1098C12.2165 14.8593 10.9665 13.6026 9.71958 12.3427C9.57427 12.1966 9.43989 12.0316 9.33677 11.8526C9.05239 11.3608 9.14771 10.7497 9.54771 10.3617C9.94614 9.97684 10.5649 9.90772 11.043 10.2109C11.1993 10.3099 11.343 10.4356 11.4758 10.5675C12.729 11.8211 13.9899 13.0669 15.2227 14.3425C15.4961 14.6253 15.6665 15.0102 15.7758 15.1798H15.7743Z" fill="white"/>
<path d="M32.1399 15.8977C31.4883 15.9009 30.8992 15.3134 30.8946 14.6567C30.8899 13.9953 31.4633 13.4188 32.1305 13.4157C32.8086 13.4141 33.3617 13.9639 33.3633 14.6457C33.3649 15.3181 32.8024 15.893 32.1414 15.8962L32.1399 15.8977Z" fill="white"/>
<path d="M32.1486 19.1904C37.1064 19.1904 42.0642 19.2093 47.022 19.1779C48.4345 19.1684 49.4314 19.7261 50.1845 20.9106C52.3345 24.2913 54.5236 27.6484 56.6923 31.0181C57.6689 32.534 57.5814 33.7609 56.3751 35.1198C49.1033 43.3186 41.8236 51.5095 34.558 59.7114C33.6126 60.7796 32.5002 61.3185 31.122 60.7891C30.5689 60.5754 30.0502 60.1371 29.6455 59.6847C24.0033 53.3616 18.383 47.0182 12.758 40.6794C11.1642 38.8838 9.57204 37.0882 7.97673 35.2942C6.57673 33.7185 6.48611 32.5953 7.62048 30.8437C9.76423 27.5337 11.9267 24.2332 14.0455 20.9059C14.8017 19.7183 15.7986 19.17 17.2095 19.1794C22.1877 19.2108 27.1673 19.192 32.1455 19.192L32.1486 19.1904ZM34.5705 55.7243L34.6892 55.784C40.9923 48.6802 47.297 41.578 53.6767 34.3877H41.1189C38.933 41.5104 36.7517 48.6174 34.572 55.7228L34.5705 55.7243ZM10.4986 34.3579C16.9142 41.5874 23.2127 48.6834 29.5111 55.7793C29.5845 55.6112 29.5658 55.5123 29.5361 55.4164C27.433 48.5561 25.3236 41.6974 23.233 34.8323C23.108 34.4223 22.9048 34.3485 22.5236 34.35C18.733 34.3626 14.9423 34.3579 11.1517 34.3579H10.4986ZM25.697 34.3783C27.8236 41.3046 29.9283 48.1602 32.033 55.0143L32.1798 54.997C34.2845 48.1398 36.3892 41.2811 38.5064 34.3783H25.697ZM15.8595 22.7313C13.8705 25.8041 11.9486 28.7716 9.97829 31.8161H21.7142C19.7517 28.77 17.8377 25.7994 15.8611 22.7313H15.8595ZM48.3705 22.736C46.3939 25.8041 44.483 28.7716 42.5361 31.7925H54.2095C52.2501 28.7528 50.3408 25.7931 48.3689 22.736H48.3705ZM40.2064 30.7856C42.1642 27.7458 44.0845 24.7657 46.0251 21.7495H34.3798C36.3345 24.7814 38.2423 27.7395 40.2048 30.7856H40.2064ZM29.8205 21.7448H18.197C20.1548 24.7798 22.0673 27.7458 24.0127 30.762C25.9642 27.7317 27.8689 24.7767 29.8205 21.7448ZM37.8986 31.8224C35.9392 28.7842 34.047 25.8497 32.1002 22.8319C30.1408 25.8732 28.2439 28.8172 26.308 31.8224H37.8986Z" fill="white"/>
</svg>
