<svg width="65" height="31" viewBox="0 0 65 31" fill="none" xmlns="http://www.w3.org/2000/svg">
<path d="M54.2906 12.941C51.5561 15.6834 48.8572 18.3902 46.1078 21.1476C47.0547 22.7792 47.3498 24.5718 46.7634 26.4601C46.3356 27.8425 45.5213 28.9608 44.3446 29.8019C41.9612 31.5066 38.7169 31.3717 36.5035 29.4872C34.0604 27.406 33.5767 24.4201 35.1251 21.1588C32.3981 18.4239 29.6861 15.7021 26.9479 12.9541C24.7233 14.2185 22.4427 14.2354 20.22 12.9541C17.4856 15.6965 14.7717 18.4183 12.0465 21.1513C13.7406 24.0773 13.1243 27.7732 10.1582 29.8544C7.58811 31.6583 4.09532 31.2836 1.9212 29.0264C-0.254784 26.7673 -0.501334 23.3355 1.30109 20.7973C2.84016 18.63 6.22835 16.9684 9.90978 19.0233C12.6312 16.2903 15.3432 13.5685 18.0683 10.8317C16.0231 7.09647 17.7116 3.82768 19.6672 2.33097C22.058 0.502699 25.364 0.562643 27.68 2.48458C29.7552 4.20608 30.9599 7.53668 29.0809 10.8073C31.8079 13.5329 34.5255 16.2472 37.2955 19.0158C39.4715 17.7608 41.7726 17.7627 44.0345 19.0589C46.7559 16.3221 49.453 13.6116 52.1987 10.8504C51.2125 9.15141 50.9398 7.28754 51.6047 5.34313C52.1071 3.87639 53.0373 2.73934 54.3616 1.93385C57.0288 0.313503 60.4095 0.834261 62.4902 3.18517C64.5504 5.51359 64.6438 8.98844 62.72 11.4349C60.9474 13.6884 57.5256 14.8292 54.2887 12.9391L54.2906 12.941ZM23.5858 11.0902C25.59 11.0865 27.2206 9.43427 27.2094 7.42054C27.1981 5.44054 25.5806 3.81457 23.6045 3.80333C21.5985 3.79022 19.9473 5.4293 19.9436 7.4374C19.9399 9.44738 21.5817 11.0958 23.5858 11.0902ZM40.6202 28.1947C42.6224 28.1966 44.268 26.5462 44.2624 24.5381C44.2568 22.5562 42.6411 20.9247 40.6687 20.9078C38.6534 20.8909 37.0078 22.5132 36.9966 24.525C36.9854 26.5387 38.6197 28.1909 40.6202 28.1947ZM10.1563 24.5381C10.1526 22.5188 8.52388 20.8984 6.50478 20.9059C4.53239 20.9134 2.90553 22.5375 2.89246 24.5157C2.87752 26.52 4.52305 28.1872 6.51786 28.1909C8.52014 28.1966 10.1601 26.55 10.1563 24.5363V24.5381ZM54.0496 7.4655C54.0571 9.47735 55.7027 11.1071 57.7143 11.0902C59.6829 11.0733 61.3079 9.43801 61.3154 7.46175C61.3229 5.45552 59.6773 3.80146 57.6769 3.80146C55.6672 3.80146 54.044 5.44241 54.0515 7.46363L54.0496 7.4655Z" fill="white"/>
</svg>
