<svg width="50" height="64" viewBox="0 0 50 64" fill="none" xmlns="http://www.w3.org/2000/svg">
<path d="M43.0886 7.21614C43.711 7.21614 44.2281 7.21614 44.7471 7.21614C47.3474 7.22524 49.1093 8.96987 49.1093 11.5741C49.1148 22.9086 49.1111 34.2414 49.1111 45.576C49.1111 50.2326 49.1129 54.8892 49.1111 59.5457C49.1111 62.3375 47.4599 63.9984 44.6727 63.9984C33.3571 64.002 22.0415 64.002 10.7259 63.9984C7.90791 63.9984 6.25847 62.3284 6.25484 59.4966C6.25484 58.617 6.25484 57.7374 6.25484 56.7831C5.58164 56.7831 4.97558 56.7904 4.37133 56.7831C1.90353 56.7431 0.118 54.9693 0.118 52.509C0.110741 36.4286 0.110741 20.3463 0.116185 4.26594C0.116185 1.98955 1.6513 0.299558 3.91043 0.0354974C4.15721 0.00635962 4.40762 0.0027174 4.65803 0.0027174C15.95 0.0027174 27.2439 -0.000924823 38.5359 0.0027174C41.3502 0.0027174 43.0741 1.73277 43.0886 4.54457C43.0922 5.18013 43.0886 5.8157 43.0886 6.45309C43.0886 6.67527 43.0886 6.89926 43.0886 7.21614ZM47.3637 35.6564C47.3637 27.7965 47.3256 19.9366 47.3891 12.0785C47.4072 9.96601 46.3947 8.92798 44.2935 8.93891C33.1357 8.999 21.978 8.96622 10.8203 8.96805C8.87688 8.96805 7.88069 9.95691 7.88069 11.8873C7.88069 27.6963 7.88069 43.5072 7.88069 59.3163C7.88069 61.274 8.85329 62.2519 10.7985 62.2519C22.047 62.2519 33.2954 62.2519 44.5439 62.2519C46.5181 62.2519 47.3619 61.4106 47.3619 59.4401C47.3619 51.5128 47.3619 43.5855 47.3619 35.6564H47.3637ZM41.2178 7.21614C41.2178 6.31651 41.2178 5.50247 41.2178 4.68843C41.2178 2.60873 40.3613 1.74916 38.2891 1.74916C27.1078 1.74916 15.9264 1.74916 4.74331 1.74916C4.54008 1.74916 4.33504 1.74188 4.13181 1.75827C2.81807 1.86025 1.91804 2.7963 1.86542 4.11296C1.85816 4.29507 1.85998 4.47719 1.85998 4.65748C1.85998 20.4702 1.85998 36.2811 1.85998 52.0938C1.85998 52.2977 1.85816 52.5035 1.86542 52.7075C1.91804 53.9076 2.71101 54.8582 3.89228 54.9911C4.64714 55.0767 5.41833 55.0075 6.25121 55.0075C6.25121 54.6743 6.25121 54.3865 6.25121 54.097C6.25121 40.0125 6.25121 25.9262 6.25121 11.8418C6.25121 8.91341 7.93875 7.21796 10.8402 7.21796C20.6389 7.21796 30.4357 7.21796 40.2343 7.21796H41.2123L41.2178 7.21614Z" fill="white"/>
<path d="M40.3978 31.6519C40.3978 33.8955 40.4123 36.0498 40.3888 38.2042C40.3833 38.7578 40.024 39.0875 39.4615 39.0783C38.8954 39.0711 38.5796 38.7159 38.5579 38.1696C38.5252 37.3538 38.5433 36.5361 38.5397 35.7184C38.5397 35.478 38.5397 35.2394 38.5397 34.7987C34.9759 38.3299 31.5555 41.719 28.0788 45.1627C27.088 44.1283 26.1336 43.134 25.1464 42.105C24.9305 42.2962 24.7745 42.4183 24.6366 42.5567C22.519 44.6746 20.3941 46.7853 18.3001 48.9269C18.0642 49.1673 17.9027 49.5843 17.8936 49.9249C17.8519 51.5584 17.8719 53.1938 17.8737 54.8291C17.8737 55.3846 17.6959 55.818 17.0989 55.9437C16.5672 56.0547 16.0446 55.6577 16.0392 55.0732C16.0174 53.008 16.0228 50.9411 16.0355 48.8741C16.0355 48.7157 16.1372 48.5226 16.2515 48.4061C19.1239 45.5069 22.0054 42.6149 24.9178 39.6884C25.9321 40.7246 26.9084 41.719 27.8338 42.6641C30.9313 39.5609 33.9344 36.5525 36.9774 33.5039C35.8433 33.5039 34.7001 33.5039 33.5569 33.5039C33.3301 33.5039 33.1015 33.5221 32.8783 33.493C32.3902 33.4293 32.0926 33.1506 32.069 32.6444C32.0436 32.1162 32.2994 31.7739 32.8275 31.6846C33.0706 31.6427 33.3247 31.6537 33.5733 31.6537C35.5911 31.6519 37.6088 31.6537 39.6266 31.6537H40.396L40.3978 31.6519Z" fill="white"/>
<path d="M27.6079 17.8132C24.1167 17.8132 20.6255 17.8132 17.1343 17.8132C16.931 17.8132 16.7224 17.8296 16.5227 17.8005C16.0056 17.7258 15.6881 17.4162 15.6808 16.8954C15.6735 16.3764 15.9729 16.0468 16.4901 15.9593C16.6897 15.9247 16.8965 15.9411 17.1016 15.9411C24.084 15.9411 31.0664 15.9411 38.0507 15.9411C38.2975 15.9411 38.557 15.9339 38.791 15.9994C39.2664 16.1305 39.5023 16.4711 39.4534 16.9701C39.4044 17.4599 39.1322 17.7586 38.6295 17.806C38.4499 17.8223 38.2666 17.8114 38.0852 17.8114C34.594 17.8114 31.1027 17.8114 27.6115 17.8114L27.6079 17.8132Z" fill="white"/>
<path d="M27.6731 22.9268C24.1583 22.9268 20.6435 22.9268 17.1287 22.9268C16.1144 22.9268 15.6716 22.6445 15.668 22.0053C15.6644 21.3661 16.1089 21.0802 17.1124 21.0802C24.142 21.0802 31.1716 21.0802 38.2012 21.0802C39.0722 21.0802 39.4333 21.3424 39.4569 21.9725C39.4823 22.6026 39.1593 22.9159 38.4208 22.9213C36.7877 22.9323 35.1564 22.925 33.5233 22.925C31.5726 22.925 29.6238 22.925 27.6731 22.925V22.9268Z" fill="white"/>
<path d="M40.4031 48.6992C40.4031 50.697 40.405 52.6965 40.4031 54.6943C40.4031 55.4428 40.062 55.8543 39.4686 55.8452C38.9079 55.8361 38.5487 55.4337 38.5468 54.7253C38.5378 50.7061 38.5378 46.6869 38.5468 42.6677C38.5468 41.9483 38.8989 41.555 39.4632 41.5477C40.0547 41.5404 40.3995 41.9538 40.4013 42.7041C40.4068 44.7019 40.4013 46.7014 40.4031 48.6992Z" fill="white"/>
<path d="M22.4771 26.6602C24.2899 26.6602 26.1026 26.6602 27.9135 26.6602C28.8263 26.6602 29.2382 26.9425 29.2418 27.5525C29.2454 28.1626 28.7936 28.4977 27.939 28.4995C24.2681 28.5013 20.5991 28.5032 16.9282 28.4995C16.0971 28.4995 15.6743 28.1863 15.6671 27.5908C15.6598 26.9953 16.0935 26.662 16.901 26.6602C18.7591 26.6565 20.6172 26.6602 22.4735 26.6602H22.4771Z" fill="white"/>
<path d="M34.7032 49.9212C34.7032 51.5092 34.7069 53.0954 34.7014 54.6834C34.6978 55.4319 34.3494 55.8562 33.7706 55.8453C33.2099 55.8362 32.8705 55.4373 32.8687 54.7216C32.8615 51.5474 32.8615 48.3732 32.8687 45.1991C32.8705 44.4779 33.2117 44.1082 33.7996 44.1191C34.3875 44.1301 34.696 44.4943 34.6996 45.23C34.7069 46.7943 34.7014 48.3587 34.7014 49.923L34.7032 49.9212Z" fill="white"/>
<path d="M27.2947 51.1595C27.2947 49.9575 27.2875 48.7556 27.2984 47.5519C27.3056 46.8143 27.6177 46.4464 28.2002 46.441C28.7918 46.4355 29.1238 46.8034 29.1256 47.5264C29.1329 49.9084 29.1347 52.2904 29.1256 54.6724C29.122 55.3917 28.7192 55.8634 28.1748 55.8434C27.6177 55.8233 27.302 55.4282 27.2966 54.6961C27.2875 53.516 27.2947 52.3359 27.2947 51.1577V51.1595Z" fill="white"/>
<path d="M21.6051 52.5782C21.6051 51.8315 21.6051 51.0831 21.6051 50.3364C21.6051 49.7427 21.9081 49.3931 22.4906 49.3403C23.0041 49.2929 23.4196 49.6881 23.4287 50.2763C23.4523 51.7933 23.4559 53.3103 23.4287 54.8273C23.416 55.4574 22.9732 55.8708 22.467 55.8435C21.9353 55.8143 21.6141 55.4173 21.6051 54.7526C21.596 54.0278 21.6032 53.303 21.6051 52.5782Z" fill="white"/>
</svg>
