<svg width="66" height="64" viewBox="0 0 66 64" fill="none" xmlns="http://www.w3.org/2000/svg">
<path d="M11.4373 45.8367C9.79498 44.1165 8.36625 42.1342 7.2399 39.9311C0.865451 27.4664 7.30227 11.7972 20.654 7.30105C34.106 2.77119 48.1872 10.3409 51.6192 23.9549C51.7836 24.61 51.9064 25.2783 51.999 25.9465C52.0992 26.6559 51.7836 27.1202 51.2072 27.2156C50.6213 27.313 50.1394 26.918 50.0279 26.1917C49.7029 24.0765 49.1132 22.0362 48.1192 20.1419C44.3489 12.9484 38.4205 8.73489 30.2393 8.03295C18.6149 7.03525 8.50232 15.2208 6.89595 26.7083C5.30281 38.1098 13.4783 48.9927 24.978 50.7803C36.7083 52.6035 47.5106 45.161 49.8805 33.6211C50.0468 32.8143 50.3851 32.4849 51.0031 32.5279C51.6664 32.5747 52.0009 33.0539 51.8554 33.8476C51.364 36.5355 50.404 39.0569 49.0036 41.408C41.5236 53.9624 24.67 56.8713 13.3365 47.5701C13.2288 47.4802 13.1192 47.3941 13.0644 47.3492C12.1573 48.2477 11.2634 49.1349 10.2769 50.1158C10.7493 50.5631 11.322 51.0723 11.8549 51.6189C12.454 52.2328 12.4445 52.8505 11.8322 53.4589C10.4337 54.8459 9.0277 56.2292 7.59708 57.5844C7.36274 57.8053 6.96399 58.0224 6.67862 57.9813C6.37057 57.9363 5.94725 57.6331 5.86787 57.3598C5.78094 57.0547 5.9189 56.5568 6.14568 56.3153C7.19266 55.2091 8.30578 54.1646 9.39433 53.0958C9.55875 52.9329 9.7156 52.7626 9.85356 52.6222C8.72343 51.529 7.62165 50.4621 6.46318 49.3408C5.44266 50.3292 4.33332 51.4017 3.22587 52.4762C3.05767 52.639 2.89704 52.8112 2.71939 52.9647C2.22614 53.3878 1.6384 53.4027 1.27555 52.9703C0.886239 52.5042 0.927816 52.0194 1.34925 51.587C1.8236 51.1004 2.31685 50.6305 2.80254 50.1551C3.75881 49.221 4.71129 48.2795 5.67511 47.3548C6.30443 46.7521 6.90729 46.7427 7.53283 47.338C7.95427 47.7385 8.33223 48.1822 8.70075 48.5752C9.66458 47.6112 10.5396 46.7371 11.441 45.8367H11.4373Z" fill="url(#paint0_linear_282_636)"/>
<path d="M29.7423 48.8242C17.2825 48.7718 8.43613 39.5211 9.00119 28.4698C9.49255 18.884 17.2088 11.0092 26.8602 10.2436C35.3305 9.57162 43.2849 14.343 46.5335 22.0437C46.5695 22.1298 46.6035 22.2159 46.6375 22.3039C46.9229 23.0433 46.783 23.5599 46.2331 23.8033C45.6491 24.0597 45.1275 23.7902 44.8157 23.0433C42.9409 18.5509 39.7377 15.3481 35.2266 13.4651C24.3675 8.93332 12.0873 16.3028 11.0762 27.9344C10.2768 37.1233 16.7968 45.3632 25.9059 46.681C35.2285 48.0287 43.7933 42.05 45.7587 32.848C45.8362 32.483 46.0989 32.0693 46.4031 31.8709C46.6148 31.7324 47.1818 31.8054 47.3462 31.9926C47.5843 32.2659 47.7827 32.7806 47.6826 33.097C47.1307 34.8715 46.7131 36.7396 45.8324 38.3531C42.1208 45.1535 36.2301 48.5509 29.7423 48.8242Z" fill="url(#paint1_linear_282_636)"/>
<path d="M40.8428 36.4344C42.2904 32.818 43.6663 29.3738 45.0515 25.9315C45.4673 24.8983 46.3404 24.4434 47.2211 24.8739C47.5896 25.0536 47.9203 25.4242 48.1282 25.7874C48.544 26.5155 48.886 27.2886 49.213 28.0617C49.4775 28.685 49.9009 28.919 50.5831 28.9152C54.8976 28.8946 59.2121 28.904 63.5248 28.9059C63.7364 28.9059 63.9557 28.8834 64.1598 28.9246C64.6795 29.0275 65.0064 29.3383 65.0064 29.8867C65.0064 30.4352 64.6776 30.7422 64.1598 30.8489C63.9783 30.8863 63.7837 30.8657 63.5947 30.8657C59.2575 30.8657 54.9184 30.8507 50.5812 30.8751C49.0599 30.8825 48.0186 30.2573 47.4346 28.8628C47.2211 28.3518 46.9565 27.8595 46.6617 27.2474C45.8623 29.2391 45.1063 31.1203 44.3504 33.0015C43.7494 34.4952 43.1541 35.9908 42.5513 37.4845C42.1638 38.4429 41.6082 38.8735 40.805 38.8491C39.9886 38.8248 39.4292 38.3662 39.0966 37.4228C37.2181 32.0974 35.3453 26.772 33.4686 21.4466C33.4063 21.2725 33.342 21.0965 33.2362 20.7989C33.0888 21.1134 32.9792 21.3305 32.8828 21.5514C31.044 25.7911 29.2052 30.0327 27.3663 34.2743C27.2926 34.4465 27.2151 34.6169 27.1377 34.7853C26.8202 35.4667 26.2721 35.8392 25.5237 35.8392C24.7735 35.8392 24.2367 35.4648 23.9193 34.7797C22.9479 32.6814 21.9689 30.5868 20.99 28.4922C20.8747 28.2451 20.7462 28.0055 20.5686 27.6574C20.1188 28.3705 19.7125 28.9882 19.3364 29.619C18.7146 30.6598 17.7999 31.1577 16.5866 31.1465C15.7854 31.139 14.9841 31.154 14.1828 31.1427C13.4646 31.1315 13.0526 30.7646 13.0489 30.1694C13.0451 29.5723 13.4571 29.1998 14.1733 29.1885C14.9519 29.1754 15.7305 29.1679 16.5073 29.1904C17.0383 29.2054 17.3974 28.9957 17.6639 28.5465C18.1174 27.7828 18.5956 27.0322 19.0623 26.2759C19.4365 25.6713 19.96 25.3288 20.6952 25.3625C21.4398 25.398 21.899 25.8155 22.1995 26.4575C23.271 28.7655 24.3482 31.0697 25.4859 33.5087C25.6315 33.2055 25.7392 32.9977 25.8318 32.7825C27.7538 28.3481 29.6795 23.9155 31.592 19.4793C31.8793 18.8129 32.278 18.3094 33.0623 18.2438C33.9619 18.1671 34.561 18.5808 34.8993 19.541C36.5907 24.3386 38.2726 29.138 39.9603 33.9355C40.2305 34.7011 40.5008 35.4667 40.8409 36.4288L40.8428 36.4344Z" fill="url(#paint2_linear_282_636)"/>
<defs>
<linearGradient id="paint0_linear_282_636" x1="26.5121" y1="5.98633" x2="26.5121" y2="57.9863" gradientUnits="userSpaceOnUse">
<stop stop-color="#90C43F"/>
<stop offset="1" stop-color="#2C93AE"/>
</linearGradient>
<linearGradient id="paint1_linear_282_636" x1="28.3424" y1="10.1808" x2="28.3424" y2="48.8242" gradientUnits="userSpaceOnUse">
<stop stop-color="#90C43F"/>
<stop offset="1" stop-color="#2C93AE"/>
</linearGradient>
<linearGradient id="paint2_linear_282_636" x1="39.0276" y1="18.2349" x2="39.0276" y2="38.8501" gradientUnits="userSpaceOnUse">
<stop stop-color="#90C43F"/>
<stop offset="1" stop-color="#2C93AE"/>
</linearGradient>
</defs>
</svg>
