<svg width="65" height="64" viewBox="0 0 65 64" fill="none" xmlns="http://www.w3.org/2000/svg">
<path d="M64.9951 24.6276C64.7935 25.835 64.6501 27.0541 64.3801 28.2448C62.3319 37.2812 54.8504 44.2903 45.7223 45.7716C41.5141 46.4546 37.4292 46.0221 33.4676 44.4539C33.0709 44.297 32.8126 44.307 32.506 44.641C31.8743 45.3324 31.201 45.9853 30.5243 46.635C29.0377 48.0645 27.3194 48.4235 25.4178 47.6103C24.9762 47.4215 24.8162 47.652 24.5878 47.8825C19.8013 52.6687 15.0098 57.45 10.2332 62.2462C9.1699 63.3134 7.9366 63.958 6.42331 63.9981C3.90004 64.0649 1.7151 62.3648 1.12845 59.9099C1.09511 59.7729 1.04012 59.641 0.995117 59.5057C0.995117 58.9646 0.995117 58.4219 0.995117 57.8808C1.36677 56.1924 2.48675 55.0218 3.66671 53.8527C8.16493 49.3955 12.6248 44.9015 17.1147 40.4342C17.443 40.1069 17.4964 39.8731 17.323 39.4272C16.633 37.6587 16.928 36.0287 18.2247 34.6259C18.9163 33.8778 19.6463 33.1613 20.3879 32.4599C20.6729 32.1911 20.7129 31.9756 20.5779 31.6049C17.368 22.8741 18.723 14.8964 24.7112 7.79055C27.6428 4.31025 31.426 2.05239 35.8159 0.834956C36.6909 0.592805 37.3575 0.901757 37.5725 1.64157C37.7792 2.353 37.3575 2.98593 36.4775 3.24144C30.671 4.92815 26.3445 8.44352 23.6045 13.8276C17.3914 26.0404 24.8995 40.9436 38.4075 43.2699C49.3989 45.162 59.8903 38.0127 62.0902 27.1309C64.2235 16.5831 57.8653 6.18567 47.4889 3.2548C46.5023 2.97591 46.0739 2.31625 46.3689 1.53135C46.6206 0.865017 47.2472 0.604495 48.0756 0.833287C52.4038 2.02734 56.0804 4.29188 59.0703 7.63357C62.4519 11.4128 64.3901 15.84 64.8834 20.8934C64.9001 21.0554 64.9551 21.2158 64.9934 21.3761V24.6259L64.9951 24.6276ZM19.1063 41.8437C18.978 42.0074 18.8547 42.2044 18.693 42.3664C14.2648 46.802 9.83322 51.2325 5.40167 55.6647C5.00501 56.0622 4.59002 56.4446 4.2167 56.8638C2.80507 58.4469 3.56172 60.8985 5.62 61.4146C6.71497 61.6884 7.61661 61.3244 8.39492 60.5462C13.2065 55.7298 18.0213 50.9152 22.8362 46.1006C22.9345 46.002 23.0229 45.8935 23.0895 45.82C21.7796 44.5124 20.5013 43.2365 19.1063 41.8454V41.8437ZM30.4777 43.0278C26.9044 40.9436 24.0545 38.0912 21.9412 34.474C21.2396 35.1687 20.5413 35.7949 19.9213 36.4913C19.263 37.2295 19.293 38.34 19.9946 39.0531C21.9646 41.0588 23.9512 43.0461 25.9561 45.0151C26.6428 45.6897 27.7594 45.7365 28.4677 45.1036C29.1777 44.469 29.7977 43.7375 30.4777 43.0278Z" fill="url(#paint0_linear_282_687)"/>
<path d="M42.3699 0.00167001C42.5249 0.128591 42.6932 0.243821 42.8349 0.385772C43.3299 0.881765 43.3065 1.68337 42.7949 2.15932C42.2766 2.64029 41.4883 2.60188 41.0216 2.07248C40.5683 1.55812 40.6266 0.733134 41.1566 0.298932C41.2983 0.183701 41.4649 0.0985306 41.6199 0C41.8699 0 42.1199 0 42.3699 0V0.00167001Z" fill="url(#paint1_linear_282_687)"/>
<path d="M58.4583 23.0361C58.4666 32.1243 51.0602 39.5308 41.9604 39.5342C32.8473 39.5375 25.4725 32.1711 25.4658 23.0545C25.4592 13.9563 32.8456 6.54979 41.9437 6.5381C51.0118 6.52474 58.45 13.958 58.4583 23.0378V23.0361ZM41.9504 9.03644C34.2423 9.03978 27.9741 15.314 27.9658 23.0311C27.9574 30.785 34.2356 37.0559 41.9854 37.0341C49.7085 37.0124 55.975 30.7315 55.96 23.0278C55.945 15.3274 49.6419 9.03143 41.9521 9.03644H41.9504Z" fill="url(#paint2_linear_282_687)"/>
<path d="M41.8865 12.2595C44.8298 12.3096 47.3614 13.2983 49.4646 15.329C49.9563 15.8033 50.0546 16.3978 49.7696 16.9122C49.498 17.4015 48.943 17.6653 48.3897 17.4967C48.1247 17.4165 47.8697 17.2395 47.6597 17.0508C44.2348 13.978 39.6399 13.993 36.2067 17.0975C35.575 17.6687 34.8284 17.6954 34.3217 17.166C33.8134 16.6349 33.8684 15.8868 34.485 15.2939C36.56 13.2983 39.0566 12.3313 41.8882 12.2595H41.8865Z" fill="url(#paint3_linear_282_687)"/>
<defs>
<linearGradient id="paint0_linear_282_687" x1="32.9951" y1="0.751953" x2="32.9951" y2="64" gradientUnits="userSpaceOnUse">
<stop stop-color="#87C04A"/>
<stop offset="1" stop-color="#2C93AE"/>
</linearGradient>
<linearGradient id="paint1_linear_282_687" x1="41.9548" y1="0" x2="41.9548" y2="2.49624" gradientUnits="userSpaceOnUse">
<stop stop-color="#87C04A"/>
<stop offset="1" stop-color="#2C93AE"/>
</linearGradient>
<linearGradient id="paint2_linear_282_687" x1="41.9621" y1="6.53809" x2="41.9621" y2="39.5342" gradientUnits="userSpaceOnUse">
<stop stop-color="#87C04A"/>
<stop offset="1" stop-color="#2C93AE"/>
</linearGradient>
<linearGradient id="paint3_linear_282_687" x1="41.9528" y1="12.2595" x2="41.9528" y2="17.5477" gradientUnits="userSpaceOnUse">
<stop stop-color="#87C04A"/>
<stop offset="1" stop-color="#2C93AE"/>
</linearGradient>
</defs>
</svg>
