<svg width="64" height="64" viewBox="0 0 64 64" fill="none" xmlns="http://www.w3.org/2000/svg">
<path d="M12.2034 47.3749C11.88 47.3749 11.6478 47.3749 11.4157 47.3749C8.94933 47.3749 6.48129 47.3921 4.01497 47.3646C2.35527 47.3456 1.10663 46.0962 1.01548 44.435C1.00516 44.242 1.01032 44.0489 1.01032 43.8542C1.01032 33.9453 1.01376 24.0364 1 14.1258C1 13.4606 1.17887 12.9453 1.62604 12.4421C5.07958 8.56129 8.51764 4.66322 11.9385 0.74963C12.4046 0.217134 12.9016 0 13.6068 0C21.6094 0.0189562 29.6104 0.012063 37.613 0.012063C39.8213 0.012063 41.0287 1.22526 41.0304 3.44485C41.0304 4.77178 41.0304 6.09871 41.0304 7.48941C41.3245 7.48941 41.555 7.48941 41.7837 7.48941C44.1658 7.48941 46.5461 7.48596 48.9282 7.48941C50.9594 7.49285 52.2217 8.74913 52.2235 10.7843C52.2269 18.5012 52.2217 26.2181 52.2372 33.935C52.2372 34.2951 52.3542 34.6984 52.5399 35.0086C55.1163 39.3185 55.4139 43.7818 53.4635 48.3934C53.2829 48.8225 53.3122 49.0568 53.6389 49.3791C55.9883 51.7055 58.336 54.0371 60.6492 56.3997C62.7475 58.5435 62.3433 61.866 59.8391 63.3756C58.102 64.4217 55.935 64.1408 54.4094 62.6277C52.0773 60.3133 49.7571 57.9869 47.4525 55.6467C47.1154 55.3037 46.8781 55.2538 46.4223 55.4537C42.2825 57.2614 38.1823 57.1339 34.1337 55.1245C33.8052 54.9608 33.4062 54.8643 33.0381 54.8626C27.2455 54.8471 21.4529 54.8522 15.6621 54.8505C13.3987 54.8505 12.2085 53.6597 12.2068 51.397C12.2068 50.0873 12.2068 48.7794 12.2068 47.3766L12.2034 47.3749ZM14.2879 22.0512C14.2758 22.2494 14.2638 22.3528 14.2638 22.4579C14.2638 32.1738 14.2621 41.8897 14.2638 51.6056C14.2638 52.4534 14.6181 52.7843 15.5055 52.7843C20.4176 52.7877 25.3313 52.786 30.2433 52.7843C30.3964 52.7843 30.5477 52.7498 30.7524 52.7257C25.376 47.2594 25.3846 39.3289 29.3421 34.1039C31.356 31.4431 33.9703 29.644 37.2209 28.872C42.0348 27.7294 46.3225 28.8857 50.1613 32.1324C50.1613 31.8084 50.1613 31.6189 50.1613 31.4276C50.1613 24.6137 50.1613 17.7998 50.1613 10.986C50.1613 9.83825 49.8724 9.55218 48.7097 9.55218C41.1577 9.55218 33.6074 9.55218 26.0553 9.55218H25.3003C25.3003 9.84859 25.3003 10.0795 25.3003 10.3087C25.3003 12.5438 25.3106 14.7789 25.2917 17.0157C25.2883 17.5276 25.247 18.0532 25.1197 18.546C24.5831 20.6502 22.7704 22.0271 20.5156 22.0495C18.4586 22.0701 16.4033 22.0529 14.2844 22.0529L14.2879 22.0512ZM12.2034 45.3104C12.2034 44.9795 12.2034 44.7469 12.2034 44.5125C12.2034 36.837 12.2085 29.1632 12.1948 21.4877C12.1948 20.8897 12.365 20.4278 12.7623 19.9798C16.2417 16.061 19.7072 12.1302 23.1608 8.18734C23.5925 7.69448 24.0517 7.47217 24.7156 7.47562C29.2217 7.49802 33.7278 7.48768 38.2322 7.48768H38.97C38.97 6.10216 38.97 4.79591 38.97 3.48793C38.97 2.37124 38.6742 2.07484 37.5649 2.07484C29.9905 2.07484 22.4161 2.07484 14.8434 2.07484H14.1124C14.1124 2.38848 14.1124 2.62112 14.1124 2.85376C14.1124 5.11127 14.1193 7.36878 14.1124 9.62628C14.1021 12.5714 12.1174 14.5652 9.18151 14.5756C7.37907 14.5825 5.57663 14.5756 3.77418 14.579C3.54888 14.579 3.32357 14.598 3.07075 14.61C3.07075 14.8565 3.07075 15.0271 3.07075 15.1977C3.07075 24.786 3.07075 34.3744 3.07075 43.9628C3.07075 44.0265 3.07075 44.092 3.07075 44.1558C3.09655 44.9502 3.4302 45.2949 4.21447 45.3087C4.92307 45.3207 5.62994 45.3121 6.33854 45.3121C8.26653 45.3121 10.1928 45.3121 12.2034 45.3121V45.3104ZM40.6194 54.661C47.265 54.6696 52.6345 49.3067 52.6689 42.6238C52.7033 35.9426 47.3149 30.5125 40.64 30.497C33.9944 30.4832 28.5647 35.9305 28.5733 42.6014C28.5819 49.2464 33.9806 54.6506 40.6194 54.6592V54.661ZM49.1345 54.3887C51.2638 56.5324 53.6235 58.9347 56.0175 61.3025C56.6831 61.9608 57.5414 62.0694 58.4151 61.7574C59.2785 61.4507 59.7738 60.7993 59.9097 59.8997C60.0386 59.0484 59.705 58.3574 59.1047 57.7611C56.8998 55.5657 54.7053 53.3581 52.5073 51.1575C52.392 51.0438 52.2665 50.9404 52.1461 50.8318C52.22 50.93 52.294 51.0265 52.3662 51.1248C51.2999 52.2018 50.2353 53.2772 49.1345 54.3887ZM23.2433 11.453C23.1917 11.4375 23.1384 11.4219 23.0868 11.4064C20.5981 14.2275 18.1112 17.0485 15.5417 19.9608C17.437 19.9608 19.1896 20.0315 20.9335 19.9367C22.1908 19.8678 23.0748 18.8752 23.2158 17.6086C23.2708 17.1209 23.2433 16.6211 23.2433 16.1282C23.2468 14.5687 23.2433 13.0108 23.2433 11.4512V11.453ZM12.0469 3.9963C12.0021 3.97045 11.9574 3.9446 11.9127 3.92048C9.41542 6.75012 6.91986 9.57976 4.33659 12.5076C6.19579 12.5076 7.88988 12.5507 9.57881 12.4938C10.9478 12.449 12.0039 11.3651 12.0348 9.983C12.0812 7.98916 12.0469 5.99187 12.0469 3.9963Z" fill="url(#paint0_linear_282_672)"/>
<path d="M36.2404 22.6716C39.2657 22.6716 42.2909 22.6716 45.3162 22.6716C45.5519 22.6716 45.7926 22.6647 46.0214 22.7061C46.4978 22.7939 46.7764 23.1041 46.828 23.5832C46.883 24.0933 46.656 24.4759 46.1745 24.6396C45.9182 24.7275 45.6258 24.7292 45.3506 24.7292C39.2794 24.7344 33.2065 24.7326 27.1353 24.7326C26.9856 24.7326 26.8343 24.7395 26.6847 24.7257C26.0328 24.6654 25.6114 24.2277 25.639 23.6487C25.6665 23.0921 26.0775 22.694 26.7139 22.6802C27.7854 22.6578 28.8586 22.6699 29.9318 22.6699C32.0335 22.6699 34.1369 22.6699 36.2386 22.6699L36.2404 22.6716Z" fill="url(#paint1_linear_282_672)"/>
<path d="M38.0053 19.7471C35.3894 19.7471 32.7734 19.7677 30.1592 19.7229C29.798 19.716 29.3371 19.4541 29.1169 19.1611C28.957 18.9509 28.9982 18.4046 29.1702 18.1737C29.3629 17.9135 29.8049 17.7067 30.1385 17.705C35.3911 17.6757 40.6436 17.6826 45.8979 17.6877C46.6512 17.6877 47.1018 18.1013 47.088 18.7372C47.0743 19.3679 46.6271 19.7453 45.8549 19.7453C43.2389 19.7505 40.623 19.7471 38.007 19.7471H38.0053Z" fill="url(#paint2_linear_282_672)"/>
<path d="M37.9772 14.7497C35.4696 14.7497 32.962 14.7497 30.4526 14.7497C30.2394 14.7497 30.021 14.7583 29.8111 14.7256C29.2952 14.6446 29.0097 14.3017 28.9684 13.8088C28.9271 13.3108 29.1696 12.9248 29.6615 12.7766C29.9212 12.6973 30.2101 12.6904 30.4853 12.6904C35.4163 12.6852 40.3455 12.687 45.2764 12.6904C45.598 12.6904 45.9248 12.6766 46.2378 12.7369C46.7933 12.8438 47.1081 13.2091 47.0788 13.783C47.0496 14.3516 46.7159 14.6877 46.1432 14.7428C45.8663 14.7687 45.586 14.7532 45.3091 14.7532C42.8651 14.7532 40.4211 14.7532 37.9789 14.7532L37.9772 14.7497Z" fill="url(#paint3_linear_282_672)"/>
<path d="M23.0624 29.7026C21.4337 29.7026 19.8049 29.7078 18.1762 29.7009C17.3902 29.6974 16.9568 29.3338 16.9465 28.6997C16.9361 28.0396 17.3885 27.645 18.2003 27.6433C21.4801 27.6381 24.7582 27.6381 28.038 27.6433C28.8533 27.6433 29.3606 28.1051 29.3073 28.7565C29.2609 29.3355 28.8361 29.6957 28.1412 29.6992C26.4489 29.7095 24.7548 29.7026 23.0624 29.7026Z" fill="url(#paint4_linear_282_672)"/>
<path d="M21.2725 32.6374C22.2804 32.6374 23.2882 32.6305 24.2944 32.6391C25.027 32.646 25.4536 33.0165 25.4708 33.63C25.488 34.2762 25.0494 34.6933 24.2978 34.6967C22.2408 34.707 20.1821 34.707 18.1251 34.6967C17.3718 34.6933 16.9315 34.2779 16.9487 33.6334C16.9642 33.0182 17.3907 32.646 18.1217 32.6408C19.1725 32.6322 20.2217 32.6391 21.2725 32.6391V32.6374Z" fill="url(#paint5_linear_282_672)"/>
<path d="M21.2241 47.5955C22.2526 47.5955 23.2811 47.5886 24.3096 47.5972C25.0388 47.6024 25.4637 47.9781 25.4723 48.595C25.4809 49.2137 25.0595 49.6428 24.3474 49.6497C22.2475 49.6669 20.1475 49.6669 18.0475 49.6497C17.3458 49.6428 16.9261 49.1895 16.9502 48.5692C16.9726 47.9764 17.3888 47.6058 18.075 47.5989C19.1241 47.5886 20.175 47.5955 21.2258 47.5955H21.2241Z" fill="url(#paint6_linear_282_672)"/>
<path d="M20.5038 37.6246C21.2949 37.6246 22.0861 37.6108 22.8755 37.628C23.5789 37.6436 24.0295 38.0658 24.0227 38.6569C24.0158 39.2238 23.5841 39.6615 22.9202 39.6719C21.2966 39.696 19.6713 39.696 18.0478 39.6719C17.334 39.6615 16.9264 39.2255 16.947 38.6052C16.9677 38.0158 17.3736 37.6436 18.0667 37.628C18.8785 37.6091 19.6903 37.6246 20.5038 37.6229V37.6246Z" fill="url(#paint7_linear_282_672)"/>
<path d="M19.7334 44.6521C19.1761 44.6521 18.6189 44.6625 18.0634 44.6504C17.384 44.6349 16.9678 44.2575 16.9489 43.6647C16.93 43.0667 17.3359 42.6152 17.9911 42.6014C19.1693 42.5756 20.3474 42.5756 21.5255 42.6014C22.1447 42.6169 22.5437 43.0564 22.5454 43.6233C22.5471 44.2161 22.124 44.6297 21.4687 44.647C20.8909 44.6625 20.313 44.6504 19.7334 44.6504V44.6521Z" fill="url(#paint8_linear_282_672)"/>
<path d="M31.7696 42.5325C31.7868 37.6624 35.7683 33.6937 40.6339 33.6954C45.5218 33.6972 49.5188 37.7107 49.5051 42.6014C49.4896 47.5041 45.4909 51.4867 40.5995 51.4694C35.7064 51.4539 31.7541 47.4524 31.7696 42.5325ZM33.83 42.6048C33.8403 46.3478 36.9017 49.4066 40.639 49.4049C44.3712 49.4032 47.4361 46.334 47.4429 42.5928C47.4498 38.8308 44.3454 35.7341 40.5943 35.7599C36.857 35.7858 33.8197 38.8584 33.83 42.6048Z" fill="url(#paint9_linear_282_672)"/>
<defs>
<linearGradient id="paint0_linear_282_672" x1="31.5" y1="0" x2="31.5" y2="64" gradientUnits="userSpaceOnUse">
<stop stop-color="#87C049"/>
<stop offset="1" stop-color="#2C93AE"/>
</linearGradient>
<linearGradient id="paint1_linear_282_672" x1="36.2369" y1="22.6666" x2="36.2369" y2="24.7344" gradientUnits="userSpaceOnUse">
<stop stop-color="#87C049"/>
<stop offset="1" stop-color="#2C93AE"/>
</linearGradient>
<linearGradient id="paint2_linear_282_672" x1="38.0525" y1="17.6831" x2="38.0525" y2="19.7518" gradientUnits="userSpaceOnUse">
<stop stop-color="#87C049"/>
<stop offset="1" stop-color="#2C93AE"/>
</linearGradient>
<linearGradient id="paint3_linear_282_672" x1="38.0223" y1="12.6871" x2="38.0223" y2="14.7578" gradientUnits="userSpaceOnUse">
<stop stop-color="#87C049"/>
<stop offset="1" stop-color="#2C93AE"/>
</linearGradient>
<linearGradient id="paint4_linear_282_672" x1="23.1287" y1="27.6394" x2="23.1287" y2="29.7049" gradientUnits="userSpaceOnUse">
<stop stop-color="#87C049"/>
<stop offset="1" stop-color="#2C93AE"/>
</linearGradient>
<linearGradient id="paint5_linear_282_672" x1="21.2098" y1="32.6348" x2="21.2098" y2="34.7045" gradientUnits="userSpaceOnUse">
<stop stop-color="#87C049"/>
<stop offset="1" stop-color="#2C93AE"/>
</linearGradient>
<linearGradient id="paint6_linear_282_672" x1="21.2108" y1="47.5929" x2="21.2108" y2="49.6626" gradientUnits="userSpaceOnUse">
<stop stop-color="#87C049"/>
<stop offset="1" stop-color="#2C93AE"/>
</linearGradient>
<linearGradient id="paint7_linear_282_672" x1="20.4845" y1="37.6185" x2="20.4845" y2="39.69" gradientUnits="userSpaceOnUse">
<stop stop-color="#87C049"/>
<stop offset="1" stop-color="#2C93AE"/>
</linearGradient>
<linearGradient id="paint8_linear_282_672" x1="19.7468" y1="42.582" x2="19.7468" y2="44.6563" gradientUnits="userSpaceOnUse">
<stop stop-color="#87C049"/>
<stop offset="1" stop-color="#2C93AE"/>
</linearGradient>
<linearGradient id="paint9_linear_282_672" x1="40.6373" y1="33.6954" x2="40.6373" y2="51.4695" gradientUnits="userSpaceOnUse">
<stop stop-color="#87C049"/>
<stop offset="1" stop-color="#2C93AE"/>
</linearGradient>
</defs>
</svg>
