<svg width="51" height="64" viewBox="0 0 51 64" fill="none" xmlns="http://www.w3.org/2000/svg">
<path d="M13.3288 5.2737C13.4161 3.78811 13.6197 3.59508 15.0007 3.59508C16.409 3.59508 17.8191 3.58302 19.2275 3.6037C19.5748 3.60887 19.7374 3.49512 19.9 3.17974C20.9712 1.11162 22.6893 0.00345489 24.9995 8.02895e-06C27.3114 -0.00343883 29.0329 1.103 30.1024 3.17284C30.2838 3.52442 30.484 3.60715 30.8365 3.60198C32.1593 3.58647 33.4838 3.59508 34.8066 3.59508C36.4169 3.59508 36.5093 3.67264 36.7112 5.2737C36.9337 5.2737 37.163 5.2737 37.394 5.2737C40.2757 5.2737 43.1575 5.27026 46.0392 5.2737C48.3904 5.27715 49.999 6.86443 50.0007 9.22553C50.0076 26.1737 50.0076 43.1202 50.0007 60.0684C50.0007 62.3882 48.3853 63.9961 46.0786 63.9961C32.0327 64.0013 17.9868 64.0013 3.94265 63.9961C1.63247 63.9961 0.0136394 62.3899 0.0119281 60.077C0.00508315 43.1099 0.00337191 26.141 0.0102169 9.1721C0.0102169 6.89545 1.63761 5.28232 3.89645 5.27715C6.79871 5.27026 9.70269 5.27543 12.605 5.27543C12.836 5.27543 13.067 5.27543 13.3271 5.27543L13.3288 5.2737ZM36.6787 11.2368C36.5931 12.6741 36.3707 12.8826 34.9966 12.8826C28.5281 12.8826 22.0596 12.8826 15.5894 12.8826C15.2043 12.8826 14.8193 12.8964 14.436 12.8775C13.7908 12.8447 13.4212 12.4742 13.363 11.8262C13.3459 11.6383 13.3425 11.4505 13.3322 11.2575H5.92769V58.0158H44.0815V11.2368H36.677H36.6787ZM36.6787 9.14108C36.9765 9.14108 37.2075 9.14108 37.4402 9.14108C39.8958 9.14108 42.3498 9.14108 44.8054 9.14108C45.8595 9.14108 46.1607 9.45302 46.1675 10.5319C46.1693 10.9627 46.1675 11.3919 46.1675 11.8227C46.1675 27.437 46.1675 43.053 46.1675 58.6673C46.1675 59.791 45.8732 60.1305 44.8773 60.1305C31.6203 60.1322 18.3633 60.1322 5.10801 60.1305C4.18565 60.1305 3.84511 59.7841 3.84511 58.8345C3.8434 42.7032 3.8434 26.5718 3.84511 10.4405C3.84511 9.46508 4.18051 9.1428 5.16619 9.14108C7.6646 9.13936 10.1613 9.14108 12.6597 9.14108C12.8839 9.14108 13.1081 9.14108 13.322 9.14108V7.33837C13.0961 7.33837 12.9096 7.33837 12.7213 7.33837C9.83959 7.33837 6.95786 7.33665 4.07613 7.33837C2.72082 7.33837 2.06028 7.98983 2.06028 9.341C2.05857 26.203 2.05857 43.0651 2.06028 59.9288C2.06028 61.2748 2.72596 61.9332 4.07784 61.9332C18.0382 61.9349 32.0002 61.9349 45.9605 61.9332C47.297 61.9332 47.9541 61.2645 47.9541 59.9047C47.9558 43.0633 47.9558 26.2237 47.9541 9.38236C47.9541 7.9881 47.3021 7.34182 45.9126 7.3401C43.0308 7.33837 40.1491 7.3401 37.2674 7.3401C37.0809 7.3401 36.8943 7.35733 36.6821 7.36767V9.14108H36.6787ZM34.5551 10.7852V5.65975C32.9328 5.65975 31.355 5.65286 29.779 5.6632C29.1424 5.66837 28.7471 5.4133 28.5366 4.78425C27.948 3.02463 26.6611 2.04572 24.9995 2.04744C23.3396 2.04744 22.0596 3.02807 21.4675 4.79114C21.2673 5.38573 20.8976 5.6632 20.285 5.66147C18.8972 5.6563 17.5094 5.66147 16.1216 5.66147C15.8957 5.66147 15.6715 5.66147 15.4439 5.66147V10.787H34.5551V10.7852Z" fill="url(#paint0_linear_282_659)"/>
<path d="M13.1546 35.8714C12.4068 35.1476 11.7411 34.5168 11.0909 33.8705C10.509 33.2915 10.4372 32.6952 10.8718 32.2333C11.3339 31.7421 11.9328 31.7973 12.5386 32.416C13.1803 33.0709 13.8015 33.7447 14.498 34.4789C15.2646 33.693 15.9457 32.9916 16.6319 32.2953C17.0391 31.8817 17.5063 31.7611 18.0146 32.0989C18.5758 32.4711 18.6289 33.1743 18.1104 33.7103C17.4276 34.4169 16.7106 35.0907 15.9303 35.8542C16.6712 36.5918 17.4002 37.2467 18.0334 37.9844C18.2729 38.2653 18.4475 38.772 18.3773 39.1184C18.2165 39.906 17.2839 40.0801 16.6558 39.47C15.9525 38.7858 15.2868 38.0619 14.5459 37.295C13.8032 38.0499 13.1153 38.7461 12.4273 39.4441C12.0201 39.8577 11.5615 39.9922 11.0464 39.6613C10.4954 39.3062 10.4303 38.5686 10.9334 38.0464C11.6162 37.3398 12.3367 36.6677 13.1512 35.8714H13.1546Z" fill="url(#paint1_linear_282_659)"/>
<path d="M31.2811 19.4489C33.7555 19.4489 36.23 19.4489 38.7045 19.4489C38.9184 19.4489 39.134 19.4369 39.3428 19.4713C39.851 19.5558 40.1385 19.8884 40.183 20.3865C40.2257 20.8587 40.0136 21.2361 39.5618 21.4033C39.3291 21.4895 39.0621 21.5084 38.8106 21.5084C33.8189 21.5136 28.8289 21.5119 23.8372 21.5119C23.7516 21.5119 23.6661 21.5153 23.5805 21.5102C22.9046 21.4671 22.4425 21.0138 22.4699 20.4279C22.4973 19.8505 22.9285 19.4558 23.6027 19.4524C26.1628 19.4438 28.7211 19.4489 31.2811 19.4472V19.4489Z" fill="url(#paint2_linear_282_659)"/>
<path d="M31.3826 24.2314C33.9204 24.2314 36.4599 24.2262 38.9976 24.2348C39.9234 24.2383 40.4573 24.969 40.0877 25.7066C39.8447 26.1909 39.4066 26.2995 38.9018 26.2995C35.7018 26.2926 32.5017 26.2961 29.3034 26.2961C27.4262 26.2961 25.549 26.3064 23.6717 26.2909C22.7288 26.284 22.1898 25.4843 22.6108 24.7484C22.8692 24.2969 23.2936 24.2262 23.7676 24.2279C26.3053 24.2366 28.8448 24.2314 31.3826 24.2314Z" fill="url(#paint3_linear_282_659)"/>
<path d="M31.3105 37.2416C33.8277 37.2416 36.3433 37.2312 38.8605 37.2536C39.201 37.2571 39.6083 37.3398 39.8633 37.5415C40.4691 38.024 40.2261 39.0081 39.4748 39.2287C39.2353 39.2994 38.97 39.3011 38.715 39.3011C33.7884 39.3045 28.8617 39.3045 23.935 39.3028C23.7434 39.3028 23.5483 39.3062 23.3618 39.2735C22.7988 39.177 22.4993 38.8151 22.4736 38.2567C22.4497 37.7276 22.8672 37.2778 23.4405 37.2605C24.5271 37.2278 25.6155 37.2416 26.7038 37.2399C28.2388 37.2381 29.7755 37.2399 31.3105 37.2399V37.2416Z" fill="url(#paint4_linear_282_659)"/>
<path d="M31.2932 47.5114C28.8615 47.5114 26.4299 47.5114 23.9982 47.5114C23.7843 47.5114 23.5704 47.5201 23.3599 47.4925C22.814 47.4218 22.5145 47.0685 22.482 46.5446C22.4512 46.0483 22.7011 45.6674 23.1956 45.5278C23.4369 45.4588 23.7004 45.4502 23.9537 45.4502C28.8804 45.4468 33.807 45.4468 38.7354 45.4468C38.7987 45.4468 38.8638 45.4468 38.9271 45.4468C39.7262 45.4675 40.2037 45.8638 40.1985 46.4981C40.1934 47.1357 39.7296 47.5063 38.9082 47.508C36.3705 47.5114 33.8327 47.508 31.2932 47.508V47.5114Z" fill="url(#paint5_linear_282_659)"/>
<path d="M31.2894 52.2975C28.8577 52.2975 26.426 52.2975 23.9961 52.2975C23.7839 52.2975 23.5682 52.3044 23.3578 52.2768C22.8119 52.2044 22.5107 51.8494 22.4833 51.3272C22.4559 50.8016 22.7297 50.4207 23.2602 50.2949C23.4844 50.2415 23.7257 50.2363 23.9584 50.2363C28.8851 50.2328 33.8117 50.2346 38.7384 50.2346C38.8017 50.2346 38.8667 50.2346 38.9301 50.2346C39.7326 50.2587 40.2084 50.6534 40.1998 51.2876C40.1912 51.9252 39.7292 52.2941 38.9044 52.2958C36.3666 52.301 33.8288 52.2958 31.2911 52.2975H31.2894Z" fill="url(#paint6_linear_282_659)"/>
<path d="M31.3481 34.5151C28.8959 34.5151 26.4437 34.5151 23.9897 34.5134C23.7348 34.5134 23.473 34.5134 23.2282 34.4548C22.7269 34.3325 22.4702 33.9585 22.4787 33.4638C22.489 32.9709 22.7542 32.6107 23.2625 32.4987C23.4268 32.4625 23.6013 32.4556 23.7707 32.4556C28.8035 32.4539 33.8362 32.4539 38.8707 32.4556C39.0624 32.4556 39.2592 32.4608 39.4423 32.5056C39.9146 32.6245 40.1695 32.9675 40.1867 33.4363C40.2055 33.9343 39.9659 34.3152 39.4679 34.4479C39.2249 34.5134 38.9614 34.5134 38.7081 34.5134C36.2559 34.5186 33.8037 34.5169 31.3498 34.5169L31.3481 34.5151Z" fill="url(#paint7_linear_282_659)"/>
<path d="M12.9826 49.8864C14.3636 48.6231 15.6556 47.4408 16.9476 46.2585C17.1375 46.0862 17.3206 45.9052 17.5208 45.745C18.0154 45.3537 18.5681 45.3761 18.9566 45.7915C19.3604 46.2241 19.3365 46.8083 18.8693 47.2788C18.5219 47.6269 18.1489 47.9475 17.7861 48.2784C16.4941 49.4624 15.2038 50.6498 13.9067 51.8287C13.188 52.4818 12.7277 52.4663 12.0397 51.7787C11.434 51.1738 10.8282 50.5706 10.2344 49.957C9.70731 49.4124 9.6748 48.8109 10.1266 48.3697C10.5458 47.9613 11.1619 47.9923 11.6598 48.4835C12.0996 48.9178 12.5103 49.3831 12.9826 49.8864Z" fill="url(#paint8_linear_282_659)"/>
<path d="M12.9413 24.0143C14.4437 22.6424 15.8315 21.3757 17.2194 20.1107C17.3614 19.9814 17.4966 19.8367 17.6592 19.7402C18.1143 19.4679 18.5661 19.4885 18.9409 19.8798C19.3345 20.2917 19.3618 20.7708 19.0042 21.2154C18.7783 21.4963 18.4925 21.729 18.2256 21.9737C16.7916 23.2887 15.3575 24.602 13.9201 25.9118C13.1928 26.5753 12.741 26.5684 12.0583 25.8894C11.4371 25.2706 10.8159 24.6519 10.2084 24.0212C9.70872 23.5024 9.68305 22.9164 10.1126 22.4821C10.5387 22.0513 11.1393 22.0651 11.6373 22.5666C12.0873 23.0199 12.4946 23.5145 12.943 24.016L12.9413 24.0143Z" fill="url(#paint9_linear_282_659)"/>
<path d="M24.9539 6.13371C24.295 6.10269 23.744 5.50983 23.7663 4.85148C23.7885 4.16211 24.4131 3.58993 25.0856 3.64336C25.7496 3.69506 26.2801 4.29654 26.239 4.95316C26.1979 5.62185 25.6059 6.16646 24.9539 6.13371Z" fill="url(#paint10_linear_282_659)"/>
<defs>
<linearGradient id="paint0_linear_282_659" x1="25.0059" y1="0" x2="25.0059" y2="64" gradientUnits="userSpaceOnUse">
<stop stop-color="#90C43F"/>
<stop offset="1" stop-color="#2C93AE"/>
</linearGradient>
<linearGradient id="paint1_linear_282_659" x1="14.5306" y1="31.903" x2="14.5306" y2="39.8472" gradientUnits="userSpaceOnUse">
<stop stop-color="#90C43F"/>
<stop offset="1" stop-color="#2C93AE"/>
</linearGradient>
<linearGradient id="paint2_linear_282_659" x1="31.3286" y1="19.4469" x2="31.3286" y2="21.513" gradientUnits="userSpaceOnUse">
<stop stop-color="#90C43F"/>
<stop offset="1" stop-color="#2C93AE"/>
</linearGradient>
<linearGradient id="paint3_linear_282_659" x1="31.3359" y1="24.2279" x2="31.3359" y2="26.2995" gradientUnits="userSpaceOnUse">
<stop stop-color="#90C43F"/>
<stop offset="1" stop-color="#2C93AE"/>
</linearGradient>
<linearGradient id="paint4_linear_282_659" x1="31.3388" y1="37.2384" x2="31.3388" y2="39.3039" gradientUnits="userSpaceOnUse">
<stop stop-color="#90C43F"/>
<stop offset="1" stop-color="#2C93AE"/>
</linearGradient>
<linearGradient id="paint5_linear_282_659" x1="31.339" y1="45.4468" x2="31.339" y2="47.5127" gradientUnits="userSpaceOnUse">
<stop stop-color="#90C43F"/>
<stop offset="1" stop-color="#2C93AE"/>
</linearGradient>
<linearGradient id="paint6_linear_282_659" x1="31.3407" y1="50.2341" x2="31.3407" y2="52.2983" gradientUnits="userSpaceOnUse">
<stop stop-color="#90C43F"/>
<stop offset="1" stop-color="#2C93AE"/>
</linearGradient>
<linearGradient id="paint7_linear_282_659" x1="31.3331" y1="32.4543" x2="31.3331" y2="34.5171" gradientUnits="userSpaceOnUse">
<stop stop-color="#90C43F"/>
<stop offset="1" stop-color="#2C93AE"/>
</linearGradient>
<linearGradient id="paint8_linear_282_659" x1="14.5262" y1="45.4652" x2="14.5262" y2="52.3068" gradientUnits="userSpaceOnUse">
<stop stop-color="#90C43F"/>
<stop offset="1" stop-color="#2C93AE"/>
</linearGradient>
<linearGradient id="paint9_linear_282_659" x1="14.5329" y1="19.5575" x2="14.5329" y2="26.4041" gradientUnits="userSpaceOnUse">
<stop stop-color="#90C43F"/>
<stop offset="1" stop-color="#2C93AE"/>
</linearGradient>
<linearGradient id="paint10_linear_282_659" x1="25.0034" y1="3.63989" x2="25.0034" y2="6.13511" gradientUnits="userSpaceOnUse">
<stop stop-color="#90C43F"/>
<stop offset="1" stop-color="#2C93AE"/>
</linearGradient>
</defs>
</svg>
