<svg width="55" height="65" viewBox="0 0 55 65" fill="none" xmlns="http://www.w3.org/2000/svg">
<path d="M2.46854 64.9925C1.80475 64.5768 1.63007 63.9691 1.6151 63.2011C1.54689 59.6886 2.20569 56.373 4.08725 53.3613C5.86235 50.5232 8.28625 48.4113 11.2275 46.8454C14.059 45.3395 16.9887 44.0974 20.0797 43.2527C20.4657 43.1475 20.6637 42.9872 20.5938 42.5749C20.5871 42.5348 20.5888 42.4914 20.5938 42.4497C20.7186 41.5482 20.3975 40.8971 19.762 40.2009C17.8388 38.094 16.5295 35.5815 15.4399 32.9554C15.2918 32.5998 15.1138 32.3878 14.7328 32.2793C14.0391 32.0823 13.5566 31.5998 13.2256 30.9654C12.1292 28.8652 11.0213 26.7717 9.94323 24.6615C8.74541 22.3142 9.79184 19.8801 12.3006 19.1055C12.3971 19.0755 12.4902 19.032 12.4786 19.0371C12.4137 17.4945 12.2407 16.002 12.3106 14.5211C12.6134 8.06531 17.754 2.30565 24.1207 1.27225C25.2353 1.09195 26.3915 1.0452 27.5195 1.09695C28.6457 1.14871 29.614 1.71633 30.4308 2.4776C30.4924 2.4726 30.5473 2.48595 30.5706 2.46425C32.5386 0.714647 34.7995 0.739689 37.1303 1.44086C41.0747 2.62619 43.8596 6.13875 44.0792 10.2673C44.2356 13.1806 44.1807 16.0921 43.3489 18.8618C43.9594 19.189 44.57 19.4227 45.0724 19.8C46.5597 20.9152 46.9806 22.8384 46.1338 24.4912C45.0342 26.6365 43.9112 28.77 42.7966 30.907C42.4455 31.5814 41.9182 32.0372 41.1995 32.311C40.9549 32.4045 40.6954 32.6582 40.5939 32.902C39.7089 35.0222 38.6242 37.0272 37.2999 38.902C36.9888 39.3428 36.701 39.842 36.2851 40.1592C35.4467 40.7986 35.3236 41.6183 35.3818 42.5732C35.4067 42.9772 35.5215 43.1458 35.9108 43.251C38.5194 43.9555 41.0215 44.9472 43.4421 46.1475C46.1821 47.5065 48.6975 49.1526 50.6439 51.5783C53.1344 54.6835 54.3372 58.2311 54.3621 62.1995C54.3638 62.5334 54.3388 62.8673 54.3671 63.1978C54.4353 63.9674 54.1891 64.5751 53.5237 64.9908H33.2257C33.1875 64.9474 33.1558 64.894 33.1093 64.8623C32.4904 64.4232 32.2924 63.9758 32.4604 63.3915C32.6285 62.8072 33.1076 62.4849 33.8529 62.4849C39.5791 62.4816 45.3053 62.4833 51.0315 62.4833C51.2744 62.4833 51.5173 62.4833 51.8134 62.4833C51.8134 62.2512 51.8201 62.0893 51.8134 61.9273C51.5456 56.6719 49.2847 52.5616 44.7946 49.7753C42.5504 48.383 40.1531 47.2928 37.6576 46.4263C36.8824 46.1576 36.0938 45.9238 35.3102 45.6734C34.2156 49.2845 31.9647 51.5049 28.1982 51.5883C24.2271 51.6768 21.8348 49.4414 20.6803 45.7068C20.5189 45.7485 20.3592 45.7869 20.2028 45.832C17.0819 46.7369 14.1322 48.039 11.3324 49.6885C8.23634 51.5132 6.09193 54.1126 4.9407 57.5283C4.40667 59.111 4.13051 60.737 4.18707 62.4799H4.96731C9.84341 62.4799 14.7195 62.4799 19.5939 62.4799C20.5272 62.4799 21.4622 62.4683 22.3955 62.4883C23.0077 62.5016 23.402 62.8439 23.5617 63.4315C23.7181 64.0075 23.4835 64.4449 23.016 64.7738C22.8979 64.8556 22.7665 64.9174 22.6417 64.9892H2.46854V64.9925ZM34.6997 14.6981C33.9111 15.4961 33.1409 16.5111 32.156 17.229C29.1698 19.406 25.2203 19.2825 22.2441 17.022C21.2725 16.2841 20.2311 15.8567 19.0067 16.0671C16.987 16.4143 15.721 18.032 15.6861 20.2708C15.6661 21.4645 14.9524 21.9987 13.8528 21.6147C13.2372 21.401 12.7049 21.4778 12.269 21.9703C11.8381 22.4578 11.8863 22.977 12.1758 23.5296C13.2306 25.5346 14.2653 27.548 15.3251 29.5497C15.4016 29.6933 15.6162 29.8435 15.7709 29.8485C16.7674 29.8819 17.027 30.0405 17.3697 30.9888C18.2081 33.311 19.3544 35.4679 20.7685 37.488C24.3769 42.64 31.607 42.64 35.2271 37.488C36.6811 35.4179 37.829 33.1925 38.6991 30.8168C38.9885 30.0255 39.3595 29.8101 40.1481 29.8285C40.3194 29.8318 40.5773 29.6999 40.6555 29.5547C41.7202 27.5563 42.7533 25.5396 43.8114 23.5379C44.1175 22.9603 44.1441 22.4244 43.6966 21.9252C43.2507 21.4277 42.7084 21.3977 42.1045 21.618C41.0864 21.992 40.3826 21.5713 40.2096 20.5095C39.9385 18.83 39.0667 17.5445 37.6576 16.618C36.6461 15.9535 35.6263 15.2991 34.6997 14.6981ZM14.7711 15.5161C15.5829 14.9919 16.2933 14.3876 17.1101 14.0337C19.4475 13.017 21.6352 13.4176 23.6582 14.9418C27.3814 17.7482 32.3656 15.7849 33.1808 11.1972C33.249 10.8099 33.2407 10.4059 33.3272 10.0236C33.4653 9.42259 33.956 9.07534 34.5599 9.09203C35.1555 9.10873 35.6163 9.49605 35.7345 10.0987C35.786 10.3642 35.7927 10.6363 35.8359 10.9034C36.0206 12.0453 36.513 13.0453 37.5195 13.6263C38.9087 14.426 40.2662 15.2357 41.2694 16.6464C41.7069 14.618 41.6237 12.6797 41.5888 10.7515C41.5272 7.2623 39.09 4.35409 35.6895 3.66627C34.4768 3.42085 33.3106 3.40917 32.2858 4.31068C31.1096 5.34408 29.9018 5.32238 28.7023 4.29899C28.0718 3.75976 27.3548 3.49431 26.5313 3.52436C22.7715 3.66293 19.6688 5.15877 17.3181 8.1204C15.6079 10.2774 14.7877 12.7649 14.7694 15.5145L14.7711 15.5161ZM23.1608 42.7819C22.9079 45.1158 23.372 47.1041 25.4383 48.3746C27.1917 49.4531 29.0018 49.4097 30.712 48.2744C32.6568 46.9839 33.076 45.0424 32.8281 42.7852C29.5973 44.2327 26.3815 44.2093 23.1608 42.7819Z" fill="url(#paint0_linear_282_647)"/>
<path d="M27.6222 64.9925C27.4908 64.8973 27.3544 64.8105 27.2313 64.7087C26.6407 64.2212 26.5941 63.3848 27.1265 62.8505C27.6322 62.343 28.4707 62.3681 28.9432 62.9056C29.4373 63.4682 29.3391 64.2996 28.7219 64.7554C28.6088 64.8389 28.4873 64.914 28.3692 64.9941H27.6222V64.9925Z" fill="url(#paint1_linear_282_647)"/>
<path d="M3.51801 41.695C4.03041 41.695 4.44132 41.695 4.85224 41.695C6.05504 41.695 7.25785 41.68 8.46065 41.7034C9.26918 41.7184 9.80486 42.2509 9.79821 42.9621C9.78989 43.6483 9.26252 44.1975 8.50058 44.2059C6.4277 44.2276 4.35315 44.2293 2.27861 44.2042C1.51833 44.1942 1.02589 43.7034 1.01591 42.9354C0.987631 40.8553 0.989294 38.7734 1.01425 36.6916C1.02257 35.9287 1.57822 35.3995 2.25864 35.3944C2.96901 35.3894 3.49638 35.927 3.50969 36.7384C3.53132 38.1324 3.51801 39.5264 3.51801 40.9221C3.51801 41.1474 3.51801 41.3728 3.51801 41.6967V41.695Z" fill="url(#paint2_linear_282_647)"/>
<path d="M52.4753 41.6951C52.4753 40.9989 52.4753 40.3796 52.4753 39.7618C52.477 38.7218 52.4587 37.68 52.492 36.6399C52.5152 35.9104 53.0443 35.4045 53.7081 35.3928C54.3685 35.3828 54.8926 35.8787 54.9791 36.6032C54.994 36.7268 54.9907 36.852 54.9907 36.9772C54.9907 38.8704 54.9957 40.7652 54.9891 42.6584C54.9841 43.7435 54.5116 44.2126 53.4286 44.2143C51.4788 44.2193 49.529 44.2243 47.5793 44.211C46.8339 44.206 46.3482 43.8103 46.2184 43.1726C46.1069 42.6267 46.4264 41.9939 46.962 41.8086C47.2282 41.7168 47.531 41.7018 47.8172 41.6984C49.1231 41.6884 50.4307 41.6934 51.7367 41.6934C51.9579 41.6934 52.1792 41.6934 52.4753 41.6934V41.6951Z" fill="url(#paint3_linear_282_647)"/>
<path d="M3.51852 3.51936C3.51852 3.78481 3.51852 4.00852 3.51852 4.23056C3.51852 5.62456 3.5285 7.02024 3.51353 8.41424C3.50354 9.2807 2.99946 9.81993 2.26081 9.8166C1.5205 9.81159 1.01475 9.26734 1.0081 8.40256C0.994791 6.4042 0.991464 4.40585 1.00976 2.4075C1.01642 1.50098 1.51384 1.0185 2.40888 1.01349C4.40024 1.00348 6.3916 1.00515 8.38297 1.01349C9.21811 1.01683 9.79539 1.53937 9.79705 2.26392C9.79872 2.99515 9.23142 3.51269 8.39129 3.51602C6.79587 3.5227 5.20044 3.51769 3.51852 3.51769V3.51936Z" fill="url(#paint4_linear_282_647)"/>
<path d="M52.4757 3.5194C50.9102 3.5194 49.423 3.5194 47.934 3.5194C46.7994 3.5194 46.2088 3.10036 46.1955 2.28733C46.1822 1.45928 46.8011 1.01186 47.9606 1.01186C49.7856 1.01186 51.6123 1.00852 53.4373 1.01186C54.5037 1.01353 54.9811 1.46596 54.9878 2.51104C54.9978 4.46766 54.9994 6.42427 54.9878 8.38256C54.9828 9.23232 54.532 9.7582 53.8166 9.80995C53.0463 9.86505 52.494 9.3208 52.4824 8.43598C52.4641 7.04198 52.4757 5.6463 52.4757 4.2523C52.4757 4.02859 52.4757 3.80488 52.4757 3.52107V3.5194Z" fill="url(#paint5_linear_282_647)"/>
<defs>
<linearGradient id="paint0_linear_282_647" x1="27.9942" y1="0.994141" x2="27.9942" y2="64.9925" gradientUnits="userSpaceOnUse">
<stop stop-color="#90C43F"/>
<stop offset="1" stop-color="#2C93AE"/>
</linearGradient>
<linearGradient id="paint1_linear_282_647" x1="28.0069" y1="62.4856" x2="28.0069" y2="64.9941" gradientUnits="userSpaceOnUse">
<stop stop-color="#90C43F"/>
<stop offset="1" stop-color="#2C93AE"/>
</linearGradient>
<linearGradient id="paint2_linear_282_647" x1="5.39669" y1="35.3944" x2="5.39669" y2="44.2226" gradientUnits="userSpaceOnUse">
<stop stop-color="#90C43F"/>
<stop offset="1" stop-color="#2C93AE"/>
</linearGradient>
<linearGradient id="paint3_linear_282_647" x1="50.5944" y1="35.3927" x2="50.5944" y2="44.2195" gradientUnits="userSpaceOnUse">
<stop stop-color="#90C43F"/>
<stop offset="1" stop-color="#2C93AE"/>
</linearGradient>
<linearGradient id="paint4_linear_282_647" x1="5.39706" y1="1.00659" x2="5.39706" y2="9.81661" gradientUnits="userSpaceOnUse">
<stop stop-color="#90C43F"/>
<stop offset="1" stop-color="#2C93AE"/>
</linearGradient>
<linearGradient id="paint5_linear_282_647" x1="50.5956" y1="1.01038" x2="50.5956" y2="9.81378" gradientUnits="userSpaceOnUse">
<stop stop-color="#90C43F"/>
<stop offset="1" stop-color="#2C93AE"/>
</linearGradient>
</defs>
</svg>
