<svg width="65" height="64" viewBox="0 0 65 64" fill="none" xmlns="http://www.w3.org/2000/svg">
<mask id="path-1-inside-1_282_589" fill="white">
<path fill-rule="evenodd" clip-rule="evenodd" d="M32.0077 64C14.3628 64.0019 -0.0304822 49.5933 4.84811e-05 31.9637C0.0305792 14.3342 14.3838 0 32.0058 0C49.6563 0 64.0458 14.401 64.0134 32.0343C63.981 49.6658 49.6296 64 32.0077 64ZM31.9867 4.57007C16.8511 4.58533 4.54531 16.9159 4.57202 32.0363C4.59874 47.1413 16.8854 59.4166 31.9905 59.4299C47.1166 59.4433 59.4433 47.1241 59.4414 31.9981C59.4395 16.8682 47.1147 4.55671 31.9867 4.57197V4.57007ZM24.863 25.1439H22.5725C22.8221 24.7668 23.0664 24.4039 23.305 24.0495L23.3053 24.049L23.3054 24.0489C23.834 23.2636 24.3347 22.5197 24.8038 21.755C25.4659 20.6769 25.1416 19.3469 24.1188 18.6714C23.0903 17.9921 21.7317 18.2039 21.0161 19.2496C19.4304 21.5661 17.8733 23.9036 16.3449 26.2583C15.7266 27.2105 15.8907 28.4431 16.7761 29.09C17.257 29.443 17.9401 29.6892 18.5336 29.6911C25.7737 29.7203 33.0139 29.7185 40.2541 29.7167C41.9919 29.7163 43.7296 29.7159 45.4674 29.7159C45.5039 29.7159 45.5405 29.7163 45.577 29.7168C45.7082 29.7184 45.8389 29.72 45.9673 29.7006C46.8909 29.5613 47.5492 29.069 47.8698 28.1817C48.4327 26.6227 47.2859 25.1458 45.5093 25.1458C40.3509 25.143 35.1935 25.1433 30.0355 25.1437H30.0262L24.863 25.1439ZM41.4449 38.858H38.0814C37.0072 38.858 35.9329 38.858 34.8586 38.8581C29.4846 38.8583 24.1098 38.8586 18.7364 38.8522C18.3605 38.8522 17.9674 38.837 17.6105 38.732C16.5477 38.4172 15.897 37.3982 16.0134 36.322C16.1336 35.2248 17.0381 34.3661 18.1601 34.2898C18.2489 34.2841 18.3388 34.2848 18.4281 34.2855C18.4578 34.2857 18.4874 34.286 18.5169 34.286C20.3174 34.286 22.1179 34.2861 23.9182 34.2861C31.1124 34.2864 38.3057 34.2867 45.5003 34.2822C46.3113 34.2822 46.9983 34.5207 47.5135 35.1599C48.1336 35.9308 48.2023 36.9345 47.6222 37.8218C46.1129 40.1288 44.5863 42.4281 43.0331 44.7046C42.2927 45.7903 40.9436 46.0212 39.8865 45.3209C38.8447 44.6321 38.5527 43.2849 39.2511 42.1782C39.7239 41.4285 40.2179 40.6917 40.7401 39.9129C40.9694 39.5709 41.2041 39.2208 41.4449 38.858Z"/>
</mask>
<path fill-rule="evenodd" clip-rule="evenodd" d="M32.0077 64C14.3628 64.0019 -0.0304822 49.5933 4.84811e-05 31.9637C0.0305792 14.3342 14.3838 0 32.0058 0C49.6563 0 64.0458 14.401 64.0134 32.0343C63.981 49.6658 49.6296 64 32.0077 64ZM31.9867 4.57007C16.8511 4.58533 4.54531 16.9159 4.57202 32.0363C4.59874 47.1413 16.8854 59.4166 31.9905 59.4299C47.1166 59.4433 59.4433 47.1241 59.4414 31.9981C59.4395 16.8682 47.1147 4.55671 31.9867 4.57197V4.57007ZM24.863 25.1439H22.5725C22.8221 24.7668 23.0664 24.4039 23.305 24.0495L23.3053 24.049L23.3054 24.0489C23.834 23.2636 24.3347 22.5197 24.8038 21.755C25.4659 20.6769 25.1416 19.3469 24.1188 18.6714C23.0903 17.9921 21.7317 18.2039 21.0161 19.2496C19.4304 21.5661 17.8733 23.9036 16.3449 26.2583C15.7266 27.2105 15.8907 28.4431 16.7761 29.09C17.257 29.443 17.9401 29.6892 18.5336 29.6911C25.7737 29.7203 33.0139 29.7185 40.2541 29.7167C41.9919 29.7163 43.7296 29.7159 45.4674 29.7159C45.5039 29.7159 45.5405 29.7163 45.577 29.7168C45.7082 29.7184 45.8389 29.72 45.9673 29.7006C46.8909 29.5613 47.5492 29.069 47.8698 28.1817C48.4327 26.6227 47.2859 25.1458 45.5093 25.1458C40.3509 25.143 35.1935 25.1433 30.0355 25.1437H30.0262L24.863 25.1439ZM41.4449 38.858H38.0814C37.0072 38.858 35.9329 38.858 34.8586 38.8581C29.4846 38.8583 24.1098 38.8586 18.7364 38.8522C18.3605 38.8522 17.9674 38.837 17.6105 38.732C16.5477 38.4172 15.897 37.3982 16.0134 36.322C16.1336 35.2248 17.0381 34.3661 18.1601 34.2898C18.2489 34.2841 18.3388 34.2848 18.4281 34.2855C18.4578 34.2857 18.4874 34.286 18.5169 34.286C20.3174 34.286 22.1179 34.2861 23.9182 34.2861C31.1124 34.2864 38.3057 34.2867 45.5003 34.2822C46.3113 34.2822 46.9983 34.5207 47.5135 35.1599C48.1336 35.9308 48.2023 36.9345 47.6222 37.8218C46.1129 40.1288 44.5863 42.4281 43.0331 44.7046C42.2927 45.7903 40.9436 46.0212 39.8865 45.3209C38.8447 44.6321 38.5527 43.2849 39.2511 42.1782C39.7239 41.4285 40.2179 40.6917 40.7401 39.9129C40.9694 39.5709 41.2041 39.2208 41.4449 38.858Z" fill="url(#paint0_linear_282_589)"/>
<path d="M4.84811e-05 31.9637L1.00005 31.9655L4.84811e-05 31.9637ZM32.0077 64V63H32.0076L32.0077 64ZM64.0134 32.0343L65.0134 32.0362L64.0134 32.0343ZM4.57202 32.0363L3.57202 32.038V32.038L4.57202 32.0363ZM31.9867 4.57007H32.9867V3.56906L31.9857 3.57007L31.9867 4.57007ZM31.9905 59.4299L31.9896 60.4299H31.9896L31.9905 59.4299ZM59.4414 31.9981L58.4414 31.9982L59.4414 31.9981ZM31.9867 4.57197H30.9867V5.57298L31.9877 5.57197L31.9867 4.57197ZM22.5725 25.1439L21.7387 24.5919L20.7113 26.1439H22.5725V25.1439ZM24.863 25.1439V26.1439H24.863L24.863 25.1439ZM23.305 24.0495L22.4759 23.4903L22.4754 23.4911L23.305 24.0495ZM23.3053 24.049L24.1344 24.6081L24.1492 24.5862L24.1628 24.5635L23.3053 24.049ZM23.3054 24.0489L22.4758 23.4905L22.4613 23.5121L22.4479 23.5344L23.3054 24.0489ZM24.8038 21.755L23.9517 21.2317L23.9514 21.2321L24.8038 21.755ZM24.1188 18.6714L23.5676 19.5058L23.5677 19.5058L24.1188 18.6714ZM21.0161 19.2496L21.8413 19.8144L21.8414 19.8143L21.0161 19.2496ZM16.3449 26.2583L17.1836 26.8029L17.1837 26.8027L16.3449 26.2583ZM16.7761 29.09L17.3679 28.2839L17.3661 28.2825L16.7761 29.09ZM18.5336 29.6911L18.5376 28.6911L18.5368 28.6911L18.5336 29.6911ZM40.2541 29.7167L40.2544 30.7167L40.2541 29.7167ZM45.577 29.7168L45.5646 30.7167H45.5646L45.577 29.7168ZM45.9673 29.7006L45.8182 28.7118L45.8178 28.7119L45.9673 29.7006ZM47.8698 28.1817L48.8103 28.5215L48.8103 28.5213L47.8698 28.1817ZM45.5093 25.1458L45.5088 26.1458H45.5093V25.1458ZM30.0355 25.1437V26.1437H30.0356L30.0355 25.1437ZM30.0262 25.1437V24.1437H30.0262L30.0262 25.1437ZM41.4449 38.858L42.2781 39.4108L43.3085 37.858H41.4449V38.858ZM34.8586 38.8581L34.8586 39.8581L34.8586 38.8581ZM18.7364 38.8522L18.7375 37.8522H18.7364V38.8522ZM17.6105 38.732L17.3265 39.6908L17.3284 39.6914L17.6105 38.732ZM16.0134 36.322L15.0194 36.2131L15.0192 36.2145L16.0134 36.322ZM18.1601 34.2898L18.0957 33.2919L18.0922 33.2921L18.1601 34.2898ZM18.4281 34.2855L18.4201 35.2855H18.4201L18.4281 34.2855ZM23.9182 34.2861L23.9183 33.2861L23.9182 34.2861ZM45.5003 34.2822V33.2822H45.4997L45.5003 34.2822ZM47.5135 35.1599L48.2926 34.5331L48.2921 34.5324L47.5135 35.1599ZM47.6222 37.8218L48.459 38.3693L48.4592 38.369L47.6222 37.8218ZM43.0331 44.7046L42.207 44.141L42.2069 44.1412L43.0331 44.7046ZM39.8865 45.3209L40.4388 44.4873L40.438 44.4868L39.8865 45.3209ZM39.2511 42.1782L40.0968 42.7118L40.0969 42.7117L39.2511 42.1782ZM40.7401 39.9129L41.5707 40.4698L41.5707 40.4698L40.7401 39.9129ZM-0.99995 31.962C-1.03144 50.1452 13.8106 65.002 32.0078 65L32.0076 63C14.9151 63.0018 0.970475 49.0414 1.00005 31.9655L-0.99995 31.962ZM32.0058 -1C13.8318 -1 -0.968465 13.7812 -0.99995 31.962L1.00005 31.9655C1.02962 14.8871 14.9358 1 32.0058 1V-1ZM65.0134 32.0362C65.0469 13.8488 50.2084 -1 32.0058 -1V1C49.1043 1 63.0448 14.9531 63.0134 32.0325L65.0134 32.0362ZM32.0077 65C50.1818 65 64.9799 50.2187 65.0134 32.0362L63.0134 32.0325C62.982 49.113 49.0775 63 32.0077 63V65ZM5.57202 32.0345C5.54628 17.4675 17.4039 5.58477 31.9877 5.57007L31.9857 3.57007C16.2983 3.58589 3.54433 16.3643 3.57202 32.038L5.57202 32.0345ZM31.9914 58.4299C17.4375 58.4171 5.59776 46.5883 5.57202 32.0345L3.57202 32.038C3.59971 47.6944 16.3333 60.4161 31.9896 60.4299L31.9914 58.4299ZM58.4414 31.9982C58.4433 46.5717 46.5647 58.4428 31.9914 58.4299L31.9896 60.4299C47.6684 60.4438 60.4434 47.6766 60.4414 31.998L58.4414 31.9982ZM31.9877 5.57197C46.563 5.55727 58.4396 17.4209 58.4414 31.9982L60.4414 31.998C60.4395 16.3155 47.6664 3.55615 31.9857 3.57197L31.9877 5.57197ZM30.9867 4.57007V4.57197H32.9867V4.57007H30.9867ZM22.5725 26.1439H24.863V24.1439H22.5725V26.1439ZM22.4754 23.4911C22.2371 23.8451 21.9907 24.2111 21.7387 24.5919L23.4064 25.6959C23.6535 25.3225 23.8957 24.9628 24.1346 24.6079L22.4754 23.4911ZM22.4763 23.4899L22.4759 23.4903L24.1341 24.6086L24.1344 24.6081L22.4763 23.4899ZM22.4479 23.5344L22.4478 23.5345L24.1628 24.5635L24.1629 24.5634L22.4479 23.5344ZM23.9514 21.2321C23.4953 21.9757 23.0066 22.702 22.4758 23.4905L24.1349 24.6073C24.6615 23.8251 25.1742 23.0637 25.6562 22.2779L23.9514 21.2321ZM23.5677 19.5058C24.1507 19.8909 24.325 20.6237 23.9517 21.2317L25.6559 22.2783C26.6068 20.73 26.1325 18.8029 24.6699 17.837L23.5677 19.5058ZM21.8414 19.8143C22.2296 19.247 22.9659 19.1084 23.5676 19.5058L24.6699 17.837C23.2146 16.8758 21.2337 17.1608 20.1908 18.6848L21.8414 19.8143ZM17.1837 26.8027C18.7078 24.4547 20.2603 22.124 21.8413 19.8144L20.1909 18.6847C18.6005 21.0082 17.0389 23.3525 15.5061 25.7138L17.1837 26.8027ZM17.3661 28.2825C16.9624 27.9877 16.8173 27.3671 17.1836 26.8029L15.5062 25.7137C14.636 27.0538 14.8191 28.8986 16.1862 29.8975L17.3661 28.2825ZM18.5368 28.6911C18.1768 28.6899 17.6965 28.5251 17.3679 28.2839L16.1844 29.8961C16.8175 30.3609 17.7034 30.6884 18.5303 30.6911L18.5368 28.6911ZM40.2539 28.7167C33.0133 28.7185 25.7753 28.7203 18.5376 28.6911L18.5295 30.6911C25.7722 30.7203 33.0145 30.7185 40.2544 30.7167L40.2539 28.7167ZM45.4674 28.7159C43.7295 28.7159 41.9916 28.7163 40.2539 28.7167L40.2544 30.7167C41.9921 30.7163 43.7298 30.7159 45.4674 30.7159V28.7159ZM45.5893 28.7169C45.5539 28.7164 45.5111 28.7159 45.4674 28.7159V30.7159C45.4967 30.7159 45.5271 30.7162 45.5646 30.7167L45.5893 28.7169ZM45.8178 28.7119C45.7835 28.717 45.7349 28.7187 45.5893 28.7169L45.5646 30.7167C45.6815 30.7182 45.8943 30.723 46.1168 30.6894L45.8178 28.7119ZM46.9293 27.8419C46.7443 28.3538 46.4118 28.6223 45.8182 28.7118L46.1165 30.6894C47.3699 30.5004 48.354 29.7843 48.8103 28.5215L46.9293 27.8419ZM45.5093 26.1458C46.1162 26.1458 46.5444 26.3932 46.7772 26.6928C47.0038 26.9843 47.0949 27.3831 46.9292 27.8421L48.8103 28.5213C49.2075 27.4213 49.0067 26.3022 48.3564 25.4655C47.7124 24.6369 46.6791 24.1458 45.5093 24.1458V26.1458ZM30.0356 26.1437C35.1936 26.1433 40.3507 26.143 45.5088 26.1458L45.5099 24.1458C40.3511 24.143 35.1934 24.1433 30.0355 24.1437L30.0356 26.1437ZM30.0262 26.1437H30.0355V24.1437H30.0262V26.1437ZM24.863 26.1439L30.0263 26.1437L30.0262 24.1437L24.8629 24.1439L24.863 26.1439ZM41.4449 37.858H38.0814V39.858H41.4449V37.858ZM38.0814 37.858C37.0071 37.858 35.9328 37.858 34.8585 37.8581L34.8586 39.8581C35.9329 39.858 37.0072 39.858 38.0814 39.858V37.858ZM34.8585 37.8581C29.4845 37.8583 24.1103 37.8586 18.7375 37.8522L18.7352 39.8522C24.1094 39.8586 29.4848 39.8583 34.8586 39.8581L34.8585 37.8581ZM18.7364 37.8522C18.3695 37.8522 18.1012 37.834 17.8927 37.7726L17.3284 39.6914C17.8336 39.84 18.3514 39.8522 18.7364 39.8522V37.8522ZM17.8946 37.7732C17.307 37.5991 16.9418 37.038 17.0076 36.4295L15.0192 36.2145C14.8522 37.7584 15.7884 39.2352 17.3265 39.6908L17.8946 37.7732ZM17.0075 36.4309C17.0737 35.8261 17.5781 35.3317 18.228 35.2875L18.0922 33.2921C16.4981 33.4005 15.1935 34.6235 15.0194 36.2131L17.0075 36.4309ZM18.2245 35.2877C18.271 35.2847 18.3245 35.2847 18.4201 35.2855L18.4361 33.2855C18.3531 33.2849 18.2268 33.2834 18.0957 33.2919L18.2245 35.2877ZM18.4201 35.2855C18.4491 35.2857 18.4828 35.286 18.5169 35.286V33.286C18.4921 33.286 18.4664 33.2858 18.4361 33.2855L18.4201 35.2855ZM18.5169 35.286C20.3174 35.286 22.1178 35.2861 23.9182 35.2861L23.9183 33.2861C22.1179 33.2861 20.3175 33.286 18.5169 33.286V35.286ZM23.9182 35.2861C31.1123 35.2864 38.306 35.2867 45.501 35.2822L45.4997 33.2822C38.3055 33.2867 31.1125 33.2864 23.9183 33.2861L23.9182 35.2861ZM45.5003 35.2822C46.0934 35.2822 46.4569 35.4425 46.7349 35.7874L48.2921 34.5324C47.5396 33.5988 46.5292 33.2822 45.5003 33.2822V35.2822ZM46.7343 35.7867C47.0821 36.219 47.129 36.7487 46.7852 37.2746L48.4592 38.369C49.2756 37.1203 49.1852 35.6426 48.2926 34.5331L46.7343 35.7867ZM46.7854 37.2743C45.2784 39.5777 43.7556 41.8714 42.207 44.141L43.8591 45.2682C45.417 42.9849 46.9473 40.6799 48.459 38.3693L46.7854 37.2743ZM42.2069 44.1412C41.7825 44.7636 41.0514 44.8931 40.4388 44.4873L39.3342 46.1546C40.8359 47.1494 42.803 46.817 43.8593 45.268L42.2069 44.1412ZM40.438 44.4868C39.8626 44.1063 39.6806 43.3714 40.0968 42.7118L38.4054 41.6445C37.4249 43.1984 37.8267 45.1578 39.335 46.1551L40.438 44.4868ZM40.0969 42.7117C40.561 41.9758 41.0471 41.2507 41.5707 40.4698L39.9095 39.356C39.3887 40.1327 38.8868 40.8812 38.4053 41.6447L40.0969 42.7117ZM41.5707 40.4698C41.7998 40.1281 42.0358 39.776 42.2781 39.4108L40.6116 38.3051C40.3724 38.6656 40.139 39.0138 39.9095 39.356L41.5707 40.4698Z" fill="white" mask="url(#path-1-inside-1_282_589)"/>
<defs>
<linearGradient id="paint0_linear_282_589" x1="32.0102" y1="34.2822" x2="32.0102" y2="45.7201" gradientUnits="userSpaceOnUse">
<stop stop-color="#90C43F"/>
<stop offset="1" stop-color="#2C93AE"/>
</linearGradient>
</defs>
</svg>
