<svg width="65" height="65" viewBox="0 0 65 65" fill="none" xmlns="http://www.w3.org/2000/svg">
<path d="M64.002 33.4963C63.8367 34.7486 63.7148 36.0092 63.4977 37.2531C61.2519 50.1784 51.3471 61.2387 37.602 63.4995C29.2734 64.8703 21.4508 63.4861 14.3912 58.7474C6.96097 53.76 2.43101 46.7371 0.652761 38.0129C-2.02881 24.8555 3.72505 11.8166 15.171 4.77707C15.9374 4.30621 16.475 4.32792 16.809 4.8472C17.1513 5.37817 16.9392 5.86907 16.1878 6.3583C15.4565 6.83584 14.7151 7.30503 14.0205 7.83266C13.1122 8.52392 12.244 9.26862 11.4074 9.95153C12.9503 11.4927 14.4346 12.9754 15.9207 14.4598C23.3893 8.00798 31.8565 6.42842 40.9882 10.2087C50.1149 13.9872 55.0138 21.0786 55.7786 31.01H62.1836C62.015 29.5424 61.9181 28.1148 61.681 26.7088C59.5839 14.3062 49.5205 4.52661 37.0226 2.28752C31.6778 1.33077 26.4483 1.84838 21.369 3.79694C21.1753 3.87208 20.9849 3.95724 20.7863 4.01568C20.2286 4.17931 19.7627 3.9539 19.5807 3.44129C19.4121 2.96876 19.6091 2.47786 20.1417 2.28084C21.2521 1.87009 22.3575 1.40257 23.5079 1.15211C25.4748 0.724659 27.4751 0.447485 29.4604 0.103523C29.6007 0.0801466 29.736 0.0350641 29.8745 0C31.2086 0 32.5411 0 33.8752 0C34.0355 0.0367338 34.1941 0.0818163 34.3561 0.106862C35.8588 0.325595 37.3783 0.455834 38.8593 0.771411C51.439 3.44797 61.3003 13.6667 63.5194 26.2964C63.7198 27.4402 63.8433 28.5973 64.002 29.7477V33.4979V33.4963ZM31.6728 10.1469C19.9681 10.1369 9.99151 20.03 10.1718 31.8466C10.3772 45.3463 20.0833 53.6748 31.975 53.6915C43.79 53.7082 53.6263 45.4498 53.8267 31.7614C54.0003 19.848 43.9052 10.1552 31.6745 10.1452L31.6728 10.1469ZM10.0166 11.4543C1.91173 19.6927 -0.828281 33.7651 4.8638 45.1042C10.8915 57.1128 22.8233 62.2939 31.0049 62.0234V55.7753C21.0601 55.0006 13.9721 50.0983 10.1969 40.9699C6.41998 31.8399 8.00788 23.3761 14.473 15.9058C12.992 14.4264 11.521 12.957 10.0166 11.4543ZM32.9568 62.0652C48.9645 61.7546 61.8697 48.2482 62.0601 32.9636H55.7268C55.3795 39.1182 53.1037 44.4229 48.7574 48.7675C44.4111 53.1105 39.0997 55.3763 32.9568 55.7252V62.0668V62.0652Z" fill="url(#paint0_linear_282_542)"/>
<path d="M23.0659 38.9011C21.5582 38.9011 20.1489 38.9095 18.738 38.8961C18.3239 38.8928 17.8948 38.8894 17.5007 38.7826C15.7943 38.3184 14.8759 36.5535 15.4487 34.8437C16.1967 32.6096 17.5876 30.8698 19.5679 29.5974C19.7382 29.4872 19.9068 29.3737 20.0888 29.2535C18.546 26.9393 18.5076 24.605 20.0421 22.3442C21.4045 20.3372 23.3932 19.4572 25.7842 19.9014C28.6511 20.4324 30.229 22.3208 30.745 25.1443H33.2429C33.6336 22.6965 34.9577 20.9166 37.3955 20.0834C38.965 19.5457 40.4844 19.7762 41.9171 20.5526C45.1263 22.2907 46.0045 26.1996 43.8756 29.2418C44.0593 29.362 44.2413 29.4856 44.425 29.6041C46.3836 30.8664 47.7678 32.5862 48.5175 34.797C49.2188 36.8674 47.8546 38.841 45.6723 38.8928C44.3198 38.9245 42.964 38.9011 41.6098 38.9028C41.4078 38.9028 41.2041 38.9028 40.9252 38.9028C41.1006 39.3853 41.2575 39.7861 41.3894 40.1935C41.9839 42.0352 40.8067 43.9253 38.8899 44.1557C38.232 44.2342 37.5591 44.2159 36.8945 44.1925C36.2868 44.1724 35.9311 43.7967 35.9294 43.2624C35.9294 42.7265 36.2834 42.3708 36.8929 42.3408C37.3704 42.3174 37.8513 42.3458 38.3305 42.3274C39.4409 42.284 39.9134 41.6027 39.5344 40.5575C38.7463 38.3919 37.2736 36.8507 35.1797 35.9023C33.9592 35.3496 33.8423 34.802 34.7773 33.8786C36.3986 32.2773 36.4254 29.7594 34.8375 28.1632C33.2579 26.5769 30.7199 26.5636 29.1704 28.1331C27.5625 29.7644 27.5842 32.3107 29.2205 33.897C30.1272 34.7752 30.0069 35.363 28.8315 35.8873C26.7961 36.7939 25.3501 38.2817 24.5152 40.3454C24.0026 41.6128 24.4952 42.3241 25.866 42.3274C27.7411 42.3324 29.6162 42.3324 31.4897 42.3274C31.9806 42.3274 32.413 42.4192 32.6034 42.9385C32.8238 43.5413 32.4464 44.1724 31.7702 44.1791C29.5428 44.2042 27.3087 44.2709 25.088 44.1357C23.1694 44.0188 21.9923 42.0285 22.5867 40.1952C22.7136 39.8028 22.8689 39.4187 23.0576 38.9011H23.0659ZM27.1868 34.4196C27.2102 34.4747 27.1935 34.4146 27.1617 34.3628C25.3618 31.531 25.9278 28.2466 28.5459 26.1829C28.7179 26.0476 28.8482 25.7371 28.8415 25.5133C28.7897 23.7685 27.4105 22.1505 25.6941 21.7665C23.9626 21.3791 22.221 22.1722 21.3494 23.7417C20.4461 25.3697 20.7116 27.2849 22.0173 28.5656C22.9824 29.5106 22.8672 30.0583 21.6116 30.626C19.5361 31.5644 18.0902 33.1072 17.2904 35.2378C16.8863 36.3097 17.3772 37.0127 18.526 37.0227C20.3176 37.0377 22.1092 37.0327 23.9008 37.0194C24.0895 37.0194 24.3215 36.9592 24.4601 36.8407C25.3685 36.0576 26.2551 35.2511 27.1868 34.4196ZM36.796 34.4163C37.7378 35.2545 38.6144 36.0459 39.5077 36.8156C39.6479 36.9359 39.87 37.016 40.0553 37.0177C41.867 37.0327 43.6803 37.0394 45.4919 37.021C46.6006 37.0093 47.1233 36.2914 46.6941 35.2728C46.3585 34.4764 45.9261 33.7016 45.4201 32.9987C44.627 31.8967 43.54 31.1269 42.2894 30.5893C41.134 30.0917 41.0338 29.4839 41.9438 28.5823C42.0323 28.4938 42.1191 28.4036 42.2009 28.3101C43.328 27.001 43.4899 25.1176 42.6017 23.6566C41.6766 22.1338 39.86 21.3624 38.1953 21.7882C36.5322 22.2139 35.2649 23.7284 35.1313 25.4181C35.0996 25.8139 35.2232 26.056 35.5454 26.3014C36.7326 27.2047 37.4823 28.4036 37.7728 29.8746C38.1068 31.561 37.696 33.0888 36.7944 34.4163H36.796Z" fill="url(#paint1_linear_282_542)"/>
<defs>
<linearGradient id="paint0_linear_282_542" x1="32.002" y1="0" x2="32.002" y2="64.0022" gradientUnits="userSpaceOnUse">
<stop stop-color="#90C43F"/>
<stop offset="1" stop-color="#2C93AE"/>
</linearGradient>
<linearGradient id="paint1_linear_282_542" x1="31.9905" y1="19.7887" x2="31.9905" y2="44.2178" gradientUnits="userSpaceOnUse">
<stop stop-color="#90C43F"/>
<stop offset="1" stop-color="#2C93AE"/>
</linearGradient>
</defs>
</svg>
