<svg width="64" height="64" viewBox="0 0 64 64" fill="none" xmlns="http://www.w3.org/2000/svg">
<path d="M14.9463 40.5007C13.0515 40.5007 11.2273 40.5007 9.40484 40.5007C7.58583 40.5007 6.81858 39.3992 7.46169 37.7029C8.77034 34.2618 10.0911 30.826 11.3876 27.3798C11.5273 27.008 11.6032 26.5878 11.6049 26.1901C11.6204 23.3215 11.6411 20.4632 12.348 17.6464C14.7429 8.10485 23.1655 0.904624 32.9484 0.0867316C44.2883 -0.860848 53.9402 6.26156 56.3127 17.3887C57.3558 22.2805 56.6075 26.9561 54.5282 31.4969C53.1592 34.4884 51.8867 37.5697 51.654 40.9018C51.435 44.0402 51.3557 47.1942 51.3712 50.3413C51.3919 54.3305 51.566 58.3197 51.6816 62.3071C51.7057 63.1233 51.4609 63.4155 50.6471 63.4155C44.0849 63.4189 37.5227 63.4172 30.9605 63.4155C30.1587 63.4155 29.9259 63.1803 29.9242 62.3745C29.9191 60.6488 29.9294 58.9231 29.9208 57.1974C29.9087 54.678 28.1656 52.935 25.6465 52.9333C24.0982 52.9333 22.5482 52.942 20.9999 52.9714C17.5257 53.0353 14.9653 50.554 14.9463 47.0715C14.936 44.9152 14.9446 42.7589 14.9446 40.5024L14.9463 40.5007ZM50.0695 61.8385C50.0695 61.548 50.0729 61.3146 50.0695 61.0794C49.9867 56.2049 49.8436 51.3304 49.8453 46.4559C49.8453 44.0679 49.9367 41.6506 50.3109 39.2989C50.7919 36.2729 51.8919 33.3869 53.2075 30.622C56.7748 23.1295 55.4816 14.0117 49.8229 7.97689C44.7125 2.52658 38.3899 0.664271 31.1001 1.90754C22.7189 3.33755 15.6705 10.0813 13.7618 18.3933C13.1653 20.9888 13.1894 23.612 13.148 26.242C13.1394 26.8092 13.0325 27.4023 12.8359 27.9314C11.5549 31.3603 10.2359 34.7737 8.93069 38.194C8.65654 38.9116 8.68068 38.9461 9.46173 38.9479C11.398 38.9496 13.336 38.9479 15.2722 38.9479C16.2636 38.9479 16.4946 39.1744 16.4964 40.1514C16.4964 42.4166 16.4946 44.6818 16.4964 46.9487C16.4998 49.6617 18.2671 51.4411 20.9861 51.4462C22.643 51.4497 24.3 51.4324 25.9569 51.3909C30.076 51.2906 33.2519 48.4254 33.8157 44.3238C33.9088 43.6495 34.2312 43.3054 34.7157 43.3641C35.2019 43.4247 35.4468 43.8034 35.3519 44.5037C34.8692 48.0796 32.9639 50.6145 29.7225 52.1552C29.538 52.2434 29.3484 52.3195 29.0983 52.4301C30.426 53.4503 31.2243 54.7023 31.4087 56.2775C31.5053 57.1092 31.4639 57.9565 31.4708 58.7969C31.4794 59.8033 31.4725 60.8096 31.4725 61.8385H50.0695Z" fill="url(#paint0_linear_282_578)"/>
<path d="M25.8993 8.83286C26.1131 8.94007 26.3149 9.01269 26.4855 9.132C27.1062 9.5591 27.727 9.98621 28.3252 10.4427C28.6287 10.6744 28.8752 10.645 29.2477 10.5724C30.5167 10.3217 30.8201 9.47438 30.9615 8.34351C31.2167 6.29618 31.1736 6.44662 33.134 6.45353C34.403 6.45872 35.6719 6.46391 36.9409 6.45008C37.534 6.44316 37.8616 6.6887 37.9479 7.29218C38.0548 8.03744 38.1685 8.78617 38.3461 9.5176C38.4048 9.7545 38.6392 9.99139 38.8548 10.1384C39.8651 10.8266 40.7031 10.5568 41.6359 9.81329C43.348 8.44898 43.1549 8.51469 44.6928 10.064C45.5273 10.9044 46.367 11.7396 47.1998 12.5834C47.7498 13.1402 47.767 13.3944 47.3101 14.0428C46.8877 14.6411 46.4756 15.248 46.0239 15.8239C45.7928 16.1178 45.8411 16.3564 45.9118 16.7005C46.1601 17.9058 46.9187 18.2568 48.0601 18.4072C50.055 18.67 49.9498 18.5542 49.936 20.5981C49.9274 21.8482 49.9205 23.1002 49.9412 24.3503C49.9515 24.9746 49.6998 25.3152 49.0722 25.4086C48.3498 25.5158 47.6239 25.6265 46.9187 25.808C46.6877 25.8668 46.467 26.1175 46.3239 26.3354C45.6618 27.3487 45.9963 28.1752 46.7015 29.0744C48.0808 30.8312 47.9774 30.6324 46.467 32.1419C45.629 32.9788 44.7945 33.8192 43.9514 34.6527C43.3876 35.2095 43.129 35.2302 42.4962 34.7875C42.2135 34.5904 41.8997 34.4227 41.6617 34.1823C40.8031 33.3143 39.8686 33.1206 38.8375 33.833C38.6237 33.9818 38.4013 34.229 38.3427 34.4711C38.1651 35.2025 38.053 35.9495 37.9427 36.6965C37.8582 37.2602 37.5634 37.5317 36.9927 37.5283C35.3581 37.5231 33.7236 37.5179 32.0891 37.5317C31.4719 37.5369 31.1943 37.217 31.1012 36.6516C30.9822 35.9288 30.8287 35.2112 30.7374 34.4849C30.6908 34.1166 30.5115 33.9783 30.2029 33.7933C29.1684 33.1725 28.3045 33.3299 27.4718 34.1529C27.17 34.4504 26.7787 34.6596 26.4235 34.9034C26.0114 35.1887 25.62 35.1645 25.2614 34.8048C24.0734 33.6169 22.8837 32.4307 21.6992 31.2393C21.3406 30.8796 21.3216 30.4975 21.6268 30.0808C22.0837 29.4548 22.5062 28.8029 22.9769 28.1873C23.2148 27.8761 23.182 27.6254 23.0924 27.2536C22.8044 26.0726 22.0665 25.7129 20.9165 25.5659C18.7975 25.2962 18.9354 25.4656 18.9457 23.2731C18.9509 22.0436 18.9578 20.8142 18.9423 19.5848C18.9337 18.9882 19.1802 18.6579 19.7785 18.5698C20.5216 18.4608 21.2596 18.3087 22.0044 18.2032C22.3872 18.1496 22.5303 17.9352 22.7234 17.6083C23.3286 16.5864 23.17 15.746 22.3699 14.9264C22.0579 14.6065 21.8355 14.1984 21.5785 13.8267C21.3234 13.4549 21.3492 13.0883 21.6665 12.7702C22.8803 11.5476 24.0976 10.3286 25.3286 9.12163C25.47 8.98329 25.6959 8.93142 25.9011 8.83113L25.8993 8.83286ZM23.2596 13.5223C23.6786 14.112 24.1027 14.7621 24.5803 15.3691C24.9769 15.8723 25.0286 16.3322 24.7096 16.9063C24.4183 17.4285 24.1631 17.9939 24.0234 18.5715C23.8527 19.2787 23.4458 19.5623 22.7717 19.6488C22.0148 19.7456 21.2647 19.9029 20.5268 20.0309V23.944C21.3734 24.0927 22.1941 24.2535 23.0217 24.3763C23.5338 24.4524 23.8027 24.7273 23.9683 25.2097C24.1993 25.8789 24.4579 26.5446 24.7717 27.1775C25.0148 27.6651 24.9941 28.0577 24.6683 28.4882C24.1648 29.1539 23.6976 29.8473 23.2941 30.4197C24.2458 31.3915 25.1441 32.3079 26.07 33.2521C26.7114 32.799 27.4045 32.3287 28.077 31.829C28.4666 31.5402 28.8321 31.5125 29.2753 31.7148C29.9373 32.0174 30.6167 32.2889 31.3046 32.5258C31.7805 32.6901 32.065 32.9391 32.1374 33.4665C32.2529 34.2913 32.4236 35.1092 32.5736 35.9444H36.503C36.6409 35.1386 36.7892 34.357 36.9064 33.5702C36.9875 33.0238 37.234 32.6901 37.791 32.5206C38.4444 32.32 39.0858 32.0572 39.6979 31.7494C40.2048 31.4952 40.6151 31.5125 41.0669 31.8549C41.7272 32.3581 42.4186 32.8232 43.0393 33.2642C43.9928 32.2993 44.8825 31.4001 45.8118 30.4595C45.3515 29.8024 44.8704 29.0917 44.3618 28.4018C44.0842 28.0265 44.0807 27.6755 44.2635 27.2588C44.5307 26.6501 44.8118 26.0328 44.9635 25.3896C45.1308 24.6772 45.5446 24.4057 46.2153 24.3209C46.9342 24.231 47.6446 24.0771 48.367 23.9509V20.0223C47.5394 19.8718 46.7222 19.7075 45.8997 19.5779C45.4377 19.5052 45.1894 19.2614 45.0377 18.8274C44.7911 18.1184 44.529 17.4112 44.2187 16.7265C44.0152 16.2803 44.0376 15.9172 44.329 15.5282C44.8428 14.8417 45.329 14.1362 45.748 13.55C44.7894 12.5869 43.8825 11.6791 42.9531 10.7453C42.3342 11.1811 41.641 11.6531 40.9686 12.1528C40.5738 12.4451 40.2117 12.4485 39.772 12.2393C39.153 11.9453 38.5168 11.6687 37.8616 11.4767C37.2599 11.3004 36.9737 10.9615 36.8927 10.3528C36.7892 9.57294 36.6289 8.79827 36.4978 8.04782H32.565C32.415 8.89165 32.2477 9.69052 32.1357 10.4998C32.0632 11.0237 31.7857 11.2796 31.3081 11.4439C30.6391 11.6721 29.9787 11.9332 29.3425 12.241C28.858 12.4745 28.4614 12.4589 28.0304 12.1338C27.3649 11.6324 26.6735 11.1655 26.0183 10.7021C25.0907 11.6497 24.2045 12.5557 23.2579 13.5223H23.2596Z" fill="url(#paint1_linear_282_578)"/>
<path d="M43.5518 22.0885C43.4777 26.4668 40.3397 30.1672 36.081 30.9003C31.8413 31.6283 27.6705 29.2628 26.1325 25.2546C26.0704 25.0938 25.936 24.9036 25.9791 24.7722C26.0808 24.4558 26.1998 24.0096 26.4342 23.9128C26.667 23.816 27.0722 24.0408 27.3567 24.205C27.4894 24.2811 27.5188 24.5422 27.5912 24.7221C29.0102 28.2547 32.8275 30.1758 36.4413 29.1729C40.1138 28.1527 42.4949 24.5249 41.8897 20.8764C41.2449 16.9944 37.9483 14.2451 34.1034 14.5114C31.1085 14.7189 28.9533 16.2595 27.6722 19.0003C27.5808 19.1957 27.5446 19.4654 27.3929 19.5692C27.1515 19.7317 26.7705 19.9323 26.5653 19.8441C26.3222 19.7403 26.1567 19.3651 26.0446 19.0729C25.9911 18.9311 26.1222 18.7046 26.1946 18.5282C27.7894 14.5978 32.1051 12.2669 36.2086 13.1142C40.5656 14.0134 43.6225 17.7535 43.5501 22.0937L43.5518 22.0885Z" fill="url(#paint2_linear_282_578)"/>
<path d="M34.553 26.9527C31.815 26.97 29.565 24.748 29.546 22.0108C29.5271 19.2493 31.7909 16.9668 34.5375 16.9737C37.2789 16.9806 39.4911 19.2078 39.4945 21.9641C39.4979 24.7307 37.3151 26.9354 34.5513 26.9527H34.553ZM37.9462 22.0298C37.9686 20.0983 36.4669 18.5472 34.5565 18.5265C32.6978 18.5057 31.1305 20.0395 31.096 21.9105C31.0616 23.8143 32.5961 25.3861 34.5013 25.3999C36.3979 25.4137 37.9255 23.9197 37.9479 22.0298H37.9462Z" fill="url(#paint3_linear_282_578)"/>
<defs>
<linearGradient id="paint0_linear_282_578" x1="32.0088" y1="0.00244141" x2="32.0088" y2="63.4175" gradientUnits="userSpaceOnUse">
<stop stop-color="#90C43F"/>
<stop offset="1" stop-color="#2C93AE"/>
</linearGradient>
<linearGradient id="paint1_linear_282_578" x1="34.441" y1="6.44861" x2="34.441" y2="37.5318" gradientUnits="userSpaceOnUse">
<stop stop-color="#90C43F"/>
<stop offset="1" stop-color="#2C93AE"/>
</linearGradient>
<linearGradient id="paint2_linear_282_578" x1="34.7613" y1="12.9409" x2="34.7613" y2="31.0313" gradientUnits="userSpaceOnUse">
<stop stop-color="#90C43F"/>
<stop offset="1" stop-color="#2C93AE"/>
</linearGradient>
<linearGradient id="paint3_linear_282_578" x1="34.5202" y1="16.9737" x2="34.5202" y2="26.9528" gradientUnits="userSpaceOnUse">
<stop stop-color="#90C43F"/>
<stop offset="1" stop-color="#2C93AE"/>
</linearGradient>
</defs>
</svg>
