<svg width="64" height="65" viewBox="0 0 64 65" fill="none" xmlns="http://www.w3.org/2000/svg">
<path d="M10.5321 41.1754C9.52784 40.4189 9.25024 39.4886 9.56883 38.3252C9.63031 38.0996 9.34898 37.6871 9.11423 37.4929C8.57952 37.0527 7.95911 36.7198 7.4039 36.3018C5.9097 35.1773 5.60974 33.8733 6.49285 32.2365C6.80957 31.6502 7.21387 31.1083 7.60698 30.5663C8.48823 29.3475 9.37134 28.1323 10.2824 26.9356C10.9475 26.0627 11.1972 25.1046 11.1152 24.0189C10.7873 19.6983 11.9871 15.6922 13.8558 11.8784C16.6822 6.10775 21.448 2.77854 27.7322 1.64661C33.6029 0.588664 39.4791 0.736629 45.1411 2.73045C53.3182 5.61022 57.9741 11.4049 58.874 20.0201C59.4273 25.321 58.1027 30.2778 55.7198 34.9812C54.2833 37.8148 53.0499 40.7075 52.4426 43.8406C51.498 48.7235 52.1724 53.4436 53.9405 58.0323C54.628 59.8153 55.4738 61.5391 56.2768 63.2758C56.7743 64.3486 56.4054 64.9922 55.213 64.9941C45.3795 64.9978 35.5461 64.9978 25.7126 64.9941C24.6916 64.9941 24.3675 64.6685 24.3954 63.6698C24.4569 61.4669 24.3656 59.2826 23.5794 57.1889C23.3688 56.6303 23.0987 56.0903 22.8118 55.565C21.897 53.8911 20.4512 53.0348 18.5583 52.8258C17.4293 52.7 16.2946 52.5539 15.1898 52.2968C12.4529 51.6587 11.2289 50.1791 11.0332 47.3973C10.9885 46.7759 11.0016 46.147 10.9084 45.533C10.8264 44.9966 10.6792 44.4602 10.4743 43.9572C10.1035 43.0453 9.85575 42.1594 10.5321 41.1773V41.1754ZM26.5827 63.0021H53.8827C53.2251 61.417 52.5394 59.9059 51.9637 58.3541C50.2944 53.8671 49.6144 49.2561 50.3559 44.4861C50.885 41.0792 52.042 37.8813 53.6238 34.8296C55.3825 31.4356 56.6271 27.8919 56.9699 24.0651C57.7375 15.5202 53.5604 7.6059 44.4368 4.52268C39.2481 2.7693 33.901 2.63428 28.5278 3.44808C25.504 3.90493 22.6515 4.92588 20.2742 6.89381C15.2327 11.0683 13.2 16.678 13.0808 22.9813C13.0361 25.2988 12.6541 27.2945 11.1655 29.0626C10.8227 29.4695 10.5171 29.906 10.206 30.337C9.54275 31.2544 8.84595 32.1514 8.23857 33.1058C7.74299 33.8844 7.86223 34.2655 8.60933 34.8C9.23161 35.2439 9.89115 35.6378 10.4985 36.1002C11.2438 36.668 11.7226 37.4541 11.5288 38.3807C11.3742 39.1279 11.6071 39.5644 12.1045 40.0583C12.8013 40.75 12.7659 41.3086 12.2722 42.1779C12.1362 42.4183 12.1958 42.8104 12.2629 43.1138C12.438 43.9146 12.7063 44.697 12.8591 45.5015C12.9653 46.0638 12.941 46.6501 12.9783 47.2272C13.105 49.1988 13.8223 50.0552 15.7767 50.4565C16.7306 50.6526 17.7013 50.7876 18.6701 50.8838C21.4405 51.1612 23.4639 52.5132 24.7121 54.975C25.0866 55.713 25.4835 56.4768 25.6455 57.2721C26.0256 59.1383 26.2697 61.0323 26.5827 62.9984V63.0021Z" fill="url(#paint0_linear_282_560)"/>
<path d="M35.3997 29.2642C33.7192 29.2753 32.279 28.7945 31.068 27.607C29.6017 28.5503 28.1373 29.4751 26.7027 30.4406C26.5593 30.5367 26.5332 30.8845 26.5388 31.112C26.5779 33.1261 25.2514 34.6576 23.2392 34.8999C21.4376 35.1162 19.7291 33.8438 19.3286 31.9849C19.0249 30.5811 19.6658 29.0811 20.9178 28.2673C22.1717 27.4498 23.8168 27.4887 25.0427 28.3691C25.229 28.5022 25.4042 28.652 25.611 28.8148C27.0567 27.8826 28.4932 26.956 29.7601 26.1385C29.6967 24.9677 29.4639 23.9153 29.6371 22.9332C29.7992 22.0232 30.3488 21.1613 30.8258 20.3346C31.0233 19.9924 31.1071 19.7908 30.904 19.432C30.1476 18.1095 29.408 16.776 28.7074 15.424C28.4708 14.9671 28.2137 14.8377 27.6939 14.871C25.7619 14.9967 24.1205 13.6946 23.8485 11.8913C23.5578 9.96408 24.6626 8.26988 26.5295 7.7705C27.9659 7.38764 29.5309 7.95361 30.4085 9.17432C31.3065 10.4228 31.3437 12.0559 30.4252 13.3173C30.1178 13.7409 30.1104 14.0257 30.3693 14.4678C31.1053 15.7218 31.7946 17.0035 32.4746 18.2889C32.6758 18.6663 32.8342 18.8327 33.3186 18.6589C34.4682 18.2464 35.6512 18.276 36.797 18.7051C37.1659 18.8438 37.3746 18.7957 37.6261 18.498C38.5074 17.4548 39.4054 16.4246 40.3258 15.4184C40.5959 15.1244 40.5791 14.9098 40.4208 14.5732C39.7147 13.075 40.0481 11.4067 41.2312 10.3321C42.4292 9.24275 44.1656 9.05595 45.5611 9.8679C46.9584 10.6799 47.6384 12.2464 47.2863 13.8389C46.9491 15.3648 45.6095 16.5282 43.9681 16.6391C43.4949 16.6706 43.0123 16.4875 42.5298 16.4634C42.2988 16.4523 41.9765 16.506 41.8367 16.6576C40.8511 17.7322 39.9028 18.8383 39.0607 19.8C39.5283 20.9135 39.9513 21.94 40.3984 22.9554C40.4487 23.0682 40.6257 23.1755 40.758 23.1977C42.5 23.4733 44.242 23.7507 45.9933 23.9726C46.1852 23.9967 46.4814 23.7248 46.623 23.5195C47.5099 22.2211 49.0264 21.6089 50.5747 21.9603C51.9906 22.2822 53.0936 23.4807 53.3172 24.9418C53.5985 26.7877 52.4285 28.5596 50.6343 29.0053C48.747 29.4732 46.8224 28.4634 46.2672 26.6249C46.0921 26.0442 45.794 25.8943 45.2648 25.8259C43.8153 25.6373 42.3696 25.4153 40.9257 25.1767C40.4934 25.1064 40.2773 25.1619 40.1171 25.6354C39.696 26.8802 38.8818 27.8456 37.7249 28.4985C37.4212 28.6705 37.2963 28.8351 37.3653 29.1995C37.8068 31.5558 38.2093 33.9196 38.675 36.2704C38.7123 36.4627 39.1129 36.6662 39.3737 36.7198C41.1567 37.0842 42.3919 38.5083 42.405 40.2691C42.4161 41.9245 41.302 43.3949 39.7165 43.8147C38.0788 44.2475 36.3611 43.5244 35.5506 42.0613C34.7495 40.615 34.9954 38.7858 36.2474 37.6964C36.7188 37.2858 36.8175 36.9381 36.702 36.3518C36.24 34.025 35.8375 31.6853 35.3978 29.2716L35.3997 29.2642ZM38.5018 23.8136C38.4962 21.8771 36.8809 20.2846 34.9507 20.3105C33.0168 20.3364 31.4741 21.8919 31.476 23.8117C31.4779 25.7612 33.0615 27.3296 35.0178 27.3167C36.92 27.3056 38.5055 25.7094 38.4999 23.8136H38.5018ZM45.4213 12.977C45.399 12.067 44.6146 11.2995 43.7091 11.305C42.7664 11.3106 41.9783 12.1114 41.997 13.0454C42.0137 13.9517 42.7981 14.7174 43.7091 14.7156C44.6463 14.7156 45.4456 13.9036 45.4232 12.9752L45.4213 12.977ZM51.4298 25.4837C51.4373 24.5719 50.6194 23.7655 49.6972 23.7766C48.7898 23.7877 48.0222 24.5405 47.998 25.4449C47.9738 26.3678 48.76 27.1779 49.6897 27.1872C50.6138 27.1983 51.4205 26.4085 51.4298 25.4837ZM27.4443 9.57937C26.509 9.57382 25.7432 10.3025 25.7227 11.2181C25.7004 12.1614 26.4717 12.9456 27.4275 12.9511C28.3497 12.9567 29.1229 12.2168 29.1471 11.305C29.1732 10.3562 28.4093 9.58492 27.4443 9.57937ZM21.1898 31.2803C21.1805 32.2032 21.9127 32.9745 22.8294 33.0059C23.7684 33.0392 24.5676 32.2698 24.5807 31.3191C24.5937 30.3721 23.8112 29.5824 22.8703 29.5935C21.9518 29.6046 21.1973 30.361 21.188 31.2784L21.1898 31.2803ZM40.4562 40.3413C40.4729 39.3961 39.7016 38.6064 38.7552 38.599C37.8404 38.5916 37.0728 39.3443 37.0541 40.2673C37.0355 41.2179 37.8068 42.0096 38.7514 42.0096C39.6681 42.0096 40.4413 41.2531 40.4562 40.3413Z" fill="url(#paint1_linear_282_560)"/>
<defs>
<linearGradient id="paint0_linear_282_560" x1="32.499" y1="0.996826" x2="32.499" y2="64.9968" gradientUnits="userSpaceOnUse">
<stop stop-color="#90C43F"/>
<stop offset="1" stop-color="#2C93AE"/>
</linearGradient>
<linearGradient id="paint1_linear_282_560" x1="36.3064" y1="7.6521" x2="36.3064" y2="43.9391" gradientUnits="userSpaceOnUse">
<stop stop-color="#90C43F"/>
<stop offset="1" stop-color="#2C93AE"/>
</linearGradient>
</defs>
</svg>
