<svg width="64" height="64" viewBox="0 0 64 64" fill="none" xmlns="http://www.w3.org/2000/svg">
<path d="M31.9963 0C33.2584 0.205402 34.5337 0.357366 35.7825 0.627895C45.1916 2.65686 52.7707 10.6592 54.3832 20.2329C56.6134 33.4671 48.3883 45.6944 35.3358 48.55C22.3763 51.3838 9.19254 42.7386 6.52058 29.6497C4.03795 17.4925 10.5709 5.71117 22.1803 1.43113C24.0917 0.726421 26.0695 0.288898 28.1021 0.113555C28.2831 0.098526 28.4608 0.0384085 28.6402 0C29.7594 0 30.877 0 31.9963 0ZM24.6995 46.1569C24.55 45.7779 24.4404 45.509 24.3391 45.2385C23.4175 42.767 22.7134 40.2487 22.8196 37.5768C22.9658 33.9297 24.9237 31.712 28.4973 31.0908C30.1347 30.8069 31.7688 30.9105 33.3696 31.2829C35.3126 31.7354 36.7722 31.0825 37.7703 29.4326C38.6388 27.9964 39.4176 26.5018 40.1749 25.0022C41.1048 23.1603 42.5247 21.973 44.5158 21.477C46.2661 21.0412 48.013 21.1681 49.7451 21.5605C50.6634 21.7676 51.5635 22.0565 52.5316 22.3253C52.3273 20.2964 51.8873 18.3743 51.1516 16.5624C50.4342 16.8095 49.8049 17.0901 49.1439 17.2421C46.1116 17.9418 43.2736 17.2838 40.5568 15.9061C38.9809 15.1079 38.2552 13.6383 38.5142 11.8716C38.7401 10.3386 39.3695 8.96587 40.1649 7.66332C40.6515 6.86843 41.1829 6.1036 41.7143 5.29202C39.8477 4.17483 37.8865 3.34655 35.746 2.83555C35.746 3.19959 35.7593 3.49016 35.7443 3.77906C35.6164 6.25056 35.5567 8.72874 35.3242 11.1885C35.1614 12.9103 34.6716 14.5802 33.7433 16.0764C32.8864 17.4575 31.6824 18.1872 30.0251 18.1305C28.9075 18.0921 27.7866 18.0887 26.6706 18.1305C24.736 18.2023 23.1866 19.0306 22.1919 20.7222C21.7004 21.5588 21.35 22.479 20.9348 23.3607C20.4499 24.391 20.078 25.4965 19.4536 26.4334C18.13 28.4223 16.1821 29.0836 13.8689 28.6711C11.9276 28.3237 10.2736 27.3418 8.68604 26.2246C8.54655 26.1261 8.40042 26.0393 8.21941 25.9224C8.22771 27.7459 8.86207 30.8236 9.42004 31.7788C9.5861 31.7287 9.76213 31.6803 9.9365 31.6235C13.6513 30.4078 18.4854 32.4201 19.2327 37.2662C19.5399 39.2618 19.339 41.2056 18.9255 43.1527C18.8856 43.3431 18.9421 43.6804 19.0716 43.7589C20.7837 44.8277 22.6254 45.6009 24.6995 46.1536V46.1569ZM30.6661 46.9819C39.3811 46.531 46.0933 42.5081 50.3014 34.4925C51.8109 31.6168 52.5233 28.5041 52.6163 25.2561C52.6229 25.039 52.4967 24.6833 52.339 24.6198C50.4342 23.8299 48.4747 23.2672 46.3806 23.339C44.2816 23.4108 42.8169 24.351 41.8886 26.3014C41.1148 27.9263 40.2081 29.4994 39.2183 31.0023C37.8035 33.1515 35.7659 33.8779 33.2301 33.4321C31.9365 33.2049 30.5964 33.0981 29.2861 33.1599C26.9596 33.2701 25.5431 34.4541 25.0947 36.4596C24.9868 36.9439 24.9237 37.4499 24.9286 37.9442C24.9635 40.9618 25.9084 43.7439 27.1738 46.4358C27.2419 46.5828 27.481 46.7147 27.6537 46.7331C28.5787 46.8316 29.5087 46.8917 30.6661 46.9836V46.9819ZM33.5905 2.36296C32.6572 2.2828 31.8136 2.16089 30.9683 2.14753C25.2956 2.04734 20.2473 3.80244 15.9446 7.52138C11.3613 11.4841 8.78402 16.534 8.23767 22.6059C8.21941 22.8096 8.24432 23.1102 8.37385 23.2221C10.0876 24.7183 11.896 26.0727 14.1761 26.5636C15.6756 26.8859 16.9493 26.4618 17.7846 25.1258C18.2097 24.4461 18.4821 23.673 18.8292 22.9449C19.4004 21.7492 19.8787 20.4934 20.5728 19.3762C21.7535 17.4775 23.5121 16.3353 25.7523 16.1182C27.0659 15.9896 28.401 15.9429 29.7162 16.0213C30.9999 16.0982 31.7488 15.517 32.2454 14.4366C32.3932 14.1159 32.526 13.7886 32.6389 13.4563C33.2766 11.5877 33.4908 9.64052 33.5739 7.6867C33.6469 5.94496 33.5888 4.19821 33.5888 2.36462L33.5905 2.36296ZM43.5044 6.47266C42.9614 7.29093 42.3818 8.01067 41.9733 8.81725C41.4536 9.84759 40.9869 10.9214 40.6581 12.0252C40.3559 13.0388 40.7113 13.7001 41.6877 14.0642C42.9797 14.5451 44.2932 15.0244 45.6383 15.2866C47.2226 15.5955 48.7969 15.3634 50.2781 14.5267C48.654 11.3105 46.4354 8.67196 43.5028 6.47099L43.5044 6.47266ZM16.9128 42.3295C17.2582 40.7547 17.401 39.2935 17.1868 37.814C16.8281 35.3324 15.2107 33.7594 12.7131 33.4571C11.8412 33.3519 11.0059 33.4671 10.1491 33.8429C11.725 37.2362 13.9386 40.0183 16.9128 42.3295Z" fill="url(#paint0_linear_282_569)"/>
<path d="M25.066 57.6093C25.066 56.073 25.0561 54.6385 25.0727 53.2024C25.0777 52.8133 24.8435 52.7916 24.5629 52.7315C20.4943 51.8731 16.7778 50.2166 13.4284 47.74C10.6468 45.6844 8.30199 43.2062 6.43213 40.2871C6.25278 40.0082 6.06513 39.5941 6.14484 39.3219C6.24448 38.9796 6.56498 38.6155 6.88548 38.4485C7.3106 38.2298 7.7324 38.4719 8.01471 38.8593C8.52784 39.564 8.99614 40.3038 9.5375 40.9868C14.0179 46.6345 19.8351 49.9711 26.9376 50.9664C40.3471 52.8467 53.3017 43.7957 56.1995 30.508C56.5964 28.6911 56.6595 26.8008 56.8803 24.9455C56.9152 24.6582 56.9053 24.3476 57.0165 24.0921C57.2307 23.5895 57.6675 23.3941 58.1906 23.5093C58.722 23.6262 59.0259 24.0003 58.9943 24.5447C58.9146 25.9775 58.9146 27.4286 58.6738 28.8364C57.0149 38.5537 51.8254 45.7178 43.137 50.2917C40.945 51.4456 38.6068 52.2121 36.1856 52.7214C35.9016 52.7816 35.6824 52.8166 35.6874 53.2007C35.704 54.6369 35.6941 56.0713 35.6941 57.6077C35.9515 57.6077 36.169 57.6077 36.3865 57.6077C38.914 57.6077 41.4398 57.6027 43.9673 57.6093C45.9351 57.6144 47.3633 58.977 47.3467 60.8206C47.3301 62.6492 45.9169 63.9952 43.9856 63.9968C34.8936 64.0002 25.8 64.0018 16.7081 63.9968C14.9661 63.9968 13.6343 62.8362 13.445 61.193C13.254 59.5415 14.262 58.0702 15.8678 57.6928C16.185 57.6177 16.5238 57.6127 16.8542 57.6127C19.3402 57.606 21.8245 57.6093 24.3104 57.6093C24.5346 57.6093 24.7588 57.6093 25.0644 57.6093H25.066ZM30.3817 59.7402C25.9478 59.7402 21.5156 59.7402 17.0817 59.7402C16.8957 59.7402 16.7081 59.7318 16.5221 59.7485C15.9459 59.802 15.5623 60.2094 15.5473 60.7689C15.5324 61.3249 15.896 61.7675 16.459 61.8526C16.6616 61.8827 16.8725 61.8693 17.0801 61.8693C25.9462 61.8693 34.8123 61.8693 43.6784 61.8693C43.8859 61.8693 44.0952 61.8827 44.2994 61.8526C44.8624 61.7675 45.2277 61.3249 45.2128 60.7689C45.1995 60.2111 44.8142 59.802 44.2396 59.7485C44.0553 59.7318 43.8677 59.7402 43.68 59.7402C39.2461 59.7402 34.8139 59.7402 30.38 59.7402H30.3817ZM27.2215 57.5626H33.5186V53.2558H27.2215V57.5626Z" fill="url(#paint1_linear_282_569)"/>
<defs>
<linearGradient id="paint0_linear_282_569" x1="30.3721" y1="0" x2="30.3721" y2="49.0887" gradientUnits="userSpaceOnUse">
<stop stop-color="#90C43F"/>
<stop offset="1" stop-color="#2C93AE"/>
</linearGradient>
<linearGradient id="paint1_linear_282_569" x1="32.5613" y1="23.4772" x2="32.5613" y2="64" gradientUnits="userSpaceOnUse">
<stop stop-color="#90C43F"/>
<stop offset="1" stop-color="#2C93AE"/>
</linearGradient>
</defs>
</svg>
