<svg width="64" height="65" viewBox="0 0 64 65" fill="none" xmlns="http://www.w3.org/2000/svg">
<path d="M11.9405 41.9104C14.5668 40.6471 17.1107 39.4131 19.6632 38.1965C21.1988 37.4644 22.7826 36.8743 24.5071 36.8103C26.8861 36.722 28.9061 37.7188 30.8729 38.9182C31.4827 39.2903 32.1594 39.5931 32.8431 39.7904C35.0417 40.4273 37.2592 41.0088 39.4716 41.5989C40.7066 41.9277 41.7081 42.5854 42.3677 43.693C42.5858 44.0582 42.7833 44.0616 43.144 43.9543C46.8989 42.8381 50.6538 41.7235 54.419 40.6453C55.9958 40.1936 57.6087 39.9825 59.2474 40.2854C61.9991 40.7942 63.4471 42.9419 62.8408 45.6867C62.4045 47.6579 61.3035 49.2154 59.4312 49.9544C52.6601 52.6231 45.8632 55.2311 39.0559 57.8063C36.6907 58.7011 34.2825 58.7807 31.8245 57.943C29.3957 57.1158 26.8981 56.4928 24.4401 55.7469C23.1639 55.3592 21.9598 55.4267 20.7746 56.0636C19.9844 56.4876 19.1634 56.8579 18.2925 57.2837C18.4488 57.6834 18.6017 58.0521 18.7408 58.4276C19.3008 59.9212 18.7133 61.3818 17.2567 62.0204C15.8637 62.6313 14.4603 63.2146 13.0467 63.777C11.5351 64.3793 10.0648 63.7909 9.4361 62.28C7.00729 56.4582 4.59737 50.6294 2.20463 44.7937C1.6 43.3174 2.23726 41.8533 3.70589 41.2147C5.08004 40.6159 6.46622 40.0414 7.85411 39.4789C9.41721 38.8455 10.8687 39.465 11.5506 41.033C11.6691 41.3064 11.7893 41.5799 11.9353 41.9104H11.9405ZM17.5848 55.6032C18.5759 55.1238 19.5104 54.6496 20.462 54.2187C21.5389 53.7289 22.6761 53.4936 23.8441 53.7739C25.2165 54.1045 26.5718 54.5043 27.9288 54.8937C29.7186 55.4077 31.5067 55.932 33.2897 56.4685C35.1791 57.0362 37.0067 56.6624 38.7622 55.9961C45.3891 53.4815 52.0005 50.9201 58.6067 48.3484C59.986 47.8119 60.7675 46.6887 61.1008 45.2609C61.4701 43.6809 60.7246 42.376 59.1306 42.151C58.0089 41.9935 56.7842 41.9606 55.7038 42.2462C51.6896 43.3036 47.7165 44.522 43.7229 45.659C43.2866 45.7836 43.1303 45.9584 43.0925 46.4395C42.852 49.5875 40.1209 51.5241 37.0858 50.7228C34.9953 50.1708 32.9118 49.5962 30.8231 49.032C29.4592 48.6651 28.0919 48.3051 26.7281 47.933C26.041 47.7461 25.7335 47.3273 25.8641 46.7943C26.0049 46.2232 26.4859 45.9999 27.2005 46.1764C27.2623 46.192 27.3224 46.2197 27.3842 46.237C30.7131 47.1352 34.0334 48.0594 37.3743 48.9039C38.0253 49.0683 38.7914 49.0632 39.4373 48.8849C40.6053 48.5613 41.3473 47.355 41.3147 46.154C41.2804 44.8767 40.473 43.7743 39.226 43.423C36.8762 42.7602 34.5092 42.1648 32.1663 41.483C31.4208 41.2666 30.6616 40.9603 30.0278 40.5207C26.9857 38.4163 23.8613 38.0684 20.5186 39.7731C18.0366 41.0382 15.503 42.2029 12.9934 43.4126C12.8801 43.4663 12.777 43.539 12.631 43.6255C14.2834 47.6215 15.9273 51.5951 17.5831 55.6032H17.5848ZM8.91049 41.0555C8.82632 41.0797 8.63738 41.1178 8.46217 41.1905C7.15501 41.7287 5.84785 42.2687 4.54756 42.8208C3.8038 43.1357 3.63546 43.558 3.94808 44.3177C6.29788 50.0098 8.65112 55.6984 11.0078 61.387C11.3496 62.2108 11.7464 62.3665 12.5829 62.0204C13.83 61.5047 15.0753 60.9855 16.3172 60.4594C17.1777 60.0959 17.3289 59.7169 16.9665 58.8378C15.8362 56.0913 14.7008 53.3447 13.5654 50.5982C12.3648 47.6925 11.1624 44.7885 9.96515 41.8827C9.78479 41.4432 9.56493 41.0624 8.91049 41.0538V41.0555Z" fill="url(#paint0_linear_282_551)"/>
<path d="M31.9676 17.7507V16.875C31.9676 11.6953 31.9676 6.51373 31.9676 1.33395C31.9676 0.260952 32.2201 0.0100098 33.2954 0.0100098C36.9815 0.0100098 40.666 0.0100098 44.3521 0.0100098C45.3329 0.0100098 45.6095 0.288642 45.6095 1.27683C45.6095 6.47912 45.6095 11.6814 45.6095 16.8837V17.7525C46.3636 17.7525 47.0833 17.7525 47.803 17.7525C48.3595 17.7525 48.9178 17.7629 49.4743 17.749C49.9449 17.7386 50.3812 17.775 50.62 18.2699C50.8605 18.7701 50.5856 19.1353 50.3039 19.5004C49.4004 20.679 48.4986 21.8593 47.5969 23.0378C44.9946 26.4385 42.3923 29.8392 39.7882 33.2399C39.0325 34.2264 38.5463 34.2247 37.7854 33.2313C34.3054 28.6866 30.8253 24.142 27.347 19.5956C27.2422 19.4589 27.1306 19.3256 27.0413 19.1785C26.6324 18.5001 26.9966 17.7802 27.7885 17.7594C28.9238 17.73 30.0592 17.7507 31.1946 17.749C31.4248 17.749 31.6567 17.749 31.9659 17.749L31.9676 17.7507ZM33.7677 1.85487C33.7677 2.13869 33.7677 2.39136 33.7677 2.64404C33.7677 7.86709 33.7677 13.0901 33.7677 18.3132C33.7677 19.2529 33.4671 19.5575 32.5447 19.5627C31.6103 19.5679 30.6776 19.5627 29.6006 19.5627C32.7096 23.6228 35.7311 27.5704 38.7937 31.5681C41.8701 27.5479 44.8881 23.6038 47.9816 19.5627C46.9338 19.5627 46.0561 19.5627 45.1783 19.5627C44.0739 19.561 43.8128 19.2997 43.8128 18.1955C43.8128 12.9932 43.8128 7.79267 43.8128 2.59039C43.8128 2.34291 43.8128 2.09542 43.8128 1.85314H33.7695L33.7677 1.85487Z" fill="url(#paint1_linear_282_551)"/>
<defs>
<linearGradient id="paint0_linear_282_551" x1="32.4775" y1="36.8048" x2="32.4775" y2="64.01" gradientUnits="userSpaceOnUse">
<stop stop-color="#90C43F"/>
<stop offset="1" stop-color="#2C93AE"/>
</linearGradient>
<linearGradient id="paint1_linear_282_551" x1="38.7921" y1="0.0100098" x2="38.7921" y2="33.9781" gradientUnits="userSpaceOnUse">
<stop stop-color="#90C43F"/>
<stop offset="1" stop-color="#2C93AE"/>
</linearGradient>
</defs>
</svg>
