<svg width="46" height="50" viewBox="0 0 46 50" fill="none" xmlns="http://www.w3.org/2000/svg">
<path d="M16.5372 27.8239C16.2351 27.8239 15.9453 27.7043 15.7317 27.4914C15.518 27.2785 15.398 26.9897 15.398 26.6886C15.398 26.3875 15.518 26.0988 15.7317 25.8859C15.9453 25.673 16.2351 25.5534 16.5372 25.5534H20.5266C20.2802 26.0318 20.0607 26.5236 19.8692 27.0264C19.7671 27.2868 19.6773 27.5513 19.5915 27.8402L16.5372 27.8239ZM36.6105 46.7366C36.5284 47.1804 36.371 47.607 36.145 47.998C35.795 48.6088 35.2885 49.116 34.6772 49.4678C34.066 49.8195 33.3719 50.0032 32.6661 50C32.1931 50.002 31.7233 49.9222 31.2778 49.764C30.8298 49.6057 30.4146 49.3672 30.0528 49.06C29.6936 48.7649 29.3871 48.4114 29.1463 48.0143C28.9141 47.6112 28.7551 47.1704 28.6768 46.7122C28.6577 46.6006 28.6834 46.486 28.7483 46.3932C28.8132 46.3003 28.9122 46.2366 29.0238 46.2158H36.1981C36.3064 46.2158 36.4103 46.2587 36.4868 46.335C36.5634 46.4113 36.6064 46.5148 36.6064 46.6227C36.6107 46.6605 36.6107 46.6988 36.6064 46.7366H36.6105ZM34.9078 23.5433C35.252 23.6317 35.5902 23.7417 35.9204 23.8729C36.402 24.0637 36.8676 24.2923 37.3128 24.5565L37.3659 24.589C37.7824 24.8457 38.1783 25.1341 38.5501 25.4516C38.9319 25.7769 39.2856 26.1335 39.6076 26.5177C39.9315 26.9072 40.2211 27.3238 40.4733 27.7628C40.7292 28.2043 40.9491 28.6656 41.1307 29.1422C41.3126 29.6334 41.4493 30.14 41.539 30.6559C41.633 31.181 41.6795 31.7135 41.6778 32.2469V33.9762C41.6778 34.5255 41.6778 35.0667 41.6778 35.6038C41.6793 36.0826 41.7093 36.5609 41.7677 37.0361C41.8263 37.4978 41.9122 37.9557 42.0249 38.4074C42.1347 38.8396 42.2851 39.2606 42.4741 39.6647C42.6719 40.0921 42.9084 40.5007 43.1805 40.8854C43.4807 41.3039 43.8257 41.6886 44.2094 42.0328C44.6712 42.4534 45.1654 42.8371 45.6876 43.1803C45.8142 43.2646 45.91 43.3875 45.9604 43.5307C46.0108 43.6739 46.0132 43.8295 45.9671 43.9742C45.921 44.1188 45.829 44.2446 45.7049 44.3326C45.5809 44.4206 45.4315 44.466 45.2793 44.462H19.9508C19.8583 44.4626 19.7665 44.4449 19.6808 44.4099C19.5951 44.375 19.5172 44.3235 19.4516 44.2585C19.3859 44.1935 19.3338 44.1161 19.2983 44.0309C19.2627 43.9458 19.2444 43.8544 19.2444 43.7622C19.2413 43.6349 19.2726 43.5092 19.3351 43.3982C19.3977 43.2872 19.489 43.1951 19.5997 43.1315C20.1189 42.7893 20.6104 42.407 21.0697 41.9881C21.4518 41.6432 21.7942 41.257 22.0905 40.8366L22.119 40.7999C22.3758 40.425 22.6025 40.0304 22.7969 39.6199C22.9872 39.2155 23.1403 38.7946 23.2542 38.3626C23.2542 38.3626 23.2542 38.3626 23.2542 38.3382C23.363 37.9071 23.4435 37.4695 23.4951 37.028C23.553 36.5473 23.5816 36.0635 23.5809 35.5794V32.251C23.5816 31.7161 23.6294 31.1824 23.7238 30.6559C23.8122 30.1384 23.9489 29.6303 24.1321 29.1382C24.3157 28.6571 24.5383 28.1917 24.7977 27.7466C25.0541 27.3048 25.3478 26.8855 25.6756 26.4933C26.0031 26.1038 26.3623 25.7418 26.7495 25.411C27.5371 24.7385 28.4349 24.2058 29.4036 23.8363C29.7423 23.7091 30.0887 23.6031 30.4407 23.5189C30.5424 23.123 30.7599 22.7661 31.0655 22.4935C31.5183 22.1154 32.1015 21.9285 32.6906 21.9726C33.2744 21.9417 33.8487 22.1305 34.2994 22.5016C34.6006 22.7778 34.8172 23.1333 34.9241 23.527L34.9078 23.5433ZM35.2835 25.6999C34.9147 25.5551 34.5352 25.4395 34.1483 25.354C34.0002 25.3358 33.8625 25.2686 33.7574 25.163C33.6522 25.0575 33.5857 24.9198 33.5685 24.7721C33.5591 24.5441 33.4695 24.3266 33.3153 24.1577C33.1285 24.0189 32.8988 23.9498 32.6661 23.9624C32.4425 23.9401 32.2185 24.001 32.0373 24.1333C31.8815 24.3024 31.793 24.5223 31.7882 24.7518C31.7729 24.8942 31.7117 25.0278 31.6138 25.1327C31.5159 25.2376 31.3866 25.3081 31.2451 25.3336C30.8274 25.409 30.4173 25.522 30.0201 25.6714C29.6307 25.8187 29.2549 25.9997 28.8972 26.2125C28.5407 26.4245 28.2033 26.6669 27.8887 26.9368C27.5757 27.2047 27.2848 27.4973 27.019 27.8117C26.7568 28.1315 26.5206 28.4717 26.3126 28.8289C26.1045 29.1919 25.9243 29.57 25.7736 29.9601C25.6231 30.3557 25.5096 30.7644 25.4346 31.1808C25.3598 31.6053 25.3229 32.0356 25.3244 32.4666V35.6364C25.3244 36.1532 25.293 36.6695 25.2305 37.1826C25.1697 37.6666 25.0783 38.1464 24.9569 38.619C24.9569 38.619 24.9569 38.6393 24.9569 38.6515C24.8271 39.1413 24.6522 39.618 24.4343 40.0757C24.2181 40.5298 23.9669 40.9665 23.6829 41.3818L23.6584 41.4225C23.3188 41.8959 22.9301 42.3323 22.4988 42.7246H42.8252C42.3912 42.3323 42.001 41.8943 41.6615 41.4184C41.3584 40.9892 41.0933 40.5344 40.8693 40.0594C40.6463 39.6091 40.4659 39.1392 40.3304 38.6556C40.2094 38.1692 40.1181 37.6759 40.0568 37.1785C39.9974 36.6734 39.9661 36.1653 39.9629 35.6567C39.9629 35.1562 39.9629 34.6395 39.9629 34.1024C39.9629 33.1014 39.9629 32.5602 39.9629 32.4747C39.9644 32.0422 39.9261 31.6104 39.8485 31.1849C39.7771 30.7685 39.6663 30.3598 39.5178 29.9642C39.3715 29.5749 39.194 29.1979 38.987 28.8371C38.7816 28.4817 38.5467 28.1441 38.2846 27.8279C38.0227 27.514 37.7344 27.2227 37.4231 26.9572C37.1217 26.7009 36.8009 26.4683 36.4635 26.2614L36.4186 26.2329C36.0581 26.0231 35.6828 25.8395 35.2957 25.6836L35.2835 25.6999ZM6.83952 26.6968C6.72718 26.5122 6.69059 26.2917 6.73737 26.0809C6.78416 25.8702 6.91071 25.6856 7.09067 25.5655C7.27063 25.4454 7.49013 25.3991 7.70348 25.4363C7.91682 25.4734 8.10757 25.5912 8.23599 25.765L8.69331 26.4486L10.5104 24.2472C10.578 24.1554 10.6637 24.0782 10.7622 24.0205C10.8607 23.9628 10.97 23.9257 11.0835 23.9114C11.1969 23.8972 11.312 23.9062 11.4218 23.9378C11.5316 23.9693 11.6338 24.0229 11.7222 24.0952C11.8105 24.1674 11.8832 24.2569 11.9357 24.3581C11.9882 24.4592 12.0195 24.57 12.0276 24.6836C12.0357 24.7972 12.0205 24.9113 11.9829 25.0189C11.9452 25.1264 11.886 25.2252 11.8088 25.3092L9.29355 28.3569C9.23806 28.4291 9.17035 28.4911 9.09347 28.54C8.90799 28.6631 8.68122 28.7083 8.46251 28.6656C8.2438 28.6229 8.05085 28.4959 7.92566 28.3122L6.83952 26.6846V26.6968ZM6.83952 18.7215C6.77214 18.6303 6.724 18.5265 6.698 18.4163C6.672 18.306 6.66868 18.1917 6.68825 18.0802C6.70781 17.9686 6.74985 17.8622 6.81182 17.7673C6.87379 17.6724 6.95442 17.591 7.04884 17.528C7.14325 17.465 7.2495 17.4217 7.36116 17.4007C7.47282 17.3798 7.58759 17.3816 7.69853 17.4061C7.80948 17.4305 7.9143 17.4771 8.00667 17.5431C8.09904 17.609 8.17705 17.6929 8.23599 17.7897L8.69331 18.4692L10.5104 16.276C10.6557 16.1179 10.8563 16.0213 11.071 16.0061C11.2856 15.9909 11.498 16.0582 11.6643 16.1942C11.8307 16.3303 11.9383 16.5247 11.9652 16.7375C11.9921 16.9502 11.9361 17.1652 11.8088 17.338L9.29355 20.3857C9.23793 20.4589 9.17028 20.5222 9.09347 20.5729C9.00179 20.6344 8.89885 20.6773 8.79053 20.6991C8.68221 20.7209 8.57064 20.7213 8.46218 20.7001C8.35373 20.679 8.25053 20.6367 8.15847 20.5758C8.06641 20.5149 7.9873 20.4364 7.92566 20.345L6.83952 18.7174V18.7215ZM6.83952 10.7422C6.77214 10.651 6.724 10.5472 6.698 10.437C6.672 10.3267 6.66868 10.2124 6.68825 10.1009C6.70781 9.98932 6.74985 9.88288 6.81182 9.78798C6.87379 9.69307 6.95442 9.61166 7.04884 9.54867C7.14325 9.48567 7.2495 9.44238 7.36116 9.42143C7.47282 9.40047 7.58759 9.40228 7.69853 9.42674C7.80948 9.45119 7.9143 9.4978 8.00667 9.56374C8.09904 9.62967 8.17705 9.71358 8.23599 9.81039L8.69331 10.4858L10.5104 8.28451C10.6533 8.11292 10.8588 8.00495 11.0816 7.98435C11.3045 7.96374 11.5264 8.0322 11.6986 8.17465C11.8708 8.3171 11.9791 8.52187 11.9998 8.74393C12.0205 8.96599 11.9518 9.18714 11.8088 9.35873L9.29355 12.4064C9.23707 12.4788 9.16956 12.542 9.09347 12.5936C8.90749 12.7163 8.68037 12.7608 8.46162 12.7173C8.24287 12.6739 8.05022 12.546 7.92566 12.3617L6.83952 10.7341V10.7422ZM16.5372 10.9334C16.3876 10.9334 16.2395 10.9041 16.1013 10.847C15.9631 10.79 15.8375 10.7063 15.7317 10.6009C15.6259 10.4955 15.542 10.3704 15.4847 10.2326C15.4275 10.0949 15.398 9.94726 15.398 9.79818C15.398 9.6491 15.4275 9.50147 15.4847 9.36374C15.542 9.226 15.6259 9.10085 15.7317 8.99543C15.8375 8.89002 15.9631 8.80639 16.1013 8.74934C16.2395 8.69229 16.3876 8.66293 16.5372 8.66293H28.6768C28.8264 8.66293 28.9745 8.69229 29.1127 8.74934C29.2509 8.80639 29.3765 8.89002 29.4823 8.99543C29.5881 9.10085 29.672 9.226 29.7293 9.36374C29.7865 9.50147 29.816 9.6491 29.816 9.79818C29.816 9.94726 29.7865 10.0949 29.7293 10.2326C29.672 10.3704 29.5881 10.4955 29.4823 10.6009C29.3765 10.7063 29.2509 10.79 29.1127 10.847C28.9745 10.9041 28.8264 10.9334 28.6768 10.9334H16.5372ZM2.64193 1.26575e-05H35.116C35.4629 -0.00105965 35.8066 0.0661689 36.1274 0.197837C36.4481 0.329506 36.7396 0.52302 36.9851 0.767266C37.2306 1.01151 37.4252 1.30168 37.5578 1.6211C37.6905 1.94052 37.7584 2.28291 37.7579 2.62859V19.1772L37.566 19.0918C37.0695 18.8941 36.5607 18.7283 36.0429 18.5954C35.9303 18.1978 35.7432 17.8251 35.4917 17.4967V2.6408C35.4894 2.54277 35.4518 2.44885 35.3855 2.37631C35.3123 2.30793 35.2164 2.26882 35.116 2.26645H2.64193C2.54301 2.26752 2.44851 2.30743 2.37894 2.37752C2.30937 2.44761 2.27035 2.54222 2.27036 2.6408V35.1684C2.27035 35.267 2.30937 35.3616 2.37894 35.4317C2.44851 35.5018 2.54301 35.5417 2.64193 35.5428H19.0158V36.6902C19.0158 37.0646 19.0158 37.4308 18.9831 37.7889H2.6501C2.30272 37.7919 1.95818 37.7262 1.63647 37.5956C1.31475 37.465 1.02224 37.2721 0.775885 37.028C0.527929 36.7849 0.331488 36.4947 0.198219 36.1746C0.0649489 35.8545 -0.00243439 35.5109 6.7182e-05 35.1644V2.63266C-0.0010112 2.28663 0.0665866 1.94381 0.198971 1.62392C0.331355 1.30403 0.525912 1.01338 0.771447 0.768701C1.01698 0.524023 1.30865 0.330144 1.62966 0.198222C1.95067 0.0662999 2.29469 -0.00106196 2.64193 1.26575e-05ZM16.525 19.3766C16.3699 19.3859 16.2146 19.3634 16.0685 19.3107C15.9225 19.2579 15.7888 19.176 15.6757 19.0698C15.5627 18.9637 15.4725 18.8356 15.411 18.6935C15.3494 18.5514 15.3176 18.3982 15.3176 18.2434C15.3176 18.0886 15.3494 17.9354 15.411 17.7933C15.4725 17.6512 15.5627 17.5231 15.6757 17.417C15.7888 17.3108 15.9225 17.2289 16.0685 17.1761C16.2146 17.1234 16.3699 17.1009 16.525 17.1102H27.7294C27.9225 17.1094 28.1125 17.1576 28.2816 17.2503C28.4507 17.343 28.5933 17.4772 28.6959 17.6401C28.7985 17.803 28.8577 17.9893 28.8679 18.1814C28.8781 18.3735 28.839 18.565 28.7543 18.7378C28.4277 18.8314 28.1051 18.9412 27.7866 19.0592C27.5294 19.1569 27.2762 19.2627 27.023 19.3766H16.525Z" fill="white"/>
</svg>
