<svg width="53" height="59" viewBox="0 0 53 59" fill="none" xmlns="http://www.w3.org/2000/svg">
<path d="M41.207 38.4499C41.207 32.164 41.207 25.8766 41.207 19.5908C41.207 18.3005 41.5439 17.9537 42.7967 17.9522C45.352 17.9506 47.9072 17.9506 50.4625 17.9537C51.6206 17.9537 52.0026 18.3342 52.0026 19.5018C52.0041 32.1763 52.0026 44.8524 52.0026 57.5269C52.0026 58.63 51.6521 58.9906 50.5497 58.9937C47.9193 59.0013 45.2888 59.0013 42.6584 58.9937C41.5214 58.9906 41.2115 58.6592 41.2115 57.4625C41.2085 51.1244 41.2115 44.7879 41.21 38.4499H41.207ZM43.2254 20.0112V56.9746H49.9361V20.0112H43.2254Z" fill="white"/>
<path d="M38.2447 42.5388C38.2447 47.4991 38.2447 52.4578 38.2447 57.4181C38.2447 58.6946 37.9515 58.9938 36.6866 58.9953C34.1298 58.9999 31.5746 58.9999 29.0178 58.9953C27.771 58.9923 27.4748 58.6885 27.4732 57.3936C27.4717 47.4746 27.4732 37.554 27.4763 27.635C27.4763 26.2634 27.768 25.9765 29.1171 25.975C31.6227 25.9719 34.1298 25.9719 36.6355 25.975C37.965 25.975 38.2477 26.2741 38.2477 27.6596C38.2477 32.6198 38.2477 37.5786 38.2477 42.5388H38.2447ZM36.2505 27.9618C34.0757 27.9618 31.9777 27.9649 29.8796 27.9603C29.3668 27.9603 29.4284 28.3239 29.4284 28.6522C29.4284 37.8762 29.4329 47.1017 29.4164 56.3257C29.4164 56.9317 29.648 57.0453 30.1729 57.0361C31.7506 57.0085 33.3282 57.0269 34.9074 57.0269C35.3466 57.0269 35.7872 57.0269 36.252 57.0269V27.9618H36.2505Z" fill="white"/>
<path d="M24.5238 47.0466C24.5238 50.4956 24.5253 53.9446 24.5238 57.3951C24.5238 58.667 24.2095 58.9938 22.9778 58.9954C20.3984 59 17.8176 59.0015 15.2383 58.9938C14.0652 58.9908 13.7238 58.6302 13.7238 57.4304C13.7223 50.4557 13.7223 43.4794 13.7238 36.5047C13.7238 35.3632 14.0953 34.9796 15.2037 34.9781C17.8342 34.9735 20.4631 34.9735 23.0936 34.9781C24.1494 34.9796 24.5238 35.3708 24.5238 36.4694C24.5269 39.9951 24.5238 43.5208 24.5253 47.0466H24.5238ZM22.5431 37.0309H15.7391V56.961H22.5431V37.0309Z" fill="white"/>
<path d="M33.1465 13.2023C32.4938 12.6929 31.8666 12.2035 31.1221 11.622C33.2818 10.6892 35.3167 9.80853 37.484 8.87109C37.2072 11.2262 36.9455 13.4647 36.6658 15.8474C35.9995 15.3687 35.4055 14.9406 34.7783 14.4911C33.8729 15.4976 33.0126 16.4887 32.1178 17.4445C23.891 26.2389 14.0776 32.4496 2.73307 36.141C2.34504 36.2669 1.82316 36.2607 1.46672 36.0904C1.22909 35.9769 1.00199 35.4092 1.08321 35.1407C1.18548 34.797 1.55094 34.4196 1.88934 34.2846C4.17237 33.3763 6.52008 32.6307 8.76853 31.6426C18.1233 27.5354 26.1154 21.5027 32.8126 13.681C32.9239 13.5506 33.0096 13.3987 33.1465 13.2008V13.2023Z" fill="white"/>
<path d="M0.00312827 49.9662C0.00312827 47.4607 0.000120318 44.9553 0.00463225 42.4498C0.00613623 41.3482 0.373107 40.9708 1.44394 40.9693C4.0759 40.9647 6.70635 40.9647 9.33831 40.9693C10.4001 40.9708 10.7927 41.3605 10.7927 42.4529C10.7987 47.4899 10.7957 52.5253 10.7881 57.5623C10.7881 58.6194 10.4227 58.9892 9.37591 58.9922C6.71989 59.0014 4.06236 59.0014 1.40634 58.9922C0.353555 58.9876 0.00613623 58.6271 0.00312827 57.5608C-0.00288764 55.0292 0.00162429 52.4992 0.00162429 49.9677L0.00312827 49.9662ZM2.01695 42.993V57.0253C4.19471 57.0253 6.31833 57.0376 8.44044 56.9977C8.58031 56.9946 8.82395 56.5896 8.82846 56.3686C8.86005 54.6058 8.84651 52.8429 8.84651 51.0801C8.84651 48.6268 8.84952 46.1735 8.842 43.7202C8.842 43.4149 8.96382 42.996 8.43442 42.996C6.31081 42.993 4.18569 42.996 2.01545 42.996L2.01695 42.993Z" fill="white"/>
<path d="M46.0792 0H47.0644V1.74906C47.8269 1.95158 48.4976 2.06972 49.1188 2.3198C49.388 2.4272 49.6437 2.77241 49.7384 3.06545C49.8181 3.31094 49.6587 3.63927 49.6046 3.93078C49.3519 3.86941 49.1007 3.79423 48.8451 3.75127C48.0239 3.61625 47.2012 3.40759 46.3755 3.39379C45.7529 3.38458 45.3348 3.8602 45.219 4.51533C45.1122 5.1229 45.3979 5.58318 45.8882 5.85474C46.4793 6.18154 47.114 6.42549 47.7321 6.69705C48.0073 6.81826 48.2916 6.91798 48.5683 7.03765C49.6076 7.48566 50.3776 8.17147 50.3686 9.41883C50.3581 10.7536 49.8031 11.7923 48.5653 12.3462C48.1141 12.5472 47.6238 12.6607 47.0839 12.8356V14.8409H46.0747C46.0747 14.3054 46.0597 13.8007 46.0792 13.2974C46.0943 12.9108 45.9409 12.7789 45.5664 12.7236C45.0265 12.6438 44.4835 12.5165 43.9737 12.3216C43.1089 11.9918 42.9389 11.4517 43.357 10.413C43.5977 10.5266 43.8443 10.6248 44.0744 10.7536C44.9573 11.2446 45.8912 11.4686 46.8959 11.3459C47.7562 11.24 48.3127 10.7935 48.433 10.1154C48.5608 9.39428 48.251 8.84501 47.4042 8.44918C46.6101 8.07635 45.7724 7.79711 44.9828 7.41662C43.897 6.89343 43.2668 6.03732 43.3285 4.75161C43.3901 3.4751 44.0714 2.61898 45.2024 2.24156C45.9379 1.99607 46.2101 1.64473 46.0868 0.894474C46.0432 0.627513 46.0792 0.345209 46.0792 0.00306852V0Z" fill="white"/>
</svg>
