<svg width="62" height="51" viewBox="0 0 62 51" fill="none" xmlns="http://www.w3.org/2000/svg">
<path d="M47.7763 13.4465V13.1507L47.4601 13.2375C47.2 13.3089 46.9391 13.3796 46.6779 13.4503C45.8203 13.6826 44.9586 13.916 44.1076 14.1803L44.1071 14.1805C44.0101 14.2109 43.9369 14.2749 43.8874 14.3296C43.8351 14.3875 43.791 14.4553 43.7558 14.5225C43.6881 14.6516 43.6336 14.8163 43.6327 14.9637L47.7763 13.4465ZM47.7763 13.4465C47.778 13.4524 47.7796 13.4581 47.7815 13.4641C47.7839 13.4721 47.7865 13.4808 47.7896 13.4917C47.7964 13.5154 47.8095 13.5617 47.8095 13.6163V13.6166C47.8079 14.9018 47.8058 16.1869 47.8038 17.472C47.7988 20.6828 47.7938 23.8933 47.7946 27.1039V27.104C47.7946 27.8945 48.3704 28.5264 49.1755 28.638L49.1756 28.638C49.9198 28.7414 50.6949 28.2337 50.89 27.4805L50.89 27.4803C50.9556 27.2279 50.9634 26.9488 50.9634 26.6501V26.6499C50.9637 26.303 50.9641 25.9561 50.9645 25.6092C50.9689 21.4407 50.9733 17.2723 50.9542 13.1049C50.953 12.8414 50.979 12.5881 51.1217 12.382C51.2688 12.1695 51.5038 12.0564 51.7971 11.9819L51.7974 11.9818C53.3022 11.6012 54.7932 11.1704 56.2886 10.7383C56.5137 10.6733 56.7388 10.6082 56.9642 10.5433C57.4321 10.4082 57.766 10.1993 57.9816 9.94249C58.195 9.68844 58.3069 9.37084 58.3044 8.98771C58.3014 8.60941 58.1832 8.29022 57.9644 8.0334C57.7435 7.77415 57.4075 7.56412 56.9479 7.43101C56.3995 7.27219 55.8524 7.12223 55.3032 6.9717C54.9185 6.86627 54.5329 6.76056 54.1451 6.65134L54.145 6.65133C52.7 6.24411 51.255 5.83664 49.8101 5.42918C43.8113 3.73755 37.8129 2.04604 31.8086 0.372858L31.8083 0.372787C31.3466 0.243593 30.8067 0.201767 30.3862 0.318699L30.3862 0.318716C23.6162 2.19944 16.853 4.10265 10.09 6.00579C8.42084 6.47552 6.75166 6.94523 5.0824 7.41461C4.60264 7.55005 4.25702 7.76159 4.03241 8.02345C3.81028 8.28244 3.69236 8.60682 3.69337 8.99898C3.69437 9.39541 3.81266 9.70946 4.03447 9.95797C4.2601 10.2108 4.60987 10.4145 5.10396 10.553L5.10405 10.553C6.52712 10.9524 7.94966 11.3531 9.37211 11.7538C12.1288 12.5304 14.8852 13.3069 17.6445 14.0732C17.8734 14.1368 18.0784 14.229 18.216 14.407C18.3547 14.5864 18.3911 14.8085 18.3892 15.0499L18.3892 15.0501C18.3756 16.6678 18.3761 18.2838 18.3766 19.901C18.377 21.0109 18.3773 22.1214 18.3731 23.2334C18.3716 23.649 18.4574 23.9863 18.6255 24.2611C18.7934 24.5355 19.0545 24.7663 19.4344 24.9506C21.3177 25.8629 23.2011 26.7804 25.0722 27.7218L25.0723 27.7218C25.3756 27.8745 25.685 28.0233 25.9966 28.1732C27.277 28.7891 28.5954 29.4234 29.6941 30.42L29.6942 30.4201C30.1898 30.8701 30.603 31.0504 30.9931 31.0453C31.3883 31.0402 31.8188 30.8446 32.347 30.409C32.9606 29.9022 33.625 29.3982 34.3522 29.0266L34.3523 29.0265C37.0148 27.6671 39.6986 26.3509 42.3881 25.0499L42.3882 25.0498C42.8434 24.8299 43.1517 24.5671 43.3473 24.2509C43.5428 23.9348 43.6397 23.5426 43.6327 23.0395C43.5948 20.3471 43.6132 17.6541 43.6327 14.964L47.7763 13.4465ZM21.7009 15.4134L21.7252 15.3894L21.7264 15.3882L21.8283 15.2877L21.9666 15.3247C22.1651 15.3778 22.3658 15.4309 22.5679 15.4844C23.0326 15.6074 23.5048 15.7323 23.9741 15.8641L23.9742 15.8641C24.6414 16.0515 25.3073 16.2412 25.9726 16.4307C27.4311 16.8461 28.8873 17.2608 30.3514 17.6505L30.3515 17.6505C30.7348 17.7526 31.1922 17.7653 31.5617 17.6673L31.6258 17.909M21.7009 15.4134L39.541 15.4554C38.8819 15.6395 38.2233 15.8246 37.5649 16.0095C35.5653 16.5714 33.5672 17.1327 31.5614 17.6674L31.6258 17.909M21.7009 15.4134L21.6839 15.4431C21.6692 15.4687 21.6588 15.4845 21.6471 15.5024C21.6416 15.5108 21.6358 15.5197 21.6291 15.5302C21.6205 15.5437 21.606 15.5669 21.594 15.5945C21.581 15.6244 21.5673 15.667 21.5672 15.7192M21.7009 15.4134L39.6087 15.696M31.6258 17.909C33.6334 17.3738 35.6338 16.8118 37.6339 16.2499C38.2921 16.0649 38.9503 15.88 39.6087 15.696M31.6258 17.909C31.2086 18.0196 30.7066 18.0038 30.2871 17.892C28.8209 17.5019 27.3611 17.0861 25.9015 16.6704C25.2367 16.481 24.5719 16.2917 23.9066 16.1048C23.4391 15.9735 22.9699 15.8494 22.5061 15.7267C22.3035 15.6731 22.1019 15.6197 21.902 15.5662L21.9008 15.5673C21.8823 15.5998 21.866 15.6245 21.8529 15.6445C21.8304 15.6788 21.8172 15.6991 21.8172 15.7197M39.6087 15.696C39.7015 15.6699 39.7954 15.6472 39.8989 15.6229C39.8977 15.6126 39.8965 15.6022 39.8954 15.5917L40.144 15.5651L40.2025 15.8081C40.1936 15.8103 40.1848 15.8124 40.1762 15.8144M39.6087 15.696L40.1762 15.8144M21.8172 15.7197L21.5672 15.7192M21.8172 15.7197C21.8165 16.0296 21.8157 16.3395 21.8149 16.6493C21.8103 18.4463 21.8056 20.2432 21.8252 22.0402L21.8172 15.7197ZM21.5672 15.7192C21.5665 16.0288 21.5657 16.3385 21.5649 16.6482C21.5603 18.4452 21.5556 20.2441 21.5752 22.0429L21.5752 22.0437C21.5775 22.2107 21.6714 22.3631 21.7533 22.4645C21.8413 22.5736 21.958 22.6763 22.0766 22.7395L22.0777 22.7401C22.5186 22.9723 22.9655 23.1923 23.4098 23.4099C23.4456 23.4274 23.4814 23.4449 23.5172 23.4625C23.9262 23.6626 24.3324 23.8615 24.7339 24.0688M21.5672 15.7192L24.7339 24.0688M24.7339 24.0688C25.5704 24.5011 26.407 24.9384 27.244 25.376C28.3782 25.9689 29.5134 26.5623 30.651 27.1447C30.651 27.1447 30.6511 27.1447 30.6512 27.1448L30.7651 26.9222M24.7339 24.0688L40.4432 16.0291H40.1932M30.7651 26.9222C30.9038 26.9933 31.1582 26.9572 31.3061 26.8782C31.5761 26.7336 31.8382 26.5749 32.1003 26.4163C32.4235 26.2208 32.7464 26.0253 33.0837 25.8564C35.2774 24.7567 37.4792 23.6728 39.6889 22.6047C40.0672 22.4218 40.2058 22.2039 40.2013 21.7862C40.1861 20.4518 40.1887 19.117 40.1913 17.7819C40.1925 17.1977 40.1936 16.6134 40.1932 16.0291M30.7651 26.9222C29.6274 26.3398 28.4946 25.7476 27.3618 25.1554C26.5248 24.7179 25.6878 24.2804 24.8487 23.8467L30.7651 26.9222ZM40.1932 16.0291C40.1932 15.9592 40.1859 15.8893 40.1762 15.8144M40.1932 16.0291L40.4432 16.029C40.4432 15.9417 40.434 15.8582 40.4238 15.7799C40.4204 15.7537 40.4169 15.7285 40.4135 15.7035C40.4061 15.6502 40.3989 15.5979 40.3925 15.5384L40.3622 15.2553L40.0854 15.322C40.0254 15.3365 39.9677 15.35 39.912 15.363C39.7799 15.3939 39.6584 15.4224 39.5414 15.4553L40.1762 15.8144M49.853 9.29302L49.8183 9.04585L50.0284 9.00512L50.0044 8.88093L49.9768 8.73852L49.8395 8.69181C49.7959 8.677 49.749 8.6602 49.7001 8.64265C49.5891 8.60287 49.4675 8.55927 49.3498 8.52636C48.4591 8.27605 47.5685 8.02563 46.6778 7.77521C41.6829 6.37086 36.687 4.96621 31.687 3.57863C31.2675 3.46218 30.7628 3.45515 30.3405 3.57301C26.2784 4.70187 22.2203 5.8479 18.1626 6.99381C17.0128 7.31852 15.863 7.64323 14.7132 7.96753C14.2982 8.0845 13.8885 8.19942 13.4607 8.31943C13.0055 8.44715 12.5296 8.58064 12.0049 8.72851L11.2519 8.94068L11.9884 9.20449C12.0929 9.24194 12.1823 9.27518 12.2615 9.30461C12.4173 9.36255 12.5334 9.40571 12.6468 9.43704L12.7134 9.19608L12.6457 9.43674C13.3716 9.64088 14.0974 9.84506 14.8233 10.0492C20.0388 11.5163 25.2543 12.9834 30.4743 14.4374C30.8119 14.5317 31.2136 14.5258 31.5481 14.4331C36.3394 13.1074 41.1273 11.7649 45.9135 10.4225L45.9136 10.4224C46.7762 10.1802 47.6382 9.93136 48.4989 9.6829C48.9506 9.55251 49.402 9.42222 49.853 9.29302Z" fill="white" stroke="#1181D0" stroke-width="0.5"/>
<path d="M3.61673 43.715C3.44285 43.7148 3.27193 43.7142 3.10305 43.7137C2.6728 43.7121 2.25578 43.7107 1.83681 43.7162L1.83653 43.7162C1.49039 43.7205 1.20308 43.8044 0.97 43.9577C0.737041 44.1109 0.543186 44.3434 0.39968 44.669L3.61673 43.715ZM3.61673 43.715L3.94538 44.0547L3.97359 43.4785C3.97716 43.4055 3.98117 43.3359 3.98502 43.2689C3.99402 43.1126 4.00221 42.9703 4.00222 42.8317C4.00307 42.2143 4.00249 41.5979 4.0019 40.9818C4.00093 39.9561 3.99995 38.9314 4.00562 37.9052M3.61673 43.715L4.00562 37.9052C4.00562 37.9052 4.00562 37.9052 4.00562 37.9052M4.00562 37.9052C4.00872 37.3728 4.17939 36.9481 4.457 36.658C4.73354 36.3691 5.13443 36.1945 5.63721 36.194C6.95828 36.1927 8.27928 36.1906 9.6002 36.1884C14.4166 36.1804 19.2318 36.1724 24.046 36.2093L4.00562 37.9052ZM60.0545 43.7139L60.0516 43.7139H60.0482H60.0448H60.0414H60.038H60.0346H60.0312H60.0278H60.0244H60.021H60.0176H60.0142H60.0108H60.0074H60.004H60.0006H59.9972H59.9938H59.9904H59.987H59.9836H59.9802H59.9768H59.9734H59.97H59.9666H59.9632H59.9598H59.9564H59.953H59.9496H59.9462H59.9428H59.9394H59.936H59.9326H59.9292H59.9258H59.9224H59.9189H59.9155H59.9121H59.9087H59.9053H59.9019H59.8985H59.8951H59.8917H59.8883H59.8849H59.8815H59.8781H59.8747H59.8713H59.8679H59.8645H59.8611H59.8577H59.8543H59.8509H59.8475H59.8441H59.8407H59.8373H59.8339H59.8305H59.827H59.8236H59.8202H59.8168H59.8134H59.81H59.8066H59.8032H59.7998H59.7964H59.793H59.7896H59.7862H59.7828H59.7794H59.7759H59.7725H59.7691H59.7657H59.7623H59.7589H59.7555H59.7521H59.7487H59.7453H59.7418H59.7384H59.735H59.7316H59.7282H59.7248H59.7214H59.718H59.7145H59.7111H59.7077H59.7043H59.7009H59.6975H59.6941H59.6907H59.6872H59.6838H59.6804H59.677H59.6736H59.6702H59.6667H59.6633H59.6599H59.6565H59.6531H59.6497H59.6462H59.6428H59.6394H59.636H59.6326H59.6291H59.6257H59.6223H59.6189H59.6155H59.612H59.6086H59.6052H59.6018H59.5983H59.5949H59.5915H59.5881H59.5846H59.5812H59.5778H59.5744H59.5709H59.5675H59.5641H59.5607H59.5572H59.5538H59.5504H59.547H59.5435H59.5401H59.5367H59.5332H59.5298H59.5264H59.5229H59.5195H59.5161H59.5126H59.5092H59.5058H59.5023H59.4989H59.4955H59.492H59.4886H59.4852H59.4817H59.4783H59.4749H59.4714H59.468H59.4646H59.4611H59.4577H59.4542H59.4508H59.4473H59.4439H59.4405H59.437H59.4336H59.4301H59.4267H59.4233H59.4198H59.4164H59.4129H59.4095H59.406H59.4026H59.3991H59.3957H59.3922H59.3888H59.3853H59.3819H59.3784H59.375H59.3715H59.3681H59.3646H59.3612H59.3577H59.3543H59.3508H59.3474H59.3439H59.3404H59.337H59.3335H59.3301H59.3266H59.3232H59.3197H59.3162H59.3128H59.3093H59.3059H59.3024H59.2989H59.2955H59.292H59.2885H59.2851H59.2816H59.2781H59.2747H59.2712H59.2677H59.2643H59.2608H59.2573H59.2539H59.2504H59.2469H59.2434H59.24H59.2365H59.233H59.2296H59.2261H59.2226H59.2191H59.2156H59.2122H59.2087H59.2052H59.2017H59.1982H59.1948H59.1913H59.1878H59.1843H59.1808H59.1774H59.1739H59.1704H59.1669H59.1634H59.1599H59.1564H59.1529H59.1495H59.146H59.1425H59.139H59.1355H59.132H59.1285H59.125H59.1215H59.118H59.1145H59.111H59.1075H59.104H59.1005H59.097H59.0935H59.09H59.0865H59.083H59.0795H59.076H59.0725H59.069H59.0655H59.062H59.0585H59.055H59.0515H59.0479H59.0444H59.0409H59.0374H59.0339H59.0304H59.0269H59.0234H59.0198H59.0163H59.0128H59.0093H59.0058H59.0022H58.9987H58.9952H58.9917H58.9882H58.9846H58.9811H58.9776H58.974H58.9705H58.967H58.9635H58.9599H58.9564H58.9529H58.9493H58.9458H58.9423H58.9387H58.9352H58.9317H58.9281H58.9246H58.921H58.9175H58.914H58.9104H58.9069H58.9033H58.8998H58.8962H58.8927H58.8892H58.8856H58.8821H58.8785H58.875H58.8714H58.8679H58.8643H58.8607H58.8572H58.8536H58.8501H58.8465H58.843H58.8394H58.8358H58.8323H58.8287H58.8251H58.8216H58.818H58.8145H58.8109H58.8073H58.8038H58.8002H58.7966H58.793H58.7895H58.7859H58.7823H58.7787H58.7752H58.7716H58.768H58.7644H58.7609H58.7573H58.7537H58.7501H58.7465H58.7429H58.7393H58.7358H58.7322H58.7286H58.725H58.7214H58.7178H58.7142H58.7106H58.707H58.7034H58.6998H58.6962H58.6926H58.689H58.6854H58.6818H58.6782H58.6746H58.671H58.6674H58.6638H58.6602H58.6566H58.653H58.6494H58.6458H58.6421H58.6385H58.6349H58.6313H58.6277H58.6241H58.6204H58.6168H58.6132H58.6096H58.606H58.6023H58.5987H58.5951H58.5914H58.5878H58.5842H58.5806H58.5769H58.5733H58.5697H58.566H58.5624H58.5587H58.5551H58.5515H58.5478H58.5442H58.5405H58.5369H58.5332H58.5296H58.5259H58.5223H58.5186H58.515H58.5113H58.5077H58.504H58.5004H58.4967H58.4931H58.4894H58.4857H58.4821H58.4784H58.4748H58.4711H58.4674H58.4637H58.4601H58.4564H58.4527H58.4491H58.4454H58.4417H58.438H58.4344H58.4307H58.427H58.4233H58.4196H58.416H58.4123H58.4086H58.4049H58.4012H58.3975H58.3938H58.3901H58.3864H58.3827H58.3791H58.3754H58.3717H58.368H58.3643H58.3606H58.3569H58.3531H58.3494H58.3457H58.342H58.3383H58.3346H58.3309H58.3272H58.3235H58.3197H58.316H58.3123H58.3086H58.3049H58.3012H58.2974H58.2937H58.29H58.2862H58.2825H58.2788H58.2751H58.2713H58.2676H58.2639H58.2601H58.2564H58.0064V43.4639V43.4624V43.4609V43.4593V43.4578V43.4563V43.4547V43.4532V43.4517V43.4502V43.4487V43.4471V43.4456V43.4441V43.4426V43.4411V43.4396V43.4381V43.4366V43.4351V43.4336V43.4321V43.4306V43.4291V43.4276V43.4261V43.4246V43.4231V43.4216V43.4201V43.4186V43.4172V43.4157V43.4142V43.4127V43.4112V43.4098V43.4083V43.4068V43.4053V43.4039V43.4024V43.4009V43.3995V43.398V43.3965V43.3951V43.3936V43.3921V43.3907V43.3892V43.3878V43.3863V43.3849V43.3834V43.382V43.3805V43.3791V43.3776V43.3762V43.3747V43.3733V43.3719V43.3704V43.369V43.3676V43.3661V43.3647V43.3633V43.3618V43.3604V43.359V43.3576V43.3561V43.3547V43.3533V43.3519V43.3505V43.349V43.3476V43.3462V43.3448V43.3434V43.342V43.3406V43.3392V43.3378V43.3364V43.335V43.3336V43.3322V43.3308V43.3294V43.328V43.3266V43.3252V43.3238V43.3224V43.321V43.3196V43.3182V43.3169V43.3155V43.3141V43.3127V43.3113V43.3099V43.3086V43.3072V43.3058V43.3044V43.3031V43.3017V43.3003V43.299V43.2976V43.2962V43.2949V43.2935V43.2921V43.2908V43.2894V43.2881V43.2867V43.2854V43.284V43.2827V43.2813V43.2799V43.2786V43.2773V43.2759V43.2746V43.2732V43.2719V43.2705V43.2692V43.2678V43.2665V43.2652V43.2638V43.2625V43.2612V43.2598V43.2585V43.2572V43.2558V43.2545V43.2532V43.2519V43.2505V43.2492V43.2479V43.2466V43.2453V43.2439V43.2426V43.2413V43.24V43.2387V43.2374V43.2361V43.2347V43.2334V43.2321V43.2308V43.2295V43.2282V43.2269V43.2256V43.2243V43.223V43.2217V43.2204V43.2191V43.2178V43.2165V43.2152V43.2139V43.2126V43.2113V43.2101V43.2088V43.2075V43.2062V43.2049V43.2036V43.2023V43.2011V43.1998V43.1985V43.1972V43.1959V43.1947V43.1934V43.1921V43.1908V43.1896V43.1883V43.187V43.1857V43.1845V43.1832V43.1819V43.1807V43.1794V43.1781V43.1769V43.1756V43.1744V43.1731V43.1718V43.1706V43.1693V43.1681V43.1668V43.1656V43.1643V43.163V43.1618V43.1605V43.1593V43.158V43.1568V43.1556V43.1543V43.1531V43.1518V43.1506V43.1493V43.1481V43.1468V43.1456V43.1444V43.1431V43.1419V43.1407V43.1394V43.1382V43.137V43.1357V43.1345V43.1333V43.132V43.1308V43.1296V43.1283V43.1271V43.1259V43.1247V43.1234V43.1222V43.121V43.1198V43.1186V43.1173V43.1161V43.1149V43.1137V43.1125V43.1112V43.11V43.1088V43.1076V43.1064V43.1052V43.104V43.1028V43.1015V43.1003V43.0991V43.0979V43.0967V43.0955V43.0943V43.0931V43.0919V43.0907V43.0895V43.0883V43.0871V43.0859V43.0847V43.0835V43.0823V43.0811V43.0799V43.0787V43.0775V43.0763V43.0751V43.0739V43.0727V43.0716V43.0704V43.0692V43.068V43.0668V43.0656V43.0644V43.0632V43.0621V43.0609V43.0597V43.0585V43.0573V43.0561V43.055V43.0538V43.0526V43.0514V43.0502V43.0491V43.0479V43.0467V43.0455V43.0443V43.0432V43.042V43.0408V43.0397V43.0385V43.0373V43.0361V43.035V43.0338V43.0326V43.0315V43.0303V43.0291V43.028V43.0268V43.0256V43.0245V43.0233V43.0221V43.021V43.0198V43.0186V43.0175V43.0163V43.0152V43.014V43.0128V43.0117V43.0105V43.0094V43.0082V43.007V43.0059V43.0047V43.0036V43.0024V43.0013V43.0001V42.999V42.9978V42.9966V42.9955V42.9943V42.9932V42.992V42.9909V42.9897V42.9886V42.9874V42.9863V42.9851V42.984V42.9829V42.9817V42.9806V42.9794V42.9783V42.9771V42.976V42.9748V42.9737V42.9726V42.9714V42.9703V42.9691V42.968V42.9668V42.9657V42.9646V42.9634V42.9623V42.9611V42.96V42.9589V42.9577V42.9566V42.9555V42.9543V42.9532V42.952V42.9509V42.9498V42.9486V42.9475V42.9464V42.9452V42.9441V42.943V42.9418V42.9407V42.9396V42.9385V42.9373V42.9362V42.9351V42.9339V42.9328V42.9317V42.9305V42.9294V42.9283V42.9272V42.926V42.9249V42.9238V42.9226V42.9215V42.9204V42.9193V42.9181V42.917V42.9159V42.9148V42.9136V42.9125V42.9114V42.9103V42.9091V42.908V42.9069V42.9058V42.9046V42.9035V42.9024V42.9013V42.9002V42.899V42.8979V42.8968V42.8957V42.8946V42.8934V42.8923V42.8912V42.8901V42.889V42.8878V42.8867V42.8856V42.8845V42.8834V42.8822V42.8811V42.88V42.8789V42.8778V42.8766V42.8755V42.8744V42.8733V42.8722V42.8711V42.8699V42.8688V42.8677V42.8666V42.8655V42.8644V42.8632V42.8621V42.861V42.8599V42.8588V42.8577V42.8565V42.8554V42.8543V42.8532V42.8521V42.851V42.8499V42.8487V42.8476V42.8465V42.8454V42.8443V42.8432V42.8421V42.8409V42.8398V42.8387V42.8376V42.8365V42.8354V42.8343V42.8331V42.832V42.8309V42.8298V42.8287V42.8276V42.8265V42.8253V42.8242V42.8231V42.822C58.0064 42.352 58.0069 41.8824 58.0075 41.413C58.0089 40.2401 58.0103 39.0686 58.003 37.8959C57.9999 37.3815 57.8298 36.9569 57.5549 36.6632C57.2814 36.3708 56.8913 36.194 56.417 36.194H56.4168C55.9006 36.1935 55.3844 36.193 54.8682 36.1925C49.1907 36.1868 43.514 36.1812 37.8373 36.2081L60.0545 43.7139ZM60.0545 43.7139C60.0545 43.7139 60.0546 43.7139 60.0547 43.7139C61.0517 43.7161 61.7371 44.3781 61.7498 45.2969L61.7498 45.2971M60.0545 43.7139L61.7498 45.2971M61.7498 45.2971C61.7636 46.2443 61.0635 46.9683 60.0681 46.9704H60.068M61.7498 45.2971L60.068 46.9704M60.068 46.9704C58.4122 46.9744 56.7546 46.9728 55.0964 46.9713C52.8632 46.9692 50.6291 46.9671 48.3974 46.9786C48.0289 46.9804 47.6601 46.9817 47.2911 46.9831C45.093 46.9909 42.8861 46.9988 40.6862 47.1198L40.6862 47.1198M60.068 46.9704L40.6862 47.1198M40.6862 47.1198C38.3368 47.2493 36.1628 48.038 34.2517 49.5275C33.2 50.3472 32.0896 50.7486 30.994 50.7498C29.8985 50.7511 28.796 50.3524 27.7592 49.5343C25.8534 48.0296 23.6746 47.218 21.3245 47.1219L21.3244 47.1219M40.6862 47.1198L21.3244 47.1219M21.3244 47.1219C18.5291 47.0087 15.7285 46.9988 12.9334 46.9889C12.1034 46.986 11.2739 46.983 10.4451 46.9774H10.4451M21.3244 47.1219L10.4451 46.9774M10.4451 46.9774C8.87725 46.967 7.30498 46.9696 5.73396 46.9721C4.46971 46.9742 3.20628 46.9762 1.94662 46.9715L1.94651 46.9715M10.4451 46.9774L1.94651 46.9715M1.94651 46.9715C0.68434 46.9674 -0.0912969 45.7857 0.399666 44.669L1.94651 46.9715ZM7.40755 43.7104H7.40608H7.40755ZM7.40755 43.7104H7.40901M7.40755 43.7104H7.40901M7.40901 43.7104H7.41048M7.40901 43.7104H7.41048M7.41048 43.7104H7.41194M7.41048 43.7104H7.41194M7.41194 43.7104H7.41341M7.41194 43.7104H7.41341M7.41341 43.7104H7.41487M7.41341 43.7104H7.41487M7.41487 43.7104H7.41633M7.41487 43.7104H7.41633M7.41633 43.7104H7.41779M7.41633 43.7104H7.41779M7.41779 43.7104H7.41925M7.41779 43.7104H7.41925M7.41925 43.7104H7.4207M7.41925 43.7104H7.4207M7.4207 43.7104H7.42216M7.4207 43.7104H7.42216M7.42216 43.7104H7.42361M7.42216 43.7104H7.42361M7.42361 43.7104H7.42507M7.42361 43.7104H7.42507M7.42507 43.7104H7.42652M7.42507 43.7104H7.42652M7.42652 43.7104H7.42797M7.42652 43.7104H7.42797M7.42797 43.7104H7.42942M7.42797 43.7104H7.42942M7.42942 43.7104H7.43087M7.42942 43.7104H7.43087M7.43087 43.7104H7.43232M7.43087 43.7104H7.43232M7.43232 43.7104H7.43377M7.43232 43.7104H7.43377M7.43377 43.7104H7.43522M7.43377 43.7104H7.43522M7.43522 43.7104H7.43666M7.43522 43.7104H7.43666M7.43666 43.7104H7.43811M7.43666 43.7104H7.43811M7.43811 43.7104H7.43955M7.43811 43.7104H7.43955M7.43955 43.7104H7.44099M7.43955 43.7104H7.44099M7.44099 43.7104H7.44244M7.44099 43.7104H7.44244M7.44244 43.7104H7.44388M7.44244 43.7104H7.44388M7.44388 43.7104H7.44532M7.44388 43.7104H7.44532M7.44532 43.7104H7.44675M7.44532 43.7104H7.44675M7.44675 43.7104H7.44819M7.44675 43.7104H7.44819M7.44819 43.7104H7.44963M7.44819 43.7104H7.44963M7.44963 43.7104H7.45106M7.44963 43.7104H7.45106M7.45106 43.7104H7.4525M7.45106 43.7104H7.4525M7.4525 43.7104H7.45393M7.4525 43.7104H7.45393M7.45393 43.7104H7.45536M7.45393 43.7104H7.45536M7.45536 43.7104H7.45679M7.45536 43.7104H7.45679M7.45679 43.7104H7.45822M7.45679 43.7104H7.45822M7.45822 43.7104H7.45965M7.45822 43.7104H7.45965M7.45965 43.7104H7.46108M7.45965 43.7104H7.46108M7.46108 43.7104H7.46251M7.46108 43.7104H7.46251M7.46251 43.7104H7.46393M7.46251 43.7104H7.46393M7.46393 43.7104H7.46536M7.46393 43.7104H7.46536M7.46536 43.7104H7.46678M7.46536 43.7104H7.46678M7.46678 43.7104H7.46821M7.46678 43.7104H7.46821M7.46821 43.7104H7.46963M7.46821 43.7104H7.46963M7.46963 43.7104H7.47105M7.46963 43.7104H7.47105M7.47105 43.7104H7.47247M7.47105 43.7104H7.47247M7.47247 43.7104H7.47389M7.47247 43.7104H7.47389M7.47389 43.7104H7.47531M7.47389 43.7104H7.47531M7.47531 43.7104H7.47673M7.47531 43.7104H7.47673M7.47673 43.7104H7.47814M7.47673 43.7104H7.47814M7.47814 43.7104H7.47956M7.47814 43.7104H7.47956M7.47956 43.7104H7.48097M7.47956 43.7104H7.48097M7.48097 43.7104H7.48238M7.48097 43.7104H7.48238M7.48238 43.7104H7.4838M7.48238 43.7104H7.4838M7.4838 43.7104H7.48521M7.4838 43.7104H7.48521M7.48521 43.7104H7.48662M7.48521 43.7104H7.48662M7.48662 43.7104H7.48803M7.48662 43.7104H7.48803M7.48803 43.7104H7.48944M7.48803 43.7104H7.48944M7.48944 43.7104H7.49084M7.48944 43.7104H7.49084M7.49084 43.7104H7.49225M7.49084 43.7104H7.49225M7.49225 43.7104H7.49365M7.49225 43.7104H7.49365M7.49365 43.7104H7.49506M7.49365 43.7104H7.49506M7.49506 43.7104H7.49646M7.49506 43.7104H7.49646M7.49646 43.7104H7.49787M7.49646 43.7104H7.49787M7.49787 43.7104H7.49927M7.49787 43.7104H7.49927M7.49927 43.7104H7.50067M7.49927 43.7104H7.50067M7.50067 43.7104H7.50207M7.50067 43.7104H7.50207M7.50207 43.7104H7.50347M7.50207 43.7104H7.50347M7.50347 43.7104H7.50486M7.50347 43.7104H7.50486M7.50486 43.7104H7.50626M7.50486 43.7104H7.50626M7.50626 43.7104H7.50766M7.50626 43.7104H7.50766M7.50766 43.7104H7.50905M7.50766 43.7104H7.50905M7.50905 43.7104H7.51045M7.50905 43.7104H7.51045M7.51045 43.7104H7.51184M7.51045 43.7104H7.51184M7.51184 43.7104H7.51323M7.51184 43.7104H7.51323M7.51323 43.7104H7.51462M7.51323 43.7104H7.51462M7.51462 43.7104H7.51601M7.51462 43.7104H7.51601M7.51601 43.7104H7.5174M7.51601 43.7104H7.5174M7.5174 43.7104H7.51879M7.5174 43.7104H7.51879M7.51879 43.7104H7.52018M7.51879 43.7104H7.52018M7.52018 43.7104H7.52156M7.52018 43.7104H7.52156M7.52156 43.7104H7.52295M7.52156 43.7104H7.52295M7.52295 43.7104H7.52433M7.52295 43.7104H7.52433M7.52433 43.7104H7.52572M7.52433 43.7104H7.52572M7.52572 43.7104H7.5271M7.52572 43.7104H7.5271M7.5271 43.7104H7.52848M7.5271 43.7104H7.52848M7.52848 43.7104H7.52986M7.52848 43.7104H7.52986M7.52986 43.7104H7.53125M7.52986 43.7104H7.53125M7.53125 43.7104H7.53262M7.53125 43.7104H7.53262M7.53262 43.7104H7.534M7.53262 43.7104H7.534M7.534 43.7104H7.53538M7.534 43.7104H7.53538M7.53538 43.7104H7.53676M7.53538 43.7104H7.53676M7.53676 43.7104H7.53813M7.53676 43.7104H7.53813M7.53813 43.7104H7.53951M7.53813 43.7104H7.53951M7.53951 43.7104H7.54088M7.53951 43.7104H7.54088M7.54088 43.7104H7.54225M7.54088 43.7104H7.54225M7.54225 43.7104H7.54363M7.54225 43.7104H7.54363M7.54363 43.7104H7.545M7.54363 43.7104H7.545M7.545 43.7104H7.54637M7.545 43.7104H7.54637M7.54637 43.7104H7.54774M7.54637 43.7104H7.54774M7.54774 43.7104H7.54911M7.54774 43.7104H7.54911M7.54911 43.7104H7.55047M7.54911 43.7104H7.55047M7.55047 43.7104H7.55184M7.55047 43.7104H7.55184M7.55184 43.7104H7.55321M7.55184 43.7104H7.55321M7.55321 43.7104H7.55457M7.55321 43.7104H7.55457M7.55457 43.7104H7.55594M7.55457 43.7104H7.55594M7.55594 43.7104H7.5573M7.55594 43.7104H7.5573M7.5573 43.7104H7.55866M7.5573 43.7104H7.55866M7.55866 43.7104H7.56002M7.55866 43.7104H7.56002M7.56002 43.7104H7.56138M7.56002 43.7104H7.56138M7.56138 43.7104H7.56274M7.56138 43.7104H7.56274M7.56274 43.7104H7.5641M7.56274 43.7104H7.5641M7.5641 43.7104H7.56546M7.5641 43.7104H7.56546M7.56546 43.7104H7.56682M7.56546 43.7104H7.56682M7.56682 43.7104H7.56817M7.56682 43.7104H7.56817M7.56817 43.7104H7.56953M7.56817 43.7104H7.56953M7.56953 43.7104H7.57089M7.56953 43.7104H7.57089M7.57089 43.7104H7.57224M7.57089 43.7104H7.57224M7.57224 43.7104H7.57359M7.57224 43.7104H7.57359M7.57359 43.7104H7.57494M7.57359 43.7104H7.57494M7.57494 43.7104H7.5763M7.57494 43.7104H7.5763M7.5763 43.7104H7.57765M7.5763 43.7104H7.57765M7.57765 43.7104H7.579M7.57765 43.7104H7.579M7.579 43.7104H7.58034M7.579 43.7104H7.58034M7.58034 43.7104H7.58169M7.58034 43.7104H7.58169M7.58169 43.7104H7.58304M7.58169 43.7104H7.58304M7.58304 43.7104H7.58439M7.58304 43.7104H7.58439M7.58439 43.7104H7.58573M7.58439 43.7104H7.58573M7.58573 43.7104H7.58708M7.58573 43.7104H7.58708M7.58708 43.7104H7.58842M7.58708 43.7104H7.58842M7.58842 43.7104H7.58976M7.58842 43.7104H7.58976M7.58976 43.7104H7.59111M7.58976 43.7104H7.59111M7.59111 43.7104H7.59245M7.59111 43.7104H7.59245M7.59245 43.7104H7.59379M7.59245 43.7104H7.59379M7.59379 43.7104H7.59513M7.59379 43.7104H7.59513M7.59513 43.7104H7.59647M7.59513 43.7104H7.59647M7.59647 43.7104H7.59781M7.59647 43.7104H7.59781M7.59781 43.7104H7.59914M7.59781 43.7104H7.59914M7.59914 43.7104H7.60048M7.59914 43.7104H7.60048M7.60048 43.7104H7.60181M7.60048 43.7104H7.60181M7.60181 43.7104H7.60315M7.60181 43.7104H7.60315M7.60315 43.7104H7.60448M7.60315 43.7104H7.60448M7.60448 43.7104H7.60582M7.60448 43.7104H7.60582M7.60582 43.7104H7.60715M7.60582 43.7104H7.60715M7.60715 43.7104H7.60848M7.60715 43.7104H7.60848M7.60848 43.7104H7.60981M7.60848 43.7104H7.60981M7.60981 43.7104H7.61114M7.60981 43.7104H7.61114M7.61114 43.7104H7.61247M7.61114 43.7104H7.61247M7.61247 43.7104H7.6138M7.61247 43.7104H7.6138M7.6138 43.7104H7.61513M7.6138 43.7104H7.61513M7.61513 43.7104H7.61646M7.61513 43.7104H7.61646M7.61646 43.7104H7.61778M7.61646 43.7104H7.61778M7.61778 43.7104H7.61911M7.61778 43.7104H7.61911M7.61911 43.7104H7.62043M7.61911 43.7104H7.62043M7.62043 43.7104H7.62176M7.62043 43.7104H7.62176M7.62176 43.7104H7.62308M7.62176 43.7104H7.62308M7.62308 43.7104H7.6244M7.62308 43.7104H7.6244M7.6244 43.7104H7.62572M7.6244 43.7104H7.62572M7.62572 43.7104H7.62705M7.62572 43.7104H7.62705M7.62705 43.7104H7.62837M7.62705 43.7104H7.62837M7.62837 43.7104H7.62969M7.62837 43.7104H7.62969M7.62969 43.7104H7.631M7.62969 43.7104H7.631M7.631 43.7104H7.63232M7.631 43.7104H7.63232M7.63232 43.7104H7.63364M7.63232 43.7104H7.63364M7.63364 43.7104H7.63496M7.63364 43.7104H7.63496M7.63496 43.7104H7.63627M7.63496 43.7104H7.63627M7.63627 43.7104H7.63759M7.63627 43.7104H7.63759M7.63759 43.7104H7.6389M7.63759 43.7104H7.6389M7.6389 43.7104H7.64021M7.6389 43.7104H7.64021M7.64021 43.7104H7.64153M7.64021 43.7104H7.64153M7.64153 43.7104H7.64284M7.64153 43.7104H7.64284M7.64284 43.7104H7.64415M7.64284 43.7104H7.64415M7.64415 43.7104H7.64546M7.64415 43.7104H7.64546M7.64546 43.7104H7.64677M7.64546 43.7104H7.64677M7.64677 43.7104H7.64808M7.64677 43.7104H7.64808M7.64808 43.7104H7.64939M7.64808 43.7104H7.64939M7.64939 43.7104H7.6507M7.64939 43.7104H7.6507M7.6507 43.7104H7.652M7.6507 43.7104H7.652M7.652 43.7104H7.65331M7.652 43.7104H7.65331M7.65331 43.7104H7.65461M7.65331 43.7104H7.65461M7.65461 43.7104H7.65592M7.65461 43.7104H7.65592M7.65592 43.7104H7.65722M7.65592 43.7104H7.65722M7.65722 43.7104H7.65853M7.65722 43.7104H7.65853M7.65853 43.7104H7.65983M7.65853 43.7104H7.65983M7.65983 43.7104H7.66113M7.65983 43.7104H7.66113M7.66113 43.7104H7.66243M7.66113 43.7104H7.66243M7.66243 43.7104H7.66373M7.66243 43.7104H7.66373M7.66373 43.7104H7.66503M7.66373 43.7104H7.66503M7.66503 43.7104H7.66633M7.66503 43.7104H7.66633M7.66633 43.7104H7.66763M7.66633 43.7104H7.66763M7.66763 43.7104H7.66893M7.66763 43.7104H7.66893M7.66893 43.7104H7.67022M7.66893 43.7104H7.67022M7.67022 43.7104H7.67152M7.67022 43.7104H7.67152M7.67152 43.7104H7.67282M7.67152 43.7104H7.67282M7.67282 43.7104H7.67411M7.67282 43.7104H7.67411M7.67411 43.7104H7.67541M7.67411 43.7104H7.67541M7.67541 43.7104H7.6767M7.67541 43.7104H7.6767M7.6767 43.7104H7.67799M7.6767 43.7104H7.67799M7.67799 43.7104H7.67929M7.67799 43.7104H7.67929M7.67929 43.7104H7.68058M7.67929 43.7104H7.68058M7.68058 43.7104H7.68187M7.68058 43.7104H7.68187M7.68187 43.7104H7.68316M7.68187 43.7104H7.68316M7.68316 43.7104H7.68445M7.68316 43.7104H7.68445M7.68445 43.7104H7.68574M7.68445 43.7104H7.68574M7.68574 43.7104H7.68702M7.68574 43.7104H7.68702M7.68702 43.7104H7.68831M7.68702 43.7104H7.68831M7.68831 43.7104H7.6896M7.68831 43.7104H7.6896M7.6896 43.7104H7.69089M7.6896 43.7104H7.69089M7.69089 43.7104H7.69217M7.69089 43.7104H7.69217M7.69217 43.7104H7.69346M7.69217 43.7104H7.69346M7.69346 43.7104H7.69474M7.69346 43.7104H7.69474M7.69474 43.7104H7.69602M7.69474 43.7104H7.69602M7.69602 43.7104H7.69731M7.69602 43.7104H7.69731M7.69731 43.7104H7.69859M7.69731 43.7104H7.69859M7.69859 43.7104H7.69987M7.69859 43.7104H7.69987M7.69987 43.7104H7.70115M7.69987 43.7104H7.70115M7.70115 43.7104H7.70243M7.70115 43.7104H7.70243M7.70243 43.7104H7.70371M7.70243 43.7104H7.70371M7.70371 43.7104H7.70499M7.70371 43.7104H7.70499M7.70499 43.7104H7.70627M7.70499 43.7104H7.70627M7.70627 43.7104H7.70755M7.70627 43.7104H7.70755M7.70755 43.7104H7.70882M7.70755 43.7104H7.70882M7.70882 43.7104H7.7101M7.70882 43.7104H7.7101M7.7101 43.7104H7.71138M7.7101 43.7104H7.71138M7.71138 43.7104H7.71265M7.71138 43.7104H7.71265M7.71265 43.7104H7.71393M7.71265 43.7104H7.71393M7.71393 43.7104H7.7152M7.71393 43.7104H7.7152M7.7152 43.7104H7.71647M7.7152 43.7104H7.71647M7.71647 43.7104H7.71775M7.71647 43.7104H7.71775M7.71775 43.7104H7.71902M7.71775 43.7104H7.71902M7.71902 43.7104H7.72029M7.71902 43.7104H7.72029M7.72029 43.7104H7.72156M7.72029 43.7104H7.72156M7.72156 43.7104H7.72283M7.72156 43.7104H7.72283M7.72283 43.7104H7.7241M7.72283 43.7104H7.7241M7.7241 43.7104H7.72537M7.7241 43.7104H7.72537M7.72537 43.7104H7.72664M7.72537 43.7104H7.72664M7.72664 43.7104H7.72791M7.72664 43.7104H7.72791M7.72791 43.7104H7.72918M7.72791 43.7104H7.72918M7.72918 43.7104H7.73044M7.72918 43.7104H7.73044M7.73044 43.7104H7.73171M7.73044 43.7104H7.73171M7.73171 43.7104H7.73297M7.73171 43.7104H7.73297M7.73297 43.7104H7.73424M7.73297 43.7104H7.73424M7.73424 43.7104H7.7355M7.73424 43.7104H7.7355M7.7355 43.7104H7.73677M7.7355 43.7104H7.73677M7.73677 43.7104H7.73803M7.73677 43.7104H7.73803M7.73803 43.7104H7.73929M7.73803 43.7104H7.73929M7.73929 43.7104H7.74056M7.73929 43.7104H7.74056M7.74056 43.7104H7.74182M7.74056 43.7104H7.74182M7.74182 43.7104H7.74308M7.74182 43.7104H7.74308M7.74308 43.7104H7.74434M7.74308 43.7104H7.74434M7.74434 43.7104H7.7456M7.74434 43.7104H7.7456M7.7456 43.7104H7.74686M7.7456 43.7104H7.74686M7.74686 43.7104H7.74812M7.74686 43.7104H7.74812M7.74812 43.7104H7.74937M7.74812 43.7104H7.74937M7.74937 43.7104H7.75063M7.74937 43.7104H7.75063M7.75063 43.7104H7.75189M7.75063 43.7104H7.75189M7.75189 43.7104H7.75315M7.75189 43.7104H7.75315M7.75315 43.7104H7.7544M7.75315 43.7104H7.7544M7.7544 43.7104H7.75566M7.7544 43.7104H7.75566M7.75566 43.7104H7.75691M7.75566 43.7104H7.75691M7.75691 43.7104H7.75817M7.75691 43.7104H7.75817M7.75817 43.7104H7.75942M7.75817 43.7104H7.75942M7.75942 43.7104H7.76067M7.75942 43.7104H7.76067M7.76067 43.7104H7.76193M7.76067 43.7104H7.76193M7.76193 43.7104H7.76318M7.76193 43.7104H7.76318M7.76318 43.7104H7.76443M7.76318 43.7104H7.76443M7.76443 43.7104H7.76568M7.76443 43.7104H7.76568M7.76568 43.7104H7.76693M7.76568 43.7104H7.76693M7.76693 43.7104H7.76818M7.76693 43.7104H7.76818M7.76818 43.7104H7.76943M7.76818 43.7104H7.76943M7.76943 43.7104H7.77068M7.76943 43.7104H7.77068M7.77068 43.7104H7.77193M7.77068 43.7104H7.77193M7.77193 43.7104H7.77317M7.77193 43.7104H7.77317M7.77317 43.7104H7.77442M7.77317 43.7104H7.77442M7.77442 43.7104H7.77567M7.77442 43.7104H7.77567M7.77567 43.7104H7.77692M7.77567 43.7104H7.77692M7.77692 43.7104H7.77816M7.77692 43.7104H7.77816M7.77816 43.7104H7.77941M7.77816 43.7104H7.77941M7.77941 43.7104H7.78065M7.77941 43.7104H7.78065M7.78065 43.7104H7.78189M7.78065 43.7104H7.78189M7.78189 43.7104H7.78314M7.78189 43.7104H7.78314M7.78314 43.7104H7.78438M7.78314 43.7104H7.78438M7.78438 43.7104H7.78562M7.78438 43.7104H7.78562M7.78562 43.7104H7.78687M7.78562 43.7104H7.78687M7.78687 43.7104H7.78811M7.78687 43.7104H7.78811M7.78811 43.7104H7.78935M7.78811 43.7104H7.78935M7.78935 43.7104H7.79059M7.78935 43.7104H7.79059M7.79059 43.7104H7.79183M7.79059 43.7104H7.79183M7.79183 43.7104H7.79307M7.79183 43.7104H7.79307M7.79307 43.7104H7.79431M7.79307 43.7104H7.79431M7.79431 43.7104H7.79555M7.79431 43.7104H7.79555M7.79555 43.7104H7.79679M7.79555 43.7104H7.79679M7.79679 43.7104H7.79802M7.79679 43.7104H7.79802M7.79802 43.7104H7.79926M7.79802 43.7104H7.79926M7.79926 43.7104H7.8005M7.79926 43.7104H7.8005M7.8005 43.7104H7.80173M7.8005 43.7104H7.80173M7.80173 43.7104H7.80297M7.80173 43.7104H7.80297M7.80297 43.7104H7.80421M7.80297 43.7104H7.80421M7.80421 43.7104H7.80544M7.80421 43.7104H7.80544M7.80544 43.7104H7.80667M7.80544 43.7104H7.80667M7.80667 43.7104H7.80791M7.80667 43.7104H7.80791M7.80791 43.7104H7.80914M7.80791 43.7104H7.80914M7.80914 43.7104H7.81038M7.80914 43.7104H7.81038M7.81038 43.7104H7.81161M7.81038 43.7104H7.81161M7.81161 43.7104H7.81284M7.81161 43.7104H7.81284M7.81284 43.7104H7.81407M7.81284 43.7104H7.81407M7.81407 43.7104H7.8153M7.81407 43.7104H7.8153M7.8153 43.7104H7.81653M7.8153 43.7104H7.81653M7.81653 43.7104H7.81776M7.81653 43.7104H7.81776M7.81776 43.7104H7.81899M7.81776 43.7104H7.81899M7.81899 43.7104H7.82022M7.81899 43.7104H7.82022M7.82022 43.7104H7.82145M7.82022 43.7104H7.82145M7.82145 43.7104H7.82268M7.82145 43.7104H7.82268M7.82268 43.7104H7.82391M7.82268 43.7104H7.82391M7.82391 43.7104H7.82514M7.82391 43.7104H7.82514M7.82514 43.7104H7.82636M7.82514 43.7104H7.82636M7.82636 43.7104H7.82759M7.82636 43.7104H7.82759M7.82759 43.7104H7.82882M7.82759 43.7104H7.82882M7.82882 43.7104H7.83004M7.82882 43.7104H7.83004M7.83004 43.7104H7.83127M7.83004 43.7104H7.83127M7.83127 43.7104H7.83249M7.83127 43.7104H7.83249M7.83249 43.7104H7.83372M7.83249 43.7104H7.83372M7.83372 43.7104H7.83494M7.83372 43.7104H7.83494M7.83494 43.7104H7.83617M7.83494 43.7104H7.83617M7.83617 43.7104H7.83739M7.83617 43.7104H7.83739M7.83739 43.7104H7.83861M7.83739 43.7104H7.83861M7.83861 43.7104H7.83984M7.83861 43.7104H7.83984M7.83984 43.7104H7.84106M7.83984 43.7104H7.84106M7.84106 43.7104H7.84228M7.84106 43.7104H7.84228M7.84228 43.7104H7.8435M7.84228 43.7104H7.8435M7.8435 43.7104H7.84472M7.8435 43.7104H7.84472M7.84472 43.7104H7.84594M7.84472 43.7104H7.84594M7.84594 43.7104H7.84716M7.84594 43.7104H7.84716M7.84716 43.7104H7.84838M7.84716 43.7104H7.84838M7.84838 43.7104H7.8496M7.84838 43.7104H7.8496M7.8496 43.7104H7.85082M7.8496 43.7104H7.85082M7.85082 43.7104H7.85204M7.85082 43.7104H7.85204M7.85204 43.7104H7.85326M7.85204 43.7104H7.85326M7.85326 43.7104H7.85448M7.85326 43.7104H7.85448M7.85448 43.7104H7.85569M7.85448 43.7104H7.85569M7.85569 43.7104H7.85691M7.85569 43.7104H7.85691M7.85691 43.7104H7.85813M7.85691 43.7104H7.85813M7.85813 43.7104H7.85934M7.85813 43.7104H7.85934M7.85934 43.7104H7.86056M7.85934 43.7104H7.86056M7.86056 43.7104H7.86177M7.86056 43.7104H7.86177M7.86177 43.7104H7.86299M7.86177 43.7104H7.86299M7.86299 43.7104H7.8642M7.86299 43.7104H7.8642M7.8642 43.7104H7.86542M7.8642 43.7104H7.86542M7.86542 43.7104H7.86663M7.86542 43.7104H7.86663M7.86663 43.7104H7.86785M7.86663 43.7104H7.86785M7.86785 43.7104H7.86906M7.86785 43.7104H7.86906M7.86906 43.7104H7.87027M7.86906 43.7104H7.87027M7.87027 43.7104H7.87148M7.87027 43.7104H7.87148M7.87148 43.7104H7.8727M7.87148 43.7104H7.8727M7.8727 43.7104H7.87391M7.8727 43.7104H7.87391M7.87391 43.7104H7.87512M7.87391 43.7104H7.87512M7.87512 43.7104H7.87633M7.87512 43.7104H7.87633M7.87633 43.7104H7.87754M7.87633 43.7104H7.87754M7.87754 43.7104H7.87875M7.87754 43.7104H7.87875M7.87875 43.7104H7.87996M7.87875 43.7104H7.87996M7.87996 43.7104H7.88117M7.87996 43.7104H7.88117M7.88117 43.7104H7.88238M7.88117 43.7104H7.88238M7.88238 43.7104H7.88359M7.88238 43.7104H7.88359M7.88359 43.7104H7.8848M7.88359 43.7104H7.8848M7.8848 43.7104H7.88601M7.8848 43.7104H7.88601M7.88601 43.7104H7.88722M7.88601 43.7104H7.88722M7.88722 43.7104H7.88842M7.88722 43.7104H7.88842M7.88842 43.7104H7.88963M7.88842 43.7104H7.88963M7.88963 43.7104H7.89084M7.88963 43.7104H7.89084M7.89084 43.7104H7.89205M7.89084 43.7104H7.89205M7.89205 43.7104H7.89325M7.89205 43.7104H7.89325M7.89325 43.7104H7.89446M7.89325 43.7104H7.89446M7.89446 43.7104H7.89566M7.89446 43.7104H7.89566M7.89566 43.7104H7.89687M7.89566 43.7104H7.89687M7.89687 43.7104H7.89808M7.89687 43.7104H7.89808M7.89808 43.7104H7.89928M7.89808 43.7104H7.89928M7.89928 43.7104H7.90049M7.89928 43.7104H7.90049M7.90049 43.7104H7.90169M7.90049 43.7104H7.90169M7.90169 43.7104H7.90289M7.90169 43.7104H7.90289M7.90289 43.7104H7.9041M7.90289 43.7104H7.9041M7.9041 43.7104H7.9053M7.9041 43.7104H7.9053M7.9053 43.7104H7.9065M7.9053 43.7104H7.9065M7.9065 43.7104H7.90771M7.9065 43.7104H7.90771M7.90771 43.7104H7.90891M7.90771 43.7104H7.90891M7.90891 43.7104H7.91011M7.90891 43.7104H7.91011M7.91011 43.7104H7.91131M7.91011 43.7104H7.91131M7.91131 43.7104H7.91251M7.91131 43.7104H7.91251M7.91251 43.7104H7.91372M7.91251 43.7104H7.91372M7.91372 43.7104H7.91492M7.91372 43.7104H7.91492M7.91492 43.7104H7.91612M7.91492 43.7104H7.91612M7.91612 43.7104H7.91732M7.91612 43.7104H7.91732M7.91732 43.7104H7.91852M7.91732 43.7104H7.91852M7.91852 43.7104H7.91972M7.91852 43.7104H7.91972M7.91972 43.7104H7.92092M7.91972 43.7104H7.92092M7.92092 43.7104H7.92212M7.92092 43.7104H7.92212M7.92212 43.7104H7.92332M7.92212 43.7104H7.92332M7.92332 43.7104H7.92452M7.92332 43.7104H7.92452M7.92452 43.7104H7.92571M7.92452 43.7104H7.92571M7.92571 43.7104H7.92691M7.92571 43.7104H7.92691M7.92691 43.7104H7.92811M7.92691 43.7104H7.92811M7.92811 43.7104H7.92931M7.92811 43.7104H7.92931M7.92931 43.7104H7.93051M7.92931 43.7104H7.93051M7.93051 43.7104H7.9317M7.93051 43.7104H7.9317M7.9317 43.7104H7.9329M7.9317 43.7104H7.9329M7.9329 43.7104H7.9341M7.9329 43.7104H7.9341M7.9341 43.7104H7.93529M7.9341 43.7104H7.93529M7.93529 43.7104H7.93649M7.93529 43.7104H7.93649M7.93649 43.7104H7.93769M7.93649 43.7104H7.93769M7.93769 43.7104H7.93888M7.93769 43.7104H7.93888M7.93888 43.7104H7.94008M7.93888 43.7104H7.94008M7.94008 43.7104H7.94127M7.94008 43.7104H7.94127M7.94127 43.7104H7.94247M7.94127 43.7104H7.94247M7.94247 43.7104H7.94366M7.94247 43.7104H7.94366M7.94366 43.7104H7.94486M7.94366 43.7104H7.94486M7.94486 43.7104H7.94605M7.94486 43.7104H7.94605M7.94605 43.7104H7.94725M7.94605 43.7104H7.94725M7.94725 43.7104H7.94844M7.94725 43.7104H7.94844M7.94844 43.7104H7.94963M7.94844 43.7104H7.94963M7.94963 43.7104H7.95083M7.94963 43.7104H7.95083M7.95083 43.7104H7.95202M7.95083 43.7104H7.95202M7.95202 43.7104H7.95321M7.95202 43.7104H7.95321M7.95321 43.7104H7.95441M7.95321 43.7104H7.95441M7.95441 43.7104H7.9556M7.95441 43.7104H7.9556M7.9556 43.7104H7.95679M7.9556 43.7104H7.95679M7.95679 43.7104H7.95798M7.95679 43.7104H7.95798M7.95798 43.7104H7.95918M7.95798 43.7104H7.95918M7.95918 43.7104H7.96037M7.95918 43.7104H7.96037M7.96037 43.7104H7.96156M7.96037 43.7104H7.96156M7.96156 43.7104H7.96275M7.96156 43.7104H7.96275M7.96275 43.7104H7.96394M7.96275 43.7104H7.96394M7.96394 43.7104H7.96513M7.96394 43.7104H7.96513M7.96513 43.7104H7.96632M7.96513 43.7104H7.96632M7.96632 43.7104H7.96751M7.96632 43.7104H7.96751M7.96751 43.7104H7.96871M7.96751 43.7104H7.96871M7.96871 43.7104H7.9699M7.96871 43.7104H7.9699M7.9699 43.7104H7.97109M7.9699 43.7104H7.97109M7.97109 43.7104H7.97228M7.97109 43.7104H7.97228M7.97228 43.7104H7.97347M7.97228 43.7104H7.97347M7.97347 43.7104H7.97466M7.97347 43.7104H7.97466M7.97466 43.7104H7.97584M7.97466 43.7104H7.97584M7.97584 43.7104H7.97703M7.97584 43.7104H7.97703M7.97703 43.7104H7.97822M7.97703 43.7104H7.97822M7.97822 43.7104H7.97941M7.97822 43.7104H7.97941M7.97941 43.7104H7.9806M7.97941 43.7104H7.9806M7.9806 43.7104H7.98179M7.9806 43.7104H7.98179M7.98179 43.7104H7.98298M7.98179 43.7104H7.98298M7.98298 43.7104H7.98417M7.98298 43.7104H7.98417M7.98417 43.7104H7.98535M7.98417 43.7104H7.98535M7.98535 43.7104H7.98654M7.98535 43.7104H7.98654M7.98654 43.7104H7.98773M7.98654 43.7104H7.98773M7.98773 43.7104H7.98892M7.98773 43.7104H7.98892M7.98892 43.7104H7.9901M7.98892 43.7104H7.9901M7.9901 43.7104H7.99129M7.9901 43.7104H7.99129M7.99129 43.7104H7.99248M7.99129 43.7104H7.99248M7.99248 43.7104H7.99367M7.99248 43.7104H7.99367M7.99367 43.7104H7.99485M7.99367 43.7104H7.99485M7.99485 43.7104H7.99604M7.99485 43.7104H7.99604M7.99604 43.7104H7.99723M7.99604 43.7104H7.99723M7.99723 43.7104H7.99841M7.99723 43.7104H7.99841M7.99841 43.7104H7.9996M7.99841 43.7104H7.9996M7.9996 43.7104H8.00078M7.9996 43.7104H8.00078M8.00078 43.7104H8.00197M8.00078 43.7104H8.00197M8.00197 43.7104H8.00316M8.00197 43.7104H8.00316M8.00316 43.7104H8.00434M8.00316 43.7104H8.00434M8.00434 43.7104H8.00553M8.00434 43.7104H8.00553M8.00553 43.7104H8.00671M8.00553 43.7104H8.00671M8.00671 43.7104H8.0079M8.00671 43.7104H8.0079M8.0079 43.7104H8.00908M8.0079 43.7104H8.00908M8.00908 43.7104H8.01027M8.00908 43.7104H8.01027M8.01027 43.7104H8.01145M8.01027 43.7104H8.01145M8.01145 43.7104H8.01264M8.01145 43.7104H8.01264M8.01264 43.7104H8.01382M8.01264 43.7104H8.01382M8.01382 43.7104H8.01501M8.01382 43.7104H8.01501M8.01501 43.7104H8.01619M8.01501 43.7104H8.01619M8.01619 43.7104H8.01738M8.01619 43.7104H8.01738M8.01738 43.7104H8.01856M8.01738 43.7104H8.01856M8.01856 43.7104H8.01975M8.01856 43.7104H8.01975M8.01975 43.7104H8.02093M8.01975 43.7104H8.02093M8.02093 43.7104H8.02211M8.02093 43.7104H8.02211M8.02211 43.7104H8.0233M8.02211 43.7104H8.0233M8.0233 43.7104H8.02448M8.0233 43.7104H8.02448M8.02448 43.7104H8.02567M8.02448 43.7104H8.02567M8.02567 43.7104H8.02685M8.02567 43.7104H8.02685M8.02685 43.7104H8.02803M8.02685 43.7104H8.02803M8.02803 43.7104H8.02922M8.02803 43.7104H8.02922M8.02922 43.7104H8.0304M8.02922 43.7104H8.0304M8.0304 43.7104H8.03158M8.0304 43.7104H8.03158M8.03158 43.7104H8.03277M8.03158 43.7104H8.03277M8.03277 43.7104H8.03395M8.03277 43.7104H8.03395M8.03395 43.7104H8.03513M8.03395 43.7104H8.03513M8.03513 43.7104H8.03632M8.03513 43.7104H8.03632M8.03632 43.7104H8.0375M8.03632 43.7104H8.0375M8.0375 43.7104H8.03868M8.0375 43.7104H8.03868M8.03868 43.7104H8.03986M8.03868 43.7104H8.03986M8.03986 43.7104H8.04105M8.03986 43.7104H8.04105M8.04105 43.7104H8.04223M8.04105 43.7104H8.04223M8.04223 43.7104H8.04341M8.04223 43.7104H8.04341M8.04341 43.7104H8.04459M8.04341 43.7104H8.04459M8.04459 43.7104H8.04578M8.04459 43.7104H8.04578M8.04578 43.7104H8.04696M8.04578 43.7104H8.04696M8.04696 43.7104H8.04814M8.04696 43.7104H8.04814M8.04814 43.7104H8.04932M8.04814 43.7104H8.04932M8.04932 43.7104H8.05051M8.04932 43.7104H8.05051M8.05051 43.7104H8.05169M8.05051 43.7104H8.05169M8.05169 43.7104H8.05287M8.05169 43.7104H8.05287M8.05287 43.7104H8.05405M8.05287 43.7104H8.05405M8.05405 43.7104H8.05524M8.05405 43.7104H8.05524M8.05524 43.7104H8.05642M8.05524 43.7104H8.05642M8.05642 43.7104H8.0576M8.05642 43.7104H8.0576M8.0576 43.7104H8.05878M8.0576 43.7104H8.05878M8.05878 43.7104H8.05997M8.05878 43.7104H8.05997M8.05997 43.7104H8.06092H8.05997ZM33.6165 37.5809C34.8716 36.6775 36.3123 36.2161 37.8372 36.2081L24.046 36.2093C26.5275 36.2286 28.6063 37.3037 30.2994 39.2116L30.2998 39.212C30.4098 39.3354 30.5143 39.4591 30.6061 39.5678C30.6501 39.6199 30.6912 39.6685 30.7286 39.712L30.8915 39.9015L31.0811 39.7387C31.364 39.4957 31.6348 39.2529 31.9009 39.0143C32.4705 38.5035 33.0183 38.0123 33.6165 37.5809ZM33.1711 46.3303L33.1727 46.3293C36.0375 44.3985 39.2471 43.7442 42.6284 43.7198C45.1874 43.7012 47.7462 43.706 50.3065 43.7108C51.4654 43.7129 52.6246 43.7151 53.7843 43.7151H53.7858H53.7873H53.7888H53.7903H53.7918H53.7933H53.7949H53.7964H53.7979H53.7994H53.8009H53.8024H53.8039H53.8055H53.807H53.8085H53.81H53.8115H53.813H53.8145H53.8161H53.8176H53.8191H53.8206H53.8221H53.8236H53.8251H53.8267H53.8282H53.8297H53.8312H53.8327H53.8342H53.8358H53.8373H53.8388H53.8403H53.8418H53.8433H53.8449H53.8464H53.8479H53.8494H53.8509H53.8524H53.8539H53.8555H53.857H53.8585H53.86H53.8615H53.863H53.8646H53.8661H53.8676H53.8691H53.8706H53.8722H53.8737H53.8752H53.8767H53.8782H53.8797H53.8813H53.8828H53.8843H53.8858H53.8873H53.8888H53.8904H53.8919H53.8934H53.8949H53.8964H53.898H53.8995H53.901H53.9025H53.904H53.9056H53.9071H53.9086H53.9101H53.9116H53.9132H53.9147H53.9162H53.9177H53.9192H53.9207H53.9223H53.9238H53.9253H53.9268H53.9284H53.9299H53.9314H53.9329H53.9344H53.936H53.9375H53.939H53.9405H53.9421H53.9436H53.9451H53.9466H53.9481H53.9497H53.9512H53.9527H53.9542H53.9558H53.9573H53.9588H53.9603H53.9618H53.9634H53.9649H53.9664H53.9679H53.9695H53.971H53.9725H53.974H53.9756H53.9771H53.9786H53.9801H53.9817H53.9832H53.9847H53.9863H53.9878H53.9893H53.9908H53.9924H53.9939H53.9954H53.9969H53.9985H54H54.0015H54.0031H54.0046H54.0061H54.0076H54.0092H54.0107H54.0122H54.0138H54.0153H54.0168H54.0183H54.0199H54.0214H54.0229H54.0245H54.026H54.0275H54.0291H54.0306H54.0321H54.0337H54.0352H54.0367H54.0383H54.0398H54.0413H54.0429H54.0444H54.0459H54.0475H54.049H54.0505H54.0521H54.0536H54.0551H54.0567H54.0582H54.0597H54.0613H54.0628H54.0643H54.0659H54.0674H54.0689H54.0705H54.072H54.0736H54.0751H54.0766H54.0782H54.0797H54.0812H54.0828H54.0843H54.0859H54.0874H54.0889H54.0905H54.092H54.0936H54.0951H54.0966H54.0982H54.0997H54.1013H54.1028H54.1043H54.1059H54.1074H54.109H54.1105H54.1121H54.1136H54.1151H54.1167H54.1182H54.1198H54.1213H54.1229H54.1244H54.126H54.1275H54.129H54.1306H54.1321H54.1337H54.1352H54.1368H54.1383H54.1399H54.1414H54.143H54.1445H54.1461H54.1476H54.1492H54.1507H54.1523H54.1538H54.1554H54.1569H54.1585H54.16H54.1616H54.1631H54.1647H54.1662H54.1678H54.1693H54.1709H54.1724H54.174H54.1755H54.1771H54.1786H54.1802H54.1818H54.1833H54.1849H54.1864H54.188H54.1895H54.1911H54.1926H54.1942H54.1958H54.1973H54.1989H54.2004H54.202H54.2036H54.2051H54.2067H54.2082H54.2098H54.2114H54.2129H54.2145H54.216H54.2176H54.2192H54.2207H54.2223H54.2239H54.2254H54.227H54.2285H54.2301H54.2317H54.2332H54.2348H54.2364H54.2379H54.2395H54.2411H54.2426H54.2442H54.2458H54.2473H54.2489H54.2505H54.252H54.2536H54.2552H54.2568H54.2583H54.2599H54.2615H54.263H54.2646H54.2662H54.2678H54.2693H54.2709H54.2725H54.274H54.2756H54.2772H54.2788H54.2803H54.2819H54.2835H54.2851H54.2866H54.2882H54.2898H54.2914H54.293H54.2945H54.2961H54.2977H54.2993H54.3009H54.3024H54.304H54.3056H54.3072H54.3088H54.3103H54.3119H54.3135H54.3151H54.3167H54.3183H54.3198H54.3214H54.323H54.3246H54.3262H54.3278H54.3294H54.3309H54.3325H54.3341H54.3357H54.3373H54.3389H54.3405H54.3421H54.3437H54.3452H54.3468H54.3484H54.35H54.3516H54.3532H54.3548H54.3564H54.358H54.3596H54.3612H54.3628H54.3644H54.366H54.3675H54.3691H54.3707H54.3723H54.3739H54.3755H54.3771H54.3787H54.3803H54.3819H54.3835H54.3851H54.3867H54.3883H54.3899H54.3915H54.3931H54.3947H54.3963H54.398H54.3996H54.4012H54.4028H54.4044H54.406H54.4076H54.4092H54.4108H54.4124H54.414H54.4156H54.4172H54.4188H54.4205H54.4221H54.4237H54.4253H54.4269H54.4285H54.4301H54.4317H54.4333H54.435H54.4366H54.4382H54.4398H54.4414H54.443H54.4447H54.4463H54.4479H54.4495H54.4511H54.4527H54.4544H54.456H54.4576H54.4592H54.4608H54.4625H54.4641H54.4657H54.4673H54.469H54.4706H54.4722H54.4738H54.4755H54.4771H54.4787H54.4803H54.482H54.4836H54.4852H54.4869H54.4885H54.4901H54.4917H54.4934H54.495H54.4966H54.4983H54.4999H54.5015H54.5032H54.5048H54.5064H54.5081H54.5097H54.5114H54.513H54.5146H54.5163H54.5179H54.5195H54.5212H54.5228H54.5245H54.5261H54.5277H54.5294H54.531H54.5327H54.5343H54.536H54.5376H54.5392H54.5409H54.5425H54.5442H54.5458H54.5475H54.5491H54.5508H54.5524H54.5541H54.5557H54.5574H54.559H54.5607H54.5623H54.564H54.5656H54.5673H54.569H54.5706H54.5723H54.5739H54.5756H54.5772H54.5789H54.5805H54.5822H54.5839H54.5855H54.8355V43.4651V39.7439V39.5247L54.6182 39.496C54.5811 39.4911 54.5512 39.4862 54.5203 39.4811C54.5064 39.4788 54.4922 39.4765 54.4771 39.4741C54.4325 39.4671 54.3798 39.4598 54.3226 39.4598C52.8144 39.4598 51.3058 39.4575 49.7971 39.4552C45.8498 39.4491 41.901 39.4429 37.9528 39.4786L37.955 39.7286L37.9527 39.4786C34.6904 39.5084 32.1519 42.8133 32.6336 46.1855L32.8583 46.1534L32.8788 46.4001H32.8811H33.1693L33.1604 46.3371C33.1639 46.335 33.1675 46.3327 33.1711 46.3303ZM23.8167 39.461L23.8166 39.461L23.8156 39.711L23.8167 39.461ZM29.0471 46.3759L29.3382 46.4763L29.3767 46.1708L29.1286 46.1395L29.0471 46.3759ZM7.40608 39.7521L7.38162 39.5033L7.15608 39.5254V39.7521H7.40608ZM8.06115 43.4609V43.4604V43.4609Z" fill="white" stroke="#1181D0" stroke-width="0.5"/>
</svg>
