<svg width="60" height="64" viewBox="0 0 60 64" fill="none" xmlns="http://www.w3.org/2000/svg">
<path d="M44.7185 46.9604C45.5079 46.2179 46.3401 45.4242 47.1858 44.6437C48.1859 43.7211 49.1619 42.7676 50.2139 41.9059C51.2899 41.0248 52.5347 40.4783 53.9804 40.5313C55.6976 40.594 56.9862 41.4786 58.0756 42.6855C59.6544 44.4354 59.9134 46.5472 58.7472 48.6529C58.2524 49.5473 57.6416 50.4072 56.9469 51.1603C53.8233 54.5488 50.4835 57.7201 46.6563 60.329C40.4679 64.5465 33.901 65.1345 27.0447 62.0692C26.0937 61.6436 25.2221 61.0185 24.3702 60.4085C22.2682 58.904 19.9607 57.992 17.355 57.8666C17.1023 57.8543 16.8487 57.8543 16.596 57.8675C16.3156 57.8825 16.0361 57.9179 15.6798 57.9523C15.6798 58.5129 15.6798 59.0656 15.6798 59.6183C15.6798 60.6733 15.3235 61.0318 14.2734 61.0318C9.95672 61.0318 5.64097 61.038 1.32432 61.0185C0.99481 61.0168 0.590292 60.9117 0.359011 60.7033C0.142911 60.5091 0.0143221 60.1145 0.0134292 59.8081C-0.00353739 52.4519 3.45109e-05 45.094 0.000927487 37.737C0.000927487 36.9688 0.422412 36.5618 1.23234 36.561C4.47742 36.5574 7.7216 36.5592 10.9667 36.5592C12.1124 36.5592 13.2589 36.5557 14.4046 36.5592C15.2744 36.5618 15.6798 36.9715 15.6798 37.835C15.6798 43.5445 15.6798 49.2541 15.6798 54.9637C15.6798 55.2101 15.6798 55.4564 15.6798 55.7195C16.2799 55.7195 16.8264 55.7062 17.372 55.7212C20.5144 55.8078 23.2942 56.8937 25.7803 58.7522C28.7673 60.9841 32.165 61.9076 35.8593 61.7946C39.483 61.6842 42.7432 60.5215 45.6713 58.3778C49.3468 55.6868 52.6794 52.6347 55.6967 49.248C56.2557 48.6202 56.6826 47.8486 57.0407 47.084C57.472 46.1623 57.3264 45.2176 56.6603 44.4345C56.245 43.9454 55.7566 43.4916 55.227 43.1296C54.3948 42.561 53.4527 42.5001 52.5651 42.9919C51.9489 43.3335 51.3578 43.752 50.8398 44.227C48.9423 45.9681 47.0777 47.7444 45.2096 49.5172C45.0935 49.6276 45.0114 49.8059 44.9801 49.9657C44.4435 52.7168 41.7619 54.5947 38.9374 54.163C36.2977 53.7595 33.7706 52.9243 31.2372 52.1235C30.6077 51.9249 30.3434 51.336 30.547 50.748C30.7452 50.1759 31.3122 49.9066 31.9534 50.0867C33.9965 50.6615 36.0361 51.2512 38.0846 51.8065C38.815 52.0052 39.5616 52.1332 40.3313 51.9584C42.4235 51.4816 43.313 49.8783 42.5736 47.8848C41.9788 46.2824 40.8144 45.1637 39.3508 44.3603C35.8959 42.4621 32.2347 41.1087 28.3243 40.4536C25.1543 39.9221 21.9708 39.7614 18.7659 40.0792C18.5195 40.104 18.2525 40.1066 18.0185 40.0395C17.5229 39.8991 17.2434 39.4277 17.2907 38.9077C17.3354 38.4247 17.681 38.0142 18.2016 37.9639C19.2222 37.865 20.2483 37.7767 21.2725 37.7599C27.5716 37.6593 33.55 38.9368 39.1713 41.8061C40.6269 42.5495 42.0315 43.3406 43.0799 44.6005C43.6782 45.32 44.155 46.1376 44.7194 46.9586L44.7185 46.9604ZM2.22087 58.8193H13.4527V38.7408H2.22087V58.8193Z" fill="white"/>
<path d="M29.2477 26.9977C21.7306 26.9756 15.6164 20.8855 15.6387 13.4419C15.6602 6.01686 21.7896 -0.0141013 29.3004 2.47647e-05C36.9175 0.0141509 42.9718 6.05924 42.9477 13.6282C42.9245 20.987 36.7415 27.0206 29.2477 26.9985V26.9977ZM40.7448 13.4631C40.7269 7.20434 35.5637 2.126 29.2459 2.15249C22.9326 2.17898 17.823 7.29262 17.8426 13.5646C17.8622 19.7951 23.0397 24.8417 29.3941 24.8249C35.6477 24.8081 40.7626 19.6883 40.7448 13.464V13.4631Z" fill="white"/>
<path d="M50.3497 13.735C49.1513 14.2886 48.0235 14.8103 46.8948 15.3295C46.5849 15.4725 46.2768 15.6208 45.9589 15.7444C45.3785 15.9696 44.7784 15.7268 44.5409 15.1873C44.3096 14.662 44.506 14.0475 45.0445 13.7941C47.1126 12.823 49.1826 11.8553 51.2668 10.9186C52.0919 10.5478 52.9054 11.1755 52.8009 12.0663C52.6562 13.2927 52.5044 14.5181 52.3294 15.7409C52.2785 16.0994 52.3544 16.3236 52.658 16.5585C54.8806 18.2783 56.4639 20.4643 57.4104 23.0935C57.5212 23.4017 57.656 23.5579 58.0061 23.5147C58.2695 23.482 58.541 23.5058 58.8088 23.5094C59.5741 23.5191 59.9947 23.9305 59.9965 24.688C60.0001 26.7628 59.9983 28.8376 59.9974 30.9132C59.9974 31.2072 60.0045 31.5021 59.9956 31.7961C59.9777 32.3885 59.5581 32.8132 58.958 32.8582C58.9285 32.8609 58.8972 32.867 58.8687 32.8609C57.8676 32.6534 57.4185 33.0886 57.0845 34.0351C56.538 35.5837 55.5861 36.9354 54.4627 38.1528C54.0859 38.5607 53.576 38.6623 53.1268 38.4513C52.7 38.2508 52.4357 37.8041 52.5303 37.3256C52.5768 37.0943 52.7027 36.8506 52.8607 36.6731C54.1823 35.1917 55.1128 33.5054 55.6495 31.6028C55.8281 30.9688 56.1728 30.7146 56.8452 30.6872C57.1399 30.6748 57.4363 30.6854 57.7667 30.6854V25.6804C57.4506 25.6804 57.1292 25.6874 56.8086 25.6786C56.204 25.6618 55.8308 25.3864 55.6674 24.8134C54.8181 21.8398 53.134 19.457 50.5426 17.715C50.0782 17.4025 49.9541 16.9743 50.03 16.4481C50.1461 15.6473 50.2452 14.8448 50.3497 14.0431C50.3586 13.9725 50.3506 13.9001 50.3506 13.7359L50.3497 13.735Z" fill="white"/>
<path d="M13.4794 28.3518C13.4874 26.3433 13.7973 24.6014 14.4411 22.9204C14.6992 22.2467 15.2707 21.9474 15.8726 22.1575C16.4932 22.3747 16.7531 22.9848 16.4959 23.6796C15.3948 26.6576 15.3993 29.6435 16.4736 32.617C16.7504 33.3843 17.1585 34.1118 17.5657 34.8242C17.9621 35.5155 17.8952 36.1512 17.296 36.5176C16.7263 36.8664 16.1039 36.6624 15.686 35.9817C14.2099 33.5714 13.4839 30.9546 13.4785 28.351L13.4794 28.3518Z" fill="white"/>
<path d="M48.375 23.2248C48.3857 22.6104 48.8769 22.1477 49.5002 22.1645C50.102 22.1813 50.5619 22.6501 50.5592 23.2452C50.5565 23.8614 50.0779 24.3355 49.4582 24.3355C48.8581 24.3355 48.3652 23.8305 48.3759 23.2248H48.375Z" fill="white"/>
<path d="M34.2113 9.48734C34.3346 10.5265 33.3692 10.9927 32.7067 10.7119C32.2611 10.5238 32.0521 10.1857 32.0316 9.71424C31.9923 8.84637 31.6619 8.12064 30.9529 7.57943C30.0402 6.88196 28.7918 6.82633 27.8212 7.447C26.8371 8.07649 26.3665 9.25955 26.6603 10.3667C26.9595 11.4924 27.9355 12.3311 29.0856 12.3841C30.5716 12.4521 31.8842 12.8873 32.9192 13.9918C35.3454 16.5813 34.2024 20.8518 30.7921 21.8971C30.4769 21.9942 30.3474 22.1276 30.384 22.4454C30.4019 22.6043 30.3903 22.7694 30.3715 22.9292C30.3037 23.4943 29.8473 23.8739 29.2651 23.8606C28.6918 23.8483 28.1953 23.4333 28.2311 22.8692C28.2695 22.252 28.0712 22.0013 27.464 21.7532C25.5477 20.9736 24.527 19.4798 24.3868 17.4315C24.3377 16.7173 24.7806 16.2211 25.4182 16.1866C26.0692 16.1513 26.5344 16.6228 26.5782 17.3635C26.6666 18.8335 27.8167 19.9521 29.2598 19.9698C30.7064 19.9883 31.8869 18.9033 32.0155 17.4377C32.1459 15.9465 30.9243 14.6469 29.3276 14.5763C27.2818 14.4853 25.7343 13.5883 24.8422 11.7449C23.567 9.11035 24.9744 5.977 27.8087 5.08617C28.1239 4.98729 28.257 4.85927 28.2141 4.53967C28.1944 4.39488 28.2016 4.24479 28.2141 4.09911C28.2623 3.53319 28.7115 3.12176 29.2803 3.11293C29.8527 3.10411 30.4117 3.50847 30.3554 4.06115C30.2751 4.84073 30.6966 5.02614 31.3011 5.29012C33.121 6.08648 34.0461 7.54588 34.2149 9.48734H34.2113Z" fill="white"/>
</svg>
