<svg width="46" height="59" viewBox="0 0 46 59" fill="none" xmlns="http://www.w3.org/2000/svg">
<path d="M40.0737 47.4915C40.9878 49.2923 41.8671 51.0094 42.7321 52.7347C43.6155 54.4927 43.4952 54.8439 41.7385 55.7341C40.2533 56.4854 38.7639 57.2307 37.2787 57.9841C35.7567 58.7559 35.3119 58.615 34.555 57.1225C33.6369 55.3114 32.7127 53.5045 31.7619 51.6363C30.4358 52.2835 29.2239 52.8899 27.9998 53.4677C26.3574 54.2436 25.7678 53.8781 25.6944 52.0691C25.6882 51.9037 25.6617 51.7383 25.6352 51.4688C25.221 51.4484 24.8252 51.4137 24.4315 51.4137C17.7682 51.4096 11.1028 51.4137 4.43949 51.4055C1.46079 51.4015 0 49.9253 0 46.9422C0 32.8214 0 18.7006 0 4.57972C0 1.40478 1.36898 0.020462 4.51498 0.0184202C10.9069 0.0122949 17.2989 0.0286291 23.6909 4.43575e-05C24.5763 -0.00403917 25.2108 0.273641 25.8351 0.908629C29.3647 4.49601 32.9555 8.02214 36.4687 11.6238C36.9094 12.075 37.2419 12.8468 37.246 13.4716C37.2991 21.1956 37.295 28.9196 37.2603 36.6415C37.2562 37.4582 37.5337 37.9381 38.1723 38.3954C40.1635 39.8185 42.118 41.2927 44.0766 42.7628C45.517 43.8449 45.4109 44.829 43.7869 45.6396C42.5771 46.244 41.3672 46.8483 40.0737 47.4935V47.4915ZM23.1359 2.68701C22.8258 2.638 22.63 2.58083 22.4321 2.58083C16.3115 2.57879 10.1929 2.57267 4.07225 2.59104C2.85017 2.59513 2.45437 3.07698 2.45233 4.42046C2.44825 18.6434 2.44825 32.8643 2.45233 47.0872C2.45233 48.5062 2.87057 48.9513 4.25179 48.9534C11.0518 48.9636 17.8518 48.9452 24.6518 48.9758C25.4985 48.9799 25.6678 48.6573 25.6576 47.8978C25.623 45.3456 25.6515 42.7934 25.6474 40.2432C25.6474 39.9206 25.5944 39.598 25.5617 39.2162C24.9762 39.2162 24.5029 39.2162 24.0296 39.2162C22.0567 39.2162 20.0858 39.2101 18.113 39.2162C17.403 39.2183 16.8501 38.8854 16.8031 38.2076C16.7746 37.7931 17.099 37.2827 17.405 36.9458C17.5805 36.7518 18.0395 36.7722 18.37 36.7681C20.4776 36.7538 22.5871 36.7804 24.6926 36.7375C25.0068 36.7314 25.572 36.4476 25.5862 36.2597C25.6719 35.1531 25.6291 34.0383 25.6291 32.8173C25.1251 32.8173 24.7579 32.8173 24.3907 32.8173C22.3851 32.8173 20.3796 32.8255 18.3721 32.8132C17.3356 32.8071 16.7419 32.3232 16.744 31.5351C16.744 30.7776 17.3071 30.3121 18.3027 30.308C21.0896 30.2957 23.8786 30.2835 26.6655 30.3243C27.1021 30.3305 27.602 30.5203 27.9549 30.7817C29.9768 32.2762 31.9598 33.8239 33.9654 35.343C34.1571 35.4879 34.3958 35.5717 34.6754 35.7166C34.71 35.4512 34.7406 35.3185 34.7406 35.1858C34.7447 28.4479 34.7366 21.7122 34.757 14.9743C34.759 14.2822 34.4897 14.1107 33.8511 14.1188C31.6069 14.1474 29.3627 14.1393 27.1205 14.127C24.8314 14.1127 23.2094 12.5222 23.1482 10.2354C23.1237 9.31661 23.1359 8.39782 23.1339 7.47903C23.1339 5.88645 23.1339 4.29387 23.1339 2.68701H23.1359ZM28.1793 34.0934V50.6685C29.2362 50.1417 30.1645 49.6721 31.0989 49.2147C32.5739 48.494 33.033 48.643 33.7695 50.0621C34.0041 50.5133 34.2204 50.9747 34.4509 51.43C35.1405 52.7837 35.8322 54.1374 36.5687 55.5789C37.652 55.044 38.6354 54.5254 39.6473 54.068C40.2206 53.8087 40.3002 53.5147 40.0125 52.9675C39.1618 51.3422 38.3498 49.6986 37.5316 48.057C36.8625 46.7176 37.0257 46.2685 38.3946 45.5763C39.3719 45.0822 40.3471 44.586 41.4692 44.0184C36.9767 40.6618 32.6637 37.4419 28.1773 34.0914L28.1793 34.0934ZM32.3883 11.6197C30.191 9.39216 27.9243 7.09313 25.6699 4.80432C25.6699 6.60311 25.6066 8.49991 25.7168 10.3885C25.7413 10.8173 26.3452 11.5421 26.7145 11.5646C28.6853 11.683 30.6663 11.6197 32.3883 11.6197Z" fill="white"/>
<path d="M22.5262 23.8846C23.8809 23.8846 25.2356 23.8765 26.5923 23.8867C27.6736 23.8969 28.1959 24.3216 28.1857 25.1464C28.1755 25.955 27.6491 26.349 26.5393 26.3511C23.8299 26.3572 21.1184 26.3592 18.409 26.3511C17.3236 26.349 16.7626 25.9264 16.7483 25.1383C16.734 24.3481 17.3073 23.8887 18.3621 23.8805C19.7515 23.8683 21.1409 23.8785 22.5282 23.8785V23.8826L22.5262 23.8846Z" fill="white"/>
<path d="M10.3544 23.3372C11.2072 22.4572 12.0457 21.5792 12.9005 20.7176C13.6942 19.9172 14.4225 19.8274 15.0081 20.4297C15.5426 20.9789 15.4222 21.6813 14.651 22.4551C13.5514 23.5597 12.4558 24.6664 11.3459 25.7587C10.5278 26.5632 9.99733 26.5611 9.17512 25.775C8.85685 25.4708 8.5549 25.1503 8.23255 24.8501C7.65313 24.307 7.49603 23.6945 8.04077 23.0677C8.5753 22.449 9.20777 22.4694 9.83615 22.9696C9.96468 23.0717 10.1055 23.1616 10.3523 23.3372H10.3544Z" fill="white"/>
<path d="M10.2985 36.7681C11.0248 36.8538 11.4757 37.2601 11.4573 38.0176C11.4369 38.7751 10.9595 39.2141 10.2148 39.1916C9.47219 39.1712 9.01926 38.7037 9.03558 37.9502C9.0519 37.1928 9.52115 36.8069 10.2985 36.7681Z" fill="white"/>
<path d="M11.4817 31.4695C11.4307 32.2291 11.0573 32.715 10.3024 32.7579C9.53941 32.8008 9.07628 32.3536 9.03752 31.6043C8.99875 30.8488 9.43944 30.3649 10.1902 30.3364C10.9247 30.3078 11.3858 30.7182 11.4837 31.4695H11.4817Z" fill="white"/>
</svg>
