<svg width="50" height="50" viewBox="0 0 50 50" fill="none" xmlns="http://www.w3.org/2000/svg">
<path d="M24.996 0C28.3754 0 31.604 0.67428 34.555 1.89592C37.6249 3.16516 40.3776 5.02142 42.6781 7.32191C44.9786 9.6224 46.8348 12.383 48.1041 15.4371C49.3257 18.3881 50 21.6167 50 24.996C50 28.3754 49.3257 31.604 48.1041 34.555C46.8348 37.6249 44.9786 40.3776 42.6781 42.6781C40.3776 44.9786 37.617 46.8348 34.5629 48.1041C31.6119 49.3257 28.3833 50 25.004 50C21.6246 50 18.396 49.3257 15.445 48.1041C12.3751 46.8348 9.6224 44.9786 7.32191 42.6781C5.02142 40.3776 3.16516 37.617 1.89592 34.555C0.674283 31.604 0 28.3754 0 24.996C0 21.6167 0.674283 18.3881 1.89592 15.4371C3.16516 12.3671 5.02142 9.61447 7.32191 7.31398C9.6224 5.01349 12.383 3.15723 15.4371 1.88799C18.3881 0.674282 21.6088 0 24.996 0ZM23.1239 14.5486C23.1239 13.9457 23.3698 13.3984 23.7665 13.0017C24.1631 12.6051 24.7105 12.3592 25.3213 12.3592C25.9321 12.3592 26.4795 12.6051 26.8761 13.0017C27.2727 13.3984 27.5186 13.9457 27.5186 14.5566V26.2494L36.2605 31.4374L36.3319 31.485C36.8158 31.7944 37.1331 32.2624 37.26 32.778C37.3949 33.3175 37.3314 33.9045 37.0379 34.4122L37.0221 34.436C37.0062 34.4677 36.9903 34.4915 36.9665 34.5153C36.6572 34.9913 36.1891 35.3086 35.6814 35.4355C35.142 35.5704 34.555 35.5069 34.0473 35.2134L24.2742 29.4304C23.933 29.248 23.6475 28.9703 23.4412 28.6451C23.235 28.3119 23.116 27.9232 23.116 27.5107L23.1239 14.5486ZM39.5764 10.4157C37.6725 8.51182 35.4038 6.9808 32.8891 5.94161C30.4617 4.93416 27.7963 4.3868 24.996 4.3868C22.1958 4.3868 19.5304 4.94209 17.103 5.94161C14.5883 6.9808 12.3195 8.51182 10.4157 10.4157C8.51182 12.3195 6.98081 14.5883 5.94162 17.103C4.93416 19.5304 4.3868 22.1958 4.3868 24.996C4.3868 27.7963 4.94209 30.4617 5.94162 32.8891C6.98081 35.4038 8.51182 37.6725 10.4157 39.5764C12.3195 41.4802 14.5883 43.0113 17.103 44.0505C19.5304 45.0579 22.1958 45.6053 24.996 45.6053C27.7963 45.6053 30.4617 45.05 32.8891 44.0505C35.4038 43.0113 37.6725 41.4802 39.5764 39.5764C43.3127 35.8401 45.6132 30.6917 45.6132 24.996C45.6132 22.1958 45.0579 19.5304 44.0584 17.103C43.0113 14.5883 41.4803 12.3195 39.5764 10.4157Z" fill="white"/>
</svg>
