<svg width="70" height="71" viewBox="0 0 70 71" fill="none" xmlns="http://www.w3.org/2000/svg">
<path d="M33.4626 48.9733C31.6251 48.9733 29.9097 48.9733 28.1929 48.9733C26.453 48.9733 24.7118 48.976 22.972 48.9705C21.9088 48.9678 21.4572 48.5016 21.4491 47.4112C21.4437 46.5875 21.4491 45.7638 21.4491 44.8026C21.0409 45.035 20.7155 45.2165 20.3941 45.4035C19.16 46.1227 17.9369 46.8625 16.6893 47.5542C16.296 47.7714 16.2268 47.9956 16.3218 48.4205C17.092 51.8816 14.9915 55.2657 11.6379 56.0014C8.16632 56.7632 4.86021 54.5974 4.132 51.0827C3.5855 48.4521 4.80054 45.7377 7.1452 44.3433C9.44782 42.9738 12.3281 43.2556 14.3812 45.1271C14.8342 45.541 15.123 45.5025 15.5868 45.2234C17.3524 44.1577 19.1356 43.1181 20.9243 42.0937C21.2959 41.8806 21.4667 41.6619 21.464 41.1971C21.441 37.3923 21.4572 33.5874 21.4383 29.7825C21.4383 29.5336 21.3094 29.1678 21.125 29.0551C19.0882 27.8257 17.0283 26.6363 14.9399 25.4166C14.6579 25.6572 14.3894 25.8937 14.1127 26.1206C12.0325 27.8285 9.0871 27.9646 6.83601 26.4617C4.53746 24.9298 3.48921 22.0792 4.24048 19.4212C4.98497 16.792 7.3798 14.904 10.0458 14.8463C14.2076 14.7555 17.2046 18.4696 16.3353 22.6128C16.2892 22.8355 16.3936 23.2357 16.5577 23.3361C18.086 24.2698 19.6414 25.1581 21.1901 26.056C21.243 26.0863 21.3121 26.0863 21.4477 26.1165C21.4477 25.5885 21.4477 25.0934 21.4477 24.597C21.4477 22.1219 21.5413 22.027 24.0121 22.027C26.8829 22.027 29.7537 22.027 32.6245 22.027C32.8713 22.027 33.1181 22.027 33.4599 22.027C33.4599 21.7355 33.4599 21.4907 33.4599 21.2459C33.4599 18.7708 33.445 16.2942 33.4748 13.8191C33.4816 13.2525 33.3297 12.9981 32.7669 12.8125C30.0507 11.9118 28.38 9.39677 28.4966 6.49395C28.6065 3.78089 30.5565 1.37861 33.2049 0.696563C36.3605 -0.117491 39.6707 1.72101 40.6674 4.83834C41.698 8.06155 40.1101 11.5515 36.9897 12.7011C36.1802 12.9995 35.9727 13.3763 35.9944 14.2C36.0541 16.5362 36.0161 18.8753 36.0174 21.2129C36.0174 21.4591 36.0174 21.7038 36.0174 22.027C36.3402 22.027 36.5829 22.027 36.8257 22.027C40.0355 22.027 43.2453 22.027 46.4552 22.0311C47.5644 22.0325 48.0133 22.4931 48.0187 23.618C48.0214 24.4361 48.0187 25.2543 48.0187 26.2128C48.7591 25.7824 49.3979 25.4138 50.0339 25.0412C50.9533 24.5035 51.8618 23.9452 52.7935 23.431C53.1515 23.2329 53.2491 23.0335 53.1569 22.6196C52.3812 19.131 54.418 15.8033 57.796 15.0044C61.1401 14.2137 64.4422 16.275 65.2829 19.677C65.9339 22.313 64.7839 25.1402 62.4799 26.5703C60.1448 28.0196 57.1329 27.7721 55.1205 25.9006C54.6635 25.4757 54.3679 25.4757 53.8621 25.7865C52.1032 26.8632 50.3146 27.8931 48.5245 28.9176C48.1421 29.1362 48.0065 29.3851 48.0079 29.8361C48.0282 33.6176 48.0282 37.4005 48.0079 41.182C48.0052 41.6372 48.1516 41.8682 48.534 42.0868C50.3851 43.1429 52.2212 44.2223 54.0506 45.3155C54.4099 45.5301 54.6377 45.5562 54.9754 45.233C57.0922 43.2116 60.1963 42.9339 62.6047 44.5125C64.9819 46.0705 66.0328 49.0833 65.146 51.7991C64.213 54.6552 61.6446 56.352 58.5826 56.132C55.9165 55.9409 53.5298 53.7448 53.0945 50.9534C52.9643 50.1146 53.1379 49.2277 53.1474 48.3627C53.1501 48.1468 53.123 47.81 52.9915 47.7302C51.3913 46.7525 49.7681 45.8119 48.0187 44.7847C48.0187 45.7047 48.0201 46.4926 48.0187 47.2792C48.0146 48.5566 47.6051 48.976 46.3602 48.976C43.2182 48.976 40.0762 48.976 36.9341 48.976C36.6643 48.976 36.3958 48.976 36.0541 48.976C36.0405 49.2359 36.0174 49.4559 36.0174 49.6746C36.0147 52.1277 36.0405 54.5795 36.0012 57.0327C35.9903 57.6982 36.1422 58.0008 36.8202 58.2304C39.5921 59.1682 41.3428 62.1054 40.9386 64.9807C40.502 68.0912 38.0624 70.3326 34.9326 70.4962C32.0997 70.6447 29.431 68.6275 28.696 65.781C27.8661 62.5716 29.5991 59.2535 32.7154 58.2043C33.3324 57.9966 33.4843 57.7161 33.4761 57.0987C33.4409 54.6689 33.4626 52.2391 33.4626 49.8093C33.4626 49.5618 33.4626 49.3157 33.4626 48.976V48.9733ZM24.0718 24.6548V46.3262H45.3961V24.6548H24.0718ZM59.1847 53.5468C61.2242 53.551 62.8881 51.9146 62.903 49.8877C62.9193 47.8113 61.2527 46.098 59.2213 46.0993C57.1817 46.1007 55.5368 47.7921 55.5395 49.885C55.5422 51.883 57.1926 53.5427 59.1833 53.5468H59.1847ZM10.2059 53.5468C12.2305 53.5798 13.8822 51.9627 13.9364 49.896C13.9893 47.8608 12.301 46.1117 10.2669 46.0966C8.24362 46.0815 6.58243 47.7769 6.57158 49.8698C6.56073 51.8596 8.19616 53.5138 10.2072 53.5455L10.2059 53.5468ZM10.2601 17.4521C8.2165 17.4576 6.56887 19.109 6.57293 21.1442C6.577 23.2288 8.23955 24.9119 10.2818 24.9009C12.282 24.8899 13.9486 23.1821 13.9378 21.1565C13.9269 19.109 12.2766 17.4466 10.2601 17.4534V17.4521ZM59.2552 17.4521C57.2129 17.4424 55.5748 19.0582 55.5422 21.1139C55.5097 23.1779 57.175 24.8899 59.2199 24.8968C61.2161 24.9037 62.9003 23.2082 62.9071 21.1841C62.9139 19.1352 61.2757 17.4617 59.2552 17.4507V17.4521ZM38.4055 64.2189C38.415 62.1274 36.7701 60.4292 34.7359 60.4319C32.7222 60.4347 31.0732 62.1054 31.065 64.1515C31.0569 66.2032 32.7045 67.9014 34.702 67.9C36.7375 67.9 38.396 66.2499 38.4055 64.2175V64.2189ZM38.4055 6.82122C38.3974 4.75721 36.766 3.1071 34.7427 3.11397C32.6734 3.12085 31.0488 4.78334 31.065 6.88035C31.0813 8.91411 32.7696 10.5972 34.7658 10.5711C36.789 10.5436 38.4136 8.86873 38.4055 6.8226V6.82122Z" fill="white"/>
</svg>
