<svg width="69" height="48" viewBox="0 0 69 48" fill="none" xmlns="http://www.w3.org/2000/svg">
<path d="M0 45.306C6.91693 38.377 13.8339 31.4481 20.7368 24.5331C24.405 28.1973 28.0172 31.8084 31.5791 35.3636C42.2285 24.7258 52.7605 14.2054 63.3512 3.62625H55.8052V0.503906H68.996V13.6999H65.9066V5.8577C54.5331 17.2188 43.2015 28.538 31.8196 39.9075C28.0955 36.1875 24.4944 32.5876 20.8487 28.943C14.6391 35.1458 8.45185 41.3262 2.27023 47.5039C1.47621 46.7862 0.738104 46.1131 0 45.4428C0 45.3981 0 45.3535 0 45.3088V45.306Z" fill="white"/>
<path d="M35.2854 47.4671C34.592 46.7801 33.8902 46.0847 33.25 45.4507C43.0243 35.6871 52.8014 25.9207 62.5198 16.2129C63.1404 16.8301 63.8618 17.5506 64.5495 18.2349C54.8703 27.9035 45.0904 37.6728 35.2854 47.4671Z" fill="white"/>
<path d="M44.8867 45.3565C52.0105 38.2405 59.2015 31.0602 66.3924 23.8799C67.0243 24.5502 67.7232 25.2902 68.3663 25.9717C61.2508 33.0794 54.0627 40.2596 46.9053 47.412C46.2511 46.7473 45.5465 46.0324 44.8895 45.3593L44.8867 45.3565Z" fill="white"/>
<path d="M23.7617 36.4971C20.0991 40.1529 16.4337 43.8114 12.8075 47.4309C12.1197 46.7327 11.404 46.0094 10.7246 45.3168C14.3257 41.7196 18.0022 38.0471 21.6676 34.3857C22.3386 35.0616 23.0459 35.7766 23.7617 36.4943V36.4971Z" fill="white"/>
<path d="M66.0796 35.7684C66.7478 36.4471 67.4384 37.1453 68.0675 37.782C64.8914 40.9518 61.6817 44.158 58.542 47.2915C57.9381 46.6855 57.2196 45.9677 56.543 45.2919C59.6324 42.2086 62.8476 38.9969 66.0824 35.7656L66.0796 35.7684Z" fill="white"/>
<path d="M24.1953 47.462C23.5075 46.7582 22.8197 46.0545 22.1543 45.3702C23.7619 43.8007 25.3891 42.2088 26.9855 40.6504C27.5782 41.248 28.3024 41.9714 28.9957 42.6696C27.4385 44.2224 25.8392 45.8227 24.1953 47.462Z" fill="white"/>
</svg>
