<svg width="70" height="71" viewBox="0 0 70 71" fill="none" xmlns="http://www.w3.org/2000/svg">
<path d="M65.0914 35.5093C65.0914 44.7583 65.0995 54.0093 65.0873 63.2582C65.0832 66.8413 62.9635 69.5697 59.611 70.324C58.9986 70.4614 58.3517 70.4962 57.7211 70.4962C42.592 70.5044 27.4628 70.5065 12.3337 70.5003C8.57836 70.5003 5.78933 68.2701 5.12614 64.7443C5.02239 64.197 5.01832 63.6231 5.01832 63.0614C5.01222 47.6649 5.02646 32.2644 5.00002 16.8659C4.99595 14.5721 5.75678 12.6944 7.37609 11.0996C10.1 8.41433 12.8077 5.71057 15.4686 2.96377C17.1143 1.26444 19.0469 0.497793 21.3945 0.503943C33.5291 0.534691 45.6617 0.514192 57.7964 0.522392C61.5293 0.524441 64.3346 2.78543 64.9836 6.30913C65.0893 6.88309 65.0873 7.48165 65.0873 8.06996C65.0934 17.2164 65.0914 26.3649 65.0914 35.5114V35.5093ZM60.4918 35.5544C60.4918 26.3813 60.4918 17.2082 60.4918 8.03511C60.4918 6.0611 59.6598 5.20631 57.7353 5.20426C45.5763 5.19811 33.4172 5.20016 21.2582 5.17556C20.2736 5.17556 19.5107 5.48509 18.8211 6.18819C16.1277 8.94114 13.422 11.6818 10.6879 14.3938C9.92507 15.1502 9.61179 15.9906 9.61179 17.0627C9.6301 32.3587 9.62399 47.6567 9.62399 62.9528C9.62399 64.9883 10.4642 65.8308 12.4964 65.8308C27.5239 65.8308 42.5513 65.8308 57.5807 65.8308C59.6781 65.8308 60.4898 65.017 60.4898 62.9179C60.4898 53.7961 60.4898 44.6742 60.4898 35.5524L60.4918 35.5544Z" fill="white"/>
<path d="M35.0918 21.5557H51.1832V26.1186H35.0918V21.5557Z" fill="white"/>
<path d="M51.1948 35.5664V40.0986H35.1055V35.5664H51.1948Z" fill="white"/>
<path d="M51.1968 49.5605V54.0948H35.1055V49.5605H51.1968Z" fill="white"/>
<path d="M17.3203 24.4608C18.4432 23.3211 19.4787 22.2695 20.5732 21.1606C21.4377 22.0789 22.3023 22.9972 23.2279 23.9812C24.9551 22.2265 26.5601 20.5989 28.1143 19.0205C29.2149 20.1274 30.2687 21.1872 31.3631 22.288C31.2777 22.3843 31.1394 22.5586 30.9847 22.7143C29.0664 24.6556 27.148 26.5947 25.2236 28.5298C23.9522 29.8068 22.636 29.8109 21.3747 28.5482C20.028 27.1974 18.6874 25.8404 17.3223 24.4629L17.3203 24.4608Z" fill="white"/>
<path d="M21.2334 35.542H25.7353V40.105H21.2334V35.542Z" fill="white"/>
<path d="M21.249 49.5469H25.7489V54.0853H21.249V49.5469Z" fill="white"/>
</svg>
