<svg width="48" height="50" viewBox="0 0 48 50" fill="none" xmlns="http://www.w3.org/2000/svg">
<path d="M23.9062 38.194C23.9525 31.6657 29.3115 26.4451 35.9091 26.501C42.5013 26.5569 47.8054 31.8437 47.7609 38.3144C47.7163 44.7954 42.297 50.0556 35.7213 49.9996C29.1718 49.9437 23.8608 44.6371 23.9062 38.194ZM28.06 32.07C26.0529 34.633 25.3289 37.5169 26.1787 40.6571C27.2399 44.5812 29.888 47.0237 33.9143 47.8677C36.937 48.5009 39.6795 47.7335 42.0813 45.8966C37.3877 41.2688 32.7448 36.6901 28.06 32.07ZM29.6076 30.6307C34.2592 35.2129 38.9126 39.7959 43.5643 44.3781C46.5303 41.0374 46.8569 34.9797 42.6315 31.0729C38.5213 27.2727 32.5867 27.9429 29.6076 30.6315V30.6307Z" fill="white"/>
<path d="M9.91981 7.83227C9.92156 8.3631 9.49797 8.78811 8.95647 8.79844C8.42021 8.8079 7.98701 8.38891 7.97828 7.85205C7.96955 7.3238 8.39925 6.89535 8.93987 6.89363C9.49185 6.89105 9.91719 7.29971 9.91893 7.83227H9.91981Z" fill="white"/>
<path d="M34.5255 30.9322C34.6889 30.5682 34.9727 30.2657 35.3664 30.1092C35.7402 29.9606 36.113 29.9829 36.4117 30.0625C36.412 30.0626 36.4123 30.0627 36.4126 30.0628L34.5255 30.9322ZM34.5255 30.9322L35.4378 31.3418L34.5256 30.932C34.5256 30.932 34.5255 30.9321 34.5255 30.9322ZM41.9996 39.9335C42.0144 39.4551 41.8083 39.0471 41.5206 38.7525L41.9996 39.9335ZM41.9996 39.9335C41.9852 40.4026 41.763 40.7921 41.4847 41.0756L41.9996 39.9335ZM34.9442 42.4023C34.9204 42.3782 34.8966 42.354 34.8728 42.3299C34.7059 42.1605 34.539 41.9909 34.3722 41.8214C34.3722 41.346 34.3722 40.8706 34.3722 40.3953C34.4397 40.4639 34.5073 40.5326 34.5748 40.6013C34.8409 40.8719 35.1067 41.1422 35.3722 41.4118C35.3722 41.6013 35.3722 41.7909 35.3722 41.9805C35.3722 41.9806 35.3722 41.9807 35.3722 41.9808C35.3722 42.0971 35.3722 42.2135 35.3722 42.3299V42.8158C35.3106 42.7564 35.2555 42.7039 35.2049 42.6557C35.1055 42.561 35.0236 42.4829 34.9442 42.4023ZM34.8167 45.4823C34.8165 45.4821 34.8163 45.4819 34.8161 45.4817L35.5269 44.7784L34.8167 45.4823ZM37.5881 40.3917C38.1166 39.8538 38.6463 39.3172 39.177 38.7819L39.1774 38.7816C39.8052 38.149 40.8326 38.0483 41.5204 38.7523L37.5881 40.3917Z" fill="white" stroke="#1082CF" stroke-width="2"/>
<path d="M4.00441 7.84694C4.00179 7.30836 4.41752 6.89539 4.96338 6.89453C5.51099 6.89367 5.93633 7.30492 5.93633 7.83661C5.93633 8.36831 5.51012 8.7916 4.97037 8.79676C4.43062 8.80106 4.00703 8.38465 4.00441 7.84694Z" fill="white"/>
<path d="M13.892 7.81332C13.8999 8.37427 13.4745 8.80186 12.9138 8.79756C12.3819 8.79412 11.9566 8.35964 11.961 7.82537C11.9653 7.31948 12.3889 6.90136 12.9042 6.89189C13.4649 6.88243 13.885 7.27303 13.8929 7.81246L13.892 7.81332Z" fill="white"/>
<path d="M0 2.98511V3.62176C0 17.3021 0 30.9834 0.00436691 44.6637C0.00436691 44.6706 0.00436691 44.6775 0.00436691 44.6852V46.0412H21.4162V46.0455H22.3542V44.1493C21.6022 44.1493 20.893 44.1493 20.1839 44.1493C14.2597 44.1493 8.33556 44.1458 2.41141 44.1553C2.04633 44.1553 1.94764 44.0495 1.95026 43.6915C1.96773 41.4693 1.96074 39.2461 1.96074 37.0239C1.96074 29.0949 1.96336 21.166 1.95376 13.237C1.95376 12.8455 2.05943 12.7251 2.46643 12.726C7.6482 12.738 12.83 12.7311 18.0118 12.7311C27.0801 12.7311 36.1475 12.7328 45.2159 12.7328C45.794 12.7328 45.7975 12.7294 45.7984 13.2843C45.8001 16.6681 45.7993 20.0527 45.8001 23.4364C45.8001 24.4224 45.8001 25.4083 45.8001 26.4141H47.7364V2.98511H0ZM45.7547 10.7712H1.9948C1.97908 10.6336 1.95638 10.5226 1.95638 10.4116C1.95638 8.70555 1.9686 6.99949 1.95463 5.29342C1.95113 4.92261 2.12144 4.87701 2.43062 4.87701C6.25778 4.88045 10.0849 4.87443 13.9121 4.87357C19.1218 4.87271 24.3307 4.87357 29.5404 4.87357C34.8078 4.87357 40.076 4.87529 45.3434 4.87357C45.5905 4.87357 45.8045 4.85808 45.8036 5.21168C45.7966 6.97453 45.8054 8.73825 45.8054 10.5011C45.8054 10.5837 45.7757 10.6663 45.7556 10.7695L45.7547 10.7712Z" fill="white"/>
</svg>
