<svg width="64" height="63" viewBox="0 0 64 63" fill="none" xmlns="http://www.w3.org/2000/svg">
<path d="M51.2822 24.6009H47.6079V15.8488C47.6079 7.10978 40.5071 0 31.7711 0C23.0351 0 15.9345 7.11444 15.9345 15.8591V24.6009H12.3008C11.0418 24.6009 10 25.6009 10 26.8599V53.3034C10 56.4459 12.5778 59 15.7203 59H47.8628C51.0053 59 53.5423 56.4459 53.5423 53.3034V26.8599C53.5423 25.6009 52.5412 24.6009 51.2822 24.6009ZM20.4888 15.8591C20.4888 9.62837 25.5491 4.55925 31.7711 4.55925C37.9932 4.55925 43.0535 9.62368 43.0535 15.8488V24.6009H20.4888V15.8591ZM48.988 53.3034C48.988 53.932 48.4913 54.4457 47.8628 54.4457H15.7203C15.0918 54.4457 14.5543 53.9319 14.5543 53.3034V29.1553H48.988V53.3034Z" fill="url(#paint0_linear_149_766)"/>
<path d="M31.7713 48.6302C33.0303 48.6302 34.0485 47.6096 34.0485 46.3506V38.144C34.0485 36.885 33.0303 35.8644 31.7713 35.8644C30.5123 35.8644 29.4941 36.885 29.4941 38.144V46.3506C29.4941 47.6096 30.5123 48.6302 31.7713 48.6302Z" fill="url(#paint1_linear_149_766)"/>
<defs>
<linearGradient id="paint0_linear_149_766" x1="15" y1="2" x2="56.5" y2="66" gradientUnits="userSpaceOnUse">
<stop stop-color="#8FC341"/>
<stop offset="1" stop-color="#3497A6"/>
</linearGradient>
<linearGradient id="paint1_linear_149_766" x1="30.0171" y1="36.2972" x2="39.4428" y2="43.324" gradientUnits="userSpaceOnUse">
<stop stop-color="#8FC341"/>
<stop offset="1" stop-color="#3497A6"/>
</linearGradient>
</defs>
</svg>
