<svg width="64" height="63" viewBox="0 0 64 63" fill="none" xmlns="http://www.w3.org/2000/svg">
<path d="M33.0793 30.7459C33.3429 29.6752 33.6053 28.6044 33.8701 27.5337C34.1419 26.4372 34.3845 25.3336 34.702 24.25C34.8531 23.7352 35.0851 23.2203 35.3862 22.777C36.1864 21.5961 37.7388 21.5503 38.4289 22.7864C38.9773 23.768 39.2631 24.9079 39.5877 26.0009C39.8782 26.9802 39.8302 26.9954 40.8589 26.9954C44.0024 26.9954 47.1459 26.9954 50.2882 26.9954C50.4827 26.9954 50.6807 26.9896 50.8716 27.0177C51.5278 27.1162 51.9917 27.6264 51.9999 28.2421C52.007 28.8507 51.55 29.3773 50.8974 29.491C50.7064 29.5239 50.5084 29.5204 50.3139 29.5204C46.9561 29.5215 43.5982 29.5227 40.2403 29.5204C38.5812 29.5204 37.6709 28.7944 37.2936 27.1807C37.1893 26.7351 37.0862 26.2906 36.8519 25.8414C36.5614 27.0365 36.2766 28.2338 35.9779 29.4277C35.7178 30.4656 35.4682 31.5082 35.1589 32.532C35.0265 32.9706 34.8051 33.4045 34.5344 33.7763C33.7342 34.8751 32.2544 34.9021 31.5409 33.7434C31.0524 32.9495 30.7395 32.0171 30.4982 31.1059C29.7085 28.1131 28.9879 25.1014 28.2393 22.0968C28.2217 22.0253 28.1807 21.9608 28.0893 21.7532C27.7706 22.9917 27.4847 24.0999 27.2 25.2093C27.0102 25.9446 26.8263 26.6811 26.6295 27.4153C26.2627 28.785 25.3828 29.5039 23.9745 29.5098C20.4608 29.525 16.9459 29.5192 13.4322 29.511C12.5886 29.5086 12.0204 28.9961 12.0005 28.2761C11.9806 27.5431 12.5746 26.9907 13.4381 26.9884C16.796 26.9802 20.1539 26.9755 23.5117 26.9942C23.9921 26.9966 24.2218 26.8946 24.3436 26.375C24.7912 24.4611 25.275 22.553 25.8093 20.6614C25.9909 20.0176 26.2791 19.3678 26.6658 18.826C27.3922 17.8057 28.7642 17.7659 29.5117 18.7674C29.9522 19.3585 30.272 20.0903 30.4619 20.808C31.3324 24.1011 32.1385 27.4117 32.968 30.7166C33.0055 30.7259 33.0441 30.7353 33.0816 30.7459H33.0793Z" fill="url(#paint0_linear_211_1203)"/>
<path d="M41.9857 20.4116C42.0583 19.043 41.94 17.3226 41.2499 15.6795C39.4831 11.4764 35.3508 9.10159 31.1165 9.52612C26.4159 9.99757 22.7815 13.3915 22.1688 17.8867C21.9485 19.5015 22.0586 21.1598 22.0118 22.7981C22.0036 23.069 21.993 23.3482 21.9239 23.6073C21.7798 24.1503 21.3053 24.4904 20.7558 24.4928C20.2075 24.4951 19.7423 24.1538 19.5724 23.6202C19.5431 23.5276 19.5033 23.4314 19.5033 23.3364C19.5209 20.998 19.2994 18.649 19.9075 16.3422C21.3849 10.7446 26.3878 6.92261 32.1522 7.00119C38.39 7.0868 43.5662 11.6242 44.3676 17.8468C44.5961 19.6188 44.4965 21.4354 44.4953 23.2321C44.4953 23.999 43.9248 24.5033 43.23 24.4928C42.5375 24.4834 42.022 23.9721 41.9927 23.1957C41.9623 22.3959 41.9857 21.5937 41.9857 20.4104V20.4116Z" fill="url(#paint1_linear_211_1203)"/>
<path d="M32.1151 44.5358C25.8692 44.4818 20.7292 40.0817 19.7205 34.0655C19.6818 33.8344 19.6572 33.6011 19.642 33.3665C19.5998 32.6887 20.038 32.1257 20.6835 32.0167C21.2916 31.9146 21.8938 32.2852 22.0614 32.9256C22.2277 33.5647 22.3016 34.2285 22.4773 34.8641C23.5775 38.8573 27.5657 42.4178 32.9072 41.9722C37.3359 41.6027 40.9656 38.2311 41.7436 33.9611C41.8068 33.6163 41.8455 33.2656 41.9392 32.9291C42.1232 32.2747 42.7559 31.89 43.3721 32.0249C44.013 32.1656 44.4219 32.7438 44.3575 33.4181C43.8841 38.3917 40.1525 42.7849 35.2949 44.0725C34.7501 44.2168 34.1948 44.3341 33.6371 44.4126C33.0782 44.4912 32.51 44.5053 32.1128 44.5358H32.1151Z" fill="url(#paint2_linear_211_1203)"/>
<path d="M30.7361 51.9878C30.7361 50.448 30.7361 48.9645 30.7361 47.4809C30.7361 46.3891 31.1802 45.7746 31.9792 45.7582C32.7923 45.7406 33.2622 46.3762 33.2633 47.4997C33.2633 48.9809 33.2633 50.4621 33.2633 51.9409C34.3471 52.0605 35.3746 52.1426 36.3928 52.2916C38.7852 52.641 41.0371 53.4303 43.166 54.5726C43.9474 54.9924 44.211 55.6879 43.8584 56.3598C43.5057 57.0307 42.8027 57.1831 41.9908 56.775C36.2791 53.8994 30.3917 53.8091 24.3976 55.7125C23.5693 55.9752 22.7913 56.4056 22.0016 56.7844C21.1897 57.1749 20.4832 57.0224 20.1387 56.3481C19.7931 55.6726 20.0591 54.9842 20.8499 54.5667C23.6982 53.0597 26.721 52.1813 29.95 52.0453C30.182 52.0359 30.4128 52.0136 30.7373 51.9902L30.7361 51.9878Z" fill="url(#paint3_linear_211_1203)"/>
<defs>
<linearGradient id="paint0_linear_211_1203" x1="16.5" y1="17.7067" x2="21.1185" y2="41.5078" gradientUnits="userSpaceOnUse">
<stop stop-color="#75B65E"/>
<stop offset="1" stop-color="#2E94AC"/>
</linearGradient>
<linearGradient id="paint1_linear_211_1203" x1="22.295" y1="6.65014" x2="30.0032" y2="30.203" gradientUnits="userSpaceOnUse">
<stop stop-color="#75B65E"/>
<stop offset="1" stop-color="#2E94AC"/>
</linearGradient>
<linearGradient id="paint2_linear_211_1203" x1="22.4207" y1="31.7473" x2="26.6233" y2="49.4381" gradientUnits="userSpaceOnUse">
<stop stop-color="#75B65E"/>
<stop offset="1" stop-color="#2E94AC"/>
</linearGradient>
<linearGradient id="paint3_linear_211_1203" x1="22.6927" y1="45.533" x2="26.1982" y2="61.5222" gradientUnits="userSpaceOnUse">
<stop stop-color="#75B65E"/>
<stop offset="1" stop-color="#2E94AC"/>
</linearGradient>
</defs>
</svg>
