<svg width="56" height="61" viewBox="0 0 56 61" fill="none" xmlns="http://www.w3.org/2000/svg">
<path d="M19.0432 51.1108C18.6892 51.1108 18.4701 51.1108 18.2522 51.1108C14.0856 51.1108 9.91901 51.112 5.75117 51.1108C2.89422 51.1095 0.726746 49.3988 0.110297 46.6347C0.0174582 46.2188 0.0236475 45.7744 0.0236475 45.3424C0.0199339 34.5323 0.0620208 23.7221 0.000128352 12.912C-0.0233908 8.83577 3.18759 5.14326 7.75154 5.19401C8.78143 5.20515 9.81132 5.19525 10.9328 5.19525C10.9328 4.23716 10.9328 3.31744 10.9328 2.39771C10.9353 0.704336 11.6384 0 13.333 0C22.9251 0 32.5172 0 42.1093 0C43.8051 0 44.5082 0.703098 44.5095 2.39771C44.5095 3.30134 44.5095 4.20497 44.5095 5.19649C45.6248 5.19649 46.6881 5.19401 47.7526 5.19649C49.5624 5.20268 51.205 5.71515 52.6137 6.86759C54.3256 8.26759 55.3357 10.0674 55.3926 12.2931C55.4595 14.8492 55.4199 17.4091 55.4211 19.9665C55.4223 28.4458 55.3951 36.9238 55.4372 45.4031C55.4508 48.1684 53.5792 50.3557 51.335 50.9003C50.8213 51.0254 50.2816 51.0996 49.753 51.1009C45.5653 51.117 41.3777 51.1095 37.1901 51.1095H36.508C37.1851 51.8176 37.8325 52.4662 38.4477 53.1458C40.1485 55.0249 40.9791 57.3533 41.7614 59.6965C41.9904 60.3823 41.5634 60.9207 40.8392 60.9913C40.6758 61.0074 40.51 60.9962 40.3441 60.9962C31.928 60.9962 23.5118 60.9962 15.0957 60.9962C13.7464 60.9962 13.3714 60.4726 13.822 59.2274C14.53 57.274 15.2108 55.3021 16.565 53.6768C17.1703 52.9502 17.8573 52.2929 18.5109 51.6084C18.6446 51.4673 18.7944 51.341 19.0395 51.1108H19.0432ZM44.5095 7.25751V8.06087C44.5095 17.653 44.5095 27.2463 44.5095 36.8384C44.5095 38.4897 43.7977 39.199 42.1365 39.199C32.5246 39.199 22.9115 39.199 13.2996 39.199C11.6483 39.199 10.934 38.4822 10.934 36.831C10.934 27.2178 10.934 17.6047 10.934 7.99155V7.21171C9.41892 7.21171 7.95578 7.03717 6.54959 7.24884C3.76814 7.66724 1.91879 10.0278 1.91756 12.8848C1.9126 23.6739 1.93612 34.463 1.89899 45.252C1.89156 47.4529 3.48962 49.2193 5.8403 49.1884C11.1816 49.1203 16.5254 49.1711 21.868 49.1587C22.269 49.1587 22.6874 49.0819 23.0674 48.952C26.1757 47.8911 29.274 47.8899 32.3823 48.9545C32.7623 49.0844 33.1819 49.1575 33.583 49.1587C38.9255 49.1723 44.2681 49.1216 49.6106 49.1884C51.944 49.2181 53.5631 47.4641 53.5458 45.2446C53.495 38.9526 53.5284 32.6606 53.5284 26.3687C53.5284 21.8307 53.5383 17.2915 53.5235 12.7536C53.5148 10.0612 51.7187 7.73779 49.0647 7.30207C47.6078 7.06193 46.0791 7.25875 44.5095 7.25875V7.25751ZM42.5648 1.98799H12.875V37.2085H42.5648V1.98799ZM16.0476 59.0058H39.4009C38.2187 54.1732 33.3923 50.0314 27.593 50.0896C21.9026 50.1465 17.1753 54.2809 16.0476 59.0058Z" fill="url(#paint0_linear_211_1150)"/>
<path d="M28.0029 45.1816C21.5252 45.1816 15.0476 45.1445 8.57116 45.2052C6.69706 45.2225 5.20421 43.8807 5.2562 41.889C5.28962 40.5694 5.25991 39.2486 5.26363 37.9279C5.2661 37.1393 5.68573 36.6157 6.28114 36.6405C6.86912 36.6665 7.22562 37.148 7.22686 37.9291C7.22933 39.2697 7.22686 40.6115 7.22686 41.9521C7.22686 42.9102 7.60564 43.2952 8.56992 43.2964C11.7673 43.3001 14.9647 43.2976 18.162 43.2976C27.837 43.2976 37.5108 43.2976 47.1859 43.2976C47.8716 43.2976 48.2145 42.9515 48.2145 42.2591C48.2145 40.7947 48.212 39.3291 48.2158 37.8647C48.2182 37.1406 48.5933 36.6628 49.1639 36.6405C49.7433 36.6182 50.1753 37.1294 50.1777 37.8684C50.1839 39.4566 50.1864 41.046 50.1777 42.6342C50.1691 44.1889 49.1738 45.1792 47.6203 45.1792C41.0808 45.1829 34.5425 45.1804 28.0029 45.1804V45.1816Z" fill="url(#paint1_linear_211_1150)"/>
<path d="M23.2308 13.5899C24.5033 10.9583 25.7412 8.45287 26.9245 5.92147C27.2674 5.18742 27.7155 4.90148 28.5387 4.91138C31.9415 4.95347 35.3456 4.91509 38.7497 4.95099C39.079 4.95471 39.5159 5.1899 39.6991 5.45727C39.8489 5.67513 39.8155 6.20988 39.641 6.40918C39.4219 6.65799 38.9775 6.81643 38.6259 6.82386C36.6664 6.86223 34.7069 6.84242 32.7474 6.84242C31.5925 6.84242 30.4363 6.86347 29.2826 6.83252C28.811 6.82014 28.5659 6.95012 28.3505 7.40441C26.9877 10.2849 25.5802 13.1431 24.1951 16.0124C23.9785 16.4605 23.7457 16.8517 23.1677 16.8418C22.5921 16.8319 22.3643 16.437 22.1625 15.9827C21.2874 14.0108 20.3937 12.0476 19.5296 10.0707C19.3848 9.73775 19.2103 9.61026 18.8463 9.62511C18.1457 9.65358 17.4439 9.63996 16.7432 9.6313C16.05 9.62263 15.623 9.25623 15.6118 8.67692C15.5995 8.08646 16.0117 7.69407 16.7061 7.68416C17.7372 7.66931 18.7684 7.67797 19.8007 7.68169C20.3293 7.68292 20.6722 7.92307 20.8913 8.42563C21.5622 9.97047 22.2665 11.5017 22.9585 13.0379C23.0241 13.1827 23.0996 13.3226 23.2333 13.5899H23.2308Z" fill="url(#paint2_linear_211_1150)"/>
<path d="M27.6548 21.3652C24.5218 21.3652 21.39 21.3677 18.257 21.364C17.4611 21.364 17.0811 21.1065 17.0105 20.5445C16.9412 19.9974 17.2346 19.5666 17.7743 19.4515C17.9327 19.4181 18.1023 19.4255 18.2657 19.4255C24.5725 19.4255 30.8782 19.4243 37.185 19.4255C37.9636 19.4255 38.3622 19.6929 38.4315 20.2462C38.5182 20.9369 38.1121 21.3553 37.2989 21.3627C35.7949 21.3751 34.2897 21.3665 32.7857 21.3665C31.075 21.3665 29.3643 21.3665 27.6536 21.3665L27.6548 21.3652Z" fill="url(#paint3_linear_211_1150)"/>
<path d="M27.7156 25.7334C24.5616 25.7334 21.4088 25.7359 18.2547 25.7285C18.0146 25.7285 17.7584 25.7049 17.5393 25.6183C17.1283 25.4549 16.8956 25.0873 17.0293 24.6788C17.1295 24.3718 17.3981 24.0735 17.6717 23.8853C17.8636 23.7541 18.1879 23.7937 18.4528 23.7937C24.6359 23.79 30.8189 23.79 37.002 23.7925C37.2273 23.7925 37.4587 23.7925 37.6766 23.8395C38.2188 23.9583 38.4824 24.3111 38.4329 24.8682C38.3859 25.4017 38.0479 25.6591 37.5454 25.7272C37.3832 25.7495 37.2161 25.7322 37.0515 25.7322C33.9395 25.7322 30.8276 25.7322 27.7144 25.7322L27.7156 25.7334Z" fill="url(#paint4_linear_211_1150)"/>
<path d="M27.7218 32.5453C30.8956 32.5453 34.0682 32.5441 37.2421 32.5453C38.0256 32.5453 38.4292 32.8634 38.4391 33.4786C38.4477 34.006 38.1977 34.339 37.6704 34.4343C37.4897 34.4665 37.3015 34.4702 37.1171 34.4702C30.8535 34.4714 24.5888 34.4726 18.3253 34.4702C17.4885 34.4702 17.1196 34.256 17.0181 33.725C16.8844 33.0293 17.33 32.549 18.1408 32.5465C20.8604 32.5404 23.5812 32.5441 26.3007 32.5441C26.7748 32.5441 27.2489 32.5441 27.723 32.5441L27.7218 32.5453Z" fill="url(#paint5_linear_211_1150)"/>
<path d="M22.4052 28.2035C23.846 28.2035 25.2869 28.1998 26.729 28.2047C27.3863 28.2072 27.7824 28.5662 27.7836 29.1381C27.7836 29.7038 27.3863 30.0776 26.7277 30.0788C23.825 30.085 20.9222 30.0863 18.0195 30.0788C17.3535 30.0764 16.9883 29.705 17.0044 29.1071C17.0193 28.5464 17.3894 28.2097 18.0207 28.2072C19.4826 28.201 20.9445 28.206 22.4052 28.206V28.2035Z" fill="url(#paint6_linear_211_1150)"/>
<path d="M30.638 13.1101C30.638 12.0146 30.6355 10.9909 30.638 9.96596C30.6405 9.20344 30.9771 8.78381 31.58 8.77267C32.1754 8.76153 32.5628 9.19106 32.5715 9.93625C32.5864 11.2533 32.5901 12.5704 32.5715 13.8875C32.5604 14.6834 32.1754 15.0498 31.3856 15.0647C30.6863 15.077 29.9856 15.0795 29.2862 15.0647C28.5708 15.0486 28.1326 14.6376 28.1586 14.0372C28.1833 13.4542 28.5968 13.12 29.3085 13.1126C29.7183 13.1089 30.1292 13.1126 30.6367 13.1126L30.638 13.1101Z" fill="url(#paint7_linear_211_1150)"/>
<path d="M39.0445 11.8995C39.0445 12.5989 39.0507 13.2983 39.0433 13.9977C39.0359 14.5869 38.6608 15.0201 38.1434 15.0573C37.642 15.0932 37.1741 14.6834 37.1494 14.093C37.111 13.1485 37.1098 12.2003 37.137 11.2558C37.1494 10.7991 37.012 10.6146 36.5441 10.6604C36.2185 10.6926 35.8855 10.6778 35.5575 10.658C35.0289 10.6258 34.6539 10.2557 34.6279 9.76794C34.6019 9.28641 35.0153 8.80118 35.5402 8.78385C36.4029 8.75414 37.2682 8.75538 38.131 8.78137C38.688 8.7987 39.0284 9.17377 39.0396 9.74071C39.0544 10.4599 39.0433 11.1803 39.0433 11.9008L39.0445 11.8995Z" fill="url(#paint8_linear_211_1150)"/>
<path d="M34.9322 30.0805C34.1301 30.0805 33.3292 30.0892 32.5271 30.078C31.8462 30.0681 31.491 29.7351 31.4897 29.1397C31.4885 28.5456 31.8537 28.2051 32.5209 28.2039C34.1449 28.199 35.7678 28.199 37.3918 28.2039C38.064 28.2051 38.4378 28.5443 38.4403 29.1323C38.4427 29.719 38.0702 30.0681 37.398 30.078C36.5761 30.0892 35.7541 30.0805 34.9322 30.0805Z" fill="url(#paint9_linear_211_1150)"/>
<defs>
<linearGradient id="paint0_linear_211_1150" x1="4" y1="-4.5" x2="53" y2="63" gradientUnits="userSpaceOnUse">
<stop stop-color="#90C43F"/>
<stop offset="1" stop-color="#2C93AE"/>
</linearGradient>
<linearGradient id="paint1_linear_211_1150" x1="8.49663" y1="36.0078" x2="10.2887" y2="50.2556" gradientUnits="userSpaceOnUse">
<stop stop-color="#90C43F"/>
<stop offset="1" stop-color="#2C93AE"/>
</linearGradient>
<linearGradient id="paint2_linear_211_1150" x1="17.3564" y1="4.03099" x2="23.2894" y2="22.2591" gradientUnits="userSpaceOnUse">
<stop stop-color="#90C43F"/>
<stop offset="1" stop-color="#2C93AE"/>
</linearGradient>
<linearGradient id="paint3_linear_211_1150" x1="18.5476" y1="19.2814" x2="18.7435" y2="22.5554" gradientUnits="userSpaceOnUse">
<stop stop-color="#90C43F"/>
<stop offset="1" stop-color="#2C93AE"/>
</linearGradient>
<linearGradient id="paint4_linear_211_1150" x1="18.539" y1="23.6442" x2="18.736" y2="26.9281" gradientUnits="userSpaceOnUse">
<stop stop-color="#90C43F"/>
<stop offset="1" stop-color="#2C93AE"/>
</linearGradient>
<linearGradient id="paint5_linear_211_1150" x1="18.5419" y1="32.4007" x2="18.7346" y2="35.648" gradientUnits="userSpaceOnUse">
<stop stop-color="#90C43F"/>
<stop offset="1" stop-color="#2C93AE"/>
</linearGradient>
<linearGradient id="paint6_linear_211_1150" x1="17.7817" y1="28.0633" x2="18.1431" y2="31.2013" gradientUnits="userSpaceOnUse">
<stop stop-color="#90C43F"/>
<stop offset="1" stop-color="#2C93AE"/>
</linearGradient>
<linearGradient id="paint7_linear_211_1150" x1="28.4769" y1="8.30753" x2="33.791" y2="13.9651" gradientUnits="userSpaceOnUse">
<stop stop-color="#90C43F"/>
<stop offset="1" stop-color="#2C93AE"/>
</linearGradient>
<linearGradient id="paint8_linear_211_1150" x1="34.9457" y1="8.29713" x2="40.256" y2="13.9472" gradientUnits="userSpaceOnUse">
<stop stop-color="#90C43F"/>
<stop offset="1" stop-color="#2C93AE"/>
</linearGradient>
<linearGradient id="paint9_linear_211_1150" x1="31.9913" y1="28.0612" x2="32.5426" y2="31.1452" gradientUnits="userSpaceOnUse">
<stop stop-color="#90C43F"/>
<stop offset="1" stop-color="#2C93AE"/>
</linearGradient>
</defs>
</svg>
