<svg width="54" height="56" viewBox="0 0 54 56" fill="none" xmlns="http://www.w3.org/2000/svg">
<path d="M52.3271 30.2515C52.3271 31.4195 51.3927 32.3539 50.2247 32.3539C49.1735 32.3539 48.2391 31.5363 48.1223 30.4851L44.3846 3.97123H9.22752L5.72349 30.4851V30.6019C5.60669 31.7699 4.43868 32.5875 3.27067 32.4707C2.21946 32.3539 1.40186 31.4195 1.40186 30.3683V30.1347L5.02269 3.27043C5.13949 1.40161 6.6579 0 8.52672 0H44.9686C46.8374 0 48.3559 1.40161 48.4727 3.27043L52.2103 30.1347C52.3271 30.0179 52.3271 30.1347 52.3271 30.2515Z" fill="url(#paint0_linear_211_1214)"/>
<path d="M13.1985 8.17578H40.6467V11.563H13.1985V8.17578ZM12.1473 15.067H41.5812V18.4543H12.1473V15.067ZM11.2129 21.9583H42.866V25.3455H11.2129V21.9583ZM10.3953 28.616H44.034V32.0032H10.3953V28.616ZM52.4436 35.3904H1.28481C0.700805 35.2736 0.116801 35.7408 0 36.4416C0 36.6752 -1.08779e-07 36.792 0.116801 37.0256L5.84005 54.1954C6.19045 55.1298 7.12486 55.7138 8.05927 55.8306H45.6692C46.7204 55.8306 47.538 55.1298 47.8884 54.1954L53.6117 37.0256C53.8453 36.4416 53.6117 35.7408 53.0277 35.5072C52.9109 35.3904 52.6772 35.3904 52.4436 35.3904ZM34.3395 43.6833H19.2722C18.221 43.6833 17.4033 42.8657 17.4033 41.8145C17.4033 40.7633 18.221 39.9457 19.2722 39.9457H34.3395C35.3907 39.9457 36.2083 40.7633 36.2083 41.8145C36.2083 42.8657 35.5075 43.6833 34.3395 43.6833Z" fill="url(#paint1_linear_211_1214)"/>
<defs>
<linearGradient id="paint0_linear_211_1214" x1="6.61755" y1="-3.19984" x2="29.2783" y2="45.421" gradientUnits="userSpaceOnUse">
<stop stop-color="#90C43F"/>
<stop offset="1" stop-color="#449F94"/>
</linearGradient>
<linearGradient id="paint1_linear_211_1214" x1="5.5" y1="3.48122" x2="45.1365" y2="64.6073" gradientUnits="userSpaceOnUse">
<stop stop-color="#90C43F"/>
<stop offset="1" stop-color="#449F94"/>
</linearGradient>
</defs>
</svg>
