<svg width="64" height="63" viewBox="0 0 64 63" fill="none" xmlns="http://www.w3.org/2000/svg">
<path d="M18.5955 37.8658C18.691 39.5668 18.6422 41.3082 18.9183 42.9986C19.4746 46.4155 22.6579 49.0912 26.3743 48.9171C30.4707 48.726 33.4863 45.7274 33.5649 41.8497C33.6583 37.2499 33.5755 32.648 33.6095 28.0462C33.6392 23.8329 36.0813 20.5625 39.9612 19.4136C45.4465 17.7891 51.0359 22.1106 50.9785 27.5832C50.9509 30.1273 50.9743 32.6714 50.9743 35.2834C53.2997 35.6891 55.3192 36.5958 56.931 38.2947C58.6512 40.1083 59.6429 42.2468 59.6854 44.7548C59.7342 47.5495 59.7448 50.3484 59.6854 53.1431C59.5792 58.0104 55.5825 62.143 50.6324 62.5804C45.7523 63.0115 41.1143 59.6668 40.1523 54.9036C39.889 53.606 39.9272 52.2405 39.8996 50.9048C39.8614 49.0657 39.9591 47.2203 39.8763 45.3834C39.6639 40.7072 43.1849 36.2454 48.0671 35.4045C48.2008 35.3811 48.3325 35.3365 48.6893 35.241C48.5767 32.2361 48.7254 29.1717 48.2752 26.1986C47.808 23.1194 44.5695 21.2102 41.3628 21.6286C38.4874 22.0045 36.1281 24.7121 36.1047 27.7764C36.0707 32.2722 36.0962 36.7657 36.0941 41.2614C36.0898 46.3772 32.4096 50.7349 27.589 51.3359C22.3925 51.9836 17.8203 48.8789 16.5249 43.7609C16.285 42.8159 16.2446 41.8115 16.1894 40.8282C16.1342 39.845 16.1767 38.8554 16.1767 37.7808C12.0356 37.1416 8.79496 35.1645 6.67984 31.5459C5.21454 29.0506 4.67726 26.3133 5.18906 23.4889C6.37191 16.9736 11.6512 12.6032 18.0093 12.9281C24.136 13.2424 28.7209 17.6022 29.7232 23.3126C30.785 29.3564 26.9986 36.5704 18.5955 37.8658ZM57.3961 48.9319C57.2347 46.9676 57.3048 44.9502 56.8631 43.0516C56.0901 39.7239 52.841 37.5939 49.2669 37.7468C46.1494 37.8785 42.8706 40.4099 42.5563 43.5146C42.2186 46.8678 42.2696 50.2889 42.4862 53.6591C42.707 57.0845 45.6461 59.7985 48.9123 60.0597C52.7135 60.3634 56.0497 58.2546 56.8737 54.7252C57.3069 52.8628 57.2368 50.8814 57.394 48.9319H57.3961ZM17.4678 15.4042C11.9209 15.3894 7.53353 19.764 7.51867 25.3258C7.50592 30.775 11.9379 35.2134 17.3977 35.2197C22.8979 35.2261 27.3448 30.8451 27.4021 25.4383C27.4616 19.8362 22.8257 15.2556 17.4678 15.4064V15.4042Z" fill="url(#paint0_linear_211_1163)"/>
<path d="M18.6804 6.03289C18.6804 6.66573 18.8099 7.33892 18.6379 7.92079C18.5083 8.36462 18.0645 8.88066 17.6398 9.03781C17.0303 9.26292 16.3592 8.93588 16.321 8.21385C16.2424 6.7528 16.2255 5.27476 16.3635 3.8222C16.3953 3.49092 17.2151 2.93241 17.557 3.00673C17.9923 3.10017 18.4829 3.6778 18.6358 4.14712C18.8205 4.72049 18.6804 5.40005 18.6804 6.03289Z" fill="url(#paint1_linear_211_1163)"/>
<path d="M25.4804 6.24512C25.7182 6.42775 26.2045 6.62525 26.3532 6.96715C26.504 7.31542 26.4848 7.95251 26.2576 8.21371C25.3806 9.21818 24.4356 10.1802 23.4077 11.0275C23.1232 11.2632 22.3247 11.2271 22.0189 10.9872C21.711 10.7472 21.4625 9.87863 21.6409 9.66414C22.6007 8.51102 23.6965 7.46832 24.7647 6.40864C24.8688 6.30458 25.096 6.32794 25.4804 6.24512Z" fill="url(#paint2_linear_211_1163)"/>
<path d="M12.2415 11.3104C11.8614 11.183 11.6108 11.1745 11.4749 11.0428C10.4895 10.0893 9.45955 9.16765 8.59949 8.10797C8.37651 7.83402 8.52729 6.91874 8.82459 6.65116C9.1219 6.38146 9.99895 6.32837 10.3048 6.57259C11.3156 7.38381 12.2245 8.33307 13.074 9.31843C13.2991 9.57963 13.3054 10.2146 13.1504 10.5629C12.9975 10.9048 12.5133 11.1001 12.2394 11.3104H12.2415Z" fill="url(#paint3_linear_211_1163)"/>
<path d="M50.9703 43.954C50.9703 44.3766 50.9703 44.7992 50.9703 45.2218C50.966 46.0033 50.4627 46.4939 49.8002 46.392C49.3585 46.324 48.749 45.7591 48.6619 45.3259C48.4835 44.4467 48.5897 43.506 48.6088 42.5907C48.6258 41.8495 49.0888 41.5183 49.7789 41.5225C50.5222 41.5267 50.9703 41.892 50.9682 42.6862C50.9682 43.1088 50.9682 43.5314 50.9682 43.954H50.9703Z" fill="url(#paint4_linear_211_1163)"/>
<path d="M13.7559 27.7961C13.6625 27.2397 14.032 26.6854 14.7922 26.5686C15.5546 26.4518 16.0303 26.8723 16.1705 27.6835C16.3149 28.5287 16.7608 29.2571 17.7143 28.9471C18.1327 28.8112 18.5787 28.1231 18.6275 27.6453C18.704 26.9084 18.0605 26.5559 17.3597 26.5261C16.2321 26.4794 15.3232 26.0229 14.6139 25.1649C13.2038 23.4575 13.586 20.9941 15.423 19.6923C15.801 19.4248 16.128 19.0531 16.3977 18.6709C16.9944 17.8342 17.984 17.866 18.5617 18.7495C18.7592 19.0531 18.9949 19.3802 19.2943 19.5586C20.337 20.1808 20.8998 21.1045 21.1546 22.2534C21.3415 23.0986 20.9338 23.861 20.2054 23.9672C19.3049 24.0967 18.7995 23.672 18.6848 22.778C18.5829 21.9922 18.1242 21.4677 17.3555 21.6546C16.9222 21.7607 16.3701 22.2768 16.2788 22.6951C16.1174 23.4342 16.6143 23.9311 17.4128 24.0245C17.623 24.0479 17.829 24.1031 18.0371 24.1392C19.615 24.4131 20.6832 25.4367 21.0293 27.0082C21.3648 28.533 20.7745 29.9855 19.5173 30.8817C19.1457 31.1471 18.808 31.4997 18.5489 31.8755C17.9777 32.7038 16.9095 32.7038 16.3574 31.8755C16.1216 31.5209 15.8052 31.196 15.4612 30.9433C14.4716 30.2149 13.826 29.3123 13.7559 27.7961Z" fill="url(#paint5_linear_211_1163)"/>
<defs>
<linearGradient id="paint0_linear_211_1163" x1="5.5" y1="10.4099" x2="45.3581" y2="70.0486" gradientUnits="userSpaceOnUse">
<stop stop-color="#86BF4B"/>
<stop offset="1" stop-color="#459F94"/>
</linearGradient>
<linearGradient id="paint1_linear_211_1163" x1="16.2833" y1="2.69264" x2="20.7588" y2="5.15278" gradientUnits="userSpaceOnUse">
<stop stop-color="#86BF4B"/>
<stop offset="1" stop-color="#459F94"/>
</linearGradient>
<linearGradient id="paint2_linear_211_1163" x1="21.6255" y1="5.99645" x2="25.7377" y2="11.5032" gradientUnits="userSpaceOnUse">
<stop stop-color="#86BF4B"/>
<stop offset="1" stop-color="#459F94"/>
</linearGradient>
<linearGradient id="paint3_linear_211_1163" x1="8.5362" y1="6.16973" x2="12.6229" y2="11.5755" gradientUnits="userSpaceOnUse">
<stop stop-color="#86BF4B"/>
<stop offset="1" stop-color="#459F94"/>
</linearGradient>
<linearGradient id="paint4_linear_211_1163" x1="48.5821" y1="41.2768" x2="52.5031" y2="43.9071" gradientUnits="userSpaceOnUse">
<stop stop-color="#86BF4B"/>
<stop offset="1" stop-color="#459F94"/>
</linearGradient>
<linearGradient id="paint5_linear_211_1163" x1="13.8098" y1="17.3382" x2="25.5916" y2="25.6126" gradientUnits="userSpaceOnUse">
<stop stop-color="#86BF4B"/>
<stop offset="1" stop-color="#459F94"/>
</linearGradient>
</defs>
</svg>
