<svg width="64" height="63" viewBox="0 0 64 63" fill="none" xmlns="http://www.w3.org/2000/svg">
<path d="M2.15355 48.6799C2.65935 46.8113 3.12246 45.0835 3.59411 43.358C4.07003 41.6196 4.57583 39.8897 5.01334 38.1407C5.10297 37.784 5.04962 37.3057 4.87888 36.9789C0.0428595 27.7104 1.31909 17.4893 8.56032 9.93993C13.6204 4.66711 19.961 2.43966 27.2727 3.11879C36.7527 3.99866 44.8903 11.012 47.176 20.4898C47.4491 21.6217 47.6049 22.7942 47.701 23.9559C47.7564 24.6201 47.9848 24.9554 48.6123 25.1711C57.0593 28.067 62.2602 35.5395 61.9871 44.4514C61.8974 47.358 61.0865 50.098 59.7718 52.7013C59.5328 53.1754 59.4645 53.8609 59.5947 54.3777C60.2947 57.1455 61.0843 59.8919 61.8996 62.8497C60.999 62.6233 60.2648 62.4567 59.5392 62.256C57.4605 61.6815 55.3946 61.0622 53.3053 60.5368C52.8464 60.4215 52.2339 60.477 51.8178 60.6949C40.9741 66.3393 28.2245 61.2309 24.2166 49.5918C24.001 48.964 23.666 48.7226 23.0022 48.6842C19.8415 48.5027 16.9071 47.5245 14.0878 46.1172C13.6119 45.8801 12.9354 45.7862 12.4253 45.9164C9.37771 46.6959 6.35359 47.563 3.32094 48.3959C2.99228 48.4856 2.65721 48.5582 2.14928 48.6799H2.15355ZM7.18805 43.6548C9.06825 43.1487 10.7841 42.7493 12.4552 42.209C13.4006 41.9036 14.1284 41.9677 14.997 42.508C18.6123 44.7611 22.6074 45.6303 26.816 45.2074C37.8774 44.099 45.6031 34.1599 44.1006 23.091C42.5021 11.3388 30.3715 3.73812 19.0711 7.41137C7.05573 11.3174 1.88678 25.1263 8.40453 35.9666C8.83776 36.6863 8.96581 37.3078 8.69691 38.1407C8.13562 39.8855 7.71946 41.6772 7.18805 43.6548ZM27.6526 48.7675C27.6867 48.9063 27.7017 49.0109 27.738 49.1092C31.2721 58.5763 42.5448 62.3735 51.1455 57.0302C51.6065 56.744 52.3385 56.697 52.8934 56.8038C54.1952 57.0536 55.4672 57.4658 56.8736 57.846C56.4681 56.3745 56.0541 55.0334 55.7489 53.6687C55.6529 53.2394 55.7084 52.6586 55.9346 52.2955C57.9172 49.1113 58.7133 45.6837 58.4102 41.9399C57.9386 36.1012 53.4525 30.3927 47.7927 28.6223C45.6564 39.9047 38.9359 46.6233 27.6547 48.7696L27.6526 48.7675Z" fill="url(#paint0_linear_211_1175)"/>
<path d="M26.814 31.1404H23.1859C23.1859 29.8014 23.156 28.4645 23.2115 27.1318C23.2222 26.8798 23.5487 26.6172 23.7728 26.4036C25.0149 25.2312 26.321 24.127 27.5055 22.8991C28.9119 21.4404 28.7241 19.1212 27.2024 17.8761C25.6103 16.5734 23.3033 16.8211 22.1252 18.4912C21.7326 19.0464 21.5469 19.749 21.214 20.5008C20.3816 20.5008 19.4277 20.505 18.4715 20.4965C18.3008 20.4965 18.1322 20.4431 17.9722 20.4153C17.842 17.6561 19.895 14.5211 23.3609 13.6989C26.4683 12.9621 29.6866 14.4762 31.1741 17.3102C32.6616 20.1463 32.0043 23.6359 29.5628 25.8569C29.5095 25.9039 29.4582 25.953 29.4049 26C27.8982 27.3561 25.9433 28.4623 26.8119 31.134L26.814 31.1404Z" fill="url(#paint1_linear_211_1175)"/>
<path d="M26.6089 38.1732H23.2412V34.8545H26.6089V38.1732Z" fill="url(#paint2_linear_211_1175)"/>
<defs>
<linearGradient id="paint0_linear_211_1175" x1="9" y1="1.5" x2="45" y2="65.5" gradientUnits="userSpaceOnUse">
<stop stop-color="#90C43F"/>
<stop offset="1" stop-color="#469F93"/>
</linearGradient>
<linearGradient id="paint1_linear_211_1175" x1="19.5994" y1="13.073" x2="31.2737" y2="29.5547" gradientUnits="userSpaceOnUse">
<stop stop-color="#90C43F"/>
<stop offset="1" stop-color="#469F93"/>
</linearGradient>
<linearGradient id="paint2_linear_211_1175" x1="23.6341" y1="34.7715" x2="25.6101" y2="38.3363" gradientUnits="userSpaceOnUse">
<stop stop-color="#90C43F"/>
<stop offset="1" stop-color="#469F93"/>
</linearGradient>
</defs>
</svg>
