<svg width="64" height="63" viewBox="0 0 64 63" fill="none" xmlns="http://www.w3.org/2000/svg">
<path d="M10.4655 10.5441V8.85499C8.25111 8.85499 6.0517 8.76958 3.86511 8.88702C2.57963 8.95535 1.74044 10.3006 1.7383 11.9064C1.73403 18.0626 1.73617 24.2188 1.73617 30.375C1.73617 34.8934 1.73403 39.4139 1.73617 43.9323C1.73617 46.0976 2.75046 47.1695 4.90502 47.1695C21.6653 47.1802 38.4278 47.1802 55.1881 47.1695C57.2914 47.1695 58.3185 46.0933 58.3271 44.0092C58.3335 42.0169 58.3378 40.0225 58.3228 38.0302C58.3185 37.4686 58.4146 37.0074 59.0809 36.9839C59.7535 36.9604 60.0311 37.3597 60.0311 37.9961C60.0311 40.2745 60.0909 42.5529 60.0097 44.827C59.9222 47.2272 57.9256 48.9418 55.3205 48.9461C49.0213 48.9589 42.7241 48.9504 36.4249 48.9504C36.0042 48.9504 35.5835 48.9504 35.1009 48.9504C35.3251 50.633 35.5323 52.2004 35.7501 53.8296C36.064 53.851 36.3373 53.8745 36.6128 53.8873C37.5651 53.9343 38.2271 54.3549 38.494 55.3094C38.8933 56.7401 39.3417 58.158 39.6941 59.5993C40.0357 60.9937 39.2264 61.9845 37.7723 61.9888C32.6133 62.0037 27.4521 62.0037 22.2931 61.9888C20.7941 61.9845 20.0275 60.966 20.3991 59.4947C20.6745 58.3993 21.0034 57.3145 21.313 56.2276C21.913 54.1265 22.0604 54.0047 24.311 53.8254C24.5246 52.2538 24.7402 50.6587 24.9709 48.9504C24.516 48.9504 24.1295 48.9504 23.7452 48.9504C17.5185 48.9504 11.2897 48.9504 5.06304 48.9504C1.79596 48.9504 0.0364326 47.2037 0.0364326 43.9686C0.0342973 33.294 0.0791395 22.6194 0.000131747 11.9448C-0.016951 9.53403 1.62726 6.86485 4.90716 7.06771C6.70939 7.18088 8.52657 7.08693 10.506 7.08693C10.506 6.18154 10.4954 5.34448 10.5082 4.50956C10.5338 2.91873 11.4413 2.00694 13.0471 2.0048C24.3644 1.9984 35.6796 1.9984 46.9969 2.0048C48.654 2.0048 49.5423 2.92087 49.5594 4.59284C49.5679 5.37224 49.5594 6.15165 49.5594 7.08693C51.5346 7.08693 53.4436 7.05276 55.3504 7.10401C56.0764 7.12323 56.858 7.21078 57.5071 7.50332C59.2325 8.27845 60.0268 9.72835 60.029 11.5989C60.0375 18.7865 60.029 25.9762 60.0375 33.1638C60.0375 33.8535 59.9927 34.556 59.13 34.556C58.2972 34.556 58.3228 33.8599 58.3228 33.2236C58.3314 26.2132 58.3292 19.2029 58.3271 12.1925C58.3271 9.786 57.3747 8.82937 54.9938 8.82723C53.2215 8.82723 51.4491 8.82723 49.6191 8.82723V10.5419C51.1374 10.5419 52.6855 10.5419 54.2336 10.5419C56.2088 10.5419 56.5398 10.8665 56.5419 12.8161C56.5419 22.3525 56.5419 31.8911 56.5419 41.4276C56.5419 43.3216 56.211 43.644 54.302 43.644C38.1096 43.644 21.9195 43.644 5.72713 43.644C3.87578 43.644 3.52559 43.3088 3.52559 41.498C3.52345 31.8911 3.52345 22.282 3.52559 12.6751C3.52559 10.9199 3.90781 10.5441 5.65453 10.5419C7.2176 10.5419 8.78067 10.5419 10.4655 10.5419V10.5441ZM47.8084 9.04931C47.8084 7.63998 47.8105 6.39935 47.8084 5.15871C47.8041 3.7686 47.74 3.70454 46.367 3.70454C35.4789 3.70454 24.5908 3.70454 13.7026 3.70454C13.4891 3.70454 13.2307 3.6298 13.0727 3.72376C12.7759 3.90099 12.3232 4.16577 12.3104 4.41347C12.2399 5.92957 12.2741 7.4478 12.2741 9.04931C14.1361 9.04931 15.8743 9.05572 17.6125 9.04504C18.2403 9.04077 18.8104 9.15181 18.8061 9.91199C18.8018 10.6786 18.221 10.7597 17.5975 10.7555C15.8615 10.7426 14.1254 10.7512 12.3403 10.7512V41.8439H47.7507V10.7512H46.4482C38.5837 10.7512 30.7213 10.7512 22.8569 10.7512C22.5366 10.7512 22.1629 10.8473 21.9109 10.7127C21.6141 10.5569 21.2425 10.2024 21.2383 9.92694C21.234 9.64507 21.5799 9.26711 21.8682 9.09842C22.1095 8.95749 22.4917 9.04931 22.812 9.04931C30.7107 9.04931 38.6093 9.04931 46.5101 9.04931H47.8084ZM10.4526 41.8867V12.3313H5.4538V41.8867H10.4526ZM54.618 41.8909V12.3271H49.6512V41.8909H54.618ZM38.0456 60.2677C37.6655 58.8648 37.3452 57.5622 36.9373 56.2874C36.8498 56.012 36.4398 55.6532 36.1729 55.6511C32.0837 55.6105 27.9924 55.6127 23.9032 55.6468C23.6448 55.6468 23.2327 55.9372 23.158 56.1764C22.7437 57.5088 22.4106 58.8669 22.0348 60.2677H38.0456ZM26.0876 53.8318H33.9863C33.7493 52.1705 33.5208 50.5754 33.2966 49.008H26.7624C26.5361 50.6266 26.3161 52.1961 26.0876 53.8318Z" fill="url(#paint0_linear_211_1129)"/>
<path d="M15.8701 29.8712V36.0274H22.0177C22.0177 35.4124 22.0369 34.8209 22.0135 34.2294C21.9857 33.5717 22.1928 33.0464 22.9103 33.055C23.5594 33.0635 23.7623 33.5504 23.7538 34.1739C23.7239 36.8709 24.3132 38.0346 20.1813 37.8659C18.8318 37.8104 17.4801 37.8702 16.1284 37.8531C14.702 37.8339 14.0892 37.2616 14.0678 35.8672C14.0379 33.9134 14.0379 31.9574 14.0678 30.0014C14.0892 28.7202 14.7148 28.1117 15.9704 28.0775C16.8224 28.054 17.6936 27.975 18.5222 28.1159C18.93 28.1864 19.2589 28.7032 19.624 29.0171C19.2674 29.3032 18.9386 29.7772 18.5478 29.8349C17.6872 29.9587 16.7968 29.8733 15.8658 29.8733L15.8701 29.8712Z" fill="url(#paint1_linear_211_1129)"/>
<path d="M15.8635 16.6173V22.8012H22.0175C22.0175 22.2097 22.0389 21.6225 22.0111 21.0396C21.9812 20.3968 22.1414 19.8331 22.8567 19.8117C23.5742 19.7904 23.7386 20.3285 23.7578 20.9841C23.8475 24.3622 23.6105 24.6184 20.2366 24.6184C18.885 24.6184 17.5354 24.6291 16.1838 24.6141C14.6933 24.5971 14.089 24.0291 14.0676 22.5727C14.042 20.6531 14.0399 18.7334 14.0676 16.8137C14.089 15.43 14.7232 14.8492 16.1325 14.8321C16.9504 14.8214 17.7831 14.7382 18.5796 14.8727C18.964 14.9368 19.28 15.4257 19.6259 15.7204C19.2886 16.0194 18.9789 16.5212 18.6052 16.5767C17.7404 16.7048 16.8414 16.6173 15.8656 16.6173H15.8635Z" fill="url(#paint2_linear_211_1129)"/>
<path d="M35.8014 28.0713C38.6819 28.0713 41.5625 28.0713 44.4431 28.0734C44.7613 28.0734 45.1542 28.0072 45.3762 28.1631C45.6496 28.3553 45.9165 28.7418 45.9314 29.0578C45.9421 29.2969 45.594 29.6237 45.3293 29.7817C45.1093 29.9119 44.7783 29.8778 44.4965 29.8778C38.699 29.882 32.9037 29.882 27.1062 29.8799C26.929 29.8799 26.7026 29.9418 26.5809 29.8585C26.2136 29.6044 25.8848 29.2927 25.541 29.0023C25.9019 28.6926 26.2478 28.1417 26.63 28.114C28.1525 28.0115 29.6857 28.0713 31.2146 28.0691C32.7435 28.067 34.2724 28.0691 35.8014 28.0691V28.0713Z" fill="url(#paint3_linear_211_1129)"/>
<path d="M35.6883 14.8295C38.6757 14.8295 41.663 14.8317 44.6504 14.8274C45.2952 14.8274 45.9252 14.8744 45.9636 15.7029C46.0042 16.572 45.3422 16.6254 44.7123 16.6254C38.7376 16.6296 32.7629 16.6275 26.7882 16.6296C26.1711 16.6296 25.5625 16.5015 25.5625 15.767C25.5625 15.0025 26.1412 14.821 26.8309 14.8253C29.7819 14.8402 32.7351 14.8317 35.6862 14.8317L35.6883 14.8295Z" fill="url(#paint4_linear_211_1129)"/>
<path d="M35.8034 20.1401C32.8887 20.1401 29.9761 20.1401 27.0613 20.1401C26.7773 20.1401 26.4058 20.2277 26.2307 20.0846C25.9424 19.8497 25.6349 19.4675 25.6179 19.1322C25.6072 18.9102 26.0898 18.4617 26.3545 18.4596C32.6431 18.4233 38.9339 18.4233 45.2225 18.4703C45.4744 18.4703 45.9762 19.0746 45.9186 19.2604C45.8097 19.6063 45.3976 20.0697 45.0751 20.0996C43.9477 20.2021 42.8052 20.1423 41.6671 20.1423C39.7133 20.1423 37.7573 20.1423 35.8034 20.1423V20.1401Z" fill="url(#paint5_linear_211_1129)"/>
<path d="M35.6839 31.6564C38.7054 31.6564 41.7248 31.6564 44.7463 31.6564C45.3378 31.6564 45.9634 31.6478 45.9656 32.4657C45.9677 33.3027 45.3634 33.3817 44.7036 33.3817C38.7695 33.3753 32.8332 33.3753 26.8991 33.3817C26.2499 33.3817 25.5965 33.3369 25.573 32.5276C25.5453 31.5902 26.2905 31.6542 26.9418 31.6542C29.8565 31.6564 32.7691 31.6542 35.6839 31.6542V31.6564Z" fill="url(#paint6_linear_211_1129)"/>
<path d="M19.2118 32.395C20.1962 31.353 20.9927 30.501 21.7977 29.6575C22.2099 29.2262 22.6647 28.8269 23.2412 29.3821C23.8477 29.9672 23.4697 30.4668 23.0192 30.9217C22.1437 31.8036 21.2767 32.6897 20.382 33.5524C19.4745 34.4279 18.962 34.4065 18.0353 33.5076C17.7299 33.2129 17.3092 32.9524 17.1704 32.5894C17.0252 32.2071 17.1534 31.7203 17.1619 31.2783C17.5719 31.306 18.0246 31.2356 18.3769 31.3914C18.6652 31.5196 18.8339 31.9167 19.2161 32.395H19.2118Z" fill="url(#paint7_linear_211_1129)"/>
<path d="M19.2481 19.1261C20.2218 18.0905 21.0439 17.215 21.8703 16.3438C22.2696 15.921 22.7138 15.637 23.2369 16.1366C23.7964 16.6683 23.5252 17.1595 23.0896 17.6015C22.1671 18.5346 21.2511 19.4763 20.3008 20.3817C19.4787 21.1654 18.9492 21.1397 18.1078 20.3433C17.7726 20.0272 17.3348 19.7432 17.1661 19.3503C17.0081 18.9788 17.1448 18.4812 17.1533 18.0392C17.5633 18.0648 18.0139 17.9965 18.3705 18.1481C18.663 18.272 18.8445 18.6563 19.2481 19.1261Z" fill="url(#paint8_linear_211_1129)"/>
<path d="M15.1546 7.38348C15.7667 7.38348 16.2629 6.8873 16.2629 6.27524C16.2629 5.66317 15.7667 5.16699 15.1546 5.16699C14.5426 5.16699 14.0464 5.66317 14.0464 6.27524C14.0464 6.8873 14.5426 7.38348 15.1546 7.38348Z" fill="url(#paint9_linear_211_1129)"/>
<path d="M18.6524 7.38348C19.2645 7.38348 19.7607 6.8873 19.7607 6.27524C19.7607 5.66317 19.2645 5.16699 18.6524 5.16699C18.0404 5.16699 17.5442 5.66317 17.5442 6.27524C17.5442 6.8873 18.0404 7.38348 18.6524 7.38348Z" fill="url(#paint10_linear_211_1129)"/>
<path d="M22.1734 7.38348C22.7855 7.38348 23.2817 6.8873 23.2817 6.27524C23.2817 5.66317 22.7855 5.16699 22.1734 5.16699C21.5614 5.16699 21.0652 5.66317 21.0652 6.27524C21.0652 6.8873 21.5614 7.38348 22.1734 7.38348Z" fill="url(#paint11_linear_211_1129)"/>
<defs>
<linearGradient id="paint0_linear_211_1129" x1="-1.84936e-06" y1="-3" x2="62.5" y2="59" gradientUnits="userSpaceOnUse">
<stop stop-color="#90C43F"/>
<stop offset="1" stop-color="#2C93AE"/>
</linearGradient>
<linearGradient id="paint1_linear_211_1129" x1="14.0454" y1="27.2135" x2="24.3013" y2="37.2488" gradientUnits="userSpaceOnUse">
<stop stop-color="#90C43F"/>
<stop offset="1" stop-color="#2C93AE"/>
</linearGradient>
<linearGradient id="paint2_linear_211_1129" x1="14.0476" y1="13.9781" x2="24.2807" y2="24.0165" gradientUnits="userSpaceOnUse">
<stop stop-color="#90C43F"/>
<stop offset="1" stop-color="#2C93AE"/>
</linearGradient>
<linearGradient id="paint3_linear_211_1129" x1="25.541" y1="27.8997" x2="25.8903" y2="31.7185" gradientUnits="userSpaceOnUse">
<stop stop-color="#90C43F"/>
<stop offset="1" stop-color="#2C93AE"/>
</linearGradient>
<linearGradient id="paint4_linear_211_1129" x1="25.5625" y1="14.6748" x2="25.8953" y2="18.4045" gradientUnits="userSpaceOnUse">
<stop stop-color="#90C43F"/>
<stop offset="1" stop-color="#2C93AE"/>
</linearGradient>
<linearGradient id="paint5_linear_211_1129" x1="25.6177" y1="18.2892" x2="25.9263" y2="21.8732" gradientUnits="userSpaceOnUse">
<stop stop-color="#90C43F"/>
<stop offset="1" stop-color="#2C93AE"/>
</linearGradient>
<linearGradient id="paint6_linear_211_1129" x1="25.5723" y1="31.5093" x2="25.878" y2="35.0841" gradientUnits="userSpaceOnUse">
<stop stop-color="#90C43F"/>
<stop offset="1" stop-color="#2C93AE"/>
</linearGradient>
<linearGradient id="paint7_linear_211_1129" x1="17.1016" y1="28.6866" x2="22.2623" y2="35.179" gradientUnits="userSpaceOnUse">
<stop stop-color="#90C43F"/>
<stop offset="1" stop-color="#2C93AE"/>
</linearGradient>
<linearGradient id="paint8_linear_211_1129" x1="17.0903" y1="15.4474" x2="22.2484" y2="21.9451" gradientUnits="userSpaceOnUse">
<stop stop-color="#90C43F"/>
<stop offset="1" stop-color="#2C93AE"/>
</linearGradient>
<linearGradient id="paint9_linear_211_1129" x1="14.0464" y1="4.98228" x2="16.3552" y2="7.27065" gradientUnits="userSpaceOnUse">
<stop stop-color="#90C43F"/>
<stop offset="1" stop-color="#2C93AE"/>
</linearGradient>
<linearGradient id="paint10_linear_211_1129" x1="17.5442" y1="4.98228" x2="19.853" y2="7.27064" gradientUnits="userSpaceOnUse">
<stop stop-color="#90C43F"/>
<stop offset="1" stop-color="#2C93AE"/>
</linearGradient>
<linearGradient id="paint11_linear_211_1129" x1="21.0652" y1="4.98228" x2="23.374" y2="7.27064" gradientUnits="userSpaceOnUse">
<stop stop-color="#90C43F"/>
<stop offset="1" stop-color="#2C93AE"/>
</linearGradient>
</defs>
</svg>
