<svg width="64" height="63" viewBox="0 0 64 63" fill="none" xmlns="http://www.w3.org/2000/svg">
<path d="M36.3821 30.3027C36.7451 29.9005 36.9197 29.6926 37.1115 29.5001C38.2282 28.3846 39.3276 27.2486 40.4823 26.1709C40.994 25.6931 41.051 25.3648 40.6396 24.7444C35.6561 17.2353 39.5782 7.27712 48.3387 5.35904C53.4225 4.24531 57.8131 5.72512 61.0801 9.76409C64.3489 13.8048 64.8761 18.4041 62.6462 23.0755C60.4146 27.7521 56.489 30.1721 51.2739 30.2838C46.6983 30.38 42.1175 30.3044 37.5385 30.3044C37.236 30.3044 36.9335 30.3044 36.3821 30.3044V30.3027ZM52.6014 17.6856C52.6152 16.9242 51.9722 16.2591 51.203 16.2402C50.4511 16.223 49.7769 16.8727 49.7544 17.6358C49.732 18.3748 50.3957 19.0589 51.1529 19.0778C51.9117 19.0967 52.5876 18.447 52.6014 17.6856ZM56.5875 17.6788C56.5996 16.9225 55.9462 16.254 55.1805 16.2385C54.4389 16.2213 53.7457 16.895 53.7371 17.6444C53.7285 18.3972 54.3888 19.0709 55.1459 19.083C55.9065 19.0933 56.5754 18.4419 56.5875 17.6805V17.6788ZM48.5738 17.6272C48.5582 16.8228 47.9221 16.199 47.1529 16.2316C46.4027 16.2625 45.7458 16.9517 45.7597 17.6925C45.7735 18.4677 46.4165 19.0847 47.2082 19.0795C47.9826 19.0744 48.5911 18.4281 48.5755 17.6289L48.5738 17.6272Z" fill="url(#paint0_linear_211_1193)"/>
<path d="M47.3102 33.2311C48.5341 33.3582 49.6784 33.439 50.8037 33.6332C50.9973 33.6659 51.2289 34.1781 51.2341 34.4737C51.2722 36.4485 51.2549 38.425 51.2549 40.4015C51.2549 43.0655 51.2653 45.7278 51.2514 48.3918C51.2393 50.8994 50.1711 51.953 47.6732 51.953C34.2525 51.953 20.8317 51.953 7.411 51.953C5.01345 51.953 3.91752 50.8702 3.91752 48.4984C3.91579 39.1623 3.91407 29.828 3.91752 20.492C3.91752 18.139 5.04456 17.0219 7.41446 17.0202C16.2856 17.0184 25.1549 17.0305 34.0261 17.003C34.8679 16.9995 35.2499 17.1938 35.1842 18.0926C35.141 18.6856 35.1946 19.3026 35.3104 19.887C35.4521 20.5934 35.1496 20.7257 34.536 20.7171C32.8956 20.693 31.2534 20.7102 29.6112 20.7102C22.7851 20.7102 15.9606 20.7102 9.1344 20.7102C8.33579 20.7102 7.93534 21.0918 7.93303 21.8549C7.93303 30.3024 7.94167 38.7498 7.91574 47.1973C7.91402 48.0154 8.06095 48.3299 8.99093 48.3265C21.3469 48.2921 33.7011 48.3042 46.057 48.3024C47.2532 48.3024 47.2532 48.299 47.2532 47.0667C47.2532 42.7991 47.2532 38.5333 47.2549 34.2657C47.2549 33.9306 47.2895 33.5971 47.3085 33.2311H47.3102Z" fill="url(#paint1_linear_211_1193)"/>
<path d="M27.5303 57.9996C19.3195 57.9996 11.1087 57.9996 2.89791 57.9944C2.46922 57.9944 2.0267 57.9859 1.6153 57.8827C0.605801 57.6266 -0.0458765 56.7123 0.00252397 55.712C0.052653 54.6601 0.809774 53.8163 1.87286 53.6581C2.184 53.6117 2.50552 53.622 2.82185 53.622C19.3005 53.622 35.7791 53.622 52.2577 53.622C52.574 53.622 52.8938 53.61 53.2067 53.6461C54.2819 53.7716 55.0719 54.5948 55.1393 55.6347C55.2101 56.7346 54.5377 57.6748 53.4504 57.9119C53.0356 58.003 52.5931 57.9962 52.1626 57.9962C43.9518 58.0013 35.7411 57.9996 27.5303 57.9996Z" fill="url(#paint2_linear_211_1193)"/>
<path d="M28.6813 46.6722C25.6286 46.6722 22.5759 46.6464 19.5249 46.6876C18.7194 46.698 18.5465 46.3989 18.6105 45.677C19.0496 40.7718 23.2258 36.8772 28.3269 36.6435C33.1704 36.4218 37.6941 40.0242 38.5463 44.7833C38.7722 46.0426 38.2484 46.6722 36.975 46.6722C34.211 46.6722 31.447 46.6722 28.6813 46.6722Z" fill="url(#paint3_linear_211_1193)"/>
<path d="M34.4154 29.0878C34.424 32.2846 31.8916 34.8025 28.6592 34.8146C25.4423 34.8266 22.8857 32.2949 22.8909 29.105C22.8961 25.9082 25.4457 23.3628 28.6419 23.3662C31.8501 23.3679 34.4067 25.903 34.4154 29.0895V29.0878Z" fill="url(#paint4_linear_211_1193)"/>
<defs>
<linearGradient id="paint0_linear_211_1193" x1="37.8924" y1="7.62886" x2="61.691" y2="29.3296" gradientUnits="userSpaceOnUse">
<stop stop-color="#86BF4B"/>
<stop offset="1" stop-color="#2C93AE"/>
</linearGradient>
<linearGradient id="paint1_linear_211_1193" x1="6.50461" y1="20.6298" x2="39.2226" y2="57.6991" gradientUnits="userSpaceOnUse">
<stop stop-color="#86BF4B"/>
<stop offset="1" stop-color="#2C93AE"/>
</linearGradient>
<linearGradient id="paint2_linear_211_1193" x1="3.01571" y1="54.0746" x2="3.79344" y2="62.2649" gradientUnits="userSpaceOnUse">
<stop stop-color="#86BF4B"/>
<stop offset="1" stop-color="#2C93AE"/>
</linearGradient>
<linearGradient id="paint3_linear_211_1193" x1="19.6921" y1="37.6771" x2="28.0686" y2="51.6133" gradientUnits="userSpaceOnUse">
<stop stop-color="#86BF4B"/>
<stop offset="1" stop-color="#2C93AE"/>
</linearGradient>
<linearGradient id="paint4_linear_211_1193" x1="23.5211" y1="24.5543" x2="34.1642" y2="33.5154" gradientUnits="userSpaceOnUse">
<stop stop-color="#86BF4B"/>
<stop offset="1" stop-color="#2C93AE"/>
</linearGradient>
</defs>
</svg>
