<svg width="18" height="14" viewBox="0 0 18 14" fill="none" xmlns="http://www.w3.org/2000/svg">
<g clip-path="url(#clip0_246_4824)">
<path d="M9.00419 13.9992C11.3628 13.9992 13.7214 13.9992 16.0807 13.9992C16.655 13.9992 17.1762 13.8485 17.5698 13.3338C17.8643 12.9472 17.9979 12.4905 17.9979 11.9841C17.9992 8.65683 18.0025 5.3296 17.9965 2.00312C17.9939 0.804113 17.2713 0 16.2236 0C11.4067 0 6.58908 0 1.77215 0C0.741087 0 0.0098362 0.798084 0.0065136 1.97222C-0.00279427 5.31151 -0.0021286 8.65156 0.0065136 11.9908C0.0098362 13.2162 0.750395 13.9947 1.89513 13.997C4.26504 14.0023 6.63494 13.9985 9.00419 13.9985V13.9992ZM1.08344 2.44324C1.31146 2.59622 1.47367 2.70173 1.63321 2.81176C3.74718 4.27001 5.86248 5.72525 7.97379 7.18803C8.68576 7.6809 9.37912 7.67939 10.0924 7.182C11.749 6.02745 13.413 4.88798 15.0749 3.74248C15.6851 3.32196 16.2954 2.90294 16.9435 2.45756C16.9502 2.63616 16.9595 2.75674 16.9595 2.87657C16.9602 5.8398 16.9602 8.80228 16.9595 11.7655C16.9595 12.5674 16.7435 12.807 16.0262 12.807C11.3422 12.807 6.65821 12.807 1.97357 12.807C1.89579 12.807 1.81802 12.8115 1.7409 12.8055C1.30747 12.7708 1.08145 12.4935 1.08145 12.0029C1.08212 8.98993 1.08278 5.97696 1.08344 2.96323C1.08344 2.81628 1.08344 2.66932 1.08344 2.44173V2.44324ZM1.37727 1.30979C1.38193 1.27814 1.38658 1.24649 1.3919 1.21484C1.54679 1.18771 1.70168 1.13797 1.85724 1.13797C6.60968 1.13344 11.3621 1.13344 16.1146 1.13797C16.2801 1.13797 16.445 1.19147 16.7049 1.23594C16.5274 1.37008 16.4416 1.44092 16.3512 1.50347C14.1216 3.03784 11.886 4.56015 9.6663 6.11261C9.19032 6.44571 8.79944 6.43893 8.32679 6.10734C6.37236 4.7365 4.40132 3.39732 2.43625 2.04608C2.08259 1.80266 1.73027 1.55623 1.37794 1.3113L1.37727 1.30979Z" fill="#7B777D"/>
</g>
<defs>
<clipPath id="clip0_246_4824">
<rect width="18" height="14" fill="white" transform="matrix(-1 0 0 1 18 0)"/>
</clipPath>
</defs>
</svg>
