<svg width="16" height="15" viewBox="0 0 16 15" fill="none" xmlns="http://www.w3.org/2000/svg">
<path d="M11.5382 0.000968781C9.04891 -0.000322927 6.55831 -0.000322927 4.06771 0.000968781C2.11837 0.000968781 0.590151 1.53035 0.588859 3.47954C0.587568 5.96995 0.587568 8.45908 0.588859 10.9495C0.588859 12.8974 2.11837 14.4255 4.06771 14.4281C4.92159 14.4281 5.77547 14.4281 6.62936 14.4281H7.77519H8.94299C9.33182 14.4281 9.72195 14.4281 10.1108 14.4281C10.5862 14.4281 11.0628 14.4281 11.5382 14.4281C13.4876 14.4255 15.0158 12.8974 15.0158 10.9495C15.0171 8.45908 15.0171 5.96995 15.0158 3.47954C15.0158 1.53035 13.4863 0.00226049 11.5382 0.000968781ZM5.55716 1.36372C5.93566 1.36372 6.31545 1.36372 6.69395 1.36372H7.83074H8.9559C9.80721 1.36372 10.6598 1.36372 11.5111 1.36372C12.7512 1.36501 13.6516 2.26663 13.6529 3.50667C13.6542 5.979 13.6542 8.45004 13.6529 10.9224C13.6529 12.1624 12.7512 13.0627 11.5098 13.064C9.03858 13.0653 6.56606 13.0653 4.09483 13.064C2.85469 13.064 1.95431 12.1624 1.95431 10.9211C1.95302 8.44874 1.95302 5.9777 1.95431 3.50537C1.95431 2.26663 2.85599 1.3663 4.09741 1.36501C4.58443 1.36501 5.07143 1.36501 5.55844 1.36501L5.55716 1.36372Z" fill="#8B939A"/>
<path d="M7.80821 10.9401H7.8108C8.79128 10.9401 9.72268 10.5526 10.4306 9.84987C11.1398 9.14718 11.5299 8.2249 11.5286 7.25353C11.526 5.11963 9.92678 3.50499 7.80821 3.49854H7.79659C6.79027 3.49854 5.85629 3.87701 5.16647 4.56549C4.46243 5.26818 4.07488 6.22921 4.07618 7.27032C4.07876 9.26085 5.78782 10.9401 7.80821 10.9401ZM5.44033 7.17086C5.44421 5.91532 6.52287 4.85225 7.79659 4.85095H7.80047C8.42958 4.85095 9.02639 5.10025 9.47853 5.55235C9.92291 5.9967 10.1671 6.57668 10.1658 7.18636C10.1658 7.84255 9.91773 8.44836 9.47206 8.89271C9.03414 9.32802 8.44248 9.56827 7.80433 9.56827H7.7953C6.44923 9.56311 5.43646 8.53362 5.44033 7.17086Z" fill="#8B939A"/>
<path d="M11.7006 4.13241H11.7058C11.9241 4.13241 12.1308 4.04587 12.2871 3.88828C12.4447 3.7294 12.5286 3.52144 12.526 3.30055C12.5196 2.8575 12.154 2.49453 11.711 2.49194C11.4875 2.49194 11.2821 2.5772 11.1258 2.73478C10.9682 2.89366 10.883 3.10163 10.8868 3.32251C10.8933 3.76557 11.2589 4.12854 11.7019 4.13112L11.7006 4.13241Z" fill="#8B939A"/>
</svg>
