<svg width="16" height="14" viewBox="0 0 16 14" fill="none" xmlns="http://www.w3.org/2000/svg">
<path d="M9.50161 13.517H6.13086V4.30536H9.45639C9.48265 4.65248 9.5089 4.98063 9.52203 5.1571C10.1871 4.87562 10.8508 4.43663 11.5655 4.31995C14.2653 3.8795 15.1667 5.64569 15.333 7.47459C15.4861 9.16202 15.3913 10.8699 15.4059 12.5704C15.4088 12.8592 15.4059 13.148 15.4059 13.5038H12.0206C12.0206 11.8937 12.0235 10.3186 12.0176 8.74344C12.0176 8.40508 12.0804 8.01276 11.936 7.74149C11.7405 7.37396 11.4255 6.95392 11.0652 6.81974C10.5591 6.6316 10.0238 6.90142 9.80499 7.42354C9.62413 7.85525 9.52495 8.34966 9.51474 8.81783C9.47973 10.3652 9.50161 11.9141 9.50161 13.517Z" fill="#8B939A"/>
<path d="M0.992625 4.28442H4.36337V13.566C3.35404 13.566 2.34325 13.5777 1.33392 13.55C1.21724 13.5471 1.00867 13.3196 1.00721 13.1941C0.988245 10.2393 0.992625 7.28446 0.992625 4.28296V4.28442Z" fill="#8B939A"/>
<path d="M1.00783 1.68935C1.00346 0.757396 1.71815 0.0208758 2.65163 0.000457438C3.59824 -0.0214194 4.39316 0.74427 4.39462 1.67914C4.39608 2.59213 3.56761 3.40887 2.66038 3.38553C1.74878 3.36366 1.01221 2.60818 1.00783 1.68789V1.68935Z" fill="#8B939A"/>
</svg>
