<svg width="13" height="20" viewBox="0 0 13 20" fill="none" xmlns="http://www.w3.org/2000/svg">
<path d="M12.9998 9.99727C12.9998 7.43479 13.0007 4.87153 12.9988 2.30826C12.997 0.878241 11.9507 0.00195252 10.2441 0.00117151C7.74973 -0.000390503 5.25538 -0.000390503 2.76103 0.00117151C1.06093 0.00195252 0.0053463 0.879803 0.00348663 2.31217C-0.00116348 7.43869 -0.00116348 12.5644 0.00348663 17.691C0.00441647 19.121 1.06186 19.9973 2.76475 19.9988C5.2591 20.0004 7.75345 20.0004 10.2478 19.9988C11.9526 19.9965 12.997 19.1186 12.9988 17.6871C13.0007 15.1238 12.9988 12.5605 12.9988 9.99805L12.9998 9.99727ZM11.9079 9.98243C11.9079 12.5457 11.9098 15.109 11.9079 17.6722C11.9079 18.6305 11.3731 19.0796 10.232 19.0804C7.75345 19.0827 5.27398 19.0827 2.79545 19.0804C1.63197 19.0796 1.09628 18.6258 1.09628 17.6464C1.09628 12.5457 1.09628 7.44494 1.09628 2.34419C1.09628 1.36793 1.63383 0.917292 2.80289 0.916511C5.26654 0.914949 7.7302 0.914949 10.1929 0.916511C11.3917 0.916511 11.9079 1.35466 11.9088 2.36996C11.9098 4.90745 11.9088 7.44494 11.9088 9.98165L11.9079 9.98243Z" fill="#8B939A"/>
<path d="M6.48765 2.731C6.99917 2.731 7.51069 2.73178 8.02221 2.731C8.37934 2.731 8.63789 2.60916 8.64998 2.28583C8.66207 1.96015 8.40724 1.81722 8.0529 1.81488C7.01405 1.80707 5.97613 1.80707 4.93729 1.81644C4.60526 1.81957 4.35788 1.9578 4.35416 2.26083C4.34951 2.58183 4.59317 2.72475 4.95403 2.72944C5.46555 2.73569 5.97706 2.731 6.48858 2.731H6.48765Z" fill="#8B939A"/>
<path d="M5.4303 17.257C5.42193 17.7654 5.90089 18.1817 6.49797 18.1848C7.08389 18.188 7.59262 17.7608 7.58983 17.2679C7.58704 16.7845 7.11459 16.3807 6.53424 16.3659C5.92972 16.351 5.43867 16.747 5.4303 17.257Z" fill="#8B939A"/>
</svg>
