<svg width="18" height="14" viewBox="0 0 18 14" fill="none" xmlns="http://www.w3.org/2000/svg">
<path d="M0.742188 12.1119C2.65474 12.2442 4.21153 11.8076 5.60074 10.8022C4.96126 10.5156 4.29091 10.3377 3.77786 9.94964C3.26334 9.56157 2.90758 8.96331 2.3519 8.3033H3.72935C2.32985 7.57127 1.38019 6.55407 1.30816 4.84011C1.75359 4.95477 2.16374 5.0606 2.78263 5.21936C1.33021 3.8332 0.955345 2.38531 1.76976 0.612554C3.74405 2.78072 6.0888 4.02576 8.98629 4.19187C8.82311 2.547 9.30676 1.25492 10.7327 0.472909C12.1425 -0.298811 13.5008 -0.0959597 14.7783 0.862444C14.9356 0.980039 15.2267 1.0212 15.4207 0.96975C15.9764 0.819816 16.513 0.603734 17.1878 0.514068C16.7923 1.0359 16.3983 1.55773 15.9588 2.13689C16.4762 2.00165 16.9731 1.8723 17.47 1.74294C17.5053 1.77234 17.5406 1.80321 17.5759 1.83261C17.2113 2.22067 16.8129 2.58375 16.4954 3.00709C16.266 3.31137 16.0147 3.69062 15.997 4.04781C15.7574 8.89128 12.6379 12.5558 7.89256 13.5157C5.61544 13.9758 2.58564 13.4231 0.743655 12.1134L0.742188 12.1119Z" fill="#8B939A"/>
</svg>
