<svg width="18" height="12" viewBox="0 0 18 12" fill="none" xmlns="http://www.w3.org/2000/svg">
<path d="M16.5838 1.01707C15.9761 0.294672 14.8543 0 12.7117 0H4.93429C2.74271 0 1.60182 0.31368 0.99646 1.08278C0.40625 1.83266 0.40625 2.93754 0.40625 4.46673V7.38135C0.40625 10.3439 1.10653 11.848 4.93429 11.848H12.7118C14.5698 11.848 15.5993 11.588 16.2654 10.9505C16.9485 10.2967 17.2399 9.22932 17.2399 7.38135V4.46673C17.2399 2.85407 17.1942 1.74267 16.5838 1.01707ZM11.2135 6.32643L7.68182 8.17239C7.60286 8.21366 7.51652 8.23414 7.43029 8.23414C7.33265 8.23414 7.23523 8.20785 7.14895 8.15561C6.98648 8.05715 6.88727 7.88103 6.88727 7.69106V4.01098C6.88727 3.82134 6.9862 3.64538 7.14835 3.54687C7.31055 3.44835 7.51228 3.44162 7.68057 3.52906L11.2123 5.36312C11.392 5.45642 11.5048 5.64194 11.5051 5.84434C11.5053 6.04691 11.3929 6.23269 11.2135 6.32643Z" fill="#8B939A"/>
</svg>
