<svg width="29" height="11" viewBox="0 0 29 11" fill="none" xmlns="http://www.w3.org/2000/svg">
<path d="M3.24593 4.4987H27.9646C28.2601 4.4987 28.5 4.99386 28.5 5.60397C28.5 6.21407 28.2601 6.70923 27.9646 6.70923H3.24593C2.95039 6.70923 2.71052 6.21407 2.71052 5.60397C2.71052 4.99386 2.95039 4.4987 3.24593 4.4987Z" fill="#0F84CF"/>
<path d="M6.95475 0.814437C7.24949 0.814437 7.53686 0.954436 7.72107 1.2197C8.00844 1.6397 7.89791 2.21444 7.47791 2.50181L3.06423 5.50075L7.47791 8.4997C7.89791 8.78707 8.00844 9.36181 7.72107 9.78181C7.4337 10.2018 6.85896 10.3123 6.43896 10.025L0.905281 6.26707C0.654755 6.09759 0.500019 5.81023 0.500019 5.50812C0.500019 5.20602 0.647386 4.91865 0.905281 4.74917L6.43896 0.991279C6.5937 0.880753 6.77791 0.829173 6.95475 0.829173V0.814437Z" fill="#0F84CF"/>
</svg>
