<svg width="40" height="40" viewBox="0 0 40 40" fill="none" xmlns="http://www.w3.org/2000/svg">
<path d="M7.01583 22.2218C6.42522 22.2218 5.93139 22.2346 5.43898 22.219C4.62778 22.1933 4.02152 21.6511 4.01583 20.8428C3.99448 17.3091 3.99448 13.7768 4.01583 10.2431C4.0201 9.43907 4.66051 8.88546 5.51725 8.84561C5.98547 8.82427 6.45653 8.84134 7.01583 8.84134C7.01583 7.39258 7.01298 6.00216 7.01583 4.61174C7.01867 3.49457 7.27484 2.45994 8.01345 1.58043C8.87161 0.561459 9.96744 0.0135465 11.2952 0.0107002C16.938 -0.00210817 22.5808 -0.00495447 28.225 0.0107002C30.5803 0.0178159 32.4589 1.89922 32.4689 4.25738C32.4874 8.19381 32.4646 12.1302 32.4945 16.0667C32.4973 16.3855 32.688 16.7939 32.9271 17.006C36.3754 20.0615 36.3156 24.7849 32.7876 27.7493C32.5984 27.9087 32.4916 28.2659 32.4888 28.5335C32.466 30.8575 32.4802 33.1815 32.4746 35.5055C32.4674 38.1753 30.6415 39.9969 27.9689 39.9984C22.5154 40.0012 17.0618 39.9998 11.6083 39.9984C8.85311 39.9984 7.02864 38.1881 7.0201 35.4187C7.00729 31.3399 7.01725 27.2612 7.01725 23.1824C7.01725 22.8992 7.01725 22.6174 7.01725 22.2232L7.01583 22.2218ZM8.63253 22.2318V31.8594H30.8607V29.006C29.7151 29.0188 28.6164 29.0928 27.5263 29.023C26.5642 28.9618 25.6605 28.4225 24.6287 28.8537C24.1861 29.0387 23.6709 28.4452 23.8389 27.9628C24.0267 27.4234 23.7748 27.1487 23.476 26.7873C21.6714 24.6042 21.2402 22.1521 22.4001 19.5705C23.5542 17.0017 25.6221 15.6056 28.4755 15.5287C29.2653 15.5074 30.0595 15.6639 30.8835 15.7422C30.892 15.5956 30.9119 15.4092 30.9119 15.2227C30.9134 11.6179 30.9176 8.01449 30.9119 4.40966C30.9091 2.71326 29.7563 1.58043 28.0414 1.57047C26.6667 1.56336 25.2905 1.56905 23.9157 1.56905C19.7658 1.56905 15.6173 1.5662 11.4674 1.57047C10.1183 1.5719 8.87161 2.31193 8.75776 3.50453C8.59125 5.25216 8.71507 7.02825 8.71507 8.84277C8.94419 8.84277 9.20178 8.84277 9.45937 8.84277C12.3754 8.84277 15.2929 8.83992 18.2089 8.84419C19.4058 8.84704 19.9437 9.38926 19.9437 10.579C19.9451 13.7085 19.9437 16.8394 19.9437 19.969C19.9437 21.8916 19.7246 22.125 17.8332 22.2403C17.7905 22.2431 17.7506 22.2801 17.7108 22.3029C17.271 23.968 17.0604 24.0392 15.5846 23.0486C15.1562 22.7612 14.7165 22.2901 14.2639 22.2688C12.4024 22.1805 10.5339 22.2318 8.63395 22.2318H8.63253ZM18.3413 10.458H5.62541V20.6606C7.83841 20.6606 9.99448 20.6407 12.1506 20.6677C13.5381 20.6848 15.0168 20.3005 16.1524 21.6013C16.4926 20.2052 17.5884 20.8613 18.3413 20.5852V10.458ZM8.59695 33.5003C8.59695 34.3499 8.53575 35.134 8.60976 35.9054C8.74922 37.3627 9.81943 38.4187 11.2098 38.4244C16.8968 38.4471 22.5837 38.4443 28.272 38.4272C29.5713 38.4229 30.7212 37.4253 30.8692 36.1445C30.9689 35.2863 30.8877 34.4082 30.8877 33.5017H8.59695V33.5003ZM28.6192 17.0743C25.7146 17.0743 23.3579 19.3954 23.365 22.2702C23.3735 25.1563 25.4912 27.5771 28.5922 27.6113C31.4527 27.644 33.8934 25.2019 33.8963 22.3342C33.8991 19.4168 31.5481 17.0743 28.6192 17.0743Z" fill="url(#paint0_linear_65_1108)"/>
<path d="M19.7303 4.90346C17.3366 4.90346 14.9414 4.90488 12.5477 4.90061C12.2887 4.90061 11.9727 4.95185 11.7835 4.82803C11.5486 4.67291 11.2797 4.35555 11.2839 4.11219C11.2882 3.87025 11.5686 3.56427 11.8076 3.41484C12.0012 3.29388 12.3129 3.34938 12.5733 3.34938C17.3622 3.34653 22.1497 3.34653 26.9386 3.34796C27.912 3.34796 28.302 3.56143 28.3204 4.09796C28.339 4.6416 27.8835 4.90346 26.913 4.90346C24.5192 4.90346 22.1241 4.90346 19.7303 4.90346Z" fill="url(#paint1_linear_65_1108)"/>
<path d="M19.746 36.9754C20.3802 36.9754 20.8944 36.4612 20.8944 35.8269C20.8944 35.1927 20.3802 34.6785 19.746 34.6785C19.1117 34.6785 18.5975 35.1927 18.5975 35.8269C18.5975 36.4612 19.1117 36.9754 19.746 36.9754Z" fill="url(#paint2_linear_65_1108)"/>
<path d="M8.45603 16.2246C8.86788 16.2246 9.20176 15.8907 9.20176 15.4789C9.20176 15.067 8.86788 14.7332 8.45603 14.7332C8.04417 14.7332 7.7103 15.067 7.7103 15.4789C7.7103 15.8907 8.04417 16.2246 8.45603 16.2246Z" fill="url(#paint3_linear_65_1108)"/>
<path d="M11.9841 16.2246C12.3959 16.2246 12.7298 15.8907 12.7298 15.4789C12.7298 15.067 12.3959 14.7332 11.9841 14.7332C11.5722 14.7332 11.2383 15.067 11.2383 15.4789C11.2383 15.8907 11.5722 16.2246 11.9841 16.2246Z" fill="url(#paint4_linear_65_1108)"/>
<path d="M15.4509 16.2246C15.8627 16.2246 16.1966 15.8907 16.1966 15.4789C16.1966 15.067 15.8627 14.7332 15.4509 14.7332C15.039 14.7332 14.7051 15.067 14.7051 15.4789C14.7051 15.8907 15.039 16.2246 15.4509 16.2246Z" fill="url(#paint5_linear_65_1108)"/>
<defs>
<linearGradient id="paint0_linear_65_1108" x1="6.49982" y1="-2" x2="29.9998" y2="40.5" gradientUnits="userSpaceOnUse">
<stop stop-color="#90C43F"/>
<stop offset="1" stop-color="#0F84CF"/>
</linearGradient>
<linearGradient id="paint1_linear_65_1108" x1="12.6371" y1="3.25795" x2="12.7248" y2="5.43874" gradientUnits="userSpaceOnUse">
<stop stop-color="#90C43F"/>
<stop offset="1" stop-color="#0F84CF"/>
</linearGradient>
<linearGradient id="paint2_linear_65_1108" x1="18.7799" y1="34.5636" x2="19.9457" y2="37.2431" gradientUnits="userSpaceOnUse">
<stop stop-color="#90C43F"/>
<stop offset="1" stop-color="#0F84CF"/>
</linearGradient>
<linearGradient id="paint3_linear_65_1108" x1="7.82876" y1="14.6586" x2="8.58574" y2="16.3984" gradientUnits="userSpaceOnUse">
<stop stop-color="#90C43F"/>
<stop offset="1" stop-color="#0F84CF"/>
</linearGradient>
<linearGradient id="paint4_linear_65_1108" x1="11.3568" y1="14.6586" x2="12.1138" y2="16.3984" gradientUnits="userSpaceOnUse">
<stop stop-color="#90C43F"/>
<stop offset="1" stop-color="#0F84CF"/>
</linearGradient>
<linearGradient id="paint5_linear_65_1108" x1="14.8236" y1="14.6586" x2="15.5806" y2="16.3984" gradientUnits="userSpaceOnUse">
<stop stop-color="#90C43F"/>
<stop offset="1" stop-color="#0F84CF"/>
</linearGradient>
</defs>
</svg>
