<svg width="40" height="40" viewBox="0 0 40 40" fill="none" xmlns="http://www.w3.org/2000/svg">
<path d="M14.1459 33.5207C13.9287 33.7091 13.7301 33.8725 13.5412 34.0466C12.4109 35.0885 11.5945 36.3378 11.0785 37.7853C10.9169 38.2387 10.7445 38.6883 10.5836 39.1422C10.4461 39.5302 10.6616 39.91 11.0579 39.9897C11.1065 39.9994 11.1574 39.9996 11.2074 39.9996C16.9361 40.0001 22.6651 40.0001 28.3938 39.9998C28.8859 39.9998 29.188 39.5843 29.0149 39.1246C28.7216 38.3466 28.4517 37.5566 28.1056 36.8019C27.529 35.5447 26.6621 34.5017 25.5857 33.6334C25.55 33.6047 25.5153 33.5748 25.45 33.5204C25.5218 33.5204 25.5607 33.5204 25.5998 33.5204C28.5047 33.5204 31.4095 33.5195 34.3144 33.5207C35.3589 33.5211 36.2533 33.1575 36.9795 32.4077C37.6408 31.7248 37.9725 30.8971 37.9964 29.9464C37.9973 29.9077 37.9968 29.8693 37.9968 29.8306C37.9968 22.6822 38.0072 15.5336 37.9903 8.3852C37.9855 6.3727 37.0387 4.88381 35.2695 3.9301C34.6149 3.57709 33.9014 3.4132 33.1575 3.40464C32.4362 3.39653 31.7146 3.40232 30.9933 3.40186C30.9475 3.40186 30.9019 3.40186 30.8373 3.40186C30.8373 3.34931 30.8373 3.3051 30.8373 3.26089C30.8373 2.61274 30.8382 1.96459 30.8371 1.31667C30.8359 0.637038 30.3878 0.114352 29.7167 0.00995372C29.6561 0.000462964 29.5938 0.000231482 29.5322 0.000231482C23.0473 0 16.5625 0 10.0776 0C9.33196 0 8.76969 0.562733 8.76807 1.31181C8.76668 1.95996 8.76784 2.60811 8.7676 3.25603C8.7676 3.29815 8.7676 3.34028 8.7676 3.40186C8.71645 3.40186 8.67223 3.40186 8.62802 3.40186C7.93357 3.40186 7.23913 3.39931 6.54491 3.40232C4.23982 3.41274 2.26319 4.97802 1.74352 7.22363C1.6581 7.59214 1.61412 7.97895 1.61366 8.35719C1.60625 15.5287 1.60741 22.7003 1.6088 29.8718C1.60902 31.6524 2.84884 33.1438 4.59607 33.4623C4.83334 33.5056 5.07917 33.5177 5.32107 33.5181C8.21436 33.5218 11.1077 33.5207 14.0009 33.5207C14.0389 33.5207 14.0769 33.5207 14.1459 33.5207ZM8.76784 4.6808V4.83056C8.76784 11.3426 8.76714 17.8547 8.77085 24.3667C8.77085 24.5257 8.79631 24.6919 8.84654 24.8424C9.02431 25.3734 9.50788 25.6959 10.1058 25.6961C12.0618 25.697 14.0176 25.6966 15.9736 25.6966C20.4642 25.6966 24.9547 25.6973 29.4452 25.694C29.6126 25.694 29.7873 25.6785 29.9461 25.6299C30.495 25.4614 30.8373 24.9681 30.8373 24.3746C30.8373 17.8625 30.8373 11.3505 30.8373 4.83844V4.67107C30.8811 4.66806 30.904 4.66482 30.9269 4.66482C31.6637 4.66482 32.4008 4.65394 33.1373 4.67015C33.42 4.6764 33.7075 4.71783 33.9818 4.78658C35.4859 5.16344 36.7394 6.55835 36.7383 8.40488C36.7336 15.5535 36.7376 22.7021 36.7357 29.8508C36.7353 31.2267 35.6892 32.2607 34.3114 32.2607C30.6811 32.2607 27.051 32.2612 23.4206 32.2584C23.316 32.2584 23.2056 32.2373 23.1077 32.2005C22.3757 31.9251 21.6227 31.7339 20.8456 31.6484C19.3394 31.4829 17.8773 31.6693 16.4621 32.2158C16.3854 32.2454 16.2977 32.2591 16.2153 32.2591C12.5618 32.2612 8.90858 32.2612 5.2551 32.2598C5.13588 32.2598 5.01505 32.2542 4.89769 32.235C3.69167 32.0369 2.86898 31.0714 2.86875 29.847C2.86759 22.7024 2.86713 15.5574 2.87292 8.41275C2.87315 8.10326 2.9081 7.78682 2.97755 7.4852C3.32593 5.97084 4.63519 4.80487 6.18311 4.69029C7.03103 4.62756 7.88705 4.67293 8.73913 4.66968C8.74261 4.66968 8.74608 4.67223 8.7676 4.68056L8.76784 4.6808ZM29.5558 1.27709V24.4114H10.0493V1.27709H29.5558ZM12.085 38.7341C13.2671 34.7179 17.0058 32.4285 20.8139 32.9216C22.7584 33.1734 24.3922 34.0443 25.7188 35.4873C26.5785 36.4225 27.1447 37.5209 27.5174 38.7341H12.085Z" fill="url(#paint0_linear_65_1089)"/>
<path d="M19.6082 29.6485C23.9209 29.6485 28.2336 29.6485 32.5464 29.6485C33.6554 29.6485 34.5211 28.7892 34.5253 27.6781C34.529 26.6866 34.5267 25.6952 34.5258 24.704C34.5253 24.3195 34.2542 24.0362 33.892 24.0369C33.538 24.0376 33.2672 24.3186 33.2661 24.7003C33.2628 25.6802 33.2651 26.66 33.2649 27.6397C33.2649 28.0158 33.0573 28.2941 32.7165 28.3688C32.6533 28.3827 32.5864 28.3829 32.5211 28.3829C23.9112 28.3836 15.3012 28.3836 6.69123 28.3834C6.44516 28.3834 6.34122 28.2799 6.34099 28.0306C6.3403 26.9313 6.34007 25.8318 6.34169 24.7325C6.34192 24.5526 6.30488 24.3887 6.18173 24.251C6.00812 24.057 5.73914 23.9876 5.49585 24.0755C5.25372 24.163 5.08196 24.3896 5.0815 24.6487C5.07896 25.8253 5.07016 27.0019 5.08497 28.1783C5.09516 28.9915 5.80998 29.6485 6.64725 29.6485C10.3581 29.6485 14.069 29.6485 17.7801 29.6485C18.3896 29.6485 18.9991 29.6485 19.6086 29.6485H19.6082Z" fill="url(#paint1_linear_65_1089)"/>
<path d="M22.7589 8.91761C22.6072 8.60464 22.4646 8.31066 22.3223 8.01668C21.6133 6.55348 20.9033 5.09098 20.1964 3.62663C20.0635 3.35139 19.857 3.21389 19.5477 3.21436C17.2024 3.21667 14.8568 3.21551 12.5114 3.21575C12.1572 3.21575 11.9068 3.42014 11.8484 3.75302C11.788 4.09607 12.0593 4.44468 12.4075 4.47015C12.4575 4.47385 12.5077 4.47292 12.5579 4.47292C14.7299 4.47292 16.9017 4.47362 19.0737 4.47038C19.1748 4.47038 19.2209 4.50441 19.2635 4.59237C20.2369 6.60811 21.214 8.62224 22.1887 10.6373C22.3123 10.8926 22.5003 11.0489 22.7915 11.0445C23.0869 11.0401 23.2725 10.8783 23.3903 10.6137C24.0119 9.21622 24.6383 7.82085 25.2584 6.42293C25.3031 6.32223 25.3561 6.29168 25.463 6.29283C26.007 6.29839 26.5508 6.29561 27.0948 6.29538C27.4737 6.29538 27.7579 6.03219 27.7644 5.67617C27.7709 5.31922 27.4978 5.0433 27.1167 5.03427C26.8276 5.02732 26.538 5.03288 26.2487 5.03288C25.8281 5.03288 25.4077 5.03658 24.9873 5.03149C24.6568 5.02755 24.4346 5.17061 24.2998 5.47524C23.8089 6.58497 23.3114 7.69191 22.8163 8.79978C22.8012 8.83358 22.7841 8.86645 22.7593 8.91738L22.7589 8.91761Z" fill="url(#paint2_linear_65_1089)"/>
<path d="M19.8088 14.002C21.9306 14.002 24.0524 14.0015 26.1741 14.0027C26.4343 14.0027 26.6415 13.9083 26.772 13.6789C27.0068 13.2659 26.726 12.7701 26.2424 12.739C26.1848 12.7353 26.1267 12.7377 26.0688 12.7377C21.86 12.7377 17.6514 12.7377 13.4426 12.7377C13.0808 12.7377 12.8188 12.9383 12.763 13.2566C12.6949 13.646 12.9783 13.9916 13.3743 14.002C13.4206 14.0032 13.4669 14.0025 13.5132 14.0025C15.6118 14.0025 17.7105 14.0025 19.8091 14.0025L19.8088 14.002Z" fill="url(#paint3_linear_65_1089)"/>
<path d="M19.8148 16.8725C21.9327 16.8725 24.0505 16.8725 26.1683 16.8725C26.5128 16.8725 26.7706 16.6825 26.838 16.3822C26.9262 15.9892 26.6436 15.6253 26.2364 15.6086C26.1901 15.6068 26.1438 15.6082 26.0975 15.6082C21.8773 15.6082 17.6572 15.6082 13.437 15.6082C13.0859 15.6082 12.825 15.8033 12.7655 16.1084C12.6896 16.498 12.9593 16.8461 13.3574 16.8714C13.3998 16.8741 13.4421 16.8728 13.4847 16.8728C15.5949 16.8728 17.7049 16.8728 19.8151 16.8728L19.8148 16.8725Z" fill="url(#paint4_linear_65_1089)"/>
<path d="M19.7906 21.3452C17.6728 21.3452 15.555 21.3457 13.4372 21.3448C13.2117 21.3448 13.0179 21.4131 12.8809 21.5973C12.73 21.8001 12.7066 22.0237 12.8154 22.2517C12.9249 22.4811 13.1179 22.5929 13.3686 22.6098C13.3955 22.6117 13.4226 22.6103 13.4497 22.6103C17.6853 22.6103 21.921 22.6103 26.1569 22.6103C26.5122 22.6103 26.7705 22.4246 26.8381 22.1209C26.9258 21.7277 26.6444 21.3645 26.2369 21.3459C26.1869 21.3436 26.1367 21.345 26.0865 21.345C23.9879 21.345 21.8892 21.345 19.7909 21.345L19.7906 21.3452Z" fill="url(#paint5_linear_65_1089)"/>
<path d="M23.2999 18.4767C22.3355 18.4767 21.3712 18.4751 20.4071 18.4771C19.9587 18.4781 19.6548 18.8788 19.7814 19.2947C19.8626 19.5621 20.105 19.738 20.4036 19.741C20.6698 19.7438 20.9358 19.7417 21.202 19.7417C22.8605 19.7417 24.5191 19.742 26.1777 19.7415C26.5323 19.7415 26.792 19.5315 26.8439 19.2079C26.9068 18.8151 26.6147 18.4783 26.2043 18.4774C25.2362 18.4755 24.268 18.4767 23.2999 18.4767Z" fill="url(#paint6_linear_65_1089)"/>
<path d="M17.8852 8.5911C17.8852 8.52813 17.8852 8.48253 17.8852 8.43716C17.8852 7.74295 17.8875 7.04896 17.8833 6.35475C17.8819 6.09526 17.753 5.90475 17.5194 5.79688C17.2903 5.69109 17.0669 5.71956 16.8669 5.87465C16.7155 5.99178 16.6305 6.15058 16.6301 6.34317C16.628 7.311 16.6266 8.27906 16.6303 9.24688C16.6317 9.58554 16.9111 9.85267 17.2606 9.85499C17.8004 9.85869 18.3405 9.85846 18.8803 9.85499C19.2412 9.85267 19.519 9.57975 19.5236 9.23207C19.5282 8.88091 19.2511 8.59897 18.8852 8.59202C18.6 8.58647 18.3146 8.59086 18.0292 8.59086C17.987 8.59086 17.9451 8.59086 17.8852 8.59086V8.5911Z" fill="url(#paint7_linear_65_1089)"/>
<path d="M13.6237 6.99529C13.6786 6.99529 13.7198 6.99529 13.7612 6.99529C14.058 6.99529 14.355 6.9983 14.6515 6.99413C14.9906 6.9895 15.2633 6.70617 15.2622 6.36612C15.2612 6.03209 14.9934 5.74529 14.6596 5.74112C14.0932 5.73441 13.5263 5.73441 12.9598 5.74112C12.6385 5.74505 12.3714 6.01404 12.3696 6.33695C12.3645 7.30825 12.3645 8.27955 12.3691 9.25085C12.3707 9.59089 12.6642 9.86219 13.0017 9.85594C13.3432 9.84946 13.6207 9.57793 13.6226 9.23673C13.626 8.53904 13.6237 7.84135 13.6237 7.14367C13.6237 7.09876 13.6237 7.05362 13.6237 6.99483V6.99529Z" fill="url(#paint8_linear_65_1089)"/>
<path d="M15.0431 18.4767C14.4919 18.4767 13.9405 18.4748 13.3893 18.4776C13.0595 18.4792 12.8081 18.7008 12.7588 19.0237C12.7132 19.3225 12.8935 19.6128 13.1873 19.7063C13.2488 19.726 13.3153 19.7401 13.3796 19.7401C14.4898 19.7422 15.6 19.7433 16.7102 19.7406C16.991 19.7399 17.2169 19.5767 17.3086 19.3281C17.4002 19.079 17.3324 18.8098 17.1322 18.6339C17.0044 18.5218 16.8532 18.4762 16.6852 18.4762C16.1377 18.4769 15.5905 18.4764 15.0431 18.4767Z" fill="url(#paint9_linear_65_1089)"/>
<defs>
<linearGradient id="paint0_linear_65_1089" x1="1.5" y1="-0.499996" x2="32.5" y2="41.5" gradientUnits="userSpaceOnUse">
<stop stop-color="#90C43F"/>
<stop offset="1" stop-color="#0F84CF"/>
</linearGradient>
<linearGradient id="paint1_linear_65_1089" x1="4.98937" y1="23.9667" x2="6.13526" y2="32.9222" gradientUnits="userSpaceOnUse">
<stop stop-color="#90C43F"/>
<stop offset="1" stop-color="#0F84CF"/>
</linearGradient>
<linearGradient id="paint2_linear_65_1089" x1="11.7928" y1="3.11648" x2="15.5742" y2="14.5687" gradientUnits="userSpaceOnUse">
<stop stop-color="#90C43F"/>
<stop offset="1" stop-color="#0F84CF"/>
</linearGradient>
<linearGradient id="paint3_linear_65_1089" x1="12.7111" y1="12.7211" x2="12.8344" y2="14.7668" gradientUnits="userSpaceOnUse">
<stop stop-color="#90C43F"/>
<stop offset="1" stop-color="#0F84CF"/>
</linearGradient>
<linearGradient id="paint4_linear_65_1089" x1="12.7109" y1="15.5918" x2="12.8342" y2="17.637" gradientUnits="userSpaceOnUse">
<stop stop-color="#90C43F"/>
<stop offset="1" stop-color="#0F84CF"/>
</linearGradient>
<linearGradient id="paint5_linear_65_1089" x1="12.7061" y1="21.3288" x2="12.8295" y2="23.3751" gradientUnits="userSpaceOnUse">
<stop stop-color="#90C43F"/>
<stop offset="1" stop-color="#0F84CF"/>
</linearGradient>
<linearGradient id="paint6_linear_65_1089" x1="19.7314" y1="18.4602" x2="19.974" y2="20.4853" gradientUnits="userSpaceOnUse">
<stop stop-color="#90C43F"/>
<stop offset="1" stop-color="#0F84CF"/>
</linearGradient>
<linearGradient id="paint7_linear_65_1089" x1="16.6194" y1="5.68234" x2="19.9605" y2="9.176" gradientUnits="userSpaceOnUse">
<stop stop-color="#90C43F"/>
<stop offset="1" stop-color="#0F84CF"/>
</linearGradient>
<linearGradient id="paint8_linear_65_1089" x1="12.3571" y1="5.68458" x2="15.6949" y2="9.17905" gradientUnits="userSpaceOnUse">
<stop stop-color="#90C43F"/>
<stop offset="1" stop-color="#0F84CF"/>
</linearGradient>
<linearGradient id="paint9_linear_65_1089" x1="12.7382" y1="18.4602" x2="13.1054" y2="20.446" gradientUnits="userSpaceOnUse">
<stop stop-color="#90C43F"/>
<stop offset="1" stop-color="#0F84CF"/>
</linearGradient>
</defs>
</svg>
