<svg width="381" height="257" viewBox="0 0 381 257" fill="none" xmlns="http://www.w3.org/2000/svg">
<mask id="mask0_65_463" style="mask-type:alpha" maskUnits="userSpaceOnUse" x="0" y="0" width="381" height="257">
<rect x="0.5" y="0.484497" width="380.005" height="255.821" fill="#D9D9D9"/>
</mask>
<g mask="url(#mask0_65_463)">
<path d="M377.739 124.118L377.739 124.118C379.184 124.1 380.275 122.958 380.234 121.495L380.234 121.495C380.195 120.089 379.079 119.021 377.675 119.045M377.739 124.118L375.152 121.562C375.166 120.179 376.275 119.07 377.675 119.045M377.739 124.118C376.313 124.137 375.138 122.97 375.152 121.562L377.739 124.118ZM377.675 119.045L377.671 118.795L377.675 119.045Z" fill="#B9BDC6" stroke="#F6F7FB" stroke-width="0.5"/>
<path d="M78.2251 176.704C76.7942 176.716 75.6494 175.572 75.6596 174.137L78.1776 171.63C79.5982 171.608 80.76 172.766 80.7457 174.191C80.7315 175.566 79.6041 176.691 78.2251 176.704ZM75.6596 174.137C75.6697 172.755 76.7711 171.653 78.1775 171.63L75.6596 174.137Z" fill="#B9BDC6" stroke="#F6F7FB" stroke-width="0.5"/>
<path d="M377.735 255.632L377.735 255.633C376.392 255.66 375.209 254.535 375.154 253.164C375.1 251.768 376.242 250.575 377.675 250.552L377.675 250.552C379.078 250.53 380.199 251.607 380.23 253.001C380.26 254.477 379.192 255.602 377.735 255.632Z" fill="#B9BDC6" stroke="#F6F7FB" stroke-width="0.5"/>
<path d="M80.7458 68.9811L80.745 68.8731C80.6795 67.532 79.5828 66.4708 78.2419 66.4649L80.7458 68.9811ZM80.7458 68.9811C80.756 70.359 79.6463 71.506 78.2724 71.5405L78.2722 71.5405M80.7458 68.9811L78.2722 71.5405M78.2722 71.5405C76.8608 71.5771 75.6633 70.418 75.6551 69.0135L78.2722 71.5405ZM75.6551 69.0135C75.647 67.5884 76.7843 66.4588 78.2418 66.4649L75.6551 69.0135Z" fill="#B9BDC6" stroke="#F6F7FB" stroke-width="0.5"/>
<path d="M277.846 223.961C279.405 223.941 280.695 225.22 280.679 226.774M277.846 223.961C276.317 223.981 275.088 225.202 275.071 226.718M277.846 223.961L277.849 224.211M277.846 223.961L277.849 224.211M280.679 226.774L277.849 224.211C279.269 224.193 280.443 225.359 280.429 226.772L280.429 226.772C280.417 228.125 279.247 229.287 277.898 229.295V229.295M280.679 226.774C280.666 228.263 279.387 229.535 277.902 229.545L280.679 226.774ZM275.071 226.718C275.053 228.267 276.338 229.55 277.899 229.545L277.898 229.295M275.071 226.718L275.321 226.721M275.071 226.718L275.321 226.721M277.898 229.295C276.475 229.3 275.304 228.128 275.321 226.721M277.898 229.295L275.321 226.721M275.321 226.721L275.321 226.721M275.321 226.721C275.337 225.343 276.455 224.229 277.849 224.211M275.321 226.721L277.849 224.211" fill="#B9BDC6" stroke="#F6F7FB" stroke-width="0.5"/>
<path d="M177.969 250.55L177.969 250.55C179.426 250.528 180.573 251.632 180.593 253.07C180.611 254.433 179.481 255.605 178.111 255.639L178.11 255.639C176.692 255.676 175.51 254.525 175.502 253.099L175.502 253.099C175.494 251.688 176.582 250.57 177.969 250.55Z" fill="#B9BDC6" stroke="#F6F7FB" stroke-width="0.5"/>
<path d="M177.97 229.295C176.617 229.256 175.541 228.173 175.497 226.832L175.498 226.727C175.51 225.283 176.651 224.181 178.108 224.215C179.497 224.25 180.603 225.387 180.588 226.765L180.588 226.765C180.574 228.187 179.384 229.336 177.97 229.295Z" fill="#B9BDC6" stroke="#F6F7FB" stroke-width="0.5"/>
<path d="M78.237 45.2054C76.8455 45.2133 75.7023 44.1065 75.6565 42.7447L75.6574 42.6418C75.6696 41.2034 76.8054 40.1077 78.2742 40.1343L78.2743 40.1343C79.6582 40.1586 80.758 41.2892 80.7458 42.6799C80.7336 44.0703 79.6089 45.1973 78.237 45.2054Z" fill="#B9BDC6" stroke="#F6F7FB" stroke-width="0.5"/>
<path d="M180.597 121.621L180.597 121.621C180.62 120.213 179.459 119.044 178.03 119.048M180.597 121.621L175.502 121.54C175.519 120.146 176.626 119.052 178.03 119.048M180.597 121.621C180.577 122.977 179.415 124.121 178.052 124.123L177.939 124.123M180.597 121.621L177.939 124.123M178.03 119.048L178.03 118.798M178.03 119.048L178.03 118.798M178.03 118.798C176.49 118.802 175.27 120.006 175.252 121.537L180.847 121.624C180.872 120.075 179.596 118.793 178.03 118.798ZM177.939 124.123C176.562 124.069 175.486 122.943 175.502 121.54L177.939 124.123Z" fill="#B9BDC6" stroke="#F6F7FB" stroke-width="0.5"/>
<path d="M275.339 121.518L275.339 121.518C275.367 120.122 276.476 119.043 277.886 119.045C279.306 119.047 280.466 120.237 280.427 121.642C280.388 123.02 279.242 124.132 277.865 124.127C276.44 124.121 275.308 122.956 275.339 121.518Z" fill="#B9BDC6" stroke="#F6F7FB" stroke-width="0.5"/>
<path d="M277.88 255.637C276.535 255.635 275.417 254.563 275.35 253.244L275.349 253.141C275.337 251.683 276.445 250.557 277.884 250.553L277.884 250.553C279.272 250.548 280.375 251.628 280.413 253.038C280.452 254.444 279.287 255.639 277.88 255.637ZM277.88 255.637L277.879 255.887L277.88 255.637Z" fill="#B9BDC6" stroke="#F6F7FB" stroke-width="0.5"/>
<path d="M180.836 42.6107C180.865 44.1648 179.589 45.4643 178.034 45.4621L175.252 42.7089C175.228 41.1213 176.455 39.8821 178.045 39.8821C179.587 39.8821 180.807 41.0767 180.836 42.6107ZM180.586 42.6154C180.613 44.0296 179.45 45.2141 178.035 45.2121H178.034C176.666 45.2121 175.523 44.0814 175.502 42.7052L175.502 42.7051C175.48 41.258 176.593 40.1321 178.045 40.1321C179.452 40.1321 180.56 41.2183 180.586 42.6154L180.586 42.6154Z" fill="#B9BDC6" stroke="#F6F7FB" stroke-width="0.5"/>
<path d="M80.75 121.6L80.75 121.6C80.7642 120.183 79.6086 119.031 78.1708 119.041L80.75 121.6ZM80.75 121.6C80.7378 122.975 79.6081 124.105 78.2305 124.123C76.8158 124.139 75.6486 122.98 75.6527 121.556M80.75 121.6L75.6527 121.556M75.6527 121.556C75.6567 120.189 76.7939 119.051 78.1707 119.041L75.4027 121.555L75.6527 121.556Z" fill="#B9BDC6" stroke="#F6F7FB" stroke-width="0.5"/>
<path d="M377.65 229.295L377.65 229.295C379.043 229.329 380.184 228.249 380.243 226.86L380.243 226.86L380.243 226.755C380.249 225.364 379.149 224.237 377.767 224.211L377.65 229.295ZM377.65 229.295C376.296 229.265 375.134 228.073 375.146 226.741L375.146 226.741M377.65 229.295L375.146 226.741M375.146 226.741C375.158 225.332 376.344 224.184 377.767 224.211L375.146 226.741Z" fill="#B9BDC6" stroke="#F6F7FB" stroke-width="0.5"/>
<path d="M277.91 176.706L278.018 176.705C279.393 176.632 280.468 175.473 280.423 174.084L280.423 174.083C280.378 172.701 279.238 171.616 277.842 171.63C276.444 171.645 275.335 172.756 275.327 174.144L277.91 176.706ZM277.91 176.706C276.483 176.722 275.319 175.567 275.327 174.144L277.91 176.706Z" fill="#B9BDC6" stroke="#F6F7FB" stroke-width="0.5"/>
<path d="M78.2139 229.282C79.6202 229.27 80.7356 228.156 80.7458 226.759C80.7559 225.352 79.667 224.243 78.2531 224.224L78.2139 229.282ZM78.2139 229.282C76.8068 229.294 75.6359 228.099 75.6684 226.671L78.2139 229.282ZM75.6685 226.671C75.701 225.273 76.8177 224.206 78.2531 224.224L75.6685 226.671Z" fill="#B9BDC6" stroke="#F6F7FB" stroke-width="0.5"/>
<path d="M377.718 71.7927C379.219 71.7736 380.401 70.6405 380.496 69.1845H380.254L380.252 69.053M377.718 71.7927L377.588 66.2059C379.177 66.1546 380.471 67.367 380.5 68.9345H380.502M377.718 71.7927C376.236 71.8128 374.938 70.5534 374.896 69.0596L377.718 71.7927ZM380.252 69.053C380.253 69.0154 380.253 68.9775 380.252 68.9395L380.5 68.9346L380.502 68.9345M380.252 69.053C380.221 70.4338 379.125 71.5248 377.715 71.5427L377.714 71.5427C376.372 71.5609 375.184 70.4122 375.146 69.0525L375.146 69.0524C375.107 67.7059 376.247 66.4984 377.596 66.4558L377.596 66.4558C379.049 66.4088 380.223 67.5144 380.25 68.9392L380.252 69.053ZM380.502 68.9345V69.0519C380.503 69.013 380.503 68.9738 380.502 68.9345Z" fill="#B9BDC6" stroke="#F6F7FB" stroke-width="0.5"/>
<path d="M278.006 40.1395L277.898 40.1387C276.431 40.1285 275.317 41.2383 275.327 42.6869L278.006 40.1395ZM278.006 40.1395C279.354 40.2039 280.403 41.2775 280.425 42.639M278.006 40.1395L280.425 42.639M280.425 42.639C280.445 44.0389 279.252 45.2321 277.852 45.2098C276.462 45.1874 275.337 44.0587 275.327 42.687L280.425 42.639Z" fill="#B9BDC6" stroke="#F6F7FB" stroke-width="0.5"/>
<path d="M377.841 171.625L377.731 171.624C376.308 171.611 375.119 172.797 375.143 174.189L377.841 171.625ZM377.841 171.625C379.224 171.693 380.265 172.815 380.232 174.239M377.841 171.625L380.232 174.239M380.232 174.239C380.197 175.656 379.107 176.712 377.683 176.704C376.322 176.695 375.167 175.552 375.143 174.189L380.232 174.239Z" fill="#B9BDC6" stroke="#F6F7FB" stroke-width="0.5"/>
<path d="M75.6527 253.09L75.6527 253.09C75.6466 254.442 76.7814 255.598 78.1613 255.63C79.5632 255.663 80.7537 254.489 80.7456 253.075L80.7456 253.075C80.7395 251.675 79.6496 250.575 78.2452 250.55L75.6527 253.09ZM75.6527 253.09C75.6588 251.64 76.7979 250.526 78.245 250.55L75.6527 253.09Z" fill="#B9BDC6" stroke="#F6F7FB" stroke-width="0.5"/>
<path d="M375.159 42.7394C375.131 41.3533 376.194 40.2131 377.576 40.1276L377.689 40.1252C379.037 40.0969 380.204 41.2221 380.236 42.5897L380.236 42.5898C380.271 44.0312 379.181 45.1713 377.726 45.2121L377.726 45.2121C376.418 45.2504 375.187 44.0683 375.159 42.7394ZM380.736 42.5778C380.699 41.0263 379.45 39.7341 377.934 39.6313L380.736 42.5778ZM377.74 45.7119C379.467 45.6634 380.777 44.2982 380.736 42.5779L377.74 45.7119Z" fill="#B9BDC6" stroke="#F6F7FB" stroke-width="0.5"/>
<path d="M177.952 171.625L177.952 171.624C176.603 171.659 175.534 172.726 175.502 174.09L177.952 171.625ZM177.952 171.625L178.054 171.626M177.952 171.625L178.054 171.626M178.054 171.626C179.476 171.642 180.628 172.828 180.593 174.234L180.593 174.235M178.054 171.626L180.593 174.235M180.593 174.235C180.561 175.6 179.394 176.722 178.024 176.706L178.024 176.706M180.593 174.235L178.024 176.706M178.024 176.706C176.595 176.69 175.47 175.521 175.502 174.09L178.024 176.706ZM180.843 174.241C180.881 172.693 179.616 171.394 178.057 171.376L180.843 174.241ZM180.843 174.241C180.807 175.743 179.527 176.974 178.021 176.956L180.843 174.241Z" fill="#B9BDC6" stroke="#F6F7FB" stroke-width="0.5"/>
<path d="M275.334 69.0864L275.334 68.9843C275.338 67.5771 276.431 66.4747 277.825 66.4625L275.334 69.0864ZM275.334 69.0864C275.387 70.4696 276.53 71.5686 277.911 71.5448C279.294 71.5204 280.409 70.3914 280.413 69.0096C280.417 67.5835 279.271 66.4503 277.825 66.4625L275.334 69.0864Z" fill="#B9BDC6" stroke="#F6F7FB" stroke-width="0.5"/>
<path d="M177.962 66.4736L177.962 66.4736C179.393 66.4369 180.583 67.5768 180.593 68.9761C180.601 70.3465 179.49 71.4978 178.107 71.5427C176.689 71.5874 175.51 70.4526 175.493 69.0166C175.479 67.6203 176.554 66.5083 177.962 66.4736Z" fill="#B9BDC6" stroke="#F6F7FB" stroke-width="0.5"/>
<path d="M153.045 132.253C154.427 132.247 155.512 133.282 155.573 134.63L155.574 134.737C155.58 136.116 154.446 137.267 153.068 137.282C151.714 137.294 150.54 136.134 150.528 134.763M153.045 132.253L153.044 132.003L153.045 132.253ZM153.045 132.253C151.634 132.259 150.516 133.382 150.528 134.763M150.528 134.763L150.278 134.765L150.528 134.763Z" fill="#B9BDC6" stroke="#F6F7FB" stroke-width="0.5"/>
<path d="M252.847 211.072L252.847 211.072C251.442 211.088 250.368 212.198 250.386 213.624L252.847 211.072ZM252.847 211.072C254.267 211.054 255.385 212.136 255.407 213.537L255.407 213.537M252.847 211.072L255.407 213.537M255.407 213.537C255.43 214.926 254.303 216.091 252.936 216.105L255.407 213.537ZM250.386 213.624L250.136 213.627L250.386 213.624ZM250.386 213.624C250.404 215.015 251.538 216.12 252.936 216.105L250.386 213.624Z" fill="#B9BDC6" stroke="#F6F7FB" stroke-width="0.5"/>
<path d="M0.822637 108.414L0.822637 108.414C0.832806 107.018 1.94985 105.909 3.35045 105.907C4.75005 105.905 5.86778 107.023 5.85967 108.415C5.85152 109.8 4.7077 110.942 3.34376 110.94C1.97265 110.938 0.812509 109.772 0.822637 108.414Z" fill="#B9BDC6" stroke="#F6F7FB" stroke-width="0.5"/>
<path d="M5.85578 213.749C5.77831 215.059 4.63571 216.13 3.30913 216.11C1.95031 216.09 0.82031 214.939 0.818176 213.564C0.81828 212.149 1.98241 211.032 3.43209 211.074L3.43217 211.074C4.82118 211.115 5.87991 212.232 5.85746 213.643L5.85578 213.749Z" fill="#B9BDC6" stroke="#F6F7FB" stroke-width="0.5"/>
<path d="M250.384 108.426C250.374 107.018 251.457 105.921 252.88 105.909L252.88 105.909C254.288 105.897 255.397 106.989 255.405 108.398V108.398C255.413 109.781 254.29 110.926 252.904 110.942L252.904 110.942C251.538 110.958 250.394 109.825 250.384 108.426ZM250.384 108.426L250.134 108.428M250.384 108.426L250.134 108.428M250.134 108.428C250.145 109.962 251.399 111.21 252.907 111.192L255.655 108.396C255.646 106.849 254.424 105.646 252.878 105.659C251.318 105.672 250.123 106.88 250.134 108.428Z" fill="#B9BDC6" stroke="#F6F7FB" stroke-width="0.5"/>
<path d="M155.571 108.398V108.398C155.563 106.995 154.468 105.907 153.071 105.907C151.662 105.909 150.544 107.002 150.528 108.375L155.571 108.398ZM155.571 108.398C155.579 109.768 154.445 110.93 153.097 110.942M155.571 108.398L153.097 110.942M153.097 110.942C151.686 110.954 150.511 109.779 150.528 108.375L153.097 110.942Z" fill="#B9BDC6" stroke="#F6F7FB" stroke-width="0.5"/>
<path d="M103.18 105.911L103.18 105.911C104.589 105.897 105.672 106.971 105.685 108.408L105.685 108.408C105.697 109.788 104.564 110.936 103.185 110.94C101.82 110.944 100.674 109.797 100.672 108.412C100.672 106.996 101.739 105.926 103.18 105.911Z" fill="#B9BDC6" stroke="#F6F7FB" stroke-width="0.5"/>
<path d="M103.225 211.077C104.621 211.087 105.711 212.208 105.687 213.618C105.663 214.997 104.49 216.138 103.145 216.11L103.145 216.11C101.758 216.082 100.66 214.944 100.672 213.537M103.225 211.077L103.227 210.827M103.225 211.077L103.227 210.827M103.225 211.077C101.801 211.067 100.684 212.152 100.672 213.537M103.227 210.827C104.764 210.838 105.964 212.075 105.937 213.622M103.227 210.827L105.937 213.622M100.672 213.537L100.422 213.535L100.672 213.537ZM105.937 213.622C105.91 215.136 104.628 216.391 103.139 216.36L105.937 213.622Z" fill="#B9BDC6" stroke="#F6F7FB" stroke-width="0.5"/>
<path d="M53.2119 237.414H53.2123C54.6495 237.414 55.7116 238.472 55.7219 239.912C55.7299 241.291 54.5909 242.448 53.2227 242.452H53.2227C51.8688 242.456 50.685 241.273 50.6871 239.918L50.6871 239.917C50.6891 238.518 51.8004 237.412 53.2119 237.414Z" fill="#B9BDC6" stroke="#F6F7FB" stroke-width="0.5"/>
<path d="M305.343 213.549L305.343 213.549C305.327 212.114 304.263 211.071 302.82 211.079L305.343 213.549ZM305.343 213.549C305.36 214.964 304.281 216.083 302.883 216.11L302.883 216.11M305.343 213.549L302.883 216.11M302.883 216.11C301.543 216.136 300.355 214.979 300.329 213.609L302.883 216.11ZM300.329 213.609C300.302 212.225 301.42 211.087 302.82 211.079L300.329 213.609Z" fill="#B9BDC6" stroke="#F6F7FB" stroke-width="0.5"/>
<path d="M250.379 239.941L250.379 239.839L250.378 239.838C250.422 238.469 251.486 237.428 252.873 237.418C254.304 237.408 255.407 238.496 255.403 239.894C255.399 241.3 254.276 242.439 252.912 242.449C251.533 242.459 250.385 241.321 250.379 239.941Z" fill="#B9BDC6" stroke="#F6F7FB" stroke-width="0.5"/>
<path d="M153.097 216.108L153.097 216.108C151.748 216.134 150.552 214.986 150.53 213.647L150.53 213.647C150.506 212.251 151.576 211.123 152.968 211.074C154.417 211.026 155.564 212.121 155.576 213.562L155.576 213.562C155.588 214.93 154.469 216.081 153.097 216.108Z" fill="#B9BDC6" stroke="#F6F7FB" stroke-width="0.5"/>
<path d="M155.569 3.21182L155.569 3.21143C155.555 1.84521 154.484 0.768666 153.127 0.735295L153.126 0.735625L153.025 0.736956C151.628 0.755271 150.509 1.89455 150.525 3.27513L155.569 3.21182ZM155.569 3.21182C155.585 4.6016 154.477 5.74375 153.086 5.77017L153.086 5.77017M155.569 3.21182L153.086 5.77017M153.086 5.77017C151.736 5.79647 150.542 4.6337 150.525 3.27517L153.086 5.77017Z" fill="#B9BDC6" stroke="#F6F7FB" stroke-width="0.5"/>
<path d="M50.6758 134.752V134.752C50.6779 133.361 51.7972 132.248 53.2102 132.246C54.6395 132.246 55.72 133.321 55.724 134.744C55.7259 136.136 54.5835 137.288 53.2223 137.282C51.8625 137.276 50.6738 136.09 50.6758 134.752Z" fill="#B9BDC6" stroke="#F6F7FB" stroke-width="0.5"/>
<path d="M252.936 0.743695C254.351 0.768149 255.444 1.89986 255.403 3.28425L255.403 3.28433C255.362 4.69494 254.22 5.79876 252.849 5.77246H252.849C251.471 5.74609 250.361 4.5927 250.379 3.20108L250.38 3.20108V3.19778V3.1974C250.401 1.79328 251.516 0.719258 252.936 0.743695ZM252.936 0.743695L252.94 0.493732L252.936 0.743695Z" fill="#B9BDC6" stroke="#F6F7FB" stroke-width="0.5"/>
<path d="M103.229 0.491483C104.759 0.498182 105.959 1.73298 105.941 3.28708L103.137 6.02686C101.624 6.00007 100.4 4.72954 100.418 3.20223C100.436 1.66599 101.66 0.484785 103.227 0.491483H103.229ZM103.229 0.491483L103.228 0.741481C103.228 0.741482 103.228 0.741483 103.228 0.741483M103.229 0.491483V0.741483H103.228M103.228 0.741483C104.617 0.747844 105.708 1.86577 105.691 3.28421L105.691 3.28449C105.677 4.6542 104.503 5.8012 103.142 5.7769L103.142 5.7769C101.768 5.75258 100.651 4.59693 100.668 3.20516L100.668 3.20514C100.684 1.81086 101.792 0.73535 103.225 0.741481V0.741483H103.227H103.228Z" fill="#B9BDC6" stroke="#F6F7FB" stroke-width="0.5"/>
<path d="M53.242 0.743686C51.8279 0.736689 50.713 1.82068 50.6824 3.22315L53.242 0.743686ZM53.242 0.743686V0.743698C54.6556 0.751828 55.7343 1.84823 55.7262 3.26997M53.242 0.743686L55.7262 3.26997M55.7262 3.26997C55.7181 4.65756 54.5746 5.78657 53.1947 5.7724C51.8308 5.75818 50.6542 4.55646 50.6824 3.22329L55.7262 3.26997Z" fill="#B9BDC6" stroke="#F6F7FB" stroke-width="0.5"/>
<path d="M3.31449 0.739198L3.31484 0.739194C4.72145 0.72292 5.84143 1.81442 5.86176 3.21476C5.87987 4.60186 4.76334 5.74985 3.37755 5.77015L3.37752 5.77015C2.00567 5.79043 0.838512 4.65542 0.820229 3.27703C0.801958 1.88942 1.91643 0.753433 3.31449 0.739198Z" fill="#B9BDC6" stroke="#F6F7FB" stroke-width="0.5"/>
<path d="M230.455 253.035L230.455 253.035C230.479 254.418 229.356 255.6 228.005 255.63L228.004 255.63C226.686 255.66 225.452 254.462 225.436 253.131L225.436 253.13C225.417 251.742 226.54 250.574 227.903 250.548L227.903 250.548C229.264 250.522 230.433 251.655 230.455 253.035Z" fill="#B9BDC6" stroke="#F6F7FB" stroke-width="0.5"/>
<path d="M53.2554 211.081L53.3644 211.082C54.7055 211.144 55.7217 212.211 55.7217 213.593C55.7217 214.981 54.5997 216.113 53.2337 216.117C51.888 216.119 50.705 214.959 50.6847 213.623C50.6644 212.209 51.8046 211.073 53.2554 211.081Z" fill="#B9BDC6" stroke="#F6F7FB" stroke-width="0.5"/>
<path d="M105.686 134.622L105.687 134.732C105.701 136.112 104.561 137.278 103.2 137.286L103.2 137.286C101.838 137.296 100.674 136.139 100.668 134.766L100.668 134.766C100.659 133.358 101.744 132.263 103.168 132.251L103.168 132.251C104.559 132.237 105.617 133.243 105.686 134.622Z" fill="#B9BDC6" stroke="#F6F7FB" stroke-width="0.5"/>
<path d="M3.35746 132.242C4.75294 132.238 5.87059 133.36 5.85963 134.752L5.85961 134.752C5.84737 136.145 4.70005 137.29 3.34034 137.282C1.97896 137.273 0.816697 136.098 0.82481 134.737L0.824811 134.737C0.832937 133.341 1.93945 132.244 3.35709 132.242L3.35746 132.242Z" fill="#B9BDC6" stroke="#F6F7FB" stroke-width="0.5"/>
<path d="M80.7457 200.508C80.7071 201.88 79.5329 202.989 78.1491 202.952L78.1491 202.952C76.7493 202.913 75.6165 201.739 75.6548 200.4L75.6548 200.4C75.6934 199.039 76.8942 197.907 78.2524 197.952L78.2526 197.952C79.6555 197.997 80.784 199.169 80.7457 200.508L80.7457 200.508Z" fill="#B9BDC6" stroke="#F6F7FB" stroke-width="0.5"/>
<path d="M55.7196 108.367L55.718 108.26C55.6428 106.895 54.5533 105.88 53.1757 105.911C51.7531 105.946 50.6564 107.076 50.6847 108.456L55.7196 108.367ZM55.7196 108.367C55.7399 109.76 54.6243 110.922 53.262 110.944M55.7196 108.367L53.262 110.944M53.262 110.944C51.9027 110.965 50.7131 109.815 50.6847 108.456L53.262 110.944Z" fill="#B9BDC6" stroke="#F6F7FB" stroke-width="0.5"/>
<path d="M103.158 242.452C101.808 242.448 100.662 241.274 100.67 239.89L100.67 239.89C100.678 238.49 101.785 237.408 103.209 237.418C104.63 237.429 105.695 238.51 105.689 239.941C105.683 241.314 104.533 242.456 103.158 242.452ZM103.158 242.452L103.157 242.702L103.158 242.452Z" fill="#B9BDC6" stroke="#F6F7FB" stroke-width="0.5"/>
<path d="M0.820993 240.047C0.884983 241.348 2.01272 242.438 3.35268 242.452L3.35275 242.452C4.6781 242.466 5.85411 241.297 5.86638 239.935L0.820993 240.047ZM0.820993 240.047L0.821013 240.047L0.820407 239.942C0.812266 238.539 1.88443 237.443 3.28986 237.416L0.820993 240.047ZM3.29 237.416C4.7408 237.39 5.8785 238.507 5.86638 239.935L3.29 237.416Z" fill="#B9BDC6" stroke="#F6F7FB" stroke-width="0.5"/>
<path d="M302.839 242.449H302.838C301.507 242.449 300.303 241.236 300.313 239.906L300.313 239.906C300.323 238.535 301.464 237.414 302.867 237.414C304.299 237.414 305.346 238.469 305.346 239.926C305.346 241.315 304.216 242.451 302.839 242.449Z" fill="#B9BDC6" stroke="#F6F7FB" stroke-width="0.5"/>
<path d="M327.85 224.213L327.851 224.213C329.22 224.253 330.349 225.452 330.301 226.805L330.301 226.806C330.252 228.197 329.075 229.325 327.732 229.291C326.392 229.256 325.232 228.028 325.277 226.689L325.277 226.688C325.322 225.292 326.496 224.172 327.85 224.213ZM327.858 223.963C329.364 224.008 330.604 225.321 330.55 226.814L327.858 223.963Z" fill="#B9BDC6" stroke="#F6F7FB" stroke-width="0.5"/>
<path d="M252.891 132.251C254.287 132.255 255.34 133.267 255.396 134.637L255.396 134.75C255.398 136.14 254.252 137.292 252.893 137.284H252.893C251.513 137.276 250.375 136.129 250.379 134.748L250.379 134.748C250.382 133.33 251.471 132.247 252.891 132.251L252.891 132.251Z" fill="#B9BDC6" stroke="#F6F7FB" stroke-width="0.5"/>
<path d="M330.307 253.052C330.313 254.427 329.156 255.623 327.824 255.637L327.824 255.637C326.485 255.653 325.306 254.489 325.284 253.109L325.284 253.109C325.262 251.732 326.388 250.57 327.763 250.55L327.763 250.55C329.116 250.53 330.301 251.697 330.307 253.052ZM330.307 253.052L330.557 253.051M330.307 253.052L330.557 253.051M330.557 253.051C330.564 254.558 329.301 255.871 327.827 255.887L327.76 250.3C329.252 250.278 330.551 251.557 330.557 253.051Z" fill="#B9BDC6" stroke="#F6F7FB" stroke-width="0.5"/>
<path d="M78.1545 13.8799L78.1544 13.8799C76.7449 13.9105 75.6286 15.0546 75.6528 16.4165L78.1545 13.8799ZM78.1545 13.8799C79.5517 13.8493 80.7233 14.9611 80.7435 16.3154L80.7451 16.4233M78.1545 13.8799L80.7451 16.4233M80.7451 16.4233C80.7081 17.7363 79.6035 18.8395 78.2519 18.8752C76.9045 18.9096 75.6771 17.7444 75.6528 16.4166L80.7451 16.4233Z" fill="#B9BDC6" stroke="#F6F7FB" stroke-width="0.5"/>
<path d="M180.597 200.462C180.586 201.786 179.491 202.893 178.141 202.953L178.034 202.954C176.652 202.958 175.49 201.802 175.502 200.451L175.502 200.451C175.515 199.067 176.669 197.934 178.042 197.952L178.043 197.952C179.43 197.968 180.61 199.143 180.597 200.462L180.597 200.462Z" fill="#B9BDC6" stroke="#F6F7FB" stroke-width="0.5"/>
<path d="M150.532 239.89L150.532 239.89C150.52 241.266 151.647 242.42 153.033 242.447C154.384 242.471 155.559 241.319 155.574 239.941L150.532 239.89ZM150.532 239.89C150.544 238.499 151.667 237.404 153.082 237.418L153.082 237.418M150.532 239.89L153.082 237.418M153.082 237.418C154.5 237.432 155.588 238.538 155.574 239.941L153.082 237.418Z" fill="#B9BDC6" stroke="#F6F7FB" stroke-width="0.5"/>
<path d="M330.311 121.588L330.311 121.69C330.248 123.009 329.085 124.137 327.791 124.121L327.791 124.121C326.425 124.105 325.281 122.944 325.279 121.571C325.279 120.197 326.445 119.031 327.796 119.041C329.148 119.051 330.318 120.236 330.311 121.588Z" fill="#B9BDC6" stroke="#F6F7FB" stroke-width="0.5"/>
<path d="M303.002 132.242L303.002 132.242C301.53 132.188 300.34 133.297 300.32 134.71L303.002 132.242ZM303.002 132.242C304.383 132.29 305.393 133.413 305.337 134.892C305.284 136.271 304.085 137.361 302.715 137.278M303.002 132.242L302.715 137.278M302.715 137.278C301.397 137.196 300.302 136.02 300.32 134.711L302.715 137.278Z" fill="#B9BDC6" stroke="#F6F7FB" stroke-width="0.5"/>
<path d="M78.1632 97.7814L78.1636 97.7814C79.552 97.8139 80.7305 96.6869 80.7433 95.3351V95.334V95.3318H80.7433C80.7555 93.9578 79.6193 92.8007 78.2475 92.7906C76.8427 92.7804 75.6746 93.8968 75.6503 95.2447L78.1632 97.7814ZM78.1632 97.7814C76.757 97.7507 75.6261 96.5966 75.6503 95.2447L78.1632 97.7814Z" fill="#B9BDC6" stroke="#F6F7FB" stroke-width="0.5"/>
<path d="M277.852 150.367L277.744 150.365C276.395 150.287 275.315 149.166 275.327 147.848L275.327 147.848C275.339 146.488 276.493 145.373 277.897 145.385L277.897 145.385C279.303 145.397 280.431 146.528 280.422 147.895C280.414 149.244 279.232 150.389 277.852 150.367Z" fill="#B9BDC6" stroke="#F6F7FB" stroke-width="0.5"/>
<path d="M275.327 200.42L275.327 200.42C275.356 199.057 276.529 197.934 277.908 197.961L277.908 197.961C279.305 197.985 280.463 199.167 280.423 200.483L280.423 200.483C280.382 201.857 279.212 202.976 277.843 202.956C276.469 202.936 275.299 201.745 275.327 200.42Z" fill="#B9BDC6" stroke="#F6F7FB" stroke-width="0.5"/>
<path d="M227.981 119.047L227.981 119.047C229.345 119.062 230.478 120.226 230.46 121.605L230.46 121.605C230.441 122.999 229.288 124.137 227.925 124.125C226.589 124.113 225.414 122.902 225.436 121.553L225.436 121.553C225.458 120.174 226.621 119.033 227.981 119.047Z" fill="#B9BDC6" stroke="#F6F7FB" stroke-width="0.5"/>
<path d="M380.233 200.581L380.234 200.472C380.248 199.101 379.106 197.949 377.729 197.949C376.342 197.949 375.148 199.114 375.148 200.433C375.148 201.776 376.311 202.937 377.691 202.951L380.233 200.581ZM380.233 200.581C380.163 201.924 379.06 202.965 377.691 202.951L380.233 200.581Z" fill="#B9BDC6" stroke="#F6F7FB" stroke-width="0.5"/>
<path d="M178.035 145.382L178.035 145.382C179.43 145.376 180.605 146.53 180.597 147.864C180.587 149.217 179.413 150.38 178.045 150.384C176.668 150.388 175.5 149.232 175.502 147.877L175.502 147.877C175.504 146.489 176.614 145.389 178.035 145.382Z" fill="#B9BDC6" stroke="#F6F7FB" stroke-width="0.5"/>
<path d="M175.505 95.2802L175.505 95.2802C175.515 93.8974 176.669 92.7665 178.043 92.7908L178.044 92.7908C179.445 92.8133 180.597 93.9614 180.597 95.3029C180.597 96.6496 179.434 97.7877 178.031 97.7816C176.623 97.7754 175.494 96.651 175.505 95.2802Z" fill="#B9BDC6" stroke="#F6F7FB" stroke-width="0.5"/>
<path d="M280.422 95.2817C280.44 96.5835 279.326 97.7288 277.99 97.786H277.886C276.49 97.786 275.331 96.6505 275.327 95.2977L275.327 95.2973C275.321 93.9296 276.444 92.812 277.868 92.7997L277.868 92.7997C279.262 92.7855 280.404 93.8976 280.422 95.2816L280.422 95.2817Z" fill="#B9BDC6" stroke="#F6F7FB" stroke-width="0.5"/>
<path d="M30.7626 68.9703L30.7617 68.8608C30.6943 67.5027 29.5994 66.4512 28.2556 66.465L30.7626 68.9703ZM30.7626 68.9703C30.7749 70.3859 29.6752 71.5264 28.3108 71.5406C26.9448 71.5547 25.8043 70.4259 25.7859 69.0229L25.7859 69.0229M30.7626 68.9703L25.7859 69.0229M25.7859 69.0229C25.7676 67.627 26.8815 66.4792 28.2556 66.465L25.7859 69.0229Z" fill="#B9BDC6" stroke="#F6F7FB" stroke-width="0.5"/>
<path d="M205.757 161.046C205.737 162.587 204.495 163.793 202.966 163.759C201.436 163.726 200.236 162.475 200.263 160.944C200.289 159.408 201.437 158.288 202.988 158.269H203.071L203.071 158.287L203.069 158.516C203.109 158.517 203.149 158.518 203.189 158.52M205.757 161.046C205.776 159.529 204.774 158.409 203.321 158.279V158.522L203.189 158.52M205.757 161.046L205.507 161.043C205.507 161.043 205.507 161.043 205.507 161.043M205.757 161.046L205.507 161.043M203.189 158.52L203.068 158.519C201.608 158.5 200.537 159.527 200.513 160.948L200.513 160.948C200.488 162.342 201.579 163.479 202.972 163.509L202.972 163.509C204.36 163.54 205.489 162.446 205.507 161.043M203.189 158.52C204.57 158.591 205.525 159.617 205.507 161.043" fill="#B9BDC6" stroke="#F6F7FB" stroke-width="0.5"/>
<path d="M380.238 95.3242C380.255 93.9486 379.154 92.8209 377.738 92.7841L380.238 95.3242ZM380.238 95.3242L380.238 95.3242C380.22 96.7023 379.069 97.8127 377.675 97.7883C376.31 97.7638 375.116 96.5507 375.148 95.2533L375.148 95.2532C375.18 93.9083 376.395 92.7497 377.738 92.7841L380.238 95.3242Z" fill="#B9BDC6" stroke="#F6F7FB" stroke-width="0.5"/>
<path d="M305.339 29.5631L305.339 29.5632C305.311 30.9654 304.157 32.0639 302.786 32.0114L302.785 32.0114C301.395 31.9584 300.282 30.7771 300.327 29.4202L300.327 29.4199C300.371 28.0168 301.473 26.9849 302.923 27.0115C304.364 27.0379 305.37 28.0927 305.339 29.5631Z" fill="#B9BDC6" stroke="#F6F7FB" stroke-width="0.5"/>
<path d="M30.7606 253.063L30.7606 253.063C30.777 254.478 29.6835 255.612 28.301 255.632C26.9586 255.65 25.8106 254.511 25.7839 253.102C25.7596 251.714 26.8705 250.573 28.2603 250.559L28.3623 250.558L28.3626 250.558C29.7042 250.595 30.7447 251.663 30.7606 253.063Z" fill="#B9BDC6" stroke="#F6F7FB" stroke-width="0.5"/>
<path d="M153.245 184.856L153.134 184.854C151.691 184.819 150.572 185.861 150.525 187.26C150.481 188.633 151.578 189.793 152.978 189.836L153.245 184.856ZM153.245 184.856C154.61 184.944 155.609 186.032 155.571 187.415L153.245 184.856ZM155.571 187.415C155.533 188.801 154.384 189.878 152.978 189.836L155.571 187.415Z" fill="#B9BDC6" stroke="#F6F7FB" stroke-width="0.5"/>
<path d="M78.2217 150.382C76.8749 150.388 75.7229 149.297 75.6579 147.999L75.6573 147.895C75.6492 146.519 76.7725 145.393 78.178 145.38L78.178 145.38C79.5704 145.368 80.7336 146.498 80.7458 147.852C80.7579 149.205 79.5959 150.376 78.2217 150.382Z" fill="#B9BDC6" stroke="#F6F7FB" stroke-width="0.5"/>
<path d="M255.401 29.4404L255.401 29.4404C255.378 28.0263 254.314 27.0079 252.837 27.0181L255.401 29.4404ZM255.401 29.4404C255.422 30.8455 254.349 31.9685 252.942 32.0112L252.941 32.0112C251.576 32.0537 250.414 30.9434 250.379 29.5442L255.401 29.4404ZM250.379 29.5442C250.345 28.1329 251.416 27.0283 252.837 27.0181L250.379 29.5442Z" fill="#B9BDC6" stroke="#F6F7FB" stroke-width="0.5"/>
<path d="M205.503 29.5271L205.503 29.5274C205.499 30.9047 204.335 32.0534 202.984 32.0291L202.984 32.0291C201.614 32.0048 200.502 30.8562 200.508 29.4578L200.508 29.4578C200.514 28.0545 201.594 27.001 203.053 27.0071C203.784 27.0102 204.395 27.2751 204.822 27.7134C205.249 28.152 205.506 28.778 205.503 29.5271Z" fill="#B9BDC6" stroke="#F6F7FB" stroke-width="0.5"/>
<path d="M128.156 176.699L128.157 176.699C129.561 176.663 130.62 175.553 130.603 174.121L128.156 176.699ZM128.156 176.699C126.811 176.736 125.648 175.608 125.611 174.205L125.611 174.205M128.156 176.699L125.611 174.205M125.611 174.205C125.575 172.826 126.681 171.667 128.073 171.637L128.073 171.637M125.611 174.205L128.073 171.637M128.073 171.637C129.445 171.605 130.587 172.72 130.603 174.121L128.073 171.637Z" fill="#B9BDC6" stroke="#F6F7FB" stroke-width="0.5"/>
<path d="M327.774 171.638L327.876 171.643C329.284 171.715 330.369 172.894 330.298 174.248L330.298 174.248C330.225 175.662 329.048 176.758 327.705 176.699L327.705 176.699C326.339 176.64 325.214 175.418 325.281 174.077L325.281 174.076C325.348 172.704 326.474 171.629 327.774 171.638Z" fill="#B9BDC6" stroke="#F6F7FB" stroke-width="0.5"/>
<path d="M153.009 27.013L153.008 27.0125C151.605 27.0497 150.563 28.0703 150.525 29.4433L153.009 27.013ZM153.009 27.013L153.111 27.0138M153.009 27.013L153.111 27.0138M153.111 27.0138C154.486 27.024 155.565 28.0937 155.571 29.4355C155.577 30.8867 154.426 32.0405 153 32.0202L153 32.0202M153.111 27.0138L153 32.0202M153 32.0202C151.647 32.0019 150.489 30.7956 150.525 29.4434L153 32.0202Z" fill="#B9BDC6" stroke="#F6F7FB" stroke-width="0.5"/>
<path d="M302.773 110.938L302.774 110.938C304.128 110.986 305.305 109.865 305.33 108.495V108.49L305.33 108.49C305.357 107.021 304.349 105.95 302.928 105.911C301.518 105.875 300.373 106.944 300.327 108.329L302.773 110.938ZM302.773 110.938C301.429 110.891 300.282 109.666 300.327 108.329L302.773 110.938Z" fill="#B9BDC6" stroke="#F6F7FB" stroke-width="0.5"/>
<path d="M103.082 27.0118L103.198 27.0115C104.635 27.0074 105.695 28.0716 105.687 29.5021C105.679 30.9015 104.537 32.0365 103.173 32.0223C101.805 32.0081 100.666 30.8545 100.668 29.4771V29.4767C100.668 28.1042 101.682 27.0699 103.082 27.0118Z" fill="#B9BDC6" stroke="#F6F7FB" stroke-width="0.5"/>
<path d="M228.025 224.215C229.385 224.245 230.492 225.424 230.451 226.816L230.451 226.816C230.408 228.21 229.216 229.348 227.888 229.298L227.888 229.298C226.539 229.247 225.379 228.003 225.436 226.684L225.436 226.684C225.495 225.278 226.652 224.183 228.024 224.215L228.025 224.215Z" fill="#B9BDC6" stroke="#F6F7FB" stroke-width="0.5"/>
<path d="M275.33 16.3985C275.307 15.0493 276.45 13.8895 277.842 13.8753C279.238 13.861 280.415 14.9935 280.429 16.3364C280.443 17.6796 279.29 18.8529 277.906 18.8794L277.906 18.8794C276.542 18.9058 275.354 17.7608 275.33 16.3985L275.33 16.3985Z" fill="#B9BDC6" stroke="#F6F7FB" stroke-width="0.5"/>
<path d="M30.7672 174.145V174.145C30.759 175.585 29.6596 176.705 28.3032 176.701C26.9232 176.695 25.8084 175.569 25.8084 174.176C25.8084 172.755 26.9387 171.603 28.2699 171.621L28.27 171.621C29.6674 171.64 30.7753 172.762 30.7672 174.145Z" fill="#B9BDC6" stroke="#F6F7FB" stroke-width="0.5"/>
<path d="M128.141 40.1319C129.495 40.1537 130.569 41.2273 130.611 42.5833L130.61 42.6884C130.596 44.092 129.459 45.2266 128.098 45.2165C126.771 45.2064 125.612 44.0116 125.62 42.639C125.63 41.2401 126.774 40.1097 128.141 40.1319L128.141 40.1319Z" fill="#B9BDC6" stroke="#F6F7FB" stroke-width="0.5"/>
<path d="M330.301 42.8164C330.223 44.1456 329.081 45.2208 327.748 45.201L330.301 42.8164ZM330.301 42.8164L330.303 42.7072C330.325 41.3263 329.216 40.1707 327.833 40.1321L327.833 40.132C326.487 40.0937 325.303 41.2345 325.275 42.6137L325.274 42.6138C325.246 43.971 326.405 45.1808 327.748 45.201L330.301 42.8164Z" fill="#B9BDC6" stroke="#F6F7FB" stroke-width="0.5"/>
<path d="M55.7219 55.8403C55.7198 57.2339 54.5812 58.3694 53.2123 58.3573C51.833 58.3451 50.685 57.1914 50.6871 55.8254V55.825C50.6871 54.4428 51.7817 53.3658 53.2293 53.3576C54.668 53.3494 55.7239 54.4025 55.7219 55.8403ZM55.7219 55.8403L55.9719 55.8407L55.7219 55.8403Z" fill="#B9BDC6" stroke="#F6F7FB" stroke-width="0.5"/>
<path d="M150.532 55.7958C150.557 54.3787 151.624 53.3501 153.097 53.3532V53.3532C154.517 53.3572 155.586 54.442 155.574 55.8696C155.559 57.2363 154.401 58.3627 153.017 58.3506C151.648 58.3363 150.51 57.1666 150.532 55.7958Z" fill="#B9BDC6" stroke="#F6F7FB" stroke-width="0.5"/>
<path d="M200.506 55.8096L200.506 55.8097C200.492 57.1966 201.608 58.3365 202.996 58.3528C204.386 58.3689 205.488 57.2742 205.501 55.8497L200.506 55.8096ZM200.506 55.8096C200.52 54.3794 201.57 53.3555 203.038 53.3575H203.038M200.506 55.8096L203.038 53.3575M203.038 53.3575H203.04M203.038 53.3575H203.04M203.04 53.3575C203.779 53.3597 204.394 53.6227 204.823 54.0566C205.251 54.4906 205.507 55.1097 205.501 55.8496L203.04 53.3575Z" fill="#B9BDC6" stroke="#F6F7FB" stroke-width="0.5"/>
<path d="M225.43 68.9655L225.43 68.9654C225.452 67.6159 226.664 66.4308 227.994 66.4469L227.994 66.4469C229.347 66.4631 230.465 67.6315 230.451 69.0389C230.435 70.4263 229.267 71.5833 227.92 71.5672C227.278 71.5592 226.648 71.2473 226.179 70.758C225.71 70.2687 225.419 69.6206 225.43 68.9655Z" fill="#B9BDC6" stroke="#F6F7FB" stroke-width="0.5"/>
<path d="M253.089 79.6917L252.982 79.6902C251.5 79.6696 250.418 80.6824 250.379 82.0819L250.379 82.082C250.341 83.4764 251.428 84.6294 252.816 84.6721C254.257 84.7147 255.42 83.5801 255.41 82.1439L253.089 79.6917ZM253.089 79.6917C254.4 79.7636 255.4 80.8065 255.41 82.1438L253.089 79.6917Z" fill="#B9BDC6" stroke="#F6F7FB" stroke-width="0.5"/>
<path d="M350.22 82.1743C350.212 80.7465 351.254 79.7012 352.717 79.6927H352.718V79.6927L352.72 79.6927C354.179 79.6845 355.206 80.7047 355.21 82.1631V82.1631C355.214 83.5972 354.144 84.6787 352.732 84.6767H352.732C351.31 84.6767 350.228 83.5981 350.22 82.1743ZM350.22 82.1743L349.97 82.1758L350.22 82.1743Z" fill="#B9BDC6" stroke="#F6F7FB" stroke-width="0.5"/>
<path d="M352.791 132.251C354.149 132.259 355.184 133.298 355.215 134.689L355.213 134.805C355.188 136.216 354.043 137.322 352.675 137.282L352.675 137.282C351.291 137.241 350.196 136.088 350.22 134.694L350.22 134.694C350.245 133.304 351.351 132.241 352.791 132.251L352.791 132.251Z" fill="#B9BDC6" stroke="#F6F7FB" stroke-width="0.5"/>
<path d="M377.741 13.8798C379.14 13.8879 380.26 15.0248 380.236 16.3987L380.236 16.3991C380.214 17.7853 379.068 18.8931 377.674 18.8728C376.307 18.8524 375.126 17.6544 375.15 16.334L375.15 16.3339C375.174 14.9746 376.327 13.8716 377.741 13.8798ZM377.741 13.8798L377.742 13.6298L377.741 13.8798Z" fill="#B9BDC6" stroke="#F6F7FB" stroke-width="0.5"/>
<path d="M3.38375 27.0138L3.38412 27.0139C4.82579 27.0363 5.89592 28.1365 5.85746 29.5303L5.85746 29.5303C5.81865 30.9449 4.68564 32.0423 3.30527 32.018C1.93628 31.9937 0.793742 30.8137 0.81807 29.4523L0.818073 29.4522C0.842434 28.0463 1.94739 26.9893 3.38375 27.0138Z" fill="#B9BDC6" stroke="#F6F7FB" stroke-width="0.5"/>
<path d="M30.7651 42.6294L30.7654 42.738C30.7134 44.0983 29.6146 45.2051 28.3112 45.219C26.9638 45.231 25.8067 44.0829 25.7884 42.6879C25.77 41.2962 26.8802 40.1429 28.2558 40.1165L28.2559 40.1165C29.6084 40.0903 30.761 41.2323 30.7651 42.6294Z" fill="#B9BDC6" stroke="#F6F7FB" stroke-width="0.5"/>
<path d="M305.343 82.1563V82.1563C305.341 81.4178 305.079 80.8042 304.644 80.3763C304.209 79.9483 303.588 79.6918 302.842 79.6949L305.343 82.1563ZM305.343 82.1563C305.348 83.5797 304.259 84.6811 302.863 84.6811C301.474 84.6811 300.326 83.5421 300.324 82.1776L300.324 82.1772M305.343 82.1563L300.324 82.1772M300.324 82.1772C300.32 80.7678 301.393 79.701 302.842 79.6949L300.324 82.1772Z" fill="#B9BDC6" stroke="#F6F7FB" stroke-width="0.5"/>
<path d="M3.37587 184.86C4.79685 184.866 5.88225 185.965 5.86196 187.362C5.84158 188.745 4.67909 189.88 3.32071 189.858L3.3203 189.858C1.94102 189.837 0.80044 188.669 0.822647 187.312C0.847083 185.896 1.92226 184.854 3.37587 184.86ZM3.37587 184.86L3.37694 184.61M3.37587 184.86L3.37694 184.61M3.37694 184.61C4.93437 184.617 6.13428 185.827 6.11193 187.366M3.37694 184.61L6.11193 187.366M6.11193 187.366C6.08959 188.884 4.81594 190.132 3.31661 190.108L6.11193 187.366Z" fill="#B9BDC6" stroke="#F6F7FB" stroke-width="0.5"/>
<path d="M128.16 224.215C129.547 224.243 130.63 225.374 130.61 226.788L130.61 226.788C130.59 228.196 129.446 229.317 128.083 229.293C126.72 229.267 125.604 228.102 125.622 226.708L125.622 226.708C125.641 225.312 126.794 224.185 128.16 224.215L128.16 224.215Z" fill="#B9BDC6" stroke="#F6F7FB" stroke-width="0.5"/>
<path d="M350.226 29.3943L350.226 29.3945C350.176 30.7918 351.24 31.9486 352.633 32.0116C354.022 32.0743 355.152 31.015 355.199 29.5935V29.5873L355.199 29.5873C355.223 28.8378 354.984 28.2063 354.571 27.7582C354.158 27.3104 353.557 27.031 352.827 27.0094L350.226 29.3943ZM350.226 29.3943C350.277 27.9799 351.373 26.9664 352.827 27.0094L350.226 29.3943Z" fill="#B9BDC6" stroke="#F6F7FB" stroke-width="0.5"/>
<path d="M250.385 187.081L250.379 187.193C250.308 188.586 251.369 189.764 252.753 189.831L252.754 189.831C254.171 189.9 255.326 188.865 255.399 187.469L255.399 187.468C255.472 186.085 254.466 184.936 253.139 184.851L250.385 187.081ZM250.385 187.081C250.51 185.704 251.649 184.757 253.139 184.851L250.385 187.081Z" fill="#B9BDC6" stroke="#F6F7FB" stroke-width="0.5"/>
<path d="M300.329 187.305C300.352 185.927 301.382 184.898 302.767 184.859L302.88 184.86C304.339 184.877 305.362 185.917 305.348 187.365C305.333 188.78 304.228 189.864 302.824 189.842L302.824 189.842C301.435 189.822 300.304 188.666 300.329 187.305L300.329 187.305Z" fill="#B9BDC6" stroke="#F6F7FB" stroke-width="0.5"/>
<path d="M30.7752 226.839C30.7323 228.182 29.6233 229.285 28.304 229.289C26.9382 229.293 25.7944 228.151 25.7862 226.764C25.7781 225.351 26.8815 224.223 28.2641 224.213L28.2641 224.213C29.639 224.203 30.7598 225.32 30.7741 226.732L30.7752 226.839Z" fill="#B9BDC6" stroke="#F6F7FB" stroke-width="0.5"/>
<path d="M325.276 69.006V69.0064C325.274 70.3699 326.448 71.5468 327.799 71.5427L325.276 69.006ZM325.276 69.006C325.276 67.6225 326.43 66.4604 327.782 66.4604C329.137 66.4604 330.303 67.625 330.311 68.9941L330.312 69.0949M325.276 69.006L330.312 69.0949M330.312 69.0949C330.262 70.3946 329.098 71.5388 327.799 71.5427L330.312 69.0949Z" fill="#B9BDC6" stroke="#F6F7FB" stroke-width="0.5"/>
<path d="M302.79 5.76342L302.79 5.76342C301.471 5.7371 300.36 4.61682 300.34 3.28764L300.34 3.28752C300.318 1.86842 301.482 0.717497 302.92 0.748031L302.921 0.748036C304.319 0.776381 305.349 1.85849 305.339 3.3164C305.329 4.68379 304.182 5.79189 302.79 5.76342Z" fill="#B9BDC6" stroke="#F6F7FB" stroke-width="0.5"/>
<path d="M205.499 239.989C205.462 241.399 204.294 242.51 202.944 242.45C201.549 242.387 200.463 241.222 200.502 239.839C200.542 238.441 201.67 237.379 203.095 237.409C204.511 237.44 205.535 238.53 205.499 239.989Z" fill="#B9BDC6" stroke="#F6F7FB" stroke-width="0.5"/>
<path d="M55.724 82.1138L55.7228 82.0053C55.6528 80.6457 54.6053 79.6766 53.1682 79.6926L55.724 82.1138ZM55.724 82.1138C55.7404 83.5307 54.6676 84.6484 53.2649 84.6789L53.2647 84.6789M55.724 82.1138L53.2647 84.6789M53.2647 84.6789C51.9112 84.7093 50.7272 83.5823 50.6824 82.21L50.6824 82.2096M53.2647 84.6789L50.6824 82.2096M50.6824 82.2096C50.636 80.8407 51.7393 79.709 53.1681 79.6926L50.6824 82.2096Z" fill="#B9BDC6" stroke="#F6F7FB" stroke-width="0.5"/>
<path d="M355.213 239.897L355.213 239.897C355.202 238.439 354.165 237.41 352.71 237.414L355.213 239.897ZM355.213 239.897C355.223 241.319 354.135 242.435 352.743 242.447L352.743 242.447M355.213 239.897L352.743 242.447M352.743 242.447C351.383 242.459 350.23 241.314 350.214 239.926M352.743 242.447L350.214 239.926M350.214 239.926C350.199 238.527 351.299 237.418 352.71 237.414L350.214 239.926Z" fill="#B9BDC6" stroke="#F6F7FB" stroke-width="0.5"/>
<path d="M130.608 69.0203L130.608 69.1254C130.545 70.4581 129.414 71.5599 128.097 71.5581C126.771 71.5541 125.627 70.3752 125.631 68.9799C125.638 67.5746 126.757 66.4564 128.137 66.4624C129.5 66.4706 130.614 67.6124 130.608 69.0203Z" fill="#B9BDC6" stroke="#F6F7FB" stroke-width="0.5"/>
<path d="M380.229 147.751C380.162 146.407 379.069 145.373 377.691 145.385L380.229 147.751ZM380.229 147.751L380.23 147.857C380.242 149.245 379.142 150.362 377.725 150.384L377.725 150.384C376.38 150.407 375.156 149.219 375.148 147.895M380.229 147.751L377.691 145.385C376.306 145.397 375.14 146.561 375.148 147.895M375.148 147.895L374.898 147.897L375.148 147.895Z" fill="#B9BDC6" stroke="#F6F7FB" stroke-width="0.5"/>
<path d="M3.33481 158.516C4.77205 158.502 5.85836 159.563 5.86648 160.979V160.979C5.87461 162.364 4.74123 163.507 3.36361 163.507C1.97195 163.507 0.826184 162.38 0.816049 161.011M3.33481 158.516L3.33233 158.267M3.33481 158.516L3.33233 158.267M3.33481 158.516C1.90053 158.531 0.805926 159.627 0.816049 161.011M3.33233 158.267C4.9054 158.251 6.10754 159.421 6.11648 160.977L0.566056 161.013M3.33233 158.267C1.76597 158.282 0.554883 159.486 0.566056 161.013M0.816049 161.011L0.566056 161.013M0.816049 161.011L0.566056 161.013" fill="#B9BDC6" stroke="#F6F7FB" stroke-width="0.5"/>
<path d="M252.91 158.519L252.91 158.519C254.355 158.527 255.42 159.6 255.403 161.017C255.387 162.427 254.275 163.517 252.871 163.505C251.473 163.493 250.363 162.367 250.375 160.979L250.375 160.979C250.387 159.566 251.469 158.51 252.91 158.519Z" fill="#B9BDC6" stroke="#F6F7FB" stroke-width="0.5"/>
<path d="M125.629 121.539L125.631 121.651C125.656 123.034 126.839 124.167 128.188 124.119L128.188 124.119C129.578 124.07 130.641 122.933 130.608 121.51L125.629 121.539ZM125.629 121.539C125.661 120.172 126.717 119.085 128.052 119.045L128.052 119.045C129.42 119.005 130.575 120.111 130.608 121.51L125.629 121.539Z" fill="#B9BDC6" stroke="#F6F7FB" stroke-width="0.5"/>
<path d="M350.216 213.571L350.216 213.463C350.269 212.117 351.339 211.087 352.734 211.077C354.155 211.067 355.214 212.131 355.212 213.584C355.208 215.004 354.103 216.116 352.722 216.108C351.342 216.1 350.218 214.969 350.216 213.571Z" fill="#B9BDC6" stroke="#F6F7FB" stroke-width="0.5"/>
<path d="M30.7671 121.564L30.7671 121.565C30.7752 122.982 29.677 124.113 28.2981 124.123L28.2977 124.123C26.9379 124.135 25.8051 123.002 25.7948 121.593L25.7948 121.593C25.7826 120.187 26.8927 119.049 28.2675 119.043C29.6425 119.037 30.7585 120.156 30.7671 121.563L30.7671 121.564Z" fill="#B9BDC6" stroke="#F6F7FB" stroke-width="0.5"/>
<path d="M355.215 108.41L355.215 108.41C355.205 109.84 354.093 110.957 352.725 110.947C351.35 110.936 350.214 109.785 350.22 108.407L350.22 108.406C350.226 106.953 351.355 105.865 352.835 105.902C354.181 105.937 355.227 107.029 355.215 108.41Z" fill="#B9BDC6" stroke="#F6F7FB" stroke-width="0.5"/>
<path d="M3.40427 53.3531L3.40395 53.3531C1.95432 53.3285 0.854471 54.368 0.815844 55.7737L3.40427 53.3531ZM3.40427 53.3531C4.83493 53.3755 5.8886 54.4654 5.86416 55.89L5.86416 55.8902M3.40427 53.3531L5.86416 55.8902M5.86416 55.8902C5.84188 57.2544 4.6712 58.3774 3.28709 58.355M5.86416 55.8902L3.28709 58.355M3.28709 58.355C1.93579 58.3327 0.779442 57.1262 0.815841 55.7738L3.28709 58.355Z" fill="#B9BDC6" stroke="#F6F7FB" stroke-width="0.5"/>
<path d="M203.094 79.6902L203.202 79.692C203.88 79.7296 204.445 79.9972 204.843 80.419C205.263 80.8638 205.511 81.4943 205.498 82.2449C205.474 83.648 204.35 84.7194 202.942 84.6788C201.549 84.6382 200.463 83.487 200.504 82.0981C200.546 80.6886 201.636 79.6656 203.094 79.6902Z" fill="#B9BDC6" stroke="#F6F7FB" stroke-width="0.5"/>
<path d="M202.998 189.833L202.998 189.833C201.588 189.821 200.486 188.7 200.506 187.313L200.506 187.313C200.527 185.876 201.581 184.845 203.037 184.849C204.484 184.853 205.505 185.886 205.499 187.351C205.492 188.784 204.42 189.847 202.998 189.833ZM202.996 190.083C201.449 190.07 200.234 188.837 200.256 187.31L205.749 187.352C205.742 188.922 204.558 190.099 202.996 190.083Z" fill="#B9BDC6" stroke="#F6F7FB" stroke-width="0.5"/>
<path d="M175.51 16.2139L175.509 16.3189C175.493 17.6965 176.632 18.862 177.988 18.866L177.988 18.866C179.363 18.8722 180.555 17.7342 180.595 16.3955C180.633 15.0954 179.46 13.8998 178.077 13.8753L175.51 16.2139ZM175.51 16.2139C175.582 14.8945 176.705 13.8515 178.077 13.8753L175.51 16.2139Z" fill="#B9BDC6" stroke="#F6F7FB" stroke-width="0.5"/>
<path d="M205.503 134.794L205.503 134.794C205.481 136.204 204.332 137.322 202.973 137.286L202.973 137.286C201.598 137.249 200.48 136.079 200.504 134.705C200.53 133.3 201.63 132.241 203.065 132.253C204.489 132.267 205.527 133.342 205.503 134.794ZM205.753 134.798C205.728 136.341 204.47 137.576 202.967 137.536L205.753 134.798Z" fill="#B9BDC6" stroke="#F6F7FB" stroke-width="0.5"/>
<path d="M153.03 158.53C154.454 158.518 155.497 159.498 155.559 160.872M153.03 158.53L153.028 158.28L153.03 158.53ZM153.03 158.53C151.582 158.542 150.518 159.616 150.532 161.026L155.559 160.872M155.559 160.872L155.559 160.873L155.56 160.977C155.572 162.376 154.478 163.493 153.079 163.509L153.079 163.509C151.699 163.526 150.546 162.401 150.532 161.026L155.559 160.872Z" fill="#B9BDC6" stroke="#F6F7FB" stroke-width="0.5"/>
<path d="M3.43991 79.6992L3.44014 79.6992C4.86256 79.7338 5.91714 80.8495 5.86436 82.2534L5.86435 82.2536C5.81356 83.6382 4.63833 84.7273 3.25465 84.6746C1.86954 84.6217 0.775855 83.4501 0.822551 82.0725L0.822554 82.0724C0.869076 80.6838 1.97783 79.6623 3.43991 79.6992Z" fill="#B9BDC6" stroke="#F6F7FB" stroke-width="0.5"/>
<path d="M105.7 160.968V160.968C105.69 159.564 104.608 158.513 103.157 158.525L103.157 158.525C101.712 158.536 100.653 159.604 100.668 161.024L105.7 160.968ZM105.7 160.968C105.71 162.364 104.61 163.487 103.212 163.503L103.212 163.503M105.7 160.968L103.212 163.503M103.212 163.503C101.817 163.519 100.682 162.412 100.668 161.024L103.212 163.503Z" fill="#B9BDC6" stroke="#F6F7FB" stroke-width="0.5"/>
<path d="M155.574 82.2137L155.572 82.3199C155.493 83.6547 154.373 84.696 153.01 84.6722C151.615 84.6478 150.516 83.5152 150.532 82.1162C150.55 80.7128 151.644 79.663 153.101 79.6814L153.101 79.6814C154.517 79.6977 155.598 80.8082 155.574 82.2137Z" fill="#B9BDC6" stroke="#F6F7FB" stroke-width="0.5"/>
<path d="M105.952 82.2023C105.932 83.7185 104.663 84.9533 103.148 84.9309C101.613 84.9086 100.406 83.6716 100.415 82.1331C100.424 80.5768 101.604 79.4425 103.215 79.4402L103.217 79.438M105.952 82.2023C105.973 80.6572 104.764 79.4358 103.217 79.438M105.952 82.2023L105.702 82.199C105.702 82.199 105.702 82.1991 105.702 82.1991M105.952 82.2023L105.702 82.1991M103.217 79.438L103.217 79.4425L103.218 79.688C103.252 79.6879 103.286 79.6885 103.319 79.6898M103.217 79.438L103.394 79.6148L103.392 79.6171L103.319 79.6898M103.319 79.6898L103.319 79.6901L103.216 79.6902C101.734 79.6923 100.673 80.7237 100.665 82.1345L100.665 82.1346C100.657 83.5367 101.755 84.6607 103.152 84.681L103.152 84.681C104.528 84.7013 105.684 83.5771 105.702 82.1991M103.319 79.6898C104.677 79.7396 105.72 80.8276 105.702 82.1991" fill="#B9BDC6" stroke="#F6F7FB" stroke-width="0.5"/>
<path d="M53.2219 158.521C54.6679 158.517 55.7201 159.566 55.7151 161.001H55.7151C55.709 162.421 54.6196 163.509 53.2104 163.507C51.8238 163.505 50.67 162.355 50.6781 160.994L50.6781 160.994C50.6862 159.592 51.7718 158.525 53.2219 158.521Z" fill="#B9BDC6" stroke="#F6F7FB" stroke-width="0.5"/>
<path d="M103.137 184.851C101.671 184.899 100.65 185.943 100.668 187.371L103.137 184.851ZM103.137 184.851L103.252 184.851C104.668 184.857 105.711 185.939 105.683 187.394L105.683 187.394C105.656 188.771 104.594 189.823 103.227 189.835L103.137 184.851ZM103.227 189.835C101.808 189.847 100.686 188.76 100.668 187.371L103.227 189.835Z" fill="#B9BDC6" stroke="#F6F7FB" stroke-width="0.5"/>
<path d="M350.222 55.723C350.276 54.3329 351.28 53.3712 352.705 53.3524L352.824 53.3553C353.556 53.3728 354.154 53.6468 354.565 54.0905C354.976 54.5347 355.214 55.1656 355.195 55.9234C355.158 57.3053 353.994 58.3988 352.615 58.3441C351.247 58.2894 350.167 57.115 350.222 55.7233L350.222 55.723Z" fill="#B9BDC6" stroke="#F6F7FB" stroke-width="0.5"/>
<path d="M302.834 53.3486C304.29 53.3364 305.339 54.3675 305.339 55.8071V55.9186C305.284 57.2898 304.214 58.3393 302.865 58.3393C301.468 58.3393 300.335 57.2223 300.324 55.8412C300.316 54.4406 301.394 53.3609 302.834 53.3486ZM302.834 53.3486L302.832 53.0986L302.834 53.3486Z" fill="#B9BDC6" stroke="#F6F7FB" stroke-width="0.5"/>
<path d="M252.94 58.3238L252.94 58.3238L252.854 53.3532C254.362 53.3491 255.426 54.4147 255.406 55.8975C255.387 57.2172 254.252 58.3339 252.94 58.3238ZM250.145 55.7536L250.395 55.7592C250.395 55.7592 250.395 55.7591 250.395 55.7591C250.395 55.759 250.395 55.759 250.395 55.7589L250.145 55.7536Z" fill="#B9BDC6" stroke="#F6F7FB" stroke-width="0.5"/>
<path d="M103.146 58.3395L103.147 58.3395C104.531 58.3679 105.674 57.2627 105.698 55.8655C105.722 54.4459 104.661 53.3656 103.225 53.3554L103.146 58.3395ZM103.146 58.3395C101.743 58.313 100.643 57.1771 100.668 55.7894M103.146 58.3395L100.668 55.7894M100.668 55.7894C100.694 54.3638 101.752 53.3452 103.225 53.3554L100.668 55.7894Z" fill="#B9BDC6" stroke="#F6F7FB" stroke-width="0.5"/>
<path d="M53.2542 27.0115C54.6854 27.0156 55.7386 28.0848 55.7243 29.5233C55.7101 30.9219 54.5761 32.0314 53.1849 32.0112C51.8091 31.9909 50.6684 30.8236 50.6806 29.4544L50.6806 29.4543C50.6927 28.073 51.7966 27.0074 53.2542 27.0115ZM53.2542 27.0115L53.255 26.7615M53.2542 27.0115L53.255 26.7615M53.255 26.7615C51.6685 26.757 50.444 27.9248 50.4306 29.4521L53.1812 32.2611C54.7118 32.2835 55.9587 31.0621 55.9743 29.5258C55.9899 27.9494 54.8258 26.766 53.255 26.7615Z" fill="#B9BDC6" stroke="#F6F7FB" stroke-width="0.5"/>
<path d="M352.78 158.521C354.229 158.537 355.239 159.58 355.217 161.045L355.217 161.045V161.049V161.049C355.195 162.471 354.088 163.537 352.678 163.503C351.278 163.468 350.178 162.325 350.209 160.945L350.209 160.945C350.239 159.531 351.316 158.505 352.78 158.521ZM352.78 158.521L352.783 158.271M352.78 158.521L352.783 158.271M352.783 158.271C354.372 158.289 355.491 159.448 355.467 161.049L349.959 160.939C349.992 159.383 351.188 158.253 352.783 158.271Z" fill="#B9BDC6" stroke="#F6F7FB" stroke-width="0.5"/>
<path d="M230.453 174.169L230.453 174.279C230.395 175.616 229.274 176.718 227.951 176.724L227.951 176.724C226.648 176.73 225.445 175.514 225.439 174.161C225.435 172.789 226.58 171.638 227.961 171.63C229.315 171.624 230.455 172.774 230.453 174.169Z" fill="#B9BDC6" stroke="#F6F7FB" stroke-width="0.5"/>
<path d="M53.2236 190.099C54.7476 190.101 55.9832 188.857 55.9743 187.328C55.9679 185.836 54.9091 184.714 53.4625 184.613M53.2236 190.099L53.4625 184.613M53.2236 190.099C51.7087 190.099 50.4417 188.844 50.4306 187.339L53.2236 190.099ZM53.4625 184.613C53.4322 184.611 53.4019 184.609 53.3713 184.608C53.3423 184.607 53.3131 184.606 53.2838 184.606H53.2125L53.2125 184.608L53.2153 184.856C53.2535 184.855 53.2914 184.856 53.329 184.857L53.4625 184.855V184.613Z" fill="#B9BDC6" stroke="#F6F7FB" stroke-width="0.5"/>
<path d="M355.217 3.24084V3.24086C355.221 4.64226 354.107 5.77234 352.732 5.77234C351.344 5.77234 350.216 4.64302 350.22 3.25426L350.22 3.25424C350.224 1.82709 351.307 0.741624 352.718 0.743655H352.718C354.16 0.745693 355.213 1.79743 355.217 3.24084Z" fill="#B9BDC6" stroke="#F6F7FB" stroke-width="0.5"/>
<path d="M125.627 253.067L125.627 253.067C125.641 251.648 126.755 250.54 128.134 250.55C129.506 250.56 130.619 251.705 130.601 253.101L130.6 253.207L130.6 253.207C130.532 254.578 129.424 255.653 128.103 255.637C126.747 255.621 125.612 254.451 125.627 253.067Z" fill="#B9BDC6" stroke="#F6F7FB" stroke-width="0.5"/>
<path d="M202.961 105.902C204.385 105.872 205.468 106.911 205.501 108.349C205.531 109.749 204.442 110.906 203.076 110.94L203.076 110.94C201.747 110.974 200.592 109.898 200.51 108.574L200.508 108.47C200.482 107.07 201.571 105.931 202.96 105.902L202.961 105.902Z" fill="#B9BDC6" stroke="#F6F7FB" stroke-width="0.5"/>
<path d="M302.85 163.503C301.454 163.499 300.327 162.374 300.327 160.993C300.327 159.596 301.409 158.527 302.857 158.523V158.523C304.313 158.52 305.344 159.547 305.346 161C305.346 162.423 304.264 163.507 302.85 163.503ZM302.85 163.503L302.85 163.753L302.85 163.503Z" fill="#B9BDC6" stroke="#F6F7FB" stroke-width="0.5"/>
<path d="M354.522 185.553C354.929 185.963 355.183 186.539 355.208 187.227L355.208 187.343C355.206 188.754 354.106 189.85 352.714 189.842C351.316 189.832 350.205 188.711 350.213 187.32C350.224 185.894 351.284 184.852 352.74 184.856C353.477 184.858 354.092 185.12 354.522 185.553Z" fill="#B9BDC6" stroke="#F6F7FB" stroke-width="0.5"/>
<path d="M205.496 213.588C205.492 214.999 204.402 216.102 203.014 216.11L203.014 216.11C201.665 216.12 200.508 214.965 200.502 213.586H200.502C200.497 212.201 201.63 211.071 203.011 211.081C204.443 211.094 205.5 212.161 205.496 213.588ZM205.496 213.588L205.746 213.589M205.496 213.588L205.746 213.589M205.746 213.589C205.751 212.024 204.582 210.845 203.013 210.831L200.252 213.59C200.26 215.102 201.526 216.371 203.016 216.36C204.544 216.351 205.742 215.134 205.746 213.589Z" fill="#B9BDC6" stroke="#F6F7FB" stroke-width="0.5"/>
<path d="M227.784 40.1386C226.462 40.222 225.417 41.3558 225.438 42.7249L227.784 40.1386ZM227.784 40.1386L227.888 40.1365C229.277 40.108 230.431 41.2159 230.458 42.5952M227.784 40.1386L230.458 42.5952M230.458 42.5952C230.482 43.9997 229.398 45.1499 228.016 45.1966L230.458 42.5952ZM228.016 45.1966C226.687 45.2409 225.461 44.0674 225.438 42.7249L228.016 45.1966Z" fill="#B9BDC6" stroke="#F6F7FB" stroke-width="0.5"/>
<path d="M200.519 3.181C200.551 1.82311 201.597 0.787172 202.981 0.742814L203.094 0.743639C204.479 0.753729 205.528 1.85243 205.507 3.31253C205.487 4.69452 204.333 5.80423 202.955 5.76572L202.955 5.76572C201.573 5.72719 200.489 4.5817 200.519 3.181Z" fill="#B9BDC6" stroke="#F6F7FB" stroke-width="0.5"/>
<path d="M330.307 200.402L330.307 200.402C330.281 199.073 329.045 197.91 327.713 197.961L330.307 200.402ZM330.307 200.402C330.332 201.731 329.157 202.94 327.821 202.958C326.477 202.976 325.294 201.812 325.281 200.46C325.271 199.17 326.392 198.011 327.713 197.961L330.307 200.402Z" fill="#B9BDC6" stroke="#F6F7FB" stroke-width="0.5"/>
<path d="M325.279 95.245L325.279 95.2452C325.265 96.5929 326.444 97.7904 327.775 97.7904C329.115 97.7882 330.319 96.5868 330.305 95.2788V95.2787C330.291 93.9428 329.085 92.7637 327.754 92.7818L325.279 95.245ZM325.279 95.245C325.291 93.9672 326.462 92.8001 327.754 92.7818L325.279 95.245Z" fill="#B9BDC6" stroke="#F6F7FB" stroke-width="0.5"/>
<path d="M30.7631 147.825L30.7631 147.825C30.7855 149.215 29.6467 150.377 28.2784 150.375H28.2781C26.9682 150.375 25.8172 149.24 25.7908 147.916C25.7645 146.541 26.8998 145.385 28.2872 145.382C29.6184 145.383 30.7428 146.49 30.7631 147.825ZM31.0131 147.821C31.0376 149.348 29.7886 150.628 28.2781 150.625L31.0131 147.821Z" fill="#B9BDC6" stroke="#F6F7FB" stroke-width="0.5"/>
<path d="M227.959 13.6298C226.508 13.6288 225.229 14.8497 225.186 16.2758C225.142 17.7272 226.435 19.0848 227.894 19.1183L227.959 13.6298ZM227.959 13.6298V13.8798M227.959 13.6298V13.8798M227.959 13.8798C226.639 13.8788 225.474 14.996 225.436 16.2832L225.436 16.2835C225.396 17.5948 226.579 18.838 227.9 18.8683L227.9 18.8683C229.248 18.9007 230.429 17.7626 230.455 16.3962C230.48 15.0509 229.325 13.8798 227.959 13.8798Z" fill="#B9BDC6" stroke="#F6F7FB" stroke-width="0.5"/>
<path d="M327.835 13.8775L327.835 13.8775C329.197 13.9039 330.355 15.1158 330.301 16.433C330.246 17.7465 329.069 18.8877 327.801 18.8817L327.801 18.8817C326.464 18.8756 325.257 17.6554 325.281 16.352C325.308 14.9836 326.48 13.8512 327.835 13.8775Z" fill="#B9BDC6" stroke="#F6F7FB" stroke-width="0.5"/>
<path d="M28.2442 13.8774L28.2439 13.8774C26.9217 13.8875 25.8074 15.0027 25.7972 16.3266L28.2442 13.8774ZM28.2442 13.8774C29.6249 13.8652 30.7715 14.9945 30.7695 16.3557M28.2442 13.8774L30.7695 16.3557M30.7695 16.3557C30.7674 17.7354 29.6136 18.8939 28.2707 18.8838M30.7695 16.3557L28.2707 18.8838M28.2707 18.8838C26.9358 18.8737 25.7871 17.6931 25.7972 16.3267L28.2707 18.8838Z" fill="#B9BDC6" stroke="#F6F7FB" stroke-width="0.5"/>
<path d="M230.453 95.2765V95.2765C230.439 93.9161 229.254 92.7556 227.922 92.7818C226.633 92.8082 225.456 93.9812 225.434 95.2514L230.453 95.2765ZM230.453 95.2765C230.467 96.6192 229.291 97.801 227.945 97.7949M230.453 95.2765L227.945 97.7949M227.945 97.7949C226.612 97.7888 225.412 96.5685 225.434 95.2514L227.944 98.0449L227.945 97.7949Z" fill="#B9BDC6" stroke="#F6F7FB" stroke-width="0.5"/>
<path d="M128.107 97.7859L128.108 97.7859C129.454 97.8001 130.612 96.6446 130.612 95.276V95.2738V95.2734C130.614 93.9271 129.471 92.7946 128.082 92.7885L128.081 92.7885C126.808 92.7824 125.645 93.9367 125.622 95.2444L128.107 97.7859ZM128.107 97.7859C126.755 97.7738 125.6 96.59 125.622 95.2446L128.107 97.7859Z" fill="#B9BDC6" stroke="#F6F7FB" stroke-width="0.5"/>
<path d="M125.611 147.937C125.562 146.637 126.65 145.47 127.975 145.391L128.078 145.389C129.455 145.367 130.596 146.485 130.606 147.865L130.606 147.865C130.616 149.227 129.444 150.405 128.106 150.391L128.105 150.391C126.816 150.379 125.66 149.246 125.611 147.937L125.611 147.937Z" fill="#B9BDC6" stroke="#F6F7FB" stroke-width="0.5"/>
<path d="M227.97 197.961L227.97 197.961C226.64 197.947 225.425 199.148 225.429 200.465L227.97 197.961ZM227.97 197.961C229.335 197.975 230.481 199.149 230.455 200.495C230.427 201.854 229.233 202.997 227.888 202.958L227.888 202.958M227.97 197.961L227.888 202.958M227.888 202.958C226.593 202.922 225.433 201.742 225.429 200.465L227.888 202.958Z" fill="#B9BDC6" stroke="#F6F7FB" stroke-width="0.5"/>
<path d="M31.0173 200.482C31.0017 201.989 29.7169 203.246 28.2287 203.206L28.2779 197.704C29.7884 197.709 31.0307 198.968 31.0173 200.48V200.482ZM31.0173 200.482L30.802 200.48L30.7673 200.479C30.7673 200.479 30.7673 200.479 30.7673 200.48C30.7673 200.48 30.7673 200.48 30.7673 200.481M31.0173 200.482H30.7673V200.481M30.7673 200.481C30.7524 201.851 29.5801 202.992 28.2355 202.956L28.2352 202.956C26.9093 202.922 25.7988 201.795 25.7906 200.483L25.7906 200.483C25.7825 199.105 26.9242 197.95 28.2771 197.954L28.2771 197.954C29.6486 197.958 30.7795 199.104 30.7673 200.477L30.7673 200.477V200.48V200.481Z" fill="#B9BDC6" stroke="#F6F7FB" stroke-width="0.5"/>
<path d="M327.74 145.382L327.74 145.382C326.423 145.407 325.287 146.551 325.281 147.844L327.74 145.382ZM327.74 145.382C329.091 145.356 330.268 146.487 330.305 147.852M327.74 145.382L330.305 147.852M330.305 147.852C330.339 149.161 329.153 150.36 327.793 150.362L327.792 150.362C326.441 150.366 325.275 149.197 325.281 147.844L330.305 147.852Z" fill="#B9BDC6" stroke="#F6F7FB" stroke-width="0.5"/>
<path d="M30.7673 95.2873L30.7673 95.2869C30.7572 93.9162 29.6101 92.7778 28.2495 92.7819L28.2492 92.7819C26.9196 92.7839 25.7751 93.97 25.7995 95.3431L25.7995 95.3434C25.8218 96.6699 26.9314 97.7693 28.2622 97.7815L30.7673 95.2873ZM30.7673 95.2873C30.7795 96.6469 29.6273 97.7937 28.2623 97.7815L30.7673 95.2873Z" fill="#B9BDC6" stroke="#F6F7FB" stroke-width="0.5"/>
<path d="M130.604 200.484L130.604 200.484C130.63 199.116 129.496 197.958 128.13 197.958C126.806 197.958 125.682 199.04 125.627 200.374L130.604 200.484ZM130.604 200.484C130.577 201.874 129.426 202.989 128.064 202.958M130.604 200.484L128.064 202.958M128.064 202.958C126.719 202.928 125.572 201.709 125.627 200.374L128.064 202.958Z" fill="#B9BDC6" stroke="#F6F7FB" stroke-width="0.5"/>
<path d="M128.111 13.8746L128.216 13.8794C129.603 13.9424 130.675 15.1186 130.604 16.495L130.604 16.4953C130.537 17.8234 129.369 18.9135 128.069 18.8772L128.069 18.8772C126.717 18.8407 125.582 17.6384 125.624 16.2926C125.668 14.9518 126.793 13.8715 128.111 13.8746Z" fill="#B9BDC6" stroke="#F6F7FB" stroke-width="0.5"/>
<path d="M228.009 145.383L228.151 145.382V145.141C229.556 145.253 230.686 146.426 230.703 147.852C230.721 149.328 229.427 150.632 227.945 150.634M228.009 145.383C227.974 145.382 227.939 145.382 227.903 145.382C227.903 145.382 227.903 145.382 227.903 145.382L227.902 145.208L227.901 145.135L227.901 145.132M228.009 145.383L227.903 145.385C226.568 145.399 225.393 146.621 225.436 147.947L225.436 147.947C225.476 149.228 226.669 150.384 227.945 150.384M228.009 145.383C229.345 145.425 230.437 146.52 230.453 147.855L230.453 147.855C230.469 149.191 229.289 150.382 227.945 150.384M227.901 145.132H227.958C227.939 145.132 227.92 145.132 227.901 145.132ZM227.901 145.132V145.135C226.426 145.15 225.139 146.488 225.186 147.955C225.231 149.37 226.533 150.634 227.945 150.634M227.945 150.634V150.384C227.945 150.384 227.945 150.384 227.945 150.384M227.945 150.634L227.945 150.384C227.945 150.384 227.945 150.384 227.945 150.384" fill="#B9BDC6" stroke="#F6F7FB" stroke-width="0.5"/>
</g>
</svg>
