<svg width="138" height="56" viewBox="0 0 138 56" fill="none" xmlns="http://www.w3.org/2000/svg">
<path d="M136.3 55.826C136.574 55.8584 136.823 55.6623 136.855 55.3881L137.382 50.919C137.414 50.6448 137.218 50.3963 136.944 50.3639C136.67 50.3316 136.421 50.5277 136.389 50.8019L135.92 54.7744L131.948 54.3058C131.674 54.2735 131.425 54.4696 131.393 54.7438C131.36 55.018 131.557 55.2666 131.831 55.2989L136.3 55.826ZM0.338843 2.57448C0.655432 2.53271 0.9769 2.49208 1.30315 2.45263L1.18312 1.45986C0.853333 1.49973 0.528273 1.54082 0.208032 1.58308L0.338843 2.57448ZM3.30216 2.23217C3.94434 2.16791 4.60244 2.10814 5.2759 2.0532L5.19459 1.05651C4.51518 1.11194 3.85098 1.17226 3.20258 1.23714L3.30216 2.23217ZM7.26253 1.90831C7.92117 1.86582 8.59279 1.82787 9.27689 1.79473L9.22851 0.795906C8.53915 0.829295 7.8622 0.867548 7.19814 0.91039L7.26253 1.90831ZM11.2506 1.7139C11.9085 1.69179 12.5768 1.67407 13.2552 1.66098L13.2359 0.661169C12.5528 0.674351 11.8797 0.692192 11.217 0.714467L11.2506 1.7139ZM15.2487 1.63619C15.9057 1.63247 16.5712 1.63305 17.245 1.63811L17.2525 0.638136C16.5744 0.633042 15.9044 0.63246 15.243 0.636206L15.2487 1.63619ZM19.2478 1.66606C19.9043 1.67941 20.5678 1.697 21.2382 1.71897L21.271 0.719511C20.5964 0.697399 19.9287 0.679705 19.2682 0.666267L19.2478 1.66606ZM23.2434 1.79705C23.8996 1.82662 24.562 1.86038 25.2301 1.89849L25.2871 0.900107C24.6149 0.861779 23.9486 0.827812 23.2884 0.798062L23.2434 1.79705ZM27.2327 2.02463C27.8892 2.06989 28.5509 2.11932 29.2176 2.17307L29.298 1.1763C28.6274 1.12225 27.9619 1.07252 27.3015 1.027L27.2327 2.02463ZM31.2144 2.34572C31.8713 2.40635 32.5328 2.47117 33.1985 2.5403L33.3018 1.54565C32.6323 1.47612 31.967 1.41093 31.3063 1.34995L31.2144 2.34572ZM35.1871 2.75827C35.8446 2.83414 36.5059 2.91421 37.171 2.9986L37.2969 2.00656C36.6281 1.92169 35.9629 1.84116 35.3017 1.76486L35.1871 2.75827ZM39.1497 3.26106C39.8076 3.35212 40.4688 3.44742 41.1332 3.54705L41.2815 2.55811C40.6134 2.45791 39.9484 2.36208 39.2868 2.27051L39.1497 3.26106ZM43.1008 3.85345C43.7589 3.95973 44.4198 4.0703 45.0835 4.18524L45.2541 3.19991C44.5867 3.08432 43.922 2.97313 43.2602 2.86625L43.1008 3.85345ZM47.0389 4.53525C47.6932 4.65617 48.3498 4.78137 49.0088 4.91095L49.2017 3.92974C48.539 3.79942 47.8786 3.67351 47.2206 3.5519L47.0389 4.53525ZM50.9622 5.30659C51.6117 5.442 52.2632 5.58169 52.9166 5.72575L53.1319 4.7492C52.4748 4.60432 51.8195 4.46383 51.1662 4.32764L50.9622 5.30659ZM54.8686 6.16789C55.5131 6.3178 56.1593 6.47199 56.807 6.63055L57.0448 5.65923C56.3933 5.49975 55.7434 5.34467 55.0951 5.19389L54.8686 6.16789ZM58.7545 7.11937C59.3943 7.28395 60.0354 7.45282 60.6777 7.62606L60.9381 6.66057C60.292 6.4863 59.6471 6.31644 59.0036 6.1509L58.7545 7.11937ZM62.6065 8.15858C63.2454 8.33903 63.8853 8.52385 64.5261 8.71312L64.8094 7.75407C64.1647 7.56367 63.521 7.37775 62.8784 7.19623L62.6065 8.15858ZM66.4358 9.28959C67.073 9.48614 67.711 9.68712 68.3497 9.89262L68.656 8.94069C68.0135 8.73394 67.3716 8.53174 66.7305 8.33401L66.4358 9.28959ZM70.2394 10.5134C70.8699 10.7247 71.5008 10.9405 72.1322 11.1609L72.4617 10.2167C71.8264 9.99503 71.1916 9.7779 70.5573 9.56525L70.2394 10.5134ZM74.0145 11.8309C74.6378 12.0572 75.2613 12.2879 75.8849 12.5231L76.2379 11.5875C75.6103 11.3508 74.9829 11.1186 74.3557 10.891L74.0145 11.8309ZM77.7561 13.2425C78.3725 13.484 78.9889 13.73 79.6052 13.9805L79.9818 13.0541C79.3615 12.802 78.7412 12.5545 78.1209 12.3115L77.7561 13.2425ZM81.4517 14.745C82.0646 15.0034 82.6772 15.2664 83.2896 15.534L83.69 14.6177C83.0737 14.3483 82.457 14.0836 81.8402 13.8236L81.4517 14.745ZM85.1102 16.3439C85.7167 16.6185 86.3228 16.8976 86.9283 17.1815L87.3528 16.2761C86.7432 15.9903 86.1331 15.7093 85.5227 15.4329L85.1102 16.3439ZM88.7284 18.0401C89.3256 18.3298 89.9222 18.6242 90.5181 18.9233L90.9667 18.0296C90.3668 17.7285 89.7662 17.4321 89.1649 17.1404L88.7284 18.0401ZM92.3028 19.8344C92.8902 20.1394 93.4769 20.449 94.0626 20.7633L94.5354 19.8822C93.9457 19.5657 93.355 19.2539 92.7635 18.9469L92.3028 19.8344ZM95.8169 21.7204C96.3984 22.043 96.9789 22.3702 97.5583 22.7023L98.0555 21.8346C97.472 21.5003 96.8875 21.1707 96.3019 20.8459L95.8169 21.7204ZM99.2798 23.7049C99.8525 24.0439 100.424 24.3876 100.994 24.7362L101.516 23.883C100.941 23.5319 100.366 23.1858 99.7892 22.8444L99.2798 23.7049ZM102.689 25.7887C103.25 26.1428 103.809 26.5016 104.368 26.8652L104.913 26.0273C104.351 25.661 103.788 25.2996 103.222 24.9431L102.689 25.7887ZM106.038 27.9705C106.587 28.34 107.135 28.7142 107.682 29.0933L108.252 28.2717C107.701 27.8898 107.149 27.5128 106.596 27.1406L106.038 27.9705ZM109.313 30.2431C109.855 30.6309 110.395 31.0235 110.933 31.421L111.528 30.6166C110.985 30.2161 110.441 29.8206 109.895 29.4299L109.313 30.2431ZM112.525 32.6143C113.053 33.0168 113.58 33.4242 114.105 33.8365L114.722 33.0502C114.194 32.6348 113.663 32.2243 113.13 31.8187L112.525 32.6143ZM115.668 35.0841C116.182 35.5007 116.695 35.9221 117.205 36.3483L117.846 35.5809C117.332 35.1514 116.816 34.7268 116.298 34.3071L115.668 35.0841ZM118.729 37.6417C119.232 38.0754 119.734 38.514 120.233 38.9574L120.897 38.2099C120.394 37.7631 119.889 37.3212 119.382 36.8842L118.729 37.6417ZM121.71 40.2908C122.201 40.7402 122.689 41.1944 123.175 41.6535L123.862 40.9266C123.372 40.464 122.88 40.0063 122.386 39.5535L121.71 40.2908ZM124.615 43.0354C125.089 43.4973 125.561 43.964 126.031 44.4356L126.739 43.7301C126.266 43.2549 125.791 42.7846 125.313 42.3191L124.615 43.0354ZM127.432 45.8649C127.892 46.342 128.35 46.824 128.806 47.3108L129.536 46.6275C129.077 46.1369 128.615 45.6512 128.151 45.1704L127.432 45.8649ZM130.155 48.7747C130.603 49.2675 131.047 49.7652 131.489 50.2677L132.24 49.6071C131.795 49.1007 131.346 48.5993 130.896 48.1027L130.155 48.7747ZM132.796 51.7752C133.225 52.2784 133.652 52.7864 134.076 53.2992L134.846 52.6619C134.419 52.1452 133.989 51.6333 133.556 51.1262L132.796 51.7752ZM135.34 54.852C135.549 55.1132 135.758 55.3756 135.966 55.6392L136.751 55.0198C136.541 54.7542 136.331 54.4898 136.12 54.2266L135.34 54.852Z" fill="black"/>
</svg>
