<svg width="8" height="6" viewBox="0 0 8 6" fill="none" xmlns="http://www.w3.org/2000/svg">
<path d="M4.00712 3.90984C4.95188 2.95559 5.88634 2.01172 6.82154 1.0686C6.90763 0.981038 6.98783 0.880863 7.08863 0.816306C7.34322 0.652317 7.60663 0.652317 7.82516 0.876411C8.04149 1.09828 8.05694 1.35651 7.87225 1.61399C7.82222 1.68374 7.75968 1.74385 7.69934 1.80544C6.64274 2.87248 5.58687 3.93952 4.5288 5.00434C4.13588 5.39984 3.86217 5.39836 3.46778 5.00063C2.39278 3.91726 1.31705 2.83464 0.246466 1.7483C-0.0603613 1.43665 -0.0772846 1.12573 0.176565 0.869733C0.415699 0.62783 0.752693 0.656769 1.05143 0.943194C1.08674 0.977327 1.12206 1.01146 1.15664 1.04708C2.02268 1.92119 2.88871 2.79531 3.75548 3.66868C3.83273 3.74659 3.91294 3.82006 4.00712 3.90984Z" fill="#363636"/>
</svg>
