<svg width="745" height="726" viewBox="0 0 745 726" fill="none" xmlns="http://www.w3.org/2000/svg">
<path d="M737.564 373.799C737.564 553.448 591.93 699.082 412.281 699.082C232.633 699.082 17.8901 546.315 17.8901 366.667C17.8901 187.018 251.203 10.7515 430.852 10.7515C610.5 10.7515 737.564 194.151 737.564 373.799Z" fill="#D1E8F5"/>
<path d="M668.04 294.969C709.45 440.264 625.235 591.617 479.941 633.027C407.278 653.736 318.641 645.582 242.98 614.041C167.312 582.497 104.805 527.646 84.1358 455.126C63.4708 382.619 90.0628 297.212 140.163 224.647C190.254 152.095 263.687 92.6193 336.32 71.9186C408.88 51.2385 481.418 70.6056 541.04 113.369C600.671 156.137 647.321 222.271 668.04 294.969Z" fill="#D1E8F5" stroke="white" stroke-width="2"/>
<path d="M582.228 421.434C554.493 524.943 448.099 586.369 344.59 558.634C292.819 544.762 241.825 507.495 207.253 460.708C172.676 413.916 154.639 357.767 168.472 306.14C182.302 254.527 229.584 212.229 286.557 186.301C343.516 160.379 409.903 150.942 461.643 164.805C513.31 178.65 550.393 216.847 571.101 264.602C591.812 312.366 596.109 369.628 582.228 421.434Z" fill="#D1E8F5" stroke="white" stroke-width="2"/>
<path d="M430.443 261.684C478.202 285.447 497.655 343.427 473.892 391.186C462.003 415.08 438.752 436.311 412.459 448.577C386.159 460.846 356.999 464.066 333.238 452.243C309.489 440.427 293.502 413.205 286.465 382.762C279.43 352.333 281.405 318.963 293.28 295.097C305.121 271.299 327.392 256.986 352.753 251.6C378.123 246.212 406.517 249.779 430.443 261.684Z" fill="#D1E8F5" stroke="white" stroke-width="2"/>
<circle cx="595.305" cy="162.881" r="8.28968" fill="white"/>
<circle cx="259.28" cy="106.791" r="8.28968" fill="white"/>
<circle cx="79.4827" cy="374.016" r="16.2465" fill="white"/>
<circle cx="587.621" cy="340.778" r="16.9912" fill="white"/>
</svg>
