<svg width="32" height="33" viewBox="0 0 32 33" fill="none" xmlns="http://www.w3.org/2000/svg">
<path d="M16.0075 32.2529C7.17306 32.2554 0.00125026 25.0892 1.63572e-07 16.2604C-0.00124993 7.42668 7.16306 0.25418 15.9925 0.25293C24.8532 0.25168 32.0112 7.43043 32 16.3079C31.9887 25.0942 24.8107 32.2517 16.0075 32.2529ZM30.5286 16.2342C30.5149 8.18043 24.0644 1.73293 16.0125 1.72418C7.94062 1.71543 1.45886 8.20043 1.47136 16.2717C1.48512 24.3254 7.93562 30.7729 15.9875 30.7817C24.0594 30.7904 30.5424 24.3054 30.5286 16.2342Z" fill="white"/>
<path d="M17.4802 22.7608H14.5637V16.2858H13.1611V14.0858H14.4849C14.5224 13.3796 14.5312 12.7396 14.5962 12.1058C14.7412 10.7021 15.3812 9.9633 16.7676 9.7958C17.6852 9.6858 18.6265 9.77455 19.5928 9.77455V11.8933C19.1278 11.8933 18.6765 11.8771 18.2265 11.8971C17.7439 11.9183 17.4502 12.1383 17.4752 12.6783C17.4952 13.1121 17.4789 13.5471 17.4789 14.0571H19.6328C19.5441 14.8283 19.4653 15.5158 19.3816 16.2508H17.4814V22.7608H17.4802Z" fill="white"/>
</svg>
