<svg width="32" height="33" viewBox="0 0 32 33" fill="none" xmlns="http://www.w3.org/2000/svg">
<path d="M16.0238 0.252932C24.8469 0.257932 32.005 7.43668 32 16.2767C31.995 25.1004 24.8157 32.2579 15.9763 32.2529C7.12683 32.2479 -0.0174693 25.0542 3.20861e-05 16.1667C0.0175334 7.39168 7.21059 0.247932 16.0238 0.252932ZM15.9925 30.7817C24.0419 30.7867 30.5011 24.3467 30.5286 16.2917C30.5561 8.22293 24.0819 1.72918 16.0075 1.72418C7.95814 1.71918 1.49889 8.15918 1.47139 16.2142C1.44389 24.2829 7.91814 30.7767 15.9925 30.7817Z" fill="white"/>
<path d="M19.6141 9.26656C17.2052 9.26531 14.795 9.26531 12.3848 9.26656C10.4984 9.26656 9.01952 10.7466 9.01827 12.6328C9.01702 15.0428 9.01702 17.4516 9.01827 19.8616C9.01827 21.7466 10.4984 23.2253 12.3848 23.2278C13.2111 23.2278 14.0374 23.2278 14.8637 23.2278H15.9726H17.1026C17.4789 23.2278 17.8565 23.2278 18.2327 23.2278C18.6928 23.2278 19.1541 23.2278 19.6141 23.2278C21.5005 23.2253 22.9794 21.7466 22.9794 19.8616C22.9806 17.4516 22.9806 15.0428 22.9794 12.6328C22.9794 10.7466 21.4992 9.26781 19.6141 9.26656ZM13.8262 10.5853C14.1924 10.5853 14.5599 10.5853 14.9262 10.5853H16.0263H17.1151C17.939 10.5853 18.764 10.5853 19.5878 10.5853C20.7879 10.5866 21.6592 11.4591 21.6605 12.6591C21.6617 15.0516 21.6617 17.4428 21.6605 19.8353C21.6605 21.0353 20.7879 21.9066 19.5866 21.9078C17.1952 21.9091 14.8025 21.9091 12.411 21.9078C11.2109 21.9078 10.3396 21.0353 10.3396 19.8341C10.3384 17.4416 10.3384 15.0503 10.3396 12.6578C10.3396 11.4591 11.2122 10.5878 12.4135 10.5866C12.8848 10.5866 13.3561 10.5866 13.8274 10.5866L13.8262 10.5853Z" fill="white"/>
<path d="M16.0051 19.8524H16.0076C16.9564 19.8524 17.8577 19.4774 18.5428 18.7974C19.2291 18.1174 19.6066 17.2249 19.6054 16.2849C19.6029 14.2199 18.0552 12.6574 16.0051 12.6511H15.9938C15.02 12.6511 14.1162 13.0174 13.4486 13.6836C12.7673 14.3636 12.3923 15.2936 12.3936 16.3011C12.3961 18.2274 14.0499 19.8524 16.0051 19.8524ZM13.7137 16.2049C13.7174 14.9899 14.7612 13.9611 15.9938 13.9599H15.9976C16.6064 13.9599 17.1839 14.2011 17.6215 14.6386C18.0515 15.0686 18.2878 15.6299 18.2865 16.2199C18.2865 16.8549 18.0465 17.4411 17.6152 17.8711C17.1914 18.2924 16.6189 18.5249 16.0013 18.5249H15.9926C14.69 18.5199 13.7099 17.5236 13.7137 16.2049Z" fill="white"/>
<path d="M19.7718 13.2645H19.7768C19.988 13.2645 20.188 13.1808 20.3393 13.0283C20.4918 12.8745 20.573 12.6733 20.5705 12.4595C20.5643 12.0308 20.2105 11.6795 19.7818 11.677C19.5655 11.677 19.3668 11.7595 19.2155 11.912C19.063 12.0658 18.9805 12.267 18.9843 12.4808C18.9905 12.9095 19.3443 13.2608 19.773 13.2633L19.7718 13.2645Z" fill="white"/>
</svg>
