<svg width="32" height="33" viewBox="0 0 32 33" fill="none" xmlns="http://www.w3.org/2000/svg">
<path d="M16.0238 0.252932C24.847 0.257932 32.005 7.43668 32 16.2767C31.995 25.1004 24.8157 32.2579 15.9763 32.2529C7.12684 32.2479 -0.0174693 25.0542 3.20861e-05 16.1667C0.0175334 7.39168 7.21059 0.247932 16.0238 0.252932ZM15.9925 30.7817C24.0419 30.7867 30.5011 24.3467 30.5286 16.2917C30.5561 8.22293 24.0819 1.72918 16.0075 1.72418C7.95815 1.71918 1.4989 8.15918 1.4714 16.2142C1.4439 24.2829 7.91815 30.7767 15.9925 30.7817Z" fill="white"/>
<path d="M17.47 22.0323H14.5811V14.1373H17.4313C17.4538 14.4348 17.4763 14.716 17.4875 14.8673C18.0576 14.626 18.6264 14.2498 19.2389 14.1498C21.5528 13.7723 22.3254 15.286 22.4679 16.8535C22.5992 18.2998 22.5179 19.7635 22.5304 21.221C22.5329 21.4685 22.5304 21.716 22.5304 22.021H19.6289C19.6289 20.641 19.6314 19.291 19.6264 17.941C19.6264 17.651 19.6802 17.3148 19.5564 17.0823C19.3889 16.7673 19.1189 16.4073 18.8101 16.2923C18.3763 16.131 17.9176 16.3623 17.73 16.8098C17.575 17.1798 17.49 17.6035 17.4813 18.0048C17.4513 19.331 17.47 20.6585 17.47 22.0323Z" fill="white"/>
<path d="M10.1771 14.1194H13.0661V22.0744C12.201 22.0744 11.3347 22.0844 10.4697 22.0607C10.3696 22.0582 10.1909 21.8632 10.1896 21.7557C10.1734 19.2232 10.1771 16.6907 10.1771 14.1182V14.1194Z" fill="white"/>
<path d="M10.1946 11.8954C10.1908 11.0967 10.8034 10.4654 11.6035 10.4479C12.4148 10.4292 13.0961 11.0854 13.0973 11.8867C13.0986 12.6692 12.3885 13.3692 11.611 13.3492C10.8296 13.3304 10.1983 12.6829 10.1946 11.8942V11.8954Z" fill="white"/>
</svg>
