<svg width="32" height="33" viewBox="0 0 32 33" fill="none" xmlns="http://www.w3.org/2000/svg">
<path d="M32 16.303C31.99 25.1167 24.7982 32.2629 15.95 32.2529C7.13681 32.2429 -0.00999029 25.0517 1.0483e-05 16.203C0.0100113 7.36422 7.21682 0.230483 16.1125 0.252983C24.8782 0.275483 32.01 7.48047 32 16.303ZM30.5286 16.273C30.5424 8.22547 24.1081 1.76048 16.0513 1.72423C7.98563 1.68923 1.48512 8.15672 1.47137 16.233C1.45762 24.2804 7.89187 30.7454 15.9487 30.7817C24.0144 30.8167 30.5149 24.3492 30.5286 16.273Z" fill="white"/>
<path d="M9.57202 20.7484C11.1984 20.8609 12.5222 20.4896 13.7036 19.6346C13.1598 19.3909 12.5898 19.2396 12.1535 18.9096C11.7159 18.5796 11.4134 18.0709 10.9409 17.5096H12.1122C10.9221 16.8871 10.1146 16.0221 10.0533 14.5646C10.4321 14.6621 10.7809 14.7521 11.3072 14.8871C10.0721 13.7084 9.75328 12.4771 10.4458 10.9696C12.1247 12.8134 14.1186 13.8721 16.5826 14.0134C16.4438 12.6146 16.8551 11.5159 18.0677 10.8509C19.2665 10.1946 20.4216 10.3671 21.5079 11.1821C21.6417 11.2821 21.8892 11.3171 22.0542 11.2734C22.5268 11.1459 22.9831 10.9621 23.5569 10.8859C23.2206 11.3296 22.8856 11.7734 22.5118 12.2659C22.9518 12.1509 23.3743 12.0409 23.7969 11.9309C23.8269 11.9559 23.8569 11.9821 23.8869 12.0071C23.5769 12.3371 23.2381 12.6459 22.9681 13.0059C22.773 13.2646 22.5593 13.5871 22.5443 13.8909C22.3405 18.0096 19.6878 21.1259 15.6525 21.9421C13.7161 22.3334 11.1396 21.8634 9.57327 20.7496L9.57202 20.7484Z" fill="white"/>
</svg>
