<svg width="40" height="40" viewBox="0 0 40 40" fill="none" xmlns="http://www.w3.org/2000/svg">
<path d="M2.78904 29.3583V28.6922C2.78904 24.6066 2.78904 20.5209 2.78904 16.4353C2.78904 15.5546 3.0996 15.1895 3.92268 15.1874C8.23501 15.1779 12.5473 15.1831 16.8597 15.1852C16.9246 15.1852 16.9896 15.2021 17.087 15.2158V16.2837H3.85875V29.332C4.01301 29.3404 4.1754 29.3562 4.33677 29.3562C8.32737 29.3572 12.319 29.352 16.3096 29.3656C16.6618 29.3667 16.8302 29.2594 16.9774 28.9185C18.0562 26.4227 20.0018 24.9159 22.4254 24.0794C26.6717 22.6137 30.8907 22.6884 34.9686 24.7244C37.177 25.8271 38.7369 27.5811 39.3804 30.1053C39.7315 31.4805 39.6179 32.8779 39.6199 34.3067H38.5624C38.5624 33.646 38.5492 33.0031 38.5644 32.3612C38.6324 29.5298 37.378 27.4601 35.0975 26.0344C32.5308 24.4298 29.6931 24.0521 26.7611 24.2436C24.7384 24.3751 22.7948 24.8517 21.0269 25.9208C19.1615 27.0487 17.8461 28.6281 17.4889 30.8997C17.3762 31.6194 17.4148 32.3654 17.3935 33.0988C17.3823 33.4808 17.3915 33.8648 17.3915 34.2941H16.3299V33.122C16.0853 33.122 15.8884 33.122 15.6915 33.122C11.2777 33.122 6.86388 33.122 2.45006 33.122C1.68685 33.122 1.56608 33.0841 1.36513 32.317C1.17737 31.6005 1.06776 30.8524 1.00687 30.1116C0.959166 29.5266 1.16621 29.3646 1.72339 29.3572C2.05729 29.353 2.3912 29.3572 2.78701 29.3572L2.78904 29.3583ZM16.476 30.4473H2.09484C2.09484 30.6704 2.08165 30.8608 2.09687 31.0491C2.16995 31.9077 2.28666 32.0172 3.10264 32.0172C7.29622 32.0172 11.4898 32.0172 15.6834 32.0172C15.8813 32.0172 16.0802 32.0172 16.2923 32.0172C16.3563 31.4763 16.4121 30.9944 16.477 30.4473H16.476Z" fill="url(#paint0_linear_65_1150)"/>
<path d="M34.311 17.558C31.7484 23.2261 24.2016 23.2598 21.6359 17.5527C21.169 18.2703 20.5489 18.6312 19.7116 18.5355C18.8459 18.4366 18.1365 17.6948 18.1223 16.7909C18.103 15.5462 18.1152 14.3014 18.1172 13.0567C18.1182 12.4264 18.4389 11.9814 18.8825 11.5878C19.0996 11.3953 19.3178 11.1575 19.4315 10.8934C20.7489 7.81048 22.9776 5.86287 26.1613 5.18947C30.4645 4.27932 34.8093 6.72251 36.5235 10.9229C36.625 11.1722 36.8422 11.3921 37.0502 11.57C37.4998 11.9551 37.8348 12.3959 37.8419 13.0241C37.8551 14.2331 37.8794 15.4431 37.85 16.652C37.8277 17.5717 37.3324 18.2324 36.5793 18.4808C35.805 18.7364 35.0265 18.4629 34.4693 17.739C34.4277 17.6842 34.379 17.6358 34.311 17.558ZM33.7985 14.735C33.8168 11.4184 31.2206 8.69747 27.9983 8.65644C24.846 8.61646 22.189 11.3437 22.1677 14.6424C22.1464 18.0073 24.6999 20.7209 27.908 20.743C31.1699 20.7651 33.7792 18.1041 33.7985 14.735ZM35.4609 11.2469C34.4856 8.55438 31.4541 5.8555 27.364 6.11224C24.3213 6.30269 20.8981 8.89213 20.5022 11.2469C20.8666 11.5205 21.2167 11.7825 21.578 12.0529C22.8223 9.25303 24.9414 7.61161 27.9628 7.60425C31.0014 7.59688 33.1307 9.24567 34.3841 12.0498C34.7545 11.773 35.1057 11.511 35.4609 11.2459V11.2469ZM36.8117 14.9096C36.8117 14.3488 36.8188 13.788 36.8097 13.2272C36.8016 12.719 36.4514 12.3275 36.014 12.316C35.5807 12.3054 35.1848 12.699 35.1798 13.1935C35.1676 14.332 35.1676 15.4715 35.1798 16.61C35.1848 17.1308 35.5319 17.4685 36.0069 17.4654C36.488 17.4633 36.7985 17.1339 36.8087 16.591C36.8188 16.0302 36.8107 15.4694 36.8117 14.9086V14.9096ZM20.7803 14.9149C20.7803 14.3362 20.7915 13.7585 20.7773 13.1798C20.7651 12.6958 20.3591 12.296 19.9319 12.316C19.5086 12.3349 19.1544 12.7126 19.1504 13.1882C19.1402 14.3267 19.1402 15.4662 19.1504 16.6057C19.1544 17.1403 19.4812 17.4685 19.9664 17.4664C20.4444 17.4643 20.7681 17.1297 20.7793 16.5973C20.7905 16.0365 20.7824 15.4757 20.7813 14.9149H20.7803Z" fill="url(#paint1_linear_65_1150)"/>
<path d="M7.46255 20.5102C7.46255 18.4785 8.96563 16.9191 10.9193 16.9275C12.8182 16.9349 14.3558 18.5426 14.3466 20.5134C14.3385 22.4726 12.7756 24.0887 10.8899 24.0887C8.98795 24.0887 7.46255 22.4957 7.46255 20.5102ZM13.2688 20.5039C13.2688 19.0961 12.2184 17.9839 10.8879 17.986C9.58675 17.9881 8.47949 19.154 8.48659 20.5123C8.4937 21.8581 9.58066 22.9934 10.8706 23.005C12.1869 23.0166 13.2688 21.8886 13.2688 20.5039Z" fill="url(#paint2_linear_65_1150)"/>
<path d="M5.44817 28.4449C5.48064 27.1623 5.93227 26.1606 6.85279 25.4735C7.44245 25.0337 8.14273 24.738 8.82373 24.455C9.01149 24.3771 9.3525 24.5118 9.54229 24.6602C10.0102 25.0263 10.4324 25.4556 10.8901 25.8765C11.361 25.4493 11.8065 25.019 12.2815 24.6297C12.4348 24.5034 12.6905 24.3855 12.862 24.4276C14.3215 24.7875 15.8743 25.7881 16.2335 27.5779C16.2843 27.8304 16.3036 28.0903 16.3452 28.3986H15.3252C15.2298 27.0192 14.4301 26.1858 13.2406 25.6713C12.9818 25.5587 12.792 25.5566 12.5687 25.7892C12.177 26.1974 11.7345 26.5531 11.3214 26.9403C11.0119 27.2307 10.7318 27.2023 10.4334 26.915C10.0376 26.5341 9.6113 26.1869 9.22665 25.7944C8.99322 25.5566 8.77705 25.5629 8.5081 25.6882C7.47188 26.1722 6.67823 26.8571 6.50773 28.1156C6.49149 28.2397 6.29764 28.3944 6.16063 28.4302C5.95765 28.4838 5.73132 28.4439 5.44918 28.4439L5.44817 28.4449Z" fill="url(#paint3_linear_65_1150)"/>
<defs>
<linearGradient id="paint0_linear_65_1150" x1="5.50024" y1="14.203" x2="19.2126" y2="39.0751" gradientUnits="userSpaceOnUse">
<stop stop-color="#90C43F"/>
<stop offset="1" stop-color="#0F84CF"/>
</linearGradient>
<linearGradient id="paint1_linear_65_1150" x1="20.4122" y1="4.13905" x2="34.6548" y2="19.1555" gradientUnits="userSpaceOnUse">
<stop stop-color="#90C43F"/>
<stop offset="1" stop-color="#0F84CF"/>
</linearGradient>
<linearGradient id="paint2_linear_65_1150" x1="8.26437" y1="16.561" x2="14.2712" y2="21.7456" gradientUnits="userSpaceOnUse">
<stop stop-color="#90C43F"/>
<stop offset="1" stop-color="#0F84CF"/>
</linearGradient>
<linearGradient id="paint3_linear_65_1150" x1="6.71737" y1="24.2122" x2="9.13341" y2="30.0645" gradientUnits="userSpaceOnUse">
<stop stop-color="#90C43F"/>
<stop offset="1" stop-color="#0F84CF"/>
</linearGradient>
</defs>
</svg>
