<svg width="40" height="40" viewBox="0 0 40 40" fill="none" xmlns="http://www.w3.org/2000/svg">
<path d="M26.8137 20.5925C26.645 21.0874 26.4843 21.5974 26.2977 22.0973C25.87 23.244 25.3448 24.3391 24.4686 25.2244C23.1898 26.5165 21.6843 26.5036 20.4128 25.1936C19.4132 24.1629 18.8699 22.8816 18.4186 21.5522C18.3117 21.2378 18.2284 20.9155 18.1236 20.561C17.6163 20.6619 17.1212 20.7715 16.6217 20.8582C15.3789 21.0745 14.1331 21.1898 12.8845 20.8983C11.1695 20.4979 10.3643 19.1142 10.8724 17.426C11.2628 16.1282 12.0614 15.0703 12.9089 14.0446C13.1816 13.7144 13.4729 13.4 13.7478 13.087C13.2182 12.4754 12.6814 11.9002 12.1956 11.2842C11.5276 10.4362 10.9463 9.52875 10.731 8.44723C10.4203 6.88583 11.2319 5.64602 12.7819 5.28432C14.2135 4.94984 15.6322 5.11887 17.048 5.39534C17.0946 5.40465 17.1413 5.41611 17.1886 5.42471C17.4778 5.47627 17.8474 5.65748 18.0347 5.54288C18.2277 5.42399 18.2449 5.0186 18.3375 4.73783C18.7465 3.49659 19.2402 2.29475 20.0819 1.27411C21.4877 -0.429823 23.3656 -0.423377 24.7671 1.28557C25.7172 2.44372 26.2389 3.81245 26.6701 5.22201C26.7146 5.36741 26.7584 5.51352 26.8022 5.66035C27.5844 5.51925 28.3306 5.36096 29.0834 5.25352C30.0823 5.11099 31.084 5.08807 32.075 5.33804C33.7578 5.76134 34.545 7.09855 34.0807 8.76667C33.6961 10.1497 32.8558 11.2599 31.9229 12.3128C31.6861 12.5799 31.4371 12.8356 31.191 13.0999C31.6897 13.6793 32.2064 14.2251 32.6606 14.8189C33.3839 15.7622 33.9953 16.7656 34.1596 17.9825C34.3347 19.276 33.7298 20.3045 32.4848 20.7615C31.4586 21.1375 30.393 21.1246 29.3324 21.0029C28.4943 20.9062 27.6654 20.7343 26.8122 20.5932L26.8137 20.5925ZM18.3827 13.0806C18.4121 13.7467 18.4286 14.4271 18.4832 15.1039C18.4946 15.2501 18.6073 15.4449 18.7314 15.5172C19.886 16.1898 21.0507 16.8465 22.2232 17.4883C22.3524 17.5592 22.5856 17.5692 22.7112 17.4998C23.9024 16.8444 25.0828 16.169 26.2597 15.4871C26.353 15.4327 26.4484 15.2873 26.4491 15.1834C26.4613 13.7889 26.4606 12.3944 26.4491 10.9999C26.4484 10.8946 26.3594 10.7449 26.2676 10.6919C25.0792 10.0058 23.8859 9.32749 22.6832 8.6664C22.5655 8.60194 22.3467 8.61053 22.2254 8.67786C21.0342 9.33536 19.8516 10.0079 18.6748 10.6912C18.5764 10.7485 18.4939 10.9111 18.4853 11.03C18.4379 11.7075 18.415 12.3873 18.3834 13.0813L18.3827 13.0806ZM19.2187 20.21C19.5574 21.5085 19.9937 22.7419 20.7407 23.8363C20.9847 24.1937 21.3076 24.5153 21.6499 24.7832C22.1192 25.1513 22.6753 25.1707 23.1418 24.7989C23.5357 24.4852 23.8981 24.1035 24.1851 23.6902C24.8518 22.7304 25.2041 21.626 25.5299 20.5137C25.6131 20.2301 25.5163 20.1484 25.2744 20.0567C24.4621 19.7473 23.6498 19.4322 22.8569 19.0776C22.5347 18.9337 22.2806 18.9294 21.957 19.074C21.0665 19.4716 20.1566 19.8247 19.2187 20.2093V20.21ZM30.228 12.2913C30.7073 11.7512 31.1938 11.2449 31.6323 10.6998C32.1568 10.048 32.624 9.35255 32.8644 8.53604C33.2146 7.34565 32.7826 6.5757 31.5548 6.37444C30.8566 6.25984 30.1261 6.25482 29.4178 6.30639C28.6162 6.36513 27.8233 6.54347 27.0404 6.66809C27.0289 6.77481 27.0182 6.81063 27.0225 6.84429C27.1531 7.81193 27.298 8.77741 27.4085 9.7472C27.443 10.0495 27.565 10.2393 27.809 10.4076C28.2804 10.7335 28.7346 11.0837 29.1867 11.4354C29.524 11.6975 29.8476 11.9776 30.2272 12.2906L30.228 12.2913ZM19.2201 5.94756C20.2326 6.37157 21.1856 6.78054 22.1479 7.16445C22.3015 7.22604 22.5196 7.23034 22.6732 7.17089C23.4747 6.86219 24.2641 6.52055 25.0599 6.19753C25.6906 5.94183 25.6562 6.13163 25.4388 5.41181C25.062 4.16269 24.6078 2.94366 23.761 1.92087C22.9093 0.891635 22.0367 0.876594 21.1332 1.85139C21.1167 1.86858 21.1002 1.88577 21.0851 1.9044C20.1207 3.0998 19.6184 4.50434 19.2201 5.94756ZM14.6656 12.3314C14.7574 12.2598 14.822 12.2111 14.8852 12.1602C15.5834 11.6008 16.268 11.0228 16.9863 10.4899C17.2661 10.2822 17.3802 10.053 17.4089 9.72285C17.4599 9.1298 17.5388 8.53891 17.6177 7.94801C17.6694 7.56196 17.7404 7.17877 17.8072 6.76693C16.3907 6.39879 14.9849 6.10585 13.5433 6.31929C12.1425 6.52628 11.6 7.31844 11.9976 8.51814C12.5035 10.0444 13.5698 11.1883 14.6656 12.3314ZM14.6835 13.9286C13.9925 14.4894 12.8185 15.9556 12.3707 16.8516C12.1956 17.2011 12.0385 17.5692 11.9409 17.946C11.7077 18.8406 12.116 19.531 12.9986 19.8003C13.1464 19.8454 13.2993 19.8791 13.4521 19.9027C14.878 20.1226 16.2572 19.8161 17.6335 19.5117C17.6995 19.4973 17.7857 19.3376 17.7756 19.2567C17.6493 18.2518 17.5087 17.2491 17.3644 16.2463C17.3501 16.1468 17.3199 16.0186 17.2503 15.9627C16.4057 15.2823 15.5518 14.6133 14.6835 13.9279V13.9286ZM27.1079 19.478C28.0845 19.6213 29.0317 19.8103 29.9876 19.8813C30.609 19.9271 31.2555 19.8619 31.8684 19.7366C32.7309 19.5597 33.0854 19.0139 32.9799 18.1437C32.9404 17.8185 32.8421 17.4883 32.7087 17.1875C32.1726 15.9806 31.3216 14.9965 30.4181 14.0532C30.2574 13.8856 30.1576 13.9752 30.0292 14.0783C29.4716 14.5274 28.9377 15.0151 28.3414 15.4069C27.7523 15.7944 27.4114 16.2299 27.3971 16.9776C27.382 17.7805 27.2184 18.5813 27.1072 19.478H27.1079ZM29.3941 13.1171C28.7813 12.6301 28.2295 12.1903 27.6281 11.7118V14.5231C28.2352 14.0396 28.782 13.6049 29.3941 13.1171ZM21.0966 7.94013C20.3331 7.64361 19.6657 7.38505 18.9575 7.11001C18.8362 7.87854 18.7257 8.57615 18.6044 9.34539C19.4505 8.86838 20.2219 8.4329 21.0966 7.94013ZM18.603 16.8888C18.7314 17.6803 18.8448 18.375 18.9661 19.1228C19.6937 18.8377 20.3589 18.577 21.0866 18.2919C20.2427 17.8149 19.4706 17.3787 18.603 16.8888ZM17.2446 14.5195V11.7083C16.6382 12.1946 16.085 12.6379 15.4958 13.1107C16.095 13.5934 16.6468 14.0382 17.2446 14.5195ZM23.7991 7.93512C24.6501 8.42144 25.4273 8.86623 26.2683 9.34682C26.1477 8.58188 26.0365 7.87424 25.916 7.11001C25.202 7.38863 24.5332 7.64934 23.7991 7.93583V7.93512ZM23.7991 18.3019C24.5238 18.5813 25.2012 18.8427 25.9145 19.1177C26.0358 18.3456 26.1449 17.6502 26.2633 16.8945C25.4158 17.3787 24.6351 17.8249 23.7991 18.3027V18.3019Z" fill="url(#paint0_linear_65_1123)"/>
<path d="M10.302 28.2885C9.80611 28.8028 9.31026 29.3178 8.81368 29.832C8.71394 29.9352 8.61348 30.0383 8.50727 30.1336C8.21593 30.3943 7.89014 30.395 7.64832 30.1422C7.41295 29.8958 7.43304 29.61 7.71505 29.3307C8.31639 28.7348 8.92132 28.1431 9.57792 27.4971C8.9407 27.3152 8.38313 27.1562 7.82484 26.9972C7.65262 26.9485 7.47896 26.9012 7.30603 26.8546C6.98526 26.768 6.83242 26.5517 6.82165 26.2272C6.81089 25.9106 6.9989 25.7609 7.27445 25.665C9.23491 24.9781 11.1932 24.2862 13.1522 23.5957C13.3101 23.5399 13.4708 23.4897 13.623 23.421C13.8454 23.32 14.0643 23.277 14.2566 23.4618C14.4669 23.6645 14.502 23.9173 14.4073 24.1881C14.159 24.8964 13.9107 25.6048 13.6596 26.3124C13.173 27.6833 12.6815 29.0528 12.2007 30.4258C12.0931 30.7323 11.9338 30.9837 11.5857 30.9816C11.2112 30.9794 11.0705 30.698 10.983 30.3757C10.8 29.6995 10.6062 29.027 10.4168 28.353C10.3787 28.3322 10.3407 28.3115 10.302 28.2907V28.2885Z" fill="url(#paint1_linear_65_1123)"/>
<path d="M20.3984 13.1287C20.3941 11.9949 21.2781 11.1025 22.4062 11.1011C23.5242 11.0996 24.4363 12.0128 24.4291 13.1273C24.4219 14.2275 23.5285 15.1242 22.4249 15.1392C21.3104 15.1543 20.4027 14.254 20.3984 13.1287Z" fill="url(#paint2_linear_65_1123)"/>
<path d="M38.3224 32.6425C38.0411 32.6368 37.7591 32.6418 37.4649 32.6418C37.4563 32.505 37.4469 32.4234 37.4469 32.3417C37.4455 26.8754 37.4462 21.4084 37.4448 15.942C37.4448 14.1514 37.4577 12.3608 37.4333 10.571C37.4189 9.53957 36.4624 8.67937 35.4391 8.72736C35.3494 8.73166 35.2059 8.78323 35.1837 8.84697C35.0696 9.16498 34.9878 9.49373 34.8837 9.85758C35.1119 9.85758 35.2906 9.85114 35.4678 9.85902C35.9744 9.87979 36.2665 10.1469 36.3153 10.6483C36.3361 10.861 36.3232 11.0773 36.3232 11.2922C36.3246 18.2626 36.3239 25.2331 36.3347 32.2035C36.3347 32.5401 36.2521 32.6554 35.9012 32.6526C34.0118 32.6368 32.1224 32.644 30.233 32.6433C28.0085 32.6433 25.7847 32.6418 23.5601 32.6447C23.1274 32.6447 22.9559 32.7836 22.8504 33.1969C22.7414 33.6238 22.6517 34.0571 22.5189 34.4761C22.4852 34.5814 22.3194 34.7168 22.2132 34.7175C20.7543 34.7318 19.2955 34.7218 17.8366 34.7282C17.6422 34.7289 17.5589 34.6588 17.5194 34.4783C17.4455 34.1409 17.3537 33.8071 17.2726 33.4719C17.0846 32.6991 17.0021 32.6411 16.2012 32.6411C12.1712 32.6447 8.14126 32.6447 4.11127 32.6447C3.99646 32.6447 3.88164 32.6311 3.7288 32.6211C3.7288 32.4506 3.7288 32.3102 3.7288 32.1698C3.72808 28.6366 3.72593 25.1034 3.72593 21.5702C3.72593 18.0134 3.72593 14.4565 3.73023 10.8997C3.73095 10.1283 4.00435 9.86188 4.765 9.86117C6.39106 9.85973 8.01783 9.86116 9.64389 9.85973C9.77808 9.85973 9.91155 9.84254 10.068 9.83108C9.96824 9.53026 9.86204 9.28674 9.81037 9.03319C9.76014 8.78466 9.64533 8.71518 9.39776 8.71733C7.85494 8.72951 6.31212 8.72378 4.77002 8.72593C3.38866 8.72736 2.60577 9.5274 2.60648 10.9155C2.61007 17.767 2.61007 24.6178 2.61151 31.4693C2.61151 31.8475 2.61151 32.2257 2.61151 32.6433C2.28931 32.6433 2.01734 32.6404 1.74538 32.6433C1.18996 32.6511 0.956027 32.8954 1.00698 33.4533C1.03209 33.7319 1.08089 34.0091 1.12753 34.2863C1.12753 34.2877 1.57315 35.6959 2.43355 36.5661C2.43785 36.5704 2.44144 36.574 2.44574 36.5783C2.4601 36.5926 2.47445 36.6062 2.4888 36.6205C3.40014 37.4936 4.49949 37.9563 5.78541 37.9842C6.75344 38.0057 7.72219 37.995 8.69093 37.9957C13.3904 37.9971 18.0899 37.9986 22.7894 37.9979C26.5675 37.9979 30.3464 38.0129 34.1245 37.9842C36.8126 37.9642 38.8104 36.0425 38.9955 33.3724C39.0314 32.8574 38.8455 32.654 38.3202 32.6433L38.3224 32.6425Z" fill="url(#paint3_linear_65_1123)"/>
<defs>
<linearGradient id="paint0_linear_65_1123" x1="12.2146" y1="2.75617" x2="35.6865" y2="25.4166" gradientUnits="userSpaceOnUse">
<stop stop-color="#90C43F"/>
<stop offset="1" stop-color="#0F84CF"/>
</linearGradient>
<linearGradient id="paint1_linear_65_1123" x1="7.32358" y1="24.1392" x2="14.1663" y2="31.4745" gradientUnits="userSpaceOnUse">
<stop stop-color="#90C43F"/>
<stop offset="1" stop-color="#0F84CF"/>
</linearGradient>
<linearGradient id="paint2_linear_65_1123" x1="20.6635" y1="11.5261" x2="24.2771" y2="15.3983" gradientUnits="userSpaceOnUse">
<stop stop-color="#90C43F"/>
<stop offset="1" stop-color="#0F84CF"/>
</linearGradient>
<linearGradient id="paint3_linear_65_1123" x1="3.50017" y1="11.7997" x2="28.3866" y2="46.4689" gradientUnits="userSpaceOnUse">
<stop stop-color="#90C43F"/>
<stop offset="1" stop-color="#0F84CF"/>
</linearGradient>
</defs>
</svg>
