<svg width="29" height="11" viewBox="0 0 29 11" fill="none" xmlns="http://www.w3.org/2000/svg">
<path d="M25.7541 4.4987H1.03541C0.739862 4.4987 0.5 4.99386 0.5 5.60397C0.5 6.21407 0.739862 6.70923 1.03541 6.70923H25.7541C26.0496 6.70923 26.2895 6.21407 26.2895 5.60397C26.2895 4.99386 26.0496 4.4987 25.7541 4.4987Z" fill="#0F84CF"/>
<path d="M22.0452 0.814437C21.7505 0.814437 21.4631 0.954436 21.2789 1.2197C20.9916 1.6397 21.1021 2.21444 21.5221 2.50181L25.9358 5.50075L21.5221 8.4997C21.1021 8.78707 20.9916 9.36181 21.2789 9.78181C21.5663 10.2018 22.141 10.3123 22.561 10.025L28.0947 6.26707C28.3452 6.09759 28.5 5.81023 28.5 5.50812C28.5 5.20602 28.3526 4.91865 28.0947 4.74917L22.561 0.991279C22.4063 0.880753 22.2221 0.829173 22.0452 0.829173V0.814437Z" fill="#0F84CF"/>
</svg>
