<svg width="40" height="40" viewBox="0 0 40 40" fill="none" xmlns="http://www.w3.org/2000/svg">
<path d="M14.5215 30.6909C10.7329 30.6909 7.01982 30.6909 3.30493 30.6909C0.771975 30.6909 0.000213623 29.9135 0.000213623 27.3604C0.000213623 19.9112 0.000213623 12.4619 0.000213623 5.01093C0.000213623 2.89412 0.887109 2 2.98471 2C14.016 2 25.0456 2 36.0769 2C38.0683 2 38.9984 2.91746 39.0002 4.88884C39.002 12.5176 39.0002 20.1464 39.0002 27.7769C39.0002 29.7626 38.0773 30.6873 36.0913 30.6891C32.7937 30.6927 29.4962 30.6891 26.1987 30.6891H25.2506C24.4897 32.8095 26.2689 35.3967 28.406 35.3967C29.185 35.3967 29.9658 35.4093 30.7447 35.3931C31.3186 35.3823 31.7827 35.6624 31.6892 36.1903C31.6334 36.5045 31.0685 36.9587 30.7303 36.9605C23.2376 37.0036 15.7431 36.9928 8.25032 36.9982C7.67644 36.9982 7.27707 36.7379 7.27887 36.1849C7.28067 35.6229 7.69803 35.3841 8.26831 35.3931C9.22716 35.4093 10.195 35.3141 11.1431 35.4164C12.5337 35.5672 13.3414 34.7988 13.9837 33.7808C14.5539 32.8777 14.8112 31.8723 14.5215 30.6891V30.6909ZM1.59051 23.8575H37.3631C37.3793 23.6797 37.4009 23.563 37.4009 23.4481C37.4027 17.1965 37.4063 10.9448 37.4009 4.69314C37.4009 3.77927 37.1653 3.59793 36.0805 3.59793C25.0222 3.59793 13.9639 3.59793 2.90556 3.59793C1.70564 3.59793 1.59411 3.71643 1.59231 4.96245C1.59231 10.0184 1.59231 15.0725 1.59231 20.1284C1.59231 21.3511 1.59231 22.572 1.59231 23.8575H1.59051ZM37.4045 25.5901H1.59411C1.59411 26.31 1.59411 26.9654 1.59411 27.6207C1.59411 28.9601 1.74342 29.1091 3.08006 29.1091C14.0448 29.1091 25.0078 29.1091 35.9725 29.1091C36.1524 29.1091 36.3323 29.1073 36.5122 29.1091C37.1077 29.1145 37.3955 28.7985 37.4027 28.2276C37.4135 27.3658 37.4063 26.5039 37.4063 25.5919L37.4045 25.5901ZM23.5218 30.7717H16.146C16.3565 32.4827 15.8636 33.9442 14.8741 35.3249H24.8441C23.7863 33.9424 23.3743 32.4809 23.5236 30.7717H23.5218Z" fill="url(#paint0_linear_65_1136)"/>
<path d="M24.9844 8.8171C27.3231 8.8171 29.66 8.82249 31.9986 8.81351C32.6103 8.81172 33.2327 8.87276 33.2345 9.62864C33.2345 10.4007 32.5923 10.4294 31.9896 10.4276C27.3429 10.424 22.6979 10.424 18.0512 10.4258C17.4899 10.4258 16.8998 10.4294 16.8782 9.66454C16.8566 8.8566 17.4485 8.81351 18.0584 8.81531C20.3664 8.82069 22.6745 8.8171 24.9826 8.8171H24.9844Z" fill="url(#paint1_linear_65_1136)"/>
<path d="M25.058 16.8895C27.4237 16.8895 29.7911 16.8985 32.1568 16.8841C32.7235 16.8805 33.2344 16.9775 33.238 17.64C33.2416 18.2864 32.7307 18.4533 32.173 18.4533C27.4111 18.4551 22.6474 18.4569 17.8855 18.4497C17.3476 18.4497 16.8349 18.3546 16.8709 17.6238C16.9069 16.9021 17.4178 16.8859 17.9593 16.8859C20.3249 16.8913 22.6924 16.8877 25.058 16.8877V16.8895Z" fill="url(#paint2_linear_65_1136)"/>
<path d="M9.61584 9.85328C10.2527 8.95198 10.8158 8.14763 11.3896 7.34866C11.6955 6.92494 12.0678 6.62511 12.5913 7.00394C13.0933 7.36841 12.9961 7.81368 12.6813 8.25715C11.9725 9.2554 11.2619 10.2537 10.5549 11.2555C10.2311 11.7151 9.75436 11.927 9.328 11.5769C8.6318 11.0041 7.38691 10.891 7.4067 9.6899C7.41569 9.18538 7.90321 8.87118 8.48069 9.16743C8.84768 9.35595 9.18948 9.59294 9.61584 9.85328Z" fill="url(#paint3_linear_65_1136)"/>
<path d="M9.27035 17.579C9.8874 16.7154 10.4325 15.9362 10.9938 15.1695C11.3086 14.7404 11.6828 14.3328 12.2513 14.7512C12.7855 15.1462 12.6128 15.6166 12.2818 16.0762C11.6018 17.0188 10.9326 17.9704 10.267 18.9238C9.84602 19.5288 9.3603 19.6437 8.75225 19.1931C8.2971 18.8555 7.76641 18.597 7.38143 18.1966C7.17454 17.9812 7.02883 17.3779 7.16195 17.2378C7.37963 17.008 7.86535 16.8949 8.20356 16.9506C8.55256 17.008 8.86018 17.324 9.27035 17.5808V17.579Z" fill="url(#paint4_linear_65_1136)"/>
<defs>
<linearGradient id="paint0_linear_65_1136" x1="4.00021" y1="-0.999999" x2="34.5002" y2="38" gradientUnits="userSpaceOnUse">
<stop stop-color="#90C43F"/>
<stop offset="1" stop-color="#0F84CF"/>
</linearGradient>
<linearGradient id="paint1_linear_65_1136" x1="18.5552" y1="8.67511" x2="18.8027" y2="11.5527" gradientUnits="userSpaceOnUse">
<stop stop-color="#90C43F"/>
<stop offset="1" stop-color="#0F84CF"/>
</linearGradient>
<linearGradient id="paint2_linear_65_1136" x1="18.5479" y1="16.7494" x2="18.7822" y2="19.5509" gradientUnits="userSpaceOnUse">
<stop stop-color="#90C43F"/>
<stop offset="1" stop-color="#0F84CF"/>
</linearGradient>
<linearGradient id="paint3_linear_65_1136" x1="7.97426" y1="6.40875" x2="12.2527" y2="11.9319" gradientUnits="userSpaceOnUse">
<stop stop-color="#90C43F"/>
<stop offset="1" stop-color="#0F84CF"/>
</linearGradient>
<linearGradient id="paint4_linear_65_1136" x1="7.67309" y1="14.1566" x2="11.9298" y2="19.6312" gradientUnits="userSpaceOnUse">
<stop stop-color="#90C43F"/>
<stop offset="1" stop-color="#0F84CF"/>
</linearGradient>
</defs>
</svg>
