<svg width="16" height="19" viewBox="0 0 16 19" fill="none" xmlns="http://www.w3.org/2000/svg">
<path d="M16 7.99942C15.9712 3.80137 12.7879 0.378595 8.57075 0.0265336C4.53528 -0.310704 0.820284 2.60362 0.114353 6.66604C-0.270365 8.88069 0.34548 10.8663 1.51366 12.7208C2.73132 14.6545 4.36027 16.211 6.0483 17.7141C6.40718 18.0335 6.75719 18.3641 7.12935 18.668C7.64625 19.0905 8.3315 19.1223 8.82846 18.691C10.7173 17.0492 12.6136 15.412 14.0661 13.3396C15.0031 12.0025 15.7216 10.5691 15.9321 8.9222C15.9712 8.61683 15.9786 8.30701 16 7.99942ZM1.11196 7.7956C1.14002 7.56657 1.16439 7.10778 1.25743 6.66382C2.32149 1.56449 8.28572 -0.599765 12.3197 2.6807C14.3009 4.29203 15.1346 6.43775 14.7919 8.98964C14.5985 10.4305 13.8992 11.6668 13.0663 12.8297C11.7098 14.7212 9.95012 16.2147 8.23624 17.7534C8.04573 17.9238 7.89288 17.8786 7.72304 17.7222C7.3147 17.3472 6.89675 16.9825 6.48471 16.612C5.01599 15.2912 3.60339 13.9185 2.52751 12.2405C1.70344 10.9553 1.11934 9.58629 1.11196 7.7956Z" fill="#8B939A"/>
<path d="M8.04819 4.20039C6.12755 4.15295 4.51263 5.72352 4.46832 7.68172C4.42476 9.5873 5.99316 11.2253 7.90641 11.272C9.8551 11.3202 11.4752 9.75851 11.5225 7.78697C11.5682 5.86063 10.0065 4.24931 8.04745 4.20113L8.04819 4.20039ZM7.95293 5.31438C9.2784 5.284 10.389 6.36093 10.4141 7.70025C10.4392 9.00695 9.36701 10.1254 8.05705 10.1587C6.73084 10.1928 5.62247 9.13147 5.57817 7.78622C5.53534 6.46914 6.61491 5.34477 7.95219 5.31364L7.95293 5.31438Z" fill="#8B939A"/>
</svg>
