<svg width="85" height="85" viewBox="0 0 85 85" fill="none" xmlns="http://www.w3.org/2000/svg">
<circle cx="42.4223" cy="42.6855" r="39.1869" fill="#269ED9" stroke="white" stroke-width="5"/>
<path d="M27.1223 29.5571H40.8598V30.316C40.8598 34.8889 40.8534 39.4631 40.87 44.036C40.8712 44.5112 40.7461 44.8381 40.4066 45.169C36.8972 48.5813 33.4083 52.0159 29.8964 55.4242C29.6806 55.6342 29.3193 55.7563 29.013 55.7839C28.4027 55.8391 27.7836 55.7997 27.1223 55.7997V29.5571V29.5571ZM29.1432 53.2277C29.3015 53.1016 29.3742 53.0531 29.4342 52.994C32.4687 50.0215 35.507 47.053 38.5261 44.0622C38.7061 43.8837 38.807 43.5344 38.8083 43.2626C38.8261 39.5865 38.821 35.9103 38.8185 32.2342C38.8185 32.0464 38.7955 31.8587 38.784 31.6906H29.1432V53.2277Z" fill="white"/>
<path d="M43.9747 29.5571H57.7121C57.7121 29.8118 57.7121 30.0626 57.7121 30.3134C57.7121 34.8863 57.7057 39.4604 57.7223 44.0333C57.7236 44.5073 57.5998 44.8355 57.2589 45.1664C53.7496 48.5773 50.2606 52.0132 46.7487 55.4216C46.533 55.6316 46.1717 55.7537 45.8666 55.7813C45.2564 55.8364 44.6372 55.797 43.9759 55.797V29.5571H43.9747ZM55.6734 31.6854H46.0172V53.2303C46.2432 53.0215 46.4027 52.8824 46.5547 52.734C49.3287 50.0189 52.0849 47.2841 54.8857 44.5992C55.4819 44.0281 55.7564 43.4543 55.6887 42.6206C55.621 41.7948 55.6747 40.9585 55.6747 40.1274V31.6854H55.6734Z" fill="white"/>
</svg>
