<svg width="31" height="27" viewBox="0 0 31 27" fill="none" xmlns="http://www.w3.org/2000/svg">
<path d="M0.122314 0.557129H13.8598V1.31599C13.8598 5.88888 13.8534 10.4631 13.87 15.036C13.8712 15.5112 13.7461 15.8381 13.4066 16.169C9.8972 19.5813 6.40827 23.0159 2.89636 26.4242C2.68061 26.6342 2.31933 26.7563 2.01295 26.7839C1.40274 26.8391 0.783591 26.7997 0.122314 26.7997V0.557129H0.122314ZM2.14316 24.2277C2.30146 24.1016 2.37423 24.0531 2.43423 23.994C5.4687 21.0215 8.50699 18.053 11.5261 15.0622C11.7061 14.8837 11.807 14.5344 11.8083 14.2626C11.8261 10.5865 11.821 6.91032 11.8185 3.23416C11.8185 3.04642 11.7955 2.85867 11.784 2.69062H2.14316V24.2277Z" fill="white"/>
<path d="M16.9747 0.557129H30.7121C30.7121 0.811834 30.7121 1.0626 30.7121 1.31337C30.7121 5.88625 30.7057 10.4604 30.7223 15.0333C30.7236 15.5073 30.5998 15.8355 30.2589 16.1664C26.7496 19.5773 23.2606 23.0132 19.7487 26.4216C19.533 26.6316 19.1717 26.7537 18.8666 26.7813C18.2564 26.8364 17.6372 26.797 16.9759 26.797V0.557129H16.9747ZM28.6734 2.68536H19.0172V24.2303C19.2432 24.0215 19.4027 23.8824 19.5547 23.734C22.3287 21.0189 25.0849 18.2841 27.8857 15.5992C28.4819 15.0281 28.7564 14.4543 28.6887 13.6206C28.621 12.7948 28.6747 11.9585 28.6747 11.1274V2.68536H28.6734Z" fill="white"/>
</svg>
