<svg width="97" height="17" viewBox="0 0 97 17" fill="none" xmlns="http://www.w3.org/2000/svg">
<path d="M16.5678 6.26429V6.7096C16.3894 6.93373 16.2344 7.18459 16.0289 7.37681C15.0221 8.31492 14.0053 9.23967 12.9842 10.16C12.8278 10.301 12.7915 10.4249 12.8399 10.6364C13.1606 12.0525 13.4635 13.4723 13.7742 14.8906C13.8666 15.3136 13.8595 15.7122 13.4827 15.9897C13.1151 16.2606 12.7574 16.1745 12.3919 15.943C11.1995 15.1874 9.99646 14.4505 8.80476 13.6949C8.62842 13.5836 8.50541 13.5881 8.33192 13.6972C7.1388 14.4512 5.93573 15.1882 4.74333 15.943C4.37786 16.1745 4.02092 16.2621 3.65402 15.9882C3.28002 15.7092 3.27077 15.3136 3.36392 14.8891C3.67606 13.4715 3.97825 12.051 4.29822 10.635C4.34586 10.4242 4.31244 10.2987 4.1553 10.1577C3.31984 9.40962 2.48508 8.66003 1.67023 7.88891C1.2813 7.52079 0.935735 7.10369 0.570263 6.70885C0.570263 6.56042 0.570263 6.41198 0.570263 6.26355C0.7402 5.90285 0.975553 5.63641 1.39009 5.59856C2.78158 5.47313 4.17237 5.33509 5.56457 5.21931C5.84472 5.1963 6.0047 5.10502 6.11776 4.81854C6.63041 3.51751 7.16369 2.22538 7.69981 0.934743C7.783 0.735099 7.88397 0.519868 8.03471 0.378855C8.48124 -0.0404726 9.12473 0.165109 9.38568 0.797441C9.94171 2.14597 10.4928 3.49747 11.0381 4.85119C11.1234 5.06271 11.228 5.18814 11.469 5.20892C12.8257 5.32618 14.1795 5.4761 15.5368 5.57778C16.0246 5.61415 16.3709 5.79375 16.5686 6.26281L16.5678 6.26429Z" fill="#FF9900"/>
<path d="M36.5678 6.26429V6.7096C36.3894 6.93373 36.2344 7.18459 36.0289 7.37681C35.0221 8.31492 34.0053 9.23967 32.9842 10.16C32.8278 10.301 32.7915 10.4249 32.8399 10.6364C33.1606 12.0525 33.4635 13.4723 33.7742 14.8906C33.8666 15.3136 33.8595 15.7122 33.4827 15.9897C33.1151 16.2606 32.7574 16.1745 32.3919 15.943C31.1995 15.1874 29.9965 14.4505 28.8048 13.6949C28.6284 13.5836 28.5054 13.5881 28.3319 13.6972C27.1388 14.4512 25.9357 15.1882 24.7433 15.943C24.3779 16.1745 24.0209 16.2621 23.654 15.9882C23.28 15.7092 23.2708 15.3136 23.3639 14.8891C23.6761 13.4715 23.9783 12.051 24.2982 10.635C24.3459 10.4242 24.3124 10.2987 24.1553 10.1577C23.3198 9.40962 22.4851 8.66003 21.6702 7.88891C21.2813 7.52079 20.9357 7.10369 20.5703 6.70885C20.5703 6.56042 20.5703 6.41198 20.5703 6.26355C20.7402 5.90285 20.9756 5.63641 21.3901 5.59856C22.7816 5.47313 24.1724 5.33509 25.5646 5.21931C25.8447 5.1963 26.0047 5.10502 26.1178 4.81854C26.6304 3.51751 27.1637 2.22538 27.6998 0.934743C27.783 0.735099 27.884 0.519868 28.0347 0.378855C28.4812 -0.0404726 29.1247 0.165109 29.3857 0.797441C29.9417 2.14597 30.4928 3.49747 31.0381 4.85119C31.1234 5.06271 31.228 5.18814 31.469 5.20892C32.8257 5.32618 34.1795 5.4761 35.5368 5.57778C36.0246 5.61415 36.3709 5.79375 36.5686 6.26281L36.5678 6.26429Z" fill="#FF9900"/>
<path d="M56.5678 6.26429V6.7096C56.3894 6.93373 56.2344 7.18459 56.0289 7.37681C55.0221 8.31492 54.0053 9.23967 52.9842 10.16C52.8278 10.301 52.7915 10.4249 52.8399 10.6364C53.1606 12.0525 53.4635 13.4723 53.7742 14.8906C53.8666 15.3136 53.8595 15.7122 53.4827 15.9897C53.1151 16.2606 52.7574 16.1745 52.3919 15.943C51.1995 15.1874 49.9965 14.4505 48.8048 13.6949C48.6284 13.5836 48.5054 13.5881 48.3319 13.6972C47.1388 14.4512 45.9357 15.1882 44.7433 15.943C44.3779 16.1745 44.0209 16.2621 43.654 15.9882C43.28 15.7092 43.2708 15.3136 43.3639 14.8891C43.6761 13.4715 43.9783 12.051 44.2982 10.635C44.3459 10.4242 44.3124 10.2987 44.1553 10.1577C43.3198 9.40962 42.4851 8.66003 41.6702 7.88891C41.2813 7.52079 40.9357 7.10369 40.5703 6.70885C40.5703 6.56042 40.5703 6.41198 40.5703 6.26355C40.7402 5.90285 40.9756 5.63641 41.3901 5.59856C42.7816 5.47313 44.1724 5.33509 45.5646 5.21931C45.8447 5.1963 46.0047 5.10502 46.1178 4.81854C46.6304 3.51751 47.1637 2.22538 47.6998 0.934743C47.783 0.735099 47.884 0.519868 48.0347 0.378855C48.4812 -0.0404726 49.1247 0.165109 49.3857 0.797441C49.9417 2.14597 50.4928 3.49747 51.0381 4.85119C51.1234 5.06271 51.228 5.18814 51.469 5.20892C52.8257 5.32618 54.1795 5.4761 55.5368 5.57778C56.0246 5.61415 56.3709 5.79375 56.5686 6.26281L56.5678 6.26429Z" fill="#FF9900"/>
<path d="M76.5678 6.26429V6.7096C76.3894 6.93373 76.2344 7.18459 76.0289 7.37681C75.0221 8.31492 74.0053 9.23967 72.9842 10.16C72.8278 10.301 72.7915 10.4249 72.8399 10.6364C73.1606 12.0525 73.4635 13.4723 73.7742 14.8906C73.8666 15.3136 73.8595 15.7122 73.4827 15.9897C73.1151 16.2606 72.7574 16.1745 72.3919 15.943C71.1995 15.1874 69.9965 14.4505 68.8048 13.6949C68.6284 13.5836 68.5054 13.5881 68.3319 13.6972C67.1388 14.4512 65.9357 15.1882 64.7433 15.943C64.3779 16.1745 64.0209 16.2621 63.654 15.9882C63.28 15.7092 63.2708 15.3136 63.3639 14.8891C63.6761 13.4715 63.9783 12.051 64.2982 10.635C64.3459 10.4242 64.3124 10.2987 64.1553 10.1577C63.3198 9.40962 62.4851 8.66003 61.6702 7.88891C61.2813 7.52079 60.9357 7.10369 60.5703 6.70885C60.5703 6.56042 60.5703 6.41198 60.5703 6.26355C60.7402 5.90285 60.9756 5.63641 61.3901 5.59856C62.7816 5.47313 64.1724 5.33509 65.5646 5.21931C65.8447 5.1963 66.0047 5.10502 66.1178 4.81854C66.6304 3.51751 67.1637 2.22538 67.6998 0.934743C67.783 0.735099 67.884 0.519868 68.0347 0.378855C68.4812 -0.0404726 69.1247 0.165109 69.3857 0.797441C69.9417 2.14597 70.4928 3.49747 71.0381 4.85119C71.1234 5.06271 71.228 5.18814 71.469 5.20892C72.8257 5.32618 74.1795 5.4761 75.5368 5.57778C76.0246 5.61415 76.3709 5.79375 76.5686 6.26281L76.5678 6.26429Z" fill="#FF9900"/>
<path d="M96.5678 6.26429V6.7096C96.3894 6.93373 96.2344 7.18459 96.0289 7.37681C95.0221 8.31492 94.0053 9.23967 92.9842 10.16C92.8278 10.301 92.7915 10.4249 92.8399 10.6364C93.1606 12.0525 93.4635 13.4723 93.7742 14.8906C93.8666 15.3136 93.8595 15.7122 93.4827 15.9897C93.1151 16.2606 92.7574 16.1745 92.3919 15.943C91.1995 15.1874 89.9965 14.4505 88.8048 13.6949C88.6284 13.5836 88.5054 13.5881 88.3319 13.6972C87.1388 14.4512 85.9357 15.1882 84.7433 15.943C84.3779 16.1745 84.0209 16.2621 83.654 15.9882C83.28 15.7092 83.2708 15.3136 83.3639 14.8891C83.6761 13.4715 83.9783 12.051 84.2982 10.635C84.3459 10.4242 84.3124 10.2987 84.1553 10.1577C83.3198 9.40962 82.4851 8.66003 81.6702 7.88891C81.2813 7.52079 80.9357 7.10369 80.5703 6.70885C80.5703 6.56042 80.5703 6.41198 80.5703 6.26355C80.7402 5.90285 80.9756 5.63641 81.3901 5.59856C82.7816 5.47313 84.1724 5.33509 85.5646 5.21931C85.8447 5.1963 86.0047 5.10502 86.1178 4.81854C86.6304 3.51751 87.1637 2.22538 87.6998 0.934743C87.783 0.735099 87.884 0.519868 88.0347 0.378855C88.4812 -0.0404726 89.1247 0.165109 89.3857 0.797441C89.9417 2.14597 90.4928 3.49747 91.0381 4.85119C91.1234 5.06271 91.228 5.18814 91.469 5.20892C92.8257 5.32618 94.1795 5.4761 95.5368 5.57778C96.0246 5.61415 96.3709 5.79375 96.5686 6.26281L96.5678 6.26429Z" fill="#FF9900"/>
<mask id="mask0_65_252" style="mask-type:alpha" maskUnits="userSpaceOnUse" x="80" y="0" width="17" height="17">
<path d="M96.5678 6.26429V6.7096C96.3894 6.93373 96.2344 7.18459 96.0289 7.37681C95.0221 8.31492 94.0053 9.23967 92.9842 10.16C92.8278 10.301 92.7915 10.4249 92.8399 10.6364C93.1606 12.0525 93.4635 13.4723 93.7742 14.8906C93.8666 15.3136 93.8595 15.7122 93.4827 15.9897C93.1151 16.2606 92.7574 16.1745 92.3919 15.943C91.1995 15.1874 89.9965 14.4505 88.8048 13.6949C88.6284 13.5836 88.5054 13.5881 88.3319 13.6972C87.1388 14.4512 85.9357 15.1882 84.7433 15.943C84.3779 16.1745 84.0209 16.2621 83.654 15.9882C83.28 15.7092 83.2708 15.3136 83.3639 14.8891C83.6761 13.4715 83.9783 12.051 84.2982 10.635C84.3459 10.4242 84.3124 10.2987 84.1553 10.1577C83.3198 9.40962 82.4851 8.66003 81.6702 7.88891C81.2813 7.52079 80.9357 7.10369 80.5703 6.70885C80.5703 6.56042 80.5703 6.41198 80.5703 6.26355C80.7402 5.90285 80.9756 5.63641 81.3901 5.59856C82.7816 5.47313 84.1724 5.33509 85.5646 5.21931C85.8447 5.1963 86.0047 5.10502 86.1178 4.81854C86.6304 3.51751 87.1637 2.22538 87.6998 0.934743C87.783 0.735099 87.884 0.519868 88.0347 0.378855C88.4812 -0.0404726 89.1247 0.165109 89.3857 0.797441C89.9417 2.14597 90.4928 3.49747 91.0381 4.85119C91.1234 5.06271 91.228 5.18814 91.469 5.20892C92.8257 5.32618 94.1795 5.4761 95.5368 5.57778C96.0246 5.61415 96.3709 5.79375 96.5686 6.26281L96.5678 6.26429Z" fill="#FF9900"/>
</mask>
<g mask="url(#mask0_65_252)">
<path d="M90.6332 -1.37354H106.126V21.6532H90.6332V-1.37354Z" fill="#E9E9E9"/>
</g>
</svg>
