<svg width="40" height="40" viewBox="0 0 40 40" fill="none" xmlns="http://www.w3.org/2000/svg">
<path d="M4.91479 31.1132H28.3199C28.3199 30.0074 28.3343 28.9325 28.3151 27.8592C28.3023 27.2064 28.4896 26.7177 29.202 26.682C29.9383 26.6446 30.1688 27.1675 30.172 27.7959C30.1848 30.881 30.2217 33.9662 30.1592 37.0497C30.1208 38.9187 28.9186 39.9839 27.0441 39.9839C20.0823 39.9888 13.1188 39.9628 6.15701 40.0001C4.26968 40.0099 2.99225 38.5485 3.00025 36.8273C3.05148 25.5973 3.02586 14.3673 3.02746 3.13725C3.02746 1.13676 4.1112 0.00661716 6.06736 0.00499339C13.0836 -0.0015017 20.0983 -0.0015017 27.1145 0.00499339C28.9811 0.00661716 30.044 1.01173 30.1672 2.89044C30.2041 3.45551 30.188 4.02708 30.148 4.59215C30.1096 5.15398 29.7638 5.53069 29.2212 5.50958C28.6545 5.48847 28.3023 5.12962 28.3199 4.49472C28.3311 4.0352 28.3295 3.57405 28.3199 3.11452C28.3007 2.22631 27.9918 1.9113 27.1081 1.86746C26.9481 1.85934 26.788 1.86584 26.6279 1.86584C19.9318 1.86584 13.2373 1.86584 6.5412 1.86584C5.09728 1.86584 4.9164 2.04445 4.9164 3.47175C4.9164 12.3749 4.9164 21.278 4.9164 30.1812V31.1148L4.91479 31.1132ZM28.3183 33.0699H4.9276C4.9276 34.4728 4.91479 35.8222 4.9324 37.1715C4.94041 37.8178 5.35341 38.0549 5.9409 38.0549C13.0372 38.0549 20.1351 38.0532 27.2314 38.0581C27.9261 38.0581 28.2911 37.6911 28.3087 37.0303C28.3407 35.7345 28.3183 34.4371 28.3183 33.0715V33.0699Z" fill="url(#paint0_linear_65_1163)"/>
<path d="M23.7224 9.05104C27.0328 6.70307 30.4521 6.40917 34.0138 8.36094C34.1531 8.43726 34.2844 8.53144 34.4188 8.6175C35.533 9.31734 36.0773 10.1893 36.0404 11.6588C35.9236 16.3093 35.994 20.9663 36.002 25.62C36.002 26.1542 36.0052 26.6787 35.445 26.9353C34.8911 27.1902 34.5069 26.8606 34.1067 26.5017C31.3357 24.0206 27.393 24.0644 24.5996 26.5894C23.9305 27.1951 23.5431 27.1934 22.874 26.5813C20.0646 24.0141 16.1058 24.0385 13.2324 26.5927C12.9475 26.846 12.3712 27.0067 12.0414 26.8898C11.7677 26.7924 11.502 26.2224 11.4988 25.8587C11.4635 20.7714 11.4651 15.6858 11.4955 10.5985C11.4971 10.2478 11.7133 9.81422 11.9678 9.56091C14.8652 6.67222 19.6196 6.27926 23.0757 8.611C23.2966 8.76039 23.5159 8.9114 23.7208 9.05104H23.7224ZM34.0779 23.9345C34.0779 19.6705 34.0827 15.4276 34.0635 11.1831C34.0635 10.9833 33.9002 10.7349 33.7401 10.5953C31.443 8.60288 27.489 8.54605 25.1695 10.5043C24.8942 10.7365 24.6941 11.2188 24.686 11.5906C24.6396 13.6463 24.6636 15.7036 24.6636 17.7593C24.6636 19.8102 24.6636 21.861 24.6636 23.9297C30.1463 22.0039 30.6906 22.6274 34.0779 23.9329V23.9345ZM22.6386 23.9556C22.6819 23.8063 22.7203 23.7348 22.7203 23.6634C22.7251 19.5276 22.7363 15.3902 22.7075 11.2545C22.7059 10.9752 22.4545 10.6164 22.216 10.4329C19.8453 8.62074 16.506 8.61587 14.0168 10.3517C13.575 10.6602 13.3925 10.9882 13.3957 11.5419C13.4197 15.4341 13.4069 19.3279 13.4101 23.2217C13.4101 23.4539 13.4341 23.6861 13.4501 24.0044C16.5396 22.3238 19.5891 22.314 22.6402 23.9573L22.6386 23.9556Z" fill="url(#paint1_linear_65_1163)"/>
<path d="M18.2333 35.4567C18.2333 36.0738 17.7883 36.556 17.212 36.5625C16.6613 36.569 16.1506 36.0478 16.1458 35.4746C16.141 34.9014 16.6453 34.3656 17.1928 34.3591C17.745 34.3526 18.2317 34.8657 18.2317 35.4551L18.2333 35.4567Z" fill="url(#paint2_linear_65_1163)"/>
<defs>
<linearGradient id="paint0_linear_65_1163" x1="4.23475" y1="-2.49988" x2="34.3196" y2="37.736" gradientUnits="userSpaceOnUse">
<stop stop-color="#90C43F"/>
<stop offset="1" stop-color="#0F84CF"/>
</linearGradient>
<linearGradient id="paint1_linear_65_1163" x1="12.5879" y1="5.82442" x2="23.6405" y2="32.5755" gradientUnits="userSpaceOnUse">
<stop stop-color="#90C43F"/>
<stop offset="1" stop-color="#0F84CF"/>
</linearGradient>
<linearGradient id="paint2_linear_65_1163" x1="16.2406" y1="34.2213" x2="17.6804" y2="36.9045" gradientUnits="userSpaceOnUse">
<stop stop-color="#90C43F"/>
<stop offset="1" stop-color="#0F84CF"/>
</linearGradient>
</defs>
</svg>
