<svg width="65" height="65" viewBox="0 0 65 65" fill="none" xmlns="http://www.w3.org/2000/svg">
<path d="M64.4999 22.9764H61.6134V15.5429C51.0234 26.1816 40.4931 36.7628 29.9213 47.3831C26.4657 43.9065 23.1193 40.5395 19.7469 37.1491C13.9713 42.9539 8.22159 48.7299 2.49528 54.4825C1.773 53.7543 1.11567 53.0914 0.497314 52.4676C6.89653 46.039 13.3295 39.5764 19.7729 33.1035C23.0622 36.4078 26.419 39.7826 29.7186 43.0974C39.5863 33.1844 49.3709 23.3548 59.2101 13.4705H52.2003V10.5133H64.4999V22.9764Z" fill="url(#paint0_linear_65_423)"/>
<path d="M33.169 54.3861C32.5533 53.7649 31.8933 53.1046 31.2776 52.4834C40.3087 43.4108 49.3996 34.2781 58.4489 25.1873C59.0543 25.7928 59.7272 26.4662 60.3456 27.0848C51.3118 36.16 42.2236 45.29 33.169 54.3861Z" fill="url(#paint1_linear_65_423)"/>
<path d="M61.9927 32.4248C62.6397 33.0721 63.3022 33.7324 63.9335 34.3641C57.3031 41.025 50.6337 47.725 44.0266 54.3624C43.3952 53.7282 42.7249 53.0548 42.0884 52.4153C48.6695 45.804 55.3519 39.0935 61.9927 32.4248Z" fill="url(#paint2_linear_65_423)"/>
<path d="M20.4797 42.2388C21.0929 42.8626 21.7502 43.5308 22.3504 44.1441C18.9806 47.532 15.5692 50.959 12.1942 54.3495C11.6174 53.757 10.9549 53.0784 10.3262 52.4363C13.657 49.0902 17.0735 45.658 20.4771 42.2388H20.4797Z" fill="url(#paint3_linear_65_423)"/>
<path d="M54.684 54.4382C54.0579 53.8066 53.4135 53.1541 52.8315 52.5668C55.8012 49.5835 58.7969 46.5741 61.7795 43.5803C62.3459 44.1624 62.9981 44.8358 63.6112 45.4674C60.6805 48.4142 57.6927 51.4157 54.684 54.4408V54.4382Z" fill="url(#paint4_linear_65_423)"/>
<path d="M20.9863 52.4076C22.4101 50.9721 23.8962 49.4739 25.3512 48.0096C25.9722 48.6387 26.6425 49.3173 27.2842 49.9672C25.8423 51.4158 24.3561 52.9087 22.9064 54.3652C22.288 53.7335 21.6359 53.068 20.9889 52.4076H20.9863Z" fill="url(#paint5_linear_65_423)"/>
<defs>
<linearGradient id="paint0_linear_65_423" x1="73" y1="62.9766" x2="21.5339" y2="13.9655" gradientUnits="userSpaceOnUse">
<stop offset="0.315562" stop-color="#0F85CF"/>
<stop offset="1" stop-color="#90C43F"/>
</linearGradient>
<linearGradient id="paint1_linear_65_423" x1="64.2061" y1="60.0268" x2="32.9095" y2="39.6437" gradientUnits="userSpaceOnUse">
<stop offset="0.315562" stop-color="#0F85CF"/>
<stop offset="1" stop-color="#90C43F"/>
</linearGradient>
<linearGradient id="paint2_linear_65_423" x1="66.8348" y1="58.6004" x2="43.3186" y2="43.2804" gradientUnits="userSpaceOnUse">
<stop offset="0.315562" stop-color="#0F85CF"/>
<stop offset="1" stop-color="#90C43F"/>
</linearGradient>
<linearGradient id="paint3_linear_65_423" x1="23.9473" y1="56.6891" x2="10.9806" y2="48.2666" gradientUnits="userSpaceOnUse">
<stop offset="0.315562" stop-color="#0F85CF"/>
<stop offset="1" stop-color="#90C43F"/>
</linearGradient>
<linearGradient id="paint4_linear_65_423" x1="65.0429" y1="56.5389" x2="53.4162" y2="48.989" gradientUnits="userSpaceOnUse">
<stop offset="0.315562" stop-color="#0F85CF"/>
<stop offset="1" stop-color="#90C43F"/>
</linearGradient>
<linearGradient id="paint5_linear_65_423" x1="28.1206" y1="55.5929" x2="21.3213" y2="51.185" gradientUnits="userSpaceOnUse">
<stop offset="0.315562" stop-color="#0F85CF"/>
<stop offset="1" stop-color="#90C43F"/>
</linearGradient>
</defs>
</svg>
