<svg width="64" height="65" viewBox="0 0 64 65" fill="none" xmlns="http://www.w3.org/2000/svg">
<path d="M49.6115 0.269165C50.7816 0.593035 51.8984 0.998288 52.8475 1.81876C55.0114 3.68724 55.5499 6.82795 54.1056 9.47206C52.781 11.9003 49.7528 13.1326 47.1168 12.3171C44.3096 11.4485 42.5861 9.012 42.6924 6.06395C42.7888 3.37666 44.8331 1.02984 47.632 0.390409C47.75 0.363835 47.863 0.310687 47.9777 0.270826C48.5228 0.270826 49.068 0.270826 49.6115 0.270826V0.269165ZM51.7522 6.44263C51.7538 4.81165 50.4392 3.47133 48.822 3.45472C47.2148 3.43811 45.8619 4.77843 45.847 6.4011C45.832 8.04537 47.1965 9.43552 48.817 9.42721C50.4309 9.41891 51.7522 8.07692 51.7538 6.44429L51.7522 6.44263Z" fill="url(#paint0_linear_65_437)"/>
<path d="M50.3711 21.5514C50.3711 23.0512 50.3844 24.3616 50.3694 25.6737C50.2963 31.6894 46.2077 36.6571 40.3108 37.8645C39.5579 38.019 38.7768 38.0655 38.0072 38.1037C37.0283 38.1519 36.297 37.4975 36.2671 36.6122C36.2372 35.717 36.9053 34.9912 37.8726 34.9613C39.2288 34.9198 40.5368 34.684 41.7584 34.0877C45.0642 32.475 46.9058 29.8292 47.1717 26.162C47.2764 24.7054 47.1883 23.2356 47.1883 21.6843C47.0271 21.8089 46.8974 21.8886 46.7911 21.9932C45.8404 22.9366 44.898 23.89 43.9457 24.8317C43.1878 25.5807 42.2005 25.6438 41.5474 24.9994C40.8825 24.3417 40.9258 23.3668 41.6836 22.6044C43.6166 20.6596 45.5562 18.7213 47.5024 16.7897C48.3384 15.9593 49.2459 15.9643 50.0869 16.798C52.0182 18.7163 53.9428 20.6396 55.8625 22.5662C56.6353 23.3419 56.7101 24.3351 56.0619 24.9562C55.3555 25.6322 54.3965 25.5757 53.6121 24.7985C52.5733 23.7671 51.5428 22.7273 50.3694 21.5531L50.3711 21.5514Z" fill="url(#paint1_linear_65_437)"/>
<path d="M12.6047 64.5896C9.28723 64.5746 6.5 61.7661 6.5 58.4377C6.5 55.0844 9.31715 52.2709 12.6645 52.2825C15.9769 52.2941 18.7725 55.111 18.7708 58.436C18.7708 61.7927 15.952 64.6045 12.603 64.5896H12.6047ZM15.578 58.4394C15.588 56.81 14.2783 55.4681 12.6595 55.4465C11.0689 55.4265 9.71271 56.7652 9.67449 58.3945C9.63626 60.0122 11.0224 61.4273 12.6412 61.4223C14.2451 61.4173 15.5681 60.0737 15.578 58.441V58.4394Z" fill="url(#paint2_linear_65_437)"/>
<path d="M26.7268 22.0531C27.8587 23.1609 28.939 24.2089 30.0077 25.2719C30.498 25.7602 30.616 26.3581 30.3816 27.0058C30.1672 27.5971 29.6985 27.8894 29.1019 27.9708C28.5484 28.0455 28.0864 27.8429 27.6941 27.4443C26.6537 26.3846 25.6049 25.3333 24.5097 24.2288C23.4626 25.2752 22.4454 26.2916 21.4299 27.3114C21.0177 27.725 20.5557 28.0405 19.9441 27.9857C19.3391 27.9326 18.8504 27.6486 18.6294 27.0656C18.3934 26.4411 18.4449 25.8249 18.9402 25.3217C19.8792 24.3667 20.8299 23.4233 21.774 22.4733C21.9185 22.3271 22.0548 22.1743 22.2393 21.9784C21.1989 20.942 20.1701 19.9355 19.1662 18.9057C18.9252 18.6583 18.6892 18.3593 18.5828 18.0404C18.3418 17.3196 18.631 16.6054 19.2261 16.2384C19.8427 15.858 20.6238 15.9245 21.1889 16.4676C22.1396 17.3811 23.0604 18.3244 23.9944 19.2545C24.1556 19.414 24.3218 19.5684 24.5313 19.7694C25.6349 18.6516 26.7019 17.5604 27.7805 16.4809C28.2725 15.9876 28.8758 15.8846 29.5157 16.1188C30.1007 16.3314 30.4913 16.8047 30.4531 17.401C30.4215 17.881 30.2271 18.4374 29.9146 18.7928C29.0736 19.7495 28.1296 20.6164 27.2271 21.52C27.0825 21.6645 26.9462 21.8189 26.7252 22.0548L26.7268 22.0531Z" fill="url(#paint3_linear_65_437)"/>
<path d="M27.7557 55.6109C26.6837 54.5396 25.64 53.485 24.5829 52.4436C24.1873 52.0533 23.9646 51.5982 24.0178 51.0435C24.0777 50.409 24.3968 49.929 25.0134 49.7198C25.6582 49.5005 26.2549 49.6185 26.7502 50.1117C27.7142 51.0717 28.6782 52.035 29.6421 52.9967C29.7452 53.098 29.8532 53.1943 30.0244 53.3521C30.7989 52.5748 31.5601 51.8092 32.3247 51.0435C32.6504 50.718 32.9662 50.3791 33.3069 50.0702C33.9668 49.4706 34.9258 49.4673 35.5274 50.0436C36.144 50.6349 36.1806 51.6414 35.5457 52.3024C34.5601 53.3305 33.538 54.3221 32.5324 55.3302C32.4593 55.4033 32.3912 55.483 32.2599 55.6242C33.3103 56.6689 34.3507 57.7136 35.4028 58.7466C35.8149 59.1502 36.0559 59.6152 35.9961 60.1982C35.9296 60.8443 35.564 61.2911 34.9623 61.4987C34.3407 61.7146 33.7557 61.5867 33.2787 61.1183C32.3978 60.2514 31.5252 59.3761 30.656 58.4991C30.4649 58.3065 30.297 58.0906 30.0676 57.8265C29.8632 58.0175 29.7136 58.1487 29.574 58.2882C28.6532 59.205 27.7408 60.1268 26.8134 61.037C26.2948 61.5468 25.6799 61.7462 24.9735 61.4771C24.3868 61.2545 24.0876 60.7961 24.0195 60.1883C23.9547 59.6036 24.204 59.1436 24.6145 58.74C25.6582 57.7119 26.6904 56.6722 27.7541 55.6092L27.7557 55.6109Z" fill="url(#paint4_linear_65_437)"/>
<path d="M48.7671 45.2405C49.8907 44.1128 50.8995 43.0814 51.935 42.0766C52.181 41.8374 52.4918 41.6132 52.8125 41.5102C53.5023 41.291 54.207 41.585 54.5676 42.1563C54.9416 42.7476 54.8735 43.578 54.3466 44.1261C53.4458 45.0595 52.52 45.9697 51.5976 46.8815C51.4347 47.0426 51.2353 47.1672 50.9328 47.4013C51.4547 47.8863 51.8851 48.2716 52.2956 48.6752C52.997 49.3645 53.7051 50.0504 54.3732 50.7696C54.9532 51.3941 54.9366 52.3906 54.3882 52.937C53.7582 53.5632 52.781 53.603 52.1228 52.9752C51.1705 52.0634 50.2447 51.1234 49.3239 50.18C49.166 50.0172 49.0796 49.7847 48.93 49.5356C47.7982 50.6716 46.8409 51.6366 45.8802 52.5949C45.7024 52.7709 45.5229 52.9503 45.3201 53.0948C44.6254 53.5864 43.7478 53.5084 43.211 52.9221C42.6675 52.3291 42.6608 51.3741 43.2542 50.7546C44.165 49.803 45.109 48.8795 46.0497 47.9561C46.2126 47.7966 46.4337 47.6986 46.668 47.5442C45.5212 46.3949 44.5123 45.395 43.5184 44.3819C43.3024 44.161 43.0813 43.9185 42.9517 43.6444C42.6309 42.9668 42.8619 42.158 43.4437 41.7361C44.0387 41.3043 44.9029 41.3342 45.4663 41.8706C46.4054 42.7658 47.3145 43.6926 48.2303 44.6111C48.4065 44.7888 48.5577 44.9898 48.7705 45.2405H48.7671Z" fill="url(#paint5_linear_65_437)"/>
<path d="M19.0931 35.928C19.9773 35.928 20.6953 36.5873 20.7103 37.4161C20.7269 38.318 20.0471 39.0537 19.1812 39.0687C18.3186 39.0836 17.5375 38.3329 17.5557 37.5041C17.574 36.6239 18.2538 35.928 19.0931 35.928Z" fill="url(#paint6_linear_65_437)"/>
<path d="M26.8617 36.5276C26.8766 37.3895 26.1487 38.127 25.2844 38.127C24.4434 38.127 23.7271 37.4228 23.7138 36.5857C23.7005 35.7403 24.4534 34.9697 25.2894 34.9713C26.1021 34.973 26.8484 35.7104 26.8617 36.5276Z" fill="url(#paint7_linear_65_437)"/>
<path d="M31.547 38.1252C30.7027 38.1153 29.998 37.4077 29.9946 36.5673C29.9913 35.7153 30.7475 34.958 31.5869 34.9712C32.4328 34.9845 33.1691 35.7585 33.1442 36.6072C33.1193 37.4376 32.388 38.1335 31.547 38.1252Z" fill="url(#paint8_linear_65_437)"/>
<path d="M12.638 45.8668C13.4939 45.8685 14.192 46.5644 14.197 47.4214C14.202 48.2718 13.5072 48.9876 12.6596 49.0059C11.8103 49.0241 11.0408 48.2585 11.0574 47.4131C11.074 46.5727 11.7953 45.8668 12.638 45.8685V45.8668Z" fill="url(#paint9_linear_65_437)"/>
<path d="M15.947 41.5119C15.952 42.3822 15.2656 43.0881 14.4146 43.0831C13.5504 43.0798 12.8673 42.3972 12.8507 41.5252C12.834 40.6051 13.4856 39.9573 14.4279 39.9557C15.3271 39.9557 15.9404 40.5835 15.9454 41.5103L15.947 41.5119Z" fill="url(#paint10_linear_65_437)"/>
<defs>
<linearGradient id="paint0_linear_65_437" x1="44.277" y1="-0.208523" x2="54.616" y2="14.2978" gradientUnits="userSpaceOnUse">
<stop stop-color="#90C43F"/>
<stop offset="1" stop-color="#0F84CF"/>
</linearGradient>
<linearGradient id="paint1_linear_65_437" x1="38.8965" y1="15.3178" x2="57.745" y2="39.8581" gradientUnits="userSpaceOnUse">
<stop stop-color="#90C43F"/>
<stop offset="1" stop-color="#0F84CF"/>
</linearGradient>
<linearGradient id="paint2_linear_65_437" x1="8.0952" y1="51.8045" x2="18.4309" y2="66.3505" gradientUnits="userSpaceOnUse">
<stop stop-color="#90C43F"/>
<stop offset="1" stop-color="#0F84CF"/>
</linearGradient>
<linearGradient id="paint3_linear_65_437" x1="20.054" y1="15.5319" x2="30.1141" y2="29.7443" gradientUnits="userSpaceOnUse">
<stop stop-color="#90C43F"/>
<stop offset="1" stop-color="#0F84CF"/>
</linearGradient>
<linearGradient id="paint4_linear_65_437" x1="25.5689" y1="49.1486" x2="35.6224" y2="63.3518" gradientUnits="userSpaceOnUse">
<stop stop-color="#90C43F"/>
<stop offset="1" stop-color="#0F84CF"/>
</linearGradient>
<linearGradient id="paint5_linear_65_437" x1="44.3659" y1="40.9718" x2="54.4225" y2="55.177" gradientUnits="userSpaceOnUse">
<stop stop-color="#90C43F"/>
<stop offset="1" stop-color="#0F84CF"/>
</linearGradient>
<linearGradient id="paint6_linear_65_437" x1="17.9656" y1="35.806" x2="20.5968" y2="39.5369" gradientUnits="userSpaceOnUse">
<stop stop-color="#90C43F"/>
<stop offset="1" stop-color="#0F84CF"/>
</linearGradient>
<linearGradient id="paint7_linear_65_437" x1="24.1229" y1="34.8487" x2="26.7725" y2="38.58" gradientUnits="userSpaceOnUse">
<stop stop-color="#90C43F"/>
<stop offset="1" stop-color="#0F84CF"/>
</linearGradient>
<linearGradient id="paint8_linear_65_437" x1="30.4042" y1="34.8486" x2="33.0517" y2="38.5808" gradientUnits="userSpaceOnUse">
<stop stop-color="#90C43F"/>
<stop offset="1" stop-color="#0F84CF"/>
</linearGradient>
<linearGradient id="paint9_linear_65_437" x1="11.4653" y1="45.7449" x2="14.0991" y2="49.4631" gradientUnits="userSpaceOnUse">
<stop stop-color="#90C43F"/>
<stop offset="1" stop-color="#0F84CF"/>
</linearGradient>
<linearGradient id="paint10_linear_65_437" x1="13.2529" y1="39.8342" x2="15.8853" y2="43.5134" gradientUnits="userSpaceOnUse">
<stop stop-color="#90C43F"/>
<stop offset="1" stop-color="#0F84CF"/>
</linearGradient>
</defs>
</svg>
