<svg width="65" height="65" viewBox="0 0 65 65" fill="none" xmlns="http://www.w3.org/2000/svg">
<path d="M0.49166 31.745C0.977621 30.6052 1.84099 30.153 3.06842 30.2348C3.98022 30.2948 4.89703 30.2464 5.88398 30.2464C6.47348 23.7164 9.00348 18.0759 13.631 13.4433C18.2651 8.80571 23.9029 6.25746 30.4943 5.66003C30.4943 4.49521 30.4742 3.35709 30.4993 2.22064C30.526 1.10087 31.4261 0.253122 32.52 0.268141C33.5821 0.281491 34.4504 1.12757 34.4855 2.2173C34.5106 3.02833 34.4922 3.84104 34.4922 4.65207C34.4922 4.96247 34.4922 5.27287 34.4922 5.65502C41.0284 6.23743 46.6696 8.77234 51.3054 13.3966C55.9479 18.0258 58.4996 23.6614 59.0958 30.2481C60.2598 30.2481 61.3987 30.2281 62.5359 30.2531C63.6248 30.2765 64.4748 31.1509 64.4898 32.2123C64.5065 33.3003 63.6548 34.2015 62.5376 34.2365C61.726 34.2616 60.9127 34.2432 60.1011 34.2432C59.7905 34.2432 59.4782 34.2432 59.0975 34.2432C58.5096 40.7732 55.978 46.4154 51.3488 51.048C46.7163 55.6856 41.0802 58.2389 34.4905 58.8313C34.4905 59.7858 34.4421 60.7187 34.5022 61.6449C34.5824 62.8731 34.1231 63.7309 32.9909 64.2232H31.9906C30.8266 63.7192 30.3857 62.8314 30.4776 61.5831C30.5444 60.6787 30.4909 59.7658 30.4909 58.9865C16.1893 56.6919 7.98981 48.4964 5.72868 34.2432C4.8987 34.2432 3.98189 34.1931 3.07009 34.2549C1.83932 34.3383 0.98096 33.8777 0.48999 32.7446V31.745H0.49166ZM55.0278 30.2481C54.1911 19.0905 44.7558 10.3744 34.4922 9.74525C34.4922 10.326 34.4989 10.9051 34.4922 11.4825C34.4755 12.6974 33.6205 13.5968 32.4899 13.5952C31.366 13.5952 30.5093 12.6873 30.496 11.4758C30.4893 10.8984 30.496 10.321 30.496 9.73857C20.0286 10.4311 10.7486 19.2841 9.96538 30.2464C10.5465 30.2464 11.1243 30.2414 11.7021 30.2464C12.9229 30.2598 13.823 31.1025 13.8314 32.2306C13.8397 33.3554 12.9346 34.2232 11.7272 34.2399C11.1477 34.2482 10.5682 34.2399 9.98709 34.2399C10.6534 45.3357 20.4478 54.2571 30.496 54.711C30.496 54.1503 30.4909 53.5913 30.496 53.0322C30.5093 51.8006 31.3293 50.9128 32.4648 50.8912C33.6121 50.8695 34.4805 51.7873 34.4922 53.0406C34.4972 53.613 34.4922 54.187 34.4922 54.7644C46.0868 53.8583 54.4884 43.999 54.991 34.2382C54.3898 34.2382 53.7886 34.2499 53.1875 34.2365C52.0302 34.2098 51.1384 33.3187 51.1551 32.219C51.1718 31.1259 52.0302 30.2765 53.1658 30.2464C53.7669 30.2314 54.3681 30.2431 55.0261 30.2431L55.0278 30.2481Z" fill="url(#paint0_linear_65_456)"/>
<path d="M24.4924 32.2005C24.5075 27.8199 28.1213 24.2404 32.52 24.2504C36.9103 24.2604 40.4974 27.8633 40.4907 32.2556C40.484 36.6729 36.8619 40.2608 32.4315 40.2375C28.0495 40.2158 24.4757 36.5978 24.4908 32.1989L24.4924 32.2005ZM32.4749 36.2407C34.6809 36.2474 36.4895 34.4484 36.4895 32.2439C36.4895 30.0645 34.7143 28.2689 32.5383 28.2488C30.3273 28.2288 28.507 30.0127 28.4937 32.2122C28.4803 34.42 30.2739 36.2324 32.4765 36.2407H32.4749Z" fill="url(#paint1_linear_65_456)"/>
<defs>
<linearGradient id="paint0_linear_65_456" x1="13" y1="11.7611" x2="54.4665" y2="60.2559" gradientUnits="userSpaceOnUse">
<stop stop-color="#90C43F"/>
<stop offset="1" stop-color="#0F85CF"/>
</linearGradient>
<linearGradient id="paint1_linear_65_456" x1="27.6182" y1="27.1234" x2="37.9837" y2="39.2469" gradientUnits="userSpaceOnUse">
<stop stop-color="#90C43F"/>
<stop offset="1" stop-color="#0F85CF"/>
</linearGradient>
</defs>
</svg>
