<svg width="64" height="65" viewBox="0 0 64 65" fill="none" xmlns="http://www.w3.org/2000/svg">
<path d="M59.498 32.9791C59.498 41.4064 59.5036 49.8337 59.4961 58.261C59.4924 61.5712 57.5429 64.0894 54.4557 64.7668C53.8952 64.8907 53.3031 64.9151 52.7259 64.9151C38.9024 64.9226 25.0789 64.9226 11.2554 64.9188C7.77714 64.9188 5.20944 62.8772 4.60987 59.6309C4.5205 59.1524 4.51863 58.6532 4.51863 58.1635C4.51119 44.071 4.52236 29.9785 4.50001 15.8861C4.49629 13.7882 5.21316 12.0806 6.69532 10.6263C9.17364 8.19247 11.6352 5.73802 14.0521 3.24228C15.5733 1.66978 17.3571 0.960468 19.5338 0.966098C30.6165 0.996122 41.6991 0.977357 52.7799 0.982986C56.2358 0.982986 58.824 3.05839 59.4068 6.29909C59.5017 6.82451 59.4943 7.37057 59.4943 7.90724C59.4999 16.2651 59.498 24.6212 59.498 32.9791ZM55.288 32.9922C55.288 24.6118 55.288 16.2314 55.288 7.85095C55.288 6.04764 54.5265 5.26514 52.7669 5.26514C41.6377 5.25951 30.5085 5.26139 19.3811 5.23887C18.4799 5.23887 17.7817 5.52035 17.1505 6.16398C14.687 8.68036 12.2087 11.1836 9.70617 13.6606C9.00792 14.3511 8.72118 15.1186 8.72118 16.0981C8.73793 30.0742 8.73235 44.0485 8.73235 58.0246C8.73235 59.8861 9.50135 60.6536 11.3615 60.6536C25.1161 60.6536 38.8707 60.6536 52.6235 60.6536C54.5432 60.6536 55.2861 59.9086 55.2861 57.9927C55.2861 49.6592 55.2861 41.3257 55.2861 32.9922H55.288Z" fill="url(#paint0_linear_65_408)"/>
<path d="M46.7637 24.3771H32.0464V20.2057H46.7637V24.3771Z" fill="url(#paint1_linear_65_408)"/>
<path d="M32.0278 37.1448V32.9958H46.7581V37.1448H32.0278Z" fill="url(#paint2_linear_65_408)"/>
<path d="M46.7804 45.786V49.9293H32.052V45.786H46.7804Z" fill="url(#paint3_linear_65_408)"/>
<path d="M15.8247 22.8816C16.8302 21.8646 17.7928 20.8925 18.7778 19.8961C19.5301 20.6936 20.3103 21.5193 21.0923 22.3468C22.662 20.7518 24.1255 19.2637 25.5332 17.8339C26.6132 18.9222 27.5907 19.9036 28.6111 20.932C27.9333 21.6112 27.1624 22.3862 26.3916 23.1612C25.2073 24.3528 24.0361 25.5556 22.8389 26.7322C21.8911 27.6648 20.6473 27.7061 19.7219 26.8073C18.4017 25.5237 17.1262 24.197 15.8247 22.8816Z" fill="url(#paint4_linear_65_408)"/>
<path d="M23.4718 37.1654H19.3643V33.0015H23.4718V37.1654Z" fill="url(#paint5_linear_65_408)"/>
<path d="M23.496 45.788V49.9256H19.3643V45.788H23.496Z" fill="url(#paint6_linear_65_408)"/>
<defs>
<linearGradient id="paint0_linear_65_408" x1="17" y1="16.0095" x2="62.4584" y2="78.496" gradientUnits="userSpaceOnUse">
<stop stop-color="#90C43F"/>
<stop offset="1" stop-color="#0F85CE"/>
</linearGradient>
<linearGradient id="paint1_linear_65_408" x1="35.3912" y1="21.1869" x2="36.4627" y2="27.2295" gradientUnits="userSpaceOnUse">
<stop stop-color="#90C43F"/>
<stop offset="1" stop-color="#0F85CE"/>
</linearGradient>
<linearGradient id="paint2_linear_65_408" x1="35.3756" y1="33.9718" x2="36.4351" y2="39.9841" gradientUnits="userSpaceOnUse">
<stop stop-color="#90C43F"/>
<stop offset="1" stop-color="#0F85CE"/>
</linearGradient>
<linearGradient id="paint3_linear_65_408" x1="35.3994" y1="46.7606" x2="36.4562" y2="52.7652" gradientUnits="userSpaceOnUse">
<stop stop-color="#90C43F"/>
<stop offset="1" stop-color="#0F85CE"/>
</linearGradient>
<linearGradient id="paint4_linear_65_408" x1="18.7307" y1="20.0974" x2="24.2723" y2="31.8666" gradientUnits="userSpaceOnUse">
<stop stop-color="#90C43F"/>
<stop offset="1" stop-color="#0F85CE"/>
</linearGradient>
<linearGradient id="paint5_linear_65_408" x1="20.2978" y1="33.9809" x2="23.1117" y2="38.4177" gradientUnits="userSpaceOnUse">
<stop stop-color="#90C43F"/>
<stop offset="1" stop-color="#0F85CE"/>
</linearGradient>
<linearGradient id="paint6_linear_65_408" x1="20.3033" y1="46.7612" x2="23.0848" y2="51.2008" gradientUnits="userSpaceOnUse">
<stop stop-color="#90C43F"/>
<stop offset="1" stop-color="#0F85CE"/>
</linearGradient>
</defs>
</svg>
