<svg width="71" height="71" viewBox="0 0 71 71" fill="none" xmlns="http://www.w3.org/2000/svg">
<path d="M0.00513623 68.3862C0.431444 67.6226 1.09059 67.3606 1.9415 67.4223C2.52531 67.4651 3.11256 67.4308 3.77171 67.4308C3.77171 67.1175 3.77171 66.871 3.77171 66.6262C3.77171 64.9637 3.76486 63.3013 3.77513 61.6372C3.78198 60.5585 4.09871 60.1613 5.12767 59.9028C6.93563 59.4474 8.74187 58.9817 10.5567 58.5571C11.0069 58.451 11.2398 58.2387 11.4076 57.8141C11.9828 56.3554 12.5786 54.9018 13.2138 53.4688C13.4073 53.0323 13.3439 52.7207 13.1111 52.3423C12.1455 50.7723 11.2004 49.1886 10.2553 47.6067C9.67838 46.6394 9.73487 46.1583 10.5241 45.3656C12.1147 43.7682 13.7103 42.1725 15.3077 40.582C16.0952 39.7979 16.59 39.738 17.5505 40.3098C19.153 41.2651 20.7589 42.2171 22.3443 43.1998C22.7193 43.4326 23.0172 43.4326 23.4092 43.2631C24.8714 42.6331 26.3574 42.0613 27.811 41.4141C28.0866 41.2908 28.3708 40.957 28.4513 40.6659C28.9375 38.8905 29.3656 37.0979 29.8107 35.3105C30.1069 34.1241 30.4972 33.8159 31.7231 33.8142C33.9094 33.8125 36.0957 33.8125 38.2838 33.8142C39.5011 33.8142 39.888 34.1258 40.1859 35.3225C40.6259 37.0877 41.083 38.8477 41.4973 40.6197C41.5966 41.0409 41.7747 41.2857 42.1822 41.4466C43.6819 42.0424 45.1629 42.6896 46.6695 43.2683C46.9332 43.3693 47.3441 43.3436 47.5872 43.2032C49.2239 42.2616 50.8316 41.2703 52.4546 40.303C53.4066 39.7345 53.9031 39.7996 54.6957 40.5889C56.2777 42.164 57.8545 43.7442 59.4314 45.3245C60.2754 46.172 60.3285 46.6274 59.7002 47.6752C58.7414 49.276 57.7655 50.8665 56.8324 52.4827C56.7006 52.7121 56.6663 53.0973 56.7622 53.3404C57.3563 54.8659 58.0155 56.3657 58.6181 57.8877C58.7705 58.2746 58.9948 58.4493 59.3851 58.5434C61.176 58.9732 62.9617 59.4252 64.7474 59.8754C65.9612 60.1819 66.2215 60.5192 66.2232 61.7861C66.2266 63.404 66.2232 65.0202 66.2232 66.6381C66.2232 66.883 66.2232 67.1278 66.2232 67.4308C67.0039 67.4308 67.7058 67.4206 68.4078 67.4325C69.3477 67.4497 69.9726 67.9958 69.9795 68.7868C69.9863 69.5795 69.3614 70.1325 68.4266 70.1616C68.3136 70.165 68.1989 70.1616 68.0842 70.1616C46.0343 70.1616 23.9862 70.1582 1.93636 70.1736C1.08717 70.1736 0.426307 69.9681 0 69.2045V68.3845L0.00513623 68.3862ZM49.5287 67.3795H63.4907C63.4907 65.8061 63.5095 64.2806 63.4667 62.7569C63.4616 62.5771 63.1431 62.3049 62.9257 62.2467C61.2564 61.8015 59.5786 61.3872 57.8973 60.9883C57.2039 60.8239 56.7263 60.4815 56.4506 59.7915C55.6134 57.7028 54.7385 55.6278 53.8705 53.551C53.636 52.9877 53.624 52.4604 53.9596 51.9263C54.3944 51.2329 54.8053 50.5241 55.2265 49.8204C55.8309 48.812 56.4352 47.8036 56.9865 46.8825C55.6768 45.5813 54.4355 44.3469 53.1532 43.0714C51.5592 44.0284 49.8951 45.0095 48.2515 46.023C47.654 46.3911 47.0975 46.4408 46.447 46.16C44.7554 45.4306 43.0793 44.6465 41.3347 44.0712C39.8161 43.5713 39.0319 42.6999 38.7871 41.1093C38.5509 39.5736 38.0561 38.0773 37.6794 36.5775H32.324C31.8532 38.4488 31.3636 40.291 30.9355 42.1486C30.7643 42.8882 30.3877 43.347 29.6874 43.6278C27.662 44.4393 25.6401 45.2646 23.6369 46.1326C22.9093 46.4476 22.3067 46.3808 21.6492 45.9682C20.1854 45.0488 18.6976 44.1654 17.2012 43.2974C17.0198 43.1929 16.6345 43.157 16.5164 43.27C15.318 44.4171 14.1555 45.6001 12.9587 46.7969C13.962 48.4679 14.9293 50.1132 15.936 51.7311C16.3349 52.3714 16.3846 52.9706 16.0884 53.664C15.2409 55.65 14.402 57.6429 13.6127 59.6529C13.3046 60.4404 12.7961 60.8359 11.988 61.0174C10.3238 61.3906 8.67339 61.8204 7.02465 62.2535C6.83119 62.3049 6.53671 62.524 6.53329 62.6713C6.49733 64.2344 6.51103 65.7992 6.51103 67.3949H20.4559C20.4388 67.2031 20.4268 67.0473 20.4097 66.8932C19.8841 61.6474 21.5465 57.2251 25.5699 53.8147C26.7632 52.8028 28.2561 52.1368 29.6361 51.3596C30.1411 51.0753 30.6993 51.1404 31.1649 51.5393C31.5878 51.9023 31.6957 52.3748 31.5776 52.8987C31.4406 53.5082 30.9492 53.7582 30.4373 53.9739C27.5901 55.1775 25.4894 57.1721 24.1711 59.9645C23.0514 62.3357 22.7518 64.8148 23.2706 67.3863H46.7568C47.3835 63.5324 46.5326 60.1254 43.9987 57.1669C42.7283 55.6843 41.1549 54.6382 39.3692 53.8746C38.5252 53.5133 38.2221 52.7686 38.5252 52.0529C38.8351 51.3253 39.5901 51.0274 40.4119 51.3715C44.8171 53.2137 47.7344 56.4136 49.1195 60.9934C49.7496 63.077 49.818 65.2017 49.527 67.3778L49.5287 67.3795Z" fill="white"/>
<path d="M0.00514221 25.1888C0.282499 24.8326 0.523902 24.4406 0.840636 24.1238C5.74574 19.2033 10.6594 14.2914 15.5714 9.37771C16.6808 8.26658 17.2697 8.26486 18.3723 9.36915C23.3339 14.3308 28.2955 19.2906 33.2554 24.254C33.4318 24.4303 33.5875 24.6272 33.7005 24.7573C39.4634 18.9927 45.1732 13.2813 51.0285 7.42252C50.6193 7.06299 50.092 6.63839 49.6092 6.16757C48.4861 5.06841 47.3818 3.94872 46.2723 2.83587C45.228 1.78636 45.2862 1.04674 46.4795 0.173584H69.0344C69.798 0.599891 70.0069 1.26075 70.0034 2.10994C69.9812 8.98907 69.9915 15.8665 69.9915 22.7456C69.9915 22.8603 69.9897 22.9733 69.9915 23.088C70.0052 23.7112 69.774 24.2112 69.1953 24.4817C68.5824 24.7676 68.0311 24.5844 67.574 24.1341C66.5348 23.112 65.5024 22.0813 64.4786 21.0455C63.8554 20.4155 63.2527 19.7666 62.6141 19.0972C62.3607 19.3403 62.181 19.5064 62.0063 19.6793C57.721 23.9629 53.4374 28.2465 49.1538 32.5301C48.1762 33.5077 47.4092 33.6481 46.7517 32.9701C46.1046 32.3041 46.2415 31.5714 47.1969 30.6178C51.4805 26.3341 55.7641 22.0488 60.0511 17.7686C60.2275 17.5923 60.4501 17.4639 60.599 17.3509C57.9795 14.7331 55.4559 12.2129 52.97 9.72869C47.3167 15.3785 41.6018 21.09 35.755 26.9316C36.4553 27.5822 37.2326 28.2465 37.9414 28.9793C38.4481 29.5015 38.443 30.2 38.0475 30.7239C37.6828 31.2084 37.0031 31.4259 36.4656 31.1553C36.1488 30.9961 35.8698 30.7393 35.6147 30.4842C29.6035 24.4817 23.5976 18.4723 17.595 12.4595C17.405 12.2694 17.2732 12.0212 17.1139 11.7986C17.0112 11.7815 16.9068 11.7644 16.8041 11.7472C16.6585 11.9801 16.5507 12.2506 16.3606 12.4389C11.7928 17.0187 7.21641 21.59 2.64517 26.1664C2.2103 26.6012 1.72064 27.0344 1.09916 26.7913C0.683125 26.6269 0.368103 26.1886 0.00514221 25.8736C0.00514221 25.6459 0.00514221 25.4182 0.00514221 25.1905V25.1888ZM67.2265 2.96427H50.4892C56.0551 8.53024 61.6502 14.1253 67.2265 19.7033V2.96427Z" fill="white"/>
<path d="M0.00513314 44.3281C0.280778 43.9702 0.518756 43.5765 0.835491 43.2597C6.80208 37.2794 12.7772 31.306 18.7541 25.3343C18.9459 25.1425 19.141 24.9439 19.3619 24.7898C19.9423 24.3807 20.6357 24.4406 21.1082 24.9165C21.5653 25.3771 21.6578 26.1321 21.2126 26.6577C20.6408 27.334 19.9885 27.9401 19.3722 28.5787C19.2335 28.7225 19.1034 28.8749 18.8397 29.1676C19.1171 29.3748 19.3978 29.5391 19.6204 29.76C21.7382 31.8624 23.8475 33.9717 25.9517 36.0861C26.1897 36.3258 26.4499 36.5826 26.5783 36.884C26.8111 37.425 26.7272 37.9728 26.277 38.3872C25.813 38.8169 25.26 38.8974 24.7053 38.5806C24.4348 38.4265 24.2002 38.1954 23.9759 37.9728C21.8307 35.8362 19.6872 33.6944 17.5522 31.5457C17.3793 31.3711 17.2663 31.1365 17.1242 30.9294C17.018 30.9139 16.9119 30.8985 16.8058 30.8831C16.6602 31.116 16.5524 31.3865 16.364 31.5765C11.7979 36.1563 7.22154 40.7259 2.65029 45.3005C2.21543 45.7354 1.72748 46.1703 1.10429 45.9289C0.681404 45.7645 0.366382 45.3279 0.00170898 45.0129C0.00170898 44.7852 0.00170898 44.5575 0.00170898 44.3298L0.00513314 44.3281Z" fill="white"/>
<path d="M44.3394 36.7727C43.6271 36.7727 42.9834 36.1341 42.98 35.4184C42.9766 34.6959 43.6032 34.071 44.3308 34.0693C45.0739 34.0676 45.6748 34.6668 45.6748 35.4116C45.6748 36.1426 45.0567 36.7727 44.3377 36.7744L44.3394 36.7727Z" fill="white"/>
<path d="M36.3919 51.7054C36.3902 52.4382 35.7927 53.0425 35.0531 53.0614C34.3118 53.0802 33.6406 52.4262 33.6441 51.69C33.6475 50.9692 34.2655 50.358 35 50.3443C35.7773 50.3306 36.3937 50.9332 36.3902 51.7054H36.3919Z" fill="white"/>
</svg>
