<svg width="71" height="71" viewBox="0 0 71 71" fill="none" xmlns="http://www.w3.org/2000/svg">
<path d="M29.103 0.000976562H31.0175C32.6232 0.416673 34.112 1.03292 35.1222 2.35112C35.7378 1.84426 36.2621 1.28088 36.9015 0.921708C37.6194 0.518774 38.4433 0.299986 39.2215 0.000976563C39.859 0.000976563 40.4984 0.000976563 41.1359 0.000976563C41.1944 0.0337947 41.2492 0.0866684 41.3113 0.0976078C43.5965 0.487779 45.3484 1.69476 46.6125 3.6055C46.8829 4.01391 47.1423 3.96286 47.5259 3.86987C51.2214 2.97831 54.4329 4.5864 55.6988 7.99584C55.9856 8.76889 56.0989 9.60758 56.2998 10.4499C59.2921 10.7434 61.7143 12.0379 63.2013 14.76C64.6445 17.3982 64.6792 20.1787 63.8334 22.9664C63.8955 23.0284 63.9083 23.0503 63.9266 23.0575C64.1348 23.1487 64.3449 23.2344 64.5531 23.3256C67.0923 24.4377 68.8241 26.2901 69.6772 28.932C69.8635 29.5118 69.975 30.1134 70.1211 30.706V32.8902C70.0553 33.1765 69.9841 33.4609 69.9256 33.7471C69.4708 35.9368 68.4112 37.771 66.6521 39.2168C68.9301 41.2935 69.7466 43.8333 69.0762 46.7723C68.4094 49.6931 66.7032 51.7297 63.6635 52.4827C64.6079 56.3443 64.2243 59.905 61.1243 62.6599C58.0827 65.3638 54.4968 65.5716 50.7337 64.3902C49.3088 67.7267 46.8263 69.6301 43.244 69.838C39.6416 70.0458 36.9636 68.4013 35.1587 65.2544C33.2954 68.3648 30.6119 70.0367 27.0041 69.8398C23.3962 69.6429 20.9027 67.7157 19.487 64.3865C15.6855 65.5826 12.105 65.3474 9.07078 62.6289C5.98539 59.8667 5.62734 56.3005 6.56264 52.479C3.48455 51.7078 1.7948 49.6457 1.13717 46.7304C0.475879 43.8023 1.3034 41.2625 3.5558 39.2296C0.82479 36.7956 -0.29136 33.7982 0.256667 30.2557C0.819309 26.6201 3.04796 24.301 6.42198 23.0083C5.54148 20.1149 5.60907 17.3399 7.06683 14.698C8.57025 11.9778 11.0199 10.7289 13.8825 10.4463C14.1821 9.39061 14.3483 8.39148 14.741 7.48898C16.0782 4.42778 19.2221 3.01842 22.7057 3.87534C23.1971 3.99567 23.3889 3.84799 23.7013 3.49793C24.4375 2.67383 25.1865 1.80415 26.0998 1.21342C26.9931 0.64093 28.0947 0.392971 29.103 0.000976562ZM34.1485 55.4181V54.9021C34.1485 38.5532 34.1485 22.2024 34.1467 5.85354C34.1467 4.28192 33.2059 3.02754 31.6495 2.46598C29.5597 1.71299 27.2032 2.47145 25.7272 4.43507C25.4312 4.83071 25.181 5.36127 25.1627 5.84078C25.1298 6.66124 25.2486 7.4981 25.3892 8.31308C25.508 9.00044 25.307 9.56382 24.7243 9.77167C24.1525 9.97587 23.5588 9.69144 23.3286 9.02779C23.1441 8.49541 23.0017 7.9375 22.9341 7.37959C22.7697 6.00852 22.7916 6.00305 21.3904 5.84808C21.0744 5.81343 20.7529 5.78244 20.4387 5.80796C17.8137 6.02311 16.1148 8.13258 16.2554 10.9878C16.3175 12.2731 16.0636 12.5448 14.7648 12.5813C11.2976 12.6779 8.97397 14.4865 8.24509 17.6845C7.8432 19.4439 8.03136 21.1632 8.71639 22.8278C9.25529 24.1369 9.05434 24.5526 7.67697 24.9428C3.78414 26.0476 1.67606 29.3422 2.46887 33.2932C2.99133 35.9004 4.37601 37.8731 7.17461 38.4292C8.07885 38.6097 9.02694 38.5878 9.95676 38.6188C10.7203 38.6443 11.2081 39.0035 11.2355 39.6435C11.2629 40.2907 10.8117 40.814 10.0737 40.7866C8.82965 40.7392 7.59111 40.5697 6.34708 40.4931C6.01644 40.473 5.61273 40.5077 5.35333 40.6809C3.13381 42.1759 2.49627 45.0402 3.76953 47.6675C4.45273 49.0787 5.49764 50.0414 7.10154 50.3057C7.50342 50.3714 7.77744 50.2893 8.0277 49.9338C8.79677 48.8362 9.79235 47.9793 10.9651 47.3302C11.7251 46.9109 12.348 47.0093 12.6932 47.6C13.0367 48.1889 12.7992 48.7669 12.0575 49.2245C9.99878 50.4935 8.67803 52.2165 8.35287 54.7034C7.84868 58.5485 10.0536 61.8449 13.8459 62.6873C15.8079 63.123 17.6858 62.8003 19.5089 62.009C20.5045 61.5751 21.0488 61.8413 21.343 62.8878C21.7083 64.1878 22.3294 65.3273 23.3761 66.2098C26.9566 69.2327 32.3437 67.4915 33.7631 62.855C34.7916 59.4984 33.5019 56.7107 30.3489 55.5858C28.2993 54.8529 26.277 54.9732 24.3352 56.0015C24.2347 56.0544 24.1397 56.1182 24.0374 56.1692C23.3999 56.4883 22.7971 56.3515 22.4902 55.8192C22.1887 55.2941 22.3586 54.6614 22.9523 54.3022C25.075 53.0187 27.3621 52.6613 29.7844 53.15C31.3974 53.4745 32.8022 54.2311 34.1467 55.4162L34.1485 55.4181ZM36.3681 24.0384C38.5474 24.0384 40.6628 23.9983 42.7782 24.053C44.2231 24.0913 45.3411 23.2763 46.6198 22.8898C46.5778 22.64 46.5468 22.4832 46.523 22.3264C45.9951 18.7183 49.3362 15.637 52.8966 16.4483C55.1033 16.9515 56.7584 18.7219 57.005 20.8441C57.2826 23.2235 56.1464 25.3384 54.0493 26.3412C52.0143 27.3148 49.6084 26.9064 48.0009 25.2801C47.7214 24.9975 47.5168 24.7914 47.0948 25.0212C45.0726 26.1279 42.8951 26.3776 40.6262 26.2318C39.4461 26.1552 38.2569 26.2172 37.0714 26.219C36.8503 26.219 36.6275 26.2373 36.3808 26.25V32.6149C36.5325 32.6277 36.6421 32.6477 36.7535 32.6477C41.7899 32.6477 46.8263 32.6441 51.8626 32.6587C52.2682 32.6587 52.3887 32.4891 52.5075 32.1409C53.3989 29.5172 56.0423 28.0003 58.6527 28.591C61.1535 29.1562 62.9237 31.3824 62.8469 33.8638C62.7666 36.4747 60.8704 38.5714 58.2198 38.9798C55.7975 39.3536 53.324 37.8202 52.5239 35.3899C52.3686 34.9177 52.1549 34.8228 51.7074 34.8247C46.808 34.8393 41.9086 34.8338 37.0092 34.8356C36.8101 34.8356 36.611 34.8575 36.3827 34.8721V41.4776C37.9226 41.4776 39.426 41.5451 40.9203 41.4612C43.054 41.3409 45.0927 41.5907 46.9961 42.6044C47.4218 42.8305 47.6794 42.7503 48.0264 42.3911C49.7089 40.6462 52.396 40.3326 54.4913 41.5834C56.5903 42.8359 57.553 45.3319 56.8369 47.662C56.1208 49.9903 53.9031 51.489 51.3858 51.3413C48.9983 51.2027 46.9888 49.436 46.5961 47.0367C46.4773 46.3128 46.5778 45.5544 46.5778 44.7832C45.142 44.2909 43.8304 43.516 42.2045 43.6345C40.5038 43.7585 38.7885 43.6619 37.0787 43.6619C36.8412 43.6619 36.6019 43.6619 36.379 43.6619V55.0644C36.4557 55.0953 36.4978 55.1245 36.5379 55.1245C38.0651 55.13 39.5923 55.119 41.1176 55.1464C41.5707 55.1537 41.8282 55.0516 42.0493 54.6012C42.6813 53.3086 44.1226 52.5702 45.4927 52.7379C47.2154 52.9512 48.5416 54.2694 48.6621 55.8903C48.79 57.6005 47.7634 59.1192 46.1577 59.5969C44.4971 60.091 42.7763 59.3489 41.9817 57.7354C41.8027 57.3707 41.5962 57.3124 41.251 57.316C39.7932 57.3288 38.3336 57.3197 36.8759 57.3233C36.7042 57.3233 36.5325 57.3562 36.3607 57.3726C36.3607 58.7017 36.295 59.9798 36.3754 61.2469C36.4978 63.1686 37.1499 64.8897 38.6515 66.1897C41.8502 68.9592 47.5277 67.9254 48.8832 62.9334C49.1846 61.8231 49.6797 61.6444 50.7538 62.0072C51.8024 62.3609 52.882 62.7 53.9744 62.8313C57.6498 63.2762 60.938 60.9898 61.7308 57.5221C62.1564 55.6624 61.8459 53.8665 61.2248 52.0998C60.7973 50.8855 61.2211 50.2893 62.4798 50.3312C63.5868 50.3677 64.533 49.9958 65.335 49.2446C67.5782 47.1424 68.1866 42.3874 64.2883 40.3017C63.8352 40.0592 63.4772 39.7638 63.4717 39.2241C63.4662 38.6553 63.8389 38.3435 64.3138 38.0901C68.8661 35.6743 69.215 28.8317 64.9002 26.0166C64.0964 25.4934 63.1447 25.1743 62.2277 24.8534C61.2887 24.5234 61.0074 24.0239 61.3947 23.0922C61.5079 22.8187 61.6358 22.5525 61.7308 22.2736C63.0917 18.277 61.5554 13.0079 55.9728 12.6013C54.0164 12.4591 54.0182 12.4153 53.9945 10.4627C53.9616 7.90286 52.2188 5.92647 49.7582 5.82437C48.9197 5.78973 48.0465 6.02128 47.2281 6.2656C46.07 6.61201 45.7667 6.52814 45.2077 5.47796C44.3072 3.78418 42.9736 2.60455 41.0409 2.25814C38.5656 1.81509 36.2128 3.27732 36.3333 6.12703C36.3936 7.55644 36.3425 8.99315 36.3461 10.4244C36.3461 10.6413 36.3699 10.8583 36.3863 11.13C37.7162 11.13 38.9895 11.1081 40.2627 11.1409C40.7505 11.1537 41.019 11.026 41.2638 10.5684C42.4859 8.29303 45.606 8.04689 47.1551 10.0725C48.3863 11.6824 48.0063 13.9961 46.3275 15.1174C44.594 16.2751 42.2941 15.7099 41.2528 13.8812C41.1286 13.6643 40.9295 13.3324 40.7559 13.327C39.3055 13.2832 37.8514 13.3014 36.3717 13.3014V24.0366L36.3681 24.0384ZM57.5621 30.6841C55.8212 30.6768 54.4128 32.0643 54.4274 33.7727C54.4402 35.4592 55.8304 36.8357 57.5256 36.843C59.2574 36.8503 60.664 35.4573 60.6567 33.7398C60.6493 32.0442 59.2811 30.6914 57.5621 30.6841ZM51.8005 18.5195C50.0724 18.5049 48.6896 19.8414 48.6695 21.5461C48.6494 23.2417 50.0121 24.6474 51.711 24.6839C53.4446 24.7203 54.8585 23.342 54.8695 21.6026C54.8823 19.8869 53.5378 18.5359 51.8005 18.5213V18.5195ZM51.8005 49.1771C53.5232 49.1607 54.8731 47.8024 54.8695 46.0886C54.8658 44.3602 53.441 42.9709 51.711 43.0092C50.0048 43.0474 48.6439 44.4513 48.6695 46.1433C48.695 47.8389 50.0943 49.1935 51.8005 49.1771ZM45.173 54.9021C44.4588 54.8875 43.8632 55.4563 43.8377 56.1765C43.8121 56.9386 44.3784 57.5494 45.1255 57.5658C45.827 57.5822 46.4408 57.0006 46.47 56.2914C46.5011 55.5511 45.9074 54.9148 45.173 54.9003V54.9021ZM44.3948 10.8966C43.6532 10.8747 43.0686 11.4016 43.0321 12.1255C42.9937 12.8894 43.5454 13.4965 44.2998 13.5202C45.0616 13.5439 45.659 12.9751 45.6663 12.2203C45.6736 11.4891 45.1237 10.9185 44.393 10.8966H44.3948Z" fill="white"/>
<path d="M17.6308 31.2532C17.0371 28.6533 15.5337 26.852 13.1077 25.8072C12.9616 25.7453 12.8063 25.7051 12.6584 25.6432C11.9843 25.3606 11.6883 24.7625 11.9258 24.1718C12.1487 23.6175 12.7424 23.3714 13.411 23.6066C16.4708 24.686 18.4949 26.7827 19.5233 29.8457C19.6092 30.1009 19.6731 30.3635 19.7224 30.5367C20.8331 30.6424 21.9091 30.6388 22.9357 30.8612C26.6258 31.6616 29.375 35.031 29.4901 38.7813C29.5212 39.7695 28.9202 40.3566 28.0963 40.1251C27.4606 39.9482 27.3272 39.4541 27.287 38.8597C27.0898 35.9134 25.2447 33.638 22.4443 32.9853C19.8795 32.3873 17.7349 33.1804 16.0178 35.1568C15.899 35.2935 15.8004 35.4503 15.6835 35.5889C15.2414 36.114 14.6002 36.2161 14.1161 35.8459C13.6503 35.4904 13.5553 34.876 13.9206 34.3254C14.7171 33.1239 15.7931 32.2305 17.0608 31.5541C17.238 31.4593 17.4152 31.3663 17.629 31.2532H17.6308Z" fill="white"/>
<path d="M18.1683 44.4534C18.2633 42.4114 19.0508 40.8252 20.7134 39.7185C21.4204 39.2481 22.0855 39.3265 22.4491 39.8971C22.7998 40.4478 22.6226 41.0348 21.943 41.5107C20.8248 42.2947 20.2511 43.3576 20.4137 44.7214C20.58 46.1052 21.3675 47.0533 22.6847 47.5347C23.6165 47.8756 24.5246 47.7589 25.396 47.3213C25.9515 47.0424 26.4594 47.0588 26.8759 47.5456C27.3418 48.0889 27.1226 48.8547 26.4137 49.2485C23.1799 51.0425 18.9393 49.0297 18.2962 45.3924C18.2378 45.0569 18.203 44.7178 18.1665 44.4552L18.1683 44.4534Z" fill="white"/>
<path d="M20.923 17.8963C19.52 17.8689 18.3436 17.1725 17.4211 16.0147C17.0046 15.4915 17.0594 14.8861 17.5106 14.4887C17.9727 14.0803 18.5537 14.1094 19.0377 14.5707C19.2186 14.7439 19.3739 14.9427 19.562 15.1049C20.3475 15.785 21.239 15.9527 22.1469 15.4386C22.7515 15.0958 23.2959 14.6345 23.8293 14.1806C25.7383 12.5524 27.8555 11.9562 30.2833 12.8277C30.5171 12.9116 30.7582 13.0082 30.9519 13.1577C31.3976 13.4987 31.562 13.9563 31.2953 14.4796C31.0268 15.0065 30.5609 15.2927 29.9983 15.0411C27.9523 14.1259 26.3247 14.7749 24.8121 16.2317C23.7782 17.2272 22.5451 17.9018 20.9211 17.8981L20.923 17.8963Z" fill="white"/>
<path d="M30.9413 23.384C30.9413 25.787 29.0686 27.7762 26.6533 27.9403C25.8933 27.9931 25.3324 27.5774 25.2812 26.9284C25.2319 26.2939 25.6558 25.8673 26.4304 25.7724C27.8482 25.5956 28.7507 24.6621 28.7471 23.3749C28.7434 22.0804 27.8445 21.1724 26.4121 21.0156C25.6832 20.9354 25.2282 20.4577 25.283 19.8232C25.336 19.2106 25.8129 18.8278 26.5236 18.8278C28.9115 18.8278 30.9432 20.9227 30.9432 23.3822L30.9413 23.384Z" fill="white"/>
<path d="M58.6366 33.7274C58.6494 34.3236 58.1762 34.8122 57.5714 34.8268C56.963 34.8414 56.4734 34.3801 56.4569 33.7802C56.4405 33.1895 56.9247 32.6827 57.5203 32.6699C58.1104 32.6571 58.6256 33.1458 58.6384 33.7292L58.6366 33.7274Z" fill="white"/>
<path d="M52.8734 21.5716C52.8807 22.1568 52.3892 22.6527 51.79 22.6655C51.1797 22.6764 50.7065 22.217 50.6974 21.6044C50.6883 20.9954 51.1578 20.5068 51.7589 20.4995C52.3417 20.494 52.8661 20.9991 52.8752 21.5734L52.8734 21.5716Z" fill="white"/>
<path d="M51.7516 47.1972C51.1596 47.1863 50.6883 46.6867 50.6974 46.0796C50.7065 45.467 51.1797 45.0148 51.7991 45.0294C52.4038 45.044 52.8917 45.5399 52.8734 46.1252C52.8569 46.6995 52.3235 47.2082 51.7516 47.1972Z" fill="white"/>
</svg>
