<svg width="70" height="70" viewBox="0 0 70 70" fill="none" xmlns="http://www.w3.org/2000/svg">
<path d="M30.2653 69.7778C29.363 69.4646 29.0718 68.7853 29.0786 67.8779C29.0955 65.2733 29.0786 62.6686 29.087 60.0639C29.0955 57.1357 30.3652 55.2614 33.0519 54.1395C33.2009 54.0782 33.3905 53.8756 33.3922 53.7343C33.4176 52.3128 33.4075 50.8913 33.4075 49.4528C25.4878 48.7565 19.1731 45.2631 14.6596 38.7412C11.167 33.6936 9.82115 28.0178 10.5457 21.9146C12.0812 9.01888 23.1109 -0.179226 35.5982 0.212328C48.9099 0.629418 59.2725 11.5453 59.3555 24.681C59.435 37.2074 49.9257 48.4364 36.3735 49.4272C36.3532 49.5873 36.316 49.7575 36.316 49.9277C36.3092 50.6751 36.3786 51.4293 36.2973 52.1681C36.167 53.3666 36.4362 54.085 37.6856 54.6707C39.7628 55.6444 40.6093 57.5903 40.6313 59.8579C40.6584 62.5749 40.6313 65.2937 40.6415 68.0107C40.6449 68.8807 40.286 69.4816 39.4581 69.7744H30.267L30.2653 69.7778ZM56.4876 24.8428C56.491 12.8885 46.7768 3.06046 34.8651 3.0928C22.8417 3.12515 13.29 12.771 13.2426 24.824C13.1952 36.7954 22.9196 46.5468 34.8516 46.5638C46.7581 46.5808 56.4825 36.8158 56.4876 24.8428ZM37.6991 66.8446C37.6991 64.2484 37.6991 61.7152 37.6957 59.182C37.6957 59.0731 37.6551 58.9607 37.6229 58.8535C37.2319 57.4796 35.9266 56.5893 34.5434 56.751C33.14 56.9161 32.0514 58.0397 32.0108 59.48C31.9617 61.2215 31.9905 62.9665 31.9854 64.7098C31.9854 65.4077 31.9854 66.104 31.9854 66.8429H37.6974L37.6991 66.8446Z" fill="white"/>
<path d="M40.6583 29.1377V25.4878C40.4145 25.6938 40.2639 25.8027 40.1352 25.9321C38.8587 27.2106 37.5653 28.4738 36.3193 29.7829C35.7284 30.4043 35.0749 30.6682 34.2217 30.6444C32.6913 30.6001 31.1574 30.6069 29.627 30.6427C28.8499 30.6614 28.2439 30.4179 27.7055 29.8527C26.6762 28.7734 25.6248 27.7162 24.5464 26.688C24.3162 26.4684 23.9353 26.3049 23.6221 26.2998C21.731 26.2641 19.8383 26.2862 17.9456 26.2811C16.6166 26.2777 16.0918 25.6665 16.1375 24.3455C16.278 20.3107 17.5003 16.6625 19.9483 13.4569C23.0837 9.34724 27.2162 6.88386 32.3171 6.18417C41.4219 4.9346 49.8867 10.35 52.7325 19.1684C55.5445 27.8848 51.368 37.7128 43.1791 41.71C40.7938 42.8745 38.2933 43.5231 35.6522 43.6508C35.4118 43.6627 35.1698 43.6508 34.8938 43.6508V40.7975C40.4112 40.6086 44.8416 38.3188 47.9888 33.741C50.1982 30.5269 51.0446 26.9059 50.6028 23.0312C49.5955 14.228 41.8874 8.2577 33.6004 8.94036C25.0238 9.64686 19.498 16.7544 19.1391 23.3887C20.4427 23.3887 21.7547 23.4925 23.0431 23.3632C24.7225 23.1946 25.9939 23.7088 27.0469 25.0349C27.7021 25.8623 28.5046 26.5773 29.2884 27.294C29.5407 27.5256 29.9351 27.7043 30.272 27.7196C31.4419 27.7707 32.6134 27.7537 33.7849 27.7281C34.0287 27.723 34.3351 27.6379 34.501 27.4745C35.8249 26.1824 37.1217 24.8613 38.5387 23.4364H34.9175V20.4708C35.3069 20.4708 35.6827 20.4708 36.0603 20.4708C37.9293 20.4708 39.8 20.464 41.669 20.4725C42.9777 20.4793 43.511 21.0207 43.5127 22.3315C43.516 24.3931 43.5144 26.453 43.5127 28.5147C43.5127 28.7121 43.4923 28.9113 43.4788 29.1377H40.66H40.6583Z" fill="white"/>
<path d="M33.4531 36.4377V33.564H36.3075C36.3075 34.4408 36.3193 35.292 36.2922 36.1398C36.2888 36.2436 36.0721 36.4207 35.9485 36.4258C35.1444 36.4513 34.3369 36.4394 33.4531 36.4394V36.4377Z" fill="white"/>
<path d="M27.697 33.5521H30.4921V36.3832H27.697V33.5521Z" fill="white"/>
</svg>
