<svg width="70" height="70" viewBox="0 0 70 70" fill="none" xmlns="http://www.w3.org/2000/svg">
<path d="M56.7739 69.0529L56.7742 69.0528C60.2538 67.9345 62.4832 64.7356 62.4908 60.8284C62.5007 55.3334 62.4986 49.8397 62.4965 44.345C62.4957 42.0549 62.4948 39.7646 62.4948 37.474V37.4699C62.4948 35.0922 62.4961 32.7148 62.4974 30.3375C62.5004 24.9047 62.5033 19.4728 62.4908 14.0404V14.0403C62.4813 9.59335 59.607 6.10386 55.3958 5.49894L56.7739 69.0529ZM56.7739 69.0529C55.8934 69.3365 54.9224 69.4746 53.9852 69.4765M56.7739 69.0529L53.9852 69.4765M16.0506 5.39003L16.0502 5.39003C11.1069 5.41121 7.51129 9.04421 7.50749 14.0946M16.0506 5.39003L7.50749 60.8025C7.4975 45.2332 7.4975 29.6639 7.50749 14.0946M16.0506 5.39003C16.3325 5.38859 16.6127 5.38586 16.8915 5.38313C17.8115 5.37415 18.7167 5.3653 19.623 5.40383L19.623 5.40383M16.0506 5.39003L19.623 5.40383M7.50749 14.0946L7.00749 14.0942M7.50749 14.0946L7.00749 14.0942M7.00749 14.0942C6.9975 29.6638 6.9975 45.2333 7.00749 60.8029L16.048 4.89004C10.8235 4.91242 7.01149 8.77479 7.00749 14.0942ZM19.623 5.40383C19.9772 5.41886 20.3399 5.37938 20.6484 5.16379C20.9584 4.94714 21.1244 4.61552 21.2322 4.25363C21.8222 2.27671 23.1171 1.07101 25.0921 0.611109L25.0923 0.61105M19.623 5.40383L25.0923 0.61105M25.0923 0.61105C25.5066 0.514341 25.9605 0.51018 26.4671 0.510181L26.468 0.510179M25.0923 0.61105L26.468 0.510179M26.468 0.510179C32.1395 0.500005 37.8091 0.500005 43.4811 0.50204H43.4813M26.468 0.510179L43.4813 0.50204M43.4813 0.50204C44.8941 0.50204 45.995 0.819969 46.8473 1.43596M43.4813 0.50204L46.8473 1.43596M20.0645 9.26989L20.1931 9.57627C20.3013 9.83372 20.4007 10.0946 20.4933 10.3377C20.5418 10.465 20.5884 10.5874 20.6335 10.7019C20.7698 11.0484 20.9028 11.353 21.0665 11.6279C22.0747 13.3165 23.5822 14.1382 25.5099 14.1457C25.5099 14.1457 25.51 14.1457 25.51 14.1457L25.5081 14.6457L20.0645 9.26989ZM20.0645 9.26989H19.7322M20.0645 9.26989H19.7322M19.7322 9.26989C19.3458 9.26989 18.9558 9.26945 18.5635 9.269C17.7712 9.26809 16.9692 9.26717 16.1682 9.2699L16.168 9.2699M19.7322 9.26989L16.168 9.2699M16.168 9.2699C14.6949 9.27536 13.4627 9.72382 12.5993 10.6064C11.7372 11.4878 11.3025 12.7411 11.3025 14.2406M16.168 9.2699L16.1677 65.6068M16.1677 65.6068H16.1675C14.6949 65.6057 13.4626 65.1557 12.5994 64.2709C11.7376 63.3876 11.3025 62.1314 11.3025 60.6319M16.1677 65.6068C28.7307 65.6109 41.2937 65.6109 53.8587 65.6028C54.313 65.6028 54.8275 65.583 55.3196 65.4542L55.32 65.4541M16.1677 65.6068L55.32 65.4541M11.3025 60.6319H11.8025H11.3025ZM11.3025 60.6319C11.2985 45.1681 11.2985 29.7044 11.3025 14.2406M11.3025 14.2406L11.8025 14.2407L11.3025 14.2406ZM55.32 65.4541C56.3891 65.1734 57.2453 64.5837 57.8292 63.7347C58.4097 62.8905 58.6998 61.8214 58.6998 60.6076M55.32 65.4541L58.6954 13.812M58.6954 13.812L58.6955 13.8141C58.7007 13.9477 58.7003 14.0832 58.7 14.206C58.6999 14.2353 58.6998 14.2639 58.6998 14.2916C58.6998 19.4381 58.7001 24.5843 58.7003 29.7305C58.7007 40.0228 58.7012 50.3147 58.6998 60.6076M58.6954 13.812C58.6386 12.5055 58.1597 11.376 57.3445 10.5662M58.6954 13.812L57.3445 10.5662M58.6998 60.6076L58.1998 60.6075L58.6998 60.6076ZM45.2864 5.79646L45.2864 5.79651C45.3486 6.11171 45.4222 6.42117 45.4984 6.74119C45.5273 6.86256 45.5565 6.98545 45.5856 7.11074C45.6895 7.55793 45.7887 8.02388 45.844 8.50153C45.9008 8.99148 45.8855 9.51059 45.5278 9.87186C45.1872 10.216 44.6723 10.2698 44.1892 10.2699C42.1429 10.2726 40.0963 10.2717 38.0502 10.2708C37.1941 10.2704 36.3381 10.27 35.4822 10.2699V10.2719H34.9822C33.9761 10.2719 32.9699 10.2722 31.9637 10.2724C29.951 10.2728 27.9381 10.2733 25.9253 10.2719C25.6292 10.2719 25.3549 10.2576 25.1177 10.2061C24.8769 10.1539 24.6333 10.0548 24.4434 9.85385C24.251 9.65018 24.1667 9.39829 24.1363 9.1448C24.1066 8.89804 24.1238 8.61708 24.1631 8.3121M45.2864 5.79646L26.3356 4.38395M45.2864 5.79646C45.1903 5.30917 44.979 4.91611 44.6018 4.66558C44.2443 4.42818 43.8138 4.37154 43.3947 4.37376L43.3944 4.37377M45.2864 5.79646L43.3944 4.37377M24.1631 8.3121L24.659 8.37594L24.163 8.31265C24.163 8.31246 24.1631 8.31228 24.1631 8.3121ZM24.1631 8.3121C24.2664 7.50329 24.489 6.70163 24.6993 5.94411C24.7528 5.75156 24.8055 5.56186 24.8552 5.37562L24.8553 5.37527C24.954 5.00649 25.1666 4.73326 25.4683 4.56896C25.7483 4.41647 26.0617 4.38159 26.3356 4.38395M26.3356 4.38395C27.214 4.39097 28.0908 4.38925 28.9706 4.38751M26.3356 4.38395L28.9706 4.38751M43.3944 4.37377C40.1255 4.39335 36.8562 4.39062 33.5854 4.38788M43.3944 4.37377L33.5854 4.38788M53.9852 69.4765C41.3191 69.505 28.653 69.507 15.9867 69.4908M53.9852 69.4765L15.9867 69.4908M15.9867 69.4908C11.1047 69.485 7.51131 65.8184 7.50749 60.8025L15.9867 69.4908ZM46.8473 1.43596C47.6997 2.05203 48.3539 3.00261 48.8067 4.35994M46.8473 1.43596L48.8067 4.35994M48.8067 4.35994C48.904 4.65265 49.0451 4.94484 49.3129 5.14666M48.8067 4.35994L49.3129 5.14666M49.3129 5.14666C49.5861 5.35252 49.9093 5.40372 50.2331 5.40019M49.3129 5.14666L50.2331 5.40019M50.2331 5.40019C50.2328 5.40019 50.2325 5.40019 50.2323 5.4002L50.2282 4.90021L50.2331 5.40019ZM50.2331 5.40019C50.658 5.39672 51.0779 5.387 51.4934 5.37739C52.8304 5.34646 54.123 5.31655 55.3956 5.49892L50.2331 5.40019ZM57.3445 10.5662C56.5285 9.75567 55.4044 9.29426 54.1123 9.27403M57.3445 10.5662L54.1123 9.27403M54.1123 9.27403C53.587 9.26546 53.0618 9.26791 52.5424 9.27033L52.4164 9.27092C51.8539 9.27346 51.298 9.27493 50.7434 9.26189C50.505 9.25607 50.2189 9.27908 49.9697 9.45397L54.1123 9.27403ZM33.5854 4.38788C32.4402 4.38693 31.2948 4.38597 30.1492 4.38597M33.5854 4.38788L30.1492 4.38597M30.1492 4.38597C29.7555 4.38597 29.3627 4.38674 28.9706 4.38751M30.1492 4.38597L28.9706 4.38751" fill="white" stroke="#0071BC"/>
<path d="M22.4951 29.0128C23.9376 27.4784 25.3541 25.9807 26.7586 24.4687C27.328 23.8562 28.0033 23.5367 28.8304 23.6242C29.7775 23.726 30.4707 24.2245 30.8104 25.1423C31.168 26.1069 31.0022 27.0002 30.3049 27.7572C29.23 28.9273 28.1372 30.0812 27.0503 31.2391C26.1353 32.2138 25.2342 33.2008 24.3012 34.1572C23.1844 35.3009 21.7679 35.2866 20.667 34.1348C19.5702 32.9851 18.4853 31.8251 17.4084 30.655C16.3515 29.5073 16.3455 28.0401 17.3665 27.0572C18.3654 26.0967 19.8359 26.1984 20.9008 27.3095C21.4222 27.8549 21.9337 28.4105 22.4931 29.0087L22.4951 29.0128Z" fill="white"/>
<path d="M22.4974 48.5522C23.9459 47.0117 25.3624 45.512 26.769 44C27.3184 43.4078 27.9737 43.0944 28.7709 43.1595C29.7199 43.2369 30.4331 43.7191 30.7907 44.6267C31.1783 45.6096 31.0205 46.5315 30.2973 47.3109C28.9247 48.7903 27.5381 50.2555 26.1596 51.7268C25.5382 52.3881 24.9309 53.0658 24.2935 53.7108C23.1747 54.8423 21.7602 54.826 20.6594 53.6681C19.5645 52.5184 18.4776 51.3584 17.4028 50.1883C16.3519 49.0447 16.3519 47.5673 17.3788 46.5905C18.3638 45.6524 19.8262 45.7399 20.8591 46.8082C21.4006 47.3678 21.924 47.9417 22.4974 48.5522Z" fill="white"/>
<path d="M44.6258 26.8695C46.6717 26.8695 48.7155 26.8614 50.7614 26.8715C52.3018 26.8797 53.3767 27.8727 53.3946 29.2748C53.4106 30.6607 52.3138 31.7412 50.8074 31.7473C46.6677 31.7636 42.528 31.7616 38.3864 31.7473C37.0258 31.7433 36.0868 30.972 35.849 29.7327C35.6373 28.6277 36.2067 27.4881 37.2496 27.075C37.6312 26.9245 38.0747 26.8817 38.4903 26.8776C40.5361 26.8593 42.58 26.8695 44.6258 26.8695Z" fill="white"/>
<path d="M44.5625 51.2933C42.4927 51.2933 40.4228 51.3156 38.353 51.2872C36.5749 51.2627 35.4281 49.7446 35.9096 48.1126C36.2252 47.0483 37.1183 46.4154 38.377 46.4134C42.1171 46.4053 45.8591 46.4093 49.5992 46.4093C50.0487 46.4093 50.4983 46.4012 50.9458 46.4134C52.3244 46.4521 53.3473 47.4451 53.3912 48.776C53.4352 50.0723 52.4283 51.1915 51.0697 51.2749C50.1746 51.3299 49.2756 51.2933 48.3765 51.2933C47.1038 51.2933 45.8332 51.2933 44.5605 51.2933H44.5625Z" fill="white"/>
</svg>
