<svg width="139" height="56" viewBox="0 0 139 56" fill="none" xmlns="http://www.w3.org/2000/svg">
<path d="M136.984 0.0653076C137.258 0.0329628 137.507 0.229057 137.539 0.503296L138.066 4.97232C138.098 5.24656 137.902 5.4951 137.628 5.52744C137.354 5.55979 137.105 5.3637 137.073 5.08945L136.604 1.11699L132.632 1.58554C132.358 1.61789 132.109 1.42179 132.077 1.14755C132.045 0.87331 132.241 0.624771 132.515 0.592422L136.984 0.0653076ZM1.02292 53.3169C1.33951 53.3586 1.66098 53.3993 1.98724 53.4387L1.8672 54.4315C1.53742 54.3916 1.21235 54.3505 0.892114 54.3083L1.02292 53.3169ZM3.98624 53.6592C4.62842 53.7234 5.28653 53.7832 5.95998 53.8382L5.87867 54.8348C5.19926 54.7794 4.53506 54.7191 3.88667 54.6542L3.98624 53.6592ZM7.94661 53.983C8.60526 54.0255 9.27687 54.0635 9.96097 54.0966L9.91259 55.0955C9.22323 55.0621 8.54628 55.0238 7.88223 54.981L7.94661 53.983ZM11.9346 54.1775C12.5926 54.1996 13.2609 54.2173 13.9393 54.2304L13.92 55.2302C13.2369 55.217 12.5638 55.1992 11.901 55.1769L11.9346 54.1775ZM15.9327 54.2552C16.5898 54.2589 17.2553 54.2583 17.9291 54.2532L17.9366 55.2532C17.2585 55.2583 16.5885 55.2589 15.9271 55.2552L15.9327 54.2552ZM19.9319 54.2253C20.5883 54.2119 21.2519 54.1944 21.9223 54.1724L21.9551 55.1718C21.2805 55.194 20.6128 55.2117 19.9522 55.2251L19.9319 54.2253ZM23.9274 54.0943C24.5837 54.0647 25.2461 54.031 25.9142 53.9929L25.9711 54.9913C25.299 55.0296 24.6327 55.0635 23.9725 55.0933L23.9274 54.0943ZM27.9168 53.8667C28.5733 53.8215 29.235 53.772 29.9017 53.7183L29.9821 54.7151C29.3115 54.7691 28.6459 54.8188 27.9856 54.8644L27.9168 53.8667ZM31.8985 53.5456C32.5554 53.485 33.2169 53.4202 33.8826 53.3511L33.9859 54.3457C33.3164 54.4152 32.6511 54.4804 31.9904 54.5414L31.8985 53.5456ZM35.8712 53.1331C36.5287 53.0572 37.19 52.9771 37.8551 52.8928L37.9809 53.8848C37.3121 53.9697 36.647 54.0502 35.9858 54.1265L35.8712 53.1331ZM39.8337 52.6303C40.4917 52.5392 41.1529 52.4439 41.8173 52.3443L41.9656 53.3332C41.2975 53.4334 40.6325 53.5293 39.9708 53.6209L39.8337 52.6303ZM43.7849 52.0379C44.443 51.9316 45.1039 51.8211 45.7676 51.7061L45.9382 52.6914C45.2708 52.807 44.6061 52.9182 43.9443 53.0251L43.7849 52.0379ZM47.723 51.3561C48.3772 51.2352 49.0339 51.11 49.6929 50.9804L49.8858 51.9616C49.2231 52.0919 48.5627 52.2178 47.9047 52.3395L47.723 51.3561ZM51.6462 50.5848C52.2958 50.4494 52.9473 50.3097 53.6007 50.1656L53.816 51.1422C53.1588 51.287 52.5036 51.4275 51.8503 51.5637L51.6462 50.5848ZM55.5527 49.7235C56.1972 49.5736 56.8434 49.4194 57.4911 49.2608L57.7288 50.2321C57.0774 50.3916 56.4275 50.5467 55.7792 50.6975L55.5527 49.7235ZM59.4386 48.772C60.0783 48.6074 60.7194 48.4385 61.3617 48.2653L61.6222 49.2308C60.9761 49.4051 60.3312 49.5749 59.6877 49.7405L59.4386 48.772ZM63.2906 47.7328C63.9295 47.5523 64.5694 47.3675 65.2102 47.1782L65.4934 48.1373C64.8488 48.3277 64.2051 48.5136 63.5624 48.6951L63.2906 47.7328ZM67.1199 46.6018C67.7571 46.4052 68.3951 46.2042 69.0337 45.9987L69.34 46.9507C68.6975 47.1574 68.0557 47.3596 67.4146 47.5573L67.1199 46.6018ZM70.9235 45.378C71.554 45.1666 72.1849 44.9508 72.8163 44.7305L73.1458 45.6746C72.5105 45.8963 71.8757 46.1135 71.2414 46.3261L70.9235 45.378ZM74.6986 44.0604C75.3219 43.8342 75.9454 43.6035 76.569 43.3682L76.922 44.3039C76.2944 44.5406 75.667 44.7727 75.0398 45.0004L74.6986 44.0604ZM78.4402 42.6488C79.0566 42.4073 79.673 42.1614 80.2893 41.9108L80.6658 42.8372C80.0456 43.0894 79.4253 43.3369 78.805 43.5799L78.4402 42.6488ZM82.1357 41.1463C82.7486 40.8879 83.3613 40.625 83.9737 40.3573L84.3741 41.2737C83.7578 41.543 83.1411 41.8077 82.5242 42.0678L82.1357 41.1463ZM85.7943 39.5475C86.4008 39.2729 87.0069 38.9937 87.6124 38.7098L88.0369 39.6153C87.4273 39.901 86.8172 40.1821 86.2067 40.4585L85.7943 39.5475ZM89.4125 37.8513C90.0097 37.5615 90.6063 37.2671 91.2022 36.968L91.6508 37.8618C91.0509 38.1629 90.4503 38.4593 89.849 38.751L89.4125 37.8513ZM92.9869 36.057C93.5743 35.752 94.1609 35.4424 94.7467 35.128L95.2195 36.0092C94.6298 36.3257 94.0391 36.6374 93.4476 36.9445L92.9869 36.057ZM96.5009 34.1709C97.0825 33.8484 97.6629 33.5211 98.2423 33.1891L98.7395 34.0567C98.1561 34.3911 97.5715 34.7206 96.986 35.0454L96.5009 34.1709ZM99.9639 32.1864C100.537 31.8474 101.108 31.5037 101.678 31.1552L102.2 32.0084C101.626 32.3594 101.05 32.7056 100.473 33.047L99.9639 32.1864ZM103.373 30.1026C103.934 29.7486 104.494 29.3898 105.052 29.0262L105.598 29.8641C105.035 30.2303 104.472 30.5917 103.907 30.9483L103.373 30.1026ZM106.722 27.9209C107.271 27.5514 107.819 27.1771 108.366 26.798L108.936 27.6197C108.385 28.0015 107.833 28.3785 107.28 28.7507L106.722 27.9209ZM109.997 25.6482C110.539 25.2605 111.079 24.8679 111.618 24.4704L112.212 25.2748C111.669 25.6753 111.125 26.0708 110.58 26.4614L109.997 25.6482ZM113.209 23.2771C113.737 22.8745 114.264 22.4671 114.789 22.0548L115.406 22.8412C114.878 23.2566 114.347 23.6671 113.815 24.0726L113.209 23.2771ZM116.352 20.8073C116.866 20.3907 117.379 19.9693 117.889 19.543L118.53 20.3104C118.016 20.7399 117.5 21.1645 116.982 21.5843L116.352 20.8073ZM119.413 18.2496C119.916 17.8159 120.418 17.3774 120.917 16.9339L121.581 17.6815C121.078 18.1283 120.573 18.5702 120.066 19.0072L119.413 18.2496ZM122.395 15.6005C122.885 15.1512 123.373 14.697 123.859 14.2379L124.546 14.9648C124.056 15.4274 123.564 15.8851 123.07 16.3378L122.395 15.6005ZM125.299 12.856C125.774 12.3941 126.245 11.9274 126.715 11.4558L127.423 12.1613C126.95 12.6365 126.475 13.1068 125.997 13.5722L125.299 12.856ZM128.116 10.0265C128.576 9.54932 129.034 9.06736 129.49 8.58054L130.22 9.26389C129.761 9.75445 129.299 10.2401 128.835 10.7209L128.116 10.0265ZM130.839 7.11661C131.287 6.62382 131.731 6.12619 132.174 5.6237L132.924 6.28428C132.479 6.79064 132.031 7.29209 131.58 7.78868L130.839 7.11661ZM133.48 4.11618C133.909 3.61292 134.336 3.10491 134.76 2.59212L135.53 3.22942C135.103 3.74614 134.673 4.25805 134.24 4.76518L133.48 4.11618ZM136.024 1.03933C136.233 0.778149 136.442 0.515762 136.65 0.252159L137.435 0.871571C137.225 1.13718 137.015 1.40157 136.804 1.66475L136.024 1.03933Z" fill="black"/>
</svg>
