<svg width="50" height="50" viewBox="0 0 50 50" fill="none" xmlns="http://www.w3.org/2000/svg">
<path d="M36.4988 36.6878C37.1155 36.1077 37.7657 35.4877 38.4263 34.8779C39.2077 34.1571 39.9702 33.4122 40.792 32.739C41.6327 32.0506 42.6052 31.6237 43.7346 31.6651C45.0762 31.714 46.0829 32.4052 46.934 33.3481C48.1674 34.7151 48.3697 36.365 47.4586 38.0101C47.0721 38.7088 46.595 39.3806 46.0522 39.969C43.6119 42.6162 41.0027 45.0938 38.0126 47.132C33.178 50.427 28.0476 50.8863 22.6911 48.4915C21.9482 48.1591 21.2673 47.6707 20.6017 47.1941C18.9595 46.0188 17.1568 45.3062 15.1211 45.2083C14.9237 45.1986 14.7255 45.1986 14.5281 45.209C14.309 45.2207 14.0907 45.2483 13.8123 45.2752C13.8123 45.7132 13.8123 46.145 13.8123 46.5768C13.8123 47.401 13.534 47.6811 12.7135 47.6811C9.34117 47.6811 5.9695 47.6859 2.59712 47.6707C2.33969 47.6693 2.02366 47.5872 1.84298 47.4245C1.67415 47.2727 1.57369 46.9644 1.57299 46.7251C1.55974 40.9781 1.56253 35.2297 1.56322 29.482C1.56322 28.8819 1.89251 28.5639 2.52527 28.5633C5.06048 28.5605 7.59499 28.5619 10.1302 28.5619C11.0253 28.5619 11.921 28.5591 12.8161 28.5619C13.4956 28.5639 13.8123 28.884 13.8123 29.5586C13.8123 34.0192 13.8123 38.4798 13.8123 42.9404C13.8123 43.1328 13.8123 43.3253 13.8123 43.5308C14.2811 43.5308 14.7081 43.5205 15.1343 43.5322C17.5893 43.5998 19.7611 44.4482 21.7033 45.9001C24.0369 47.6438 26.6914 48.3653 29.5775 48.277C32.4085 48.1908 34.9556 47.2824 37.2431 45.6077C40.1146 43.5053 42.7182 41.1208 45.0755 38.475C45.5122 37.9846 45.8457 37.3817 46.1254 36.7844C46.4624 36.0643 46.3487 35.3263 45.8283 34.7144C45.5039 34.3323 45.1222 33.9778 44.7085 33.695C44.0583 33.2508 43.3223 33.2032 42.6289 33.5874C42.1475 33.8543 41.6857 34.1813 41.2811 34.5524C39.7986 35.9125 38.3419 37.3003 36.8825 38.6853C36.7918 38.7716 36.7276 38.9109 36.7032 39.0357C36.2839 41.185 34.1889 42.6521 31.9823 42.3148C29.9201 41.9996 27.9457 41.3471 25.9665 40.7215C25.4747 40.5663 25.2682 40.1062 25.4273 39.6468C25.5821 39.1999 26.0251 38.9895 26.526 39.1302C28.1222 39.5793 29.7156 40.04 31.316 40.4739C31.8867 40.6291 32.4699 40.7291 33.0713 40.5925C34.7058 40.22 35.4007 38.9674 34.823 37.41C34.3584 36.1581 33.4487 35.2842 32.3053 34.6565C29.6061 33.1735 26.7458 32.1162 23.6909 31.6044C21.2142 31.1891 18.7272 31.0636 16.2234 31.3119C16.0308 31.3312 15.8222 31.3333 15.6394 31.2809C15.2522 31.1712 15.0339 30.8029 15.0709 30.3966C15.1057 30.0193 15.3757 29.6986 15.7824 29.6593C16.5798 29.582 17.3814 29.513 18.1816 29.4999C23.1027 29.4213 27.7734 30.4194 32.165 32.6611C33.3022 33.2418 34.3996 33.8598 35.2186 34.8441C35.686 35.4063 36.0586 36.045 36.4995 36.6864L36.4988 36.6878ZM3.29755 45.9525H12.0724V30.2663H3.29755V45.9525Z" fill="white"/>
<path d="M24.4103 21.0919C18.5376 21.0746 13.7609 16.3167 13.7784 10.5015C13.7951 4.70066 18.5837 -0.0110166 24.4515 1.93474e-05C30.4023 0.0110553 35.1323 4.73377 35.1135 10.647C35.0953 16.3961 30.2649 21.1098 24.4103 21.0926V21.0919ZM33.3924 10.518C33.3785 5.62838 29.3447 1.66094 24.409 1.68163C19.4767 1.70232 15.4848 5.69735 15.5001 10.5973C15.5155 15.4649 19.5604 19.4075 24.5248 19.3944C29.4103 19.3813 33.4064 15.3814 33.3924 10.5187V10.518Z" fill="white"/>
<path d="M40.8979 10.7305C39.9617 11.163 39.0806 11.5707 38.1988 11.9762C37.9567 12.088 37.716 12.2038 37.4677 12.3004C37.0142 12.4763 36.5454 12.2866 36.3598 11.8652C36.1791 11.4548 36.3326 10.9747 36.7533 10.7768C38.369 10.018 39.9861 9.26206 41.6144 8.53024C42.259 8.24054 42.8946 8.73095 42.8129 9.42691C42.6999 10.385 42.5813 11.3423 42.4446 12.2976C42.4048 12.5777 42.4641 12.7529 42.7013 12.9364C44.4377 14.28 45.6746 15.9878 46.4141 18.0419C46.5006 18.2826 46.606 18.4047 46.8795 18.3709C47.0853 18.3454 47.2974 18.364 47.5066 18.3668C48.1045 18.3743 48.4331 18.6958 48.4345 19.2876C48.4373 20.9085 48.4359 22.5294 48.4352 24.151C48.4352 24.3807 48.4408 24.6111 48.4338 24.8408C48.4198 25.3036 48.092 25.6353 47.6231 25.6705C47.6001 25.6726 47.5757 25.6774 47.5534 25.6726C46.7713 25.5105 46.4204 25.8505 46.1595 26.59C45.7326 27.7998 44.9889 28.8558 44.1112 29.807C43.8168 30.1256 43.4185 30.2049 43.0676 30.0401C42.7341 29.8835 42.5276 29.5345 42.6016 29.1607C42.6378 28.9799 42.7362 28.7896 42.8597 28.6509C43.8922 27.4935 44.6191 26.1761 45.0384 24.6897C45.1779 24.1945 45.4472 23.9958 45.9725 23.9744C46.2028 23.9648 46.4344 23.973 46.6925 23.973V20.0629C46.4455 20.0629 46.1944 20.0684 45.9439 20.0615C45.4716 20.0484 45.18 19.8332 45.0524 19.3855C44.3889 17.0624 43.0732 15.2008 41.0486 13.8399C40.6859 13.5958 40.5889 13.2612 40.6482 12.8501C40.7389 12.2245 40.8163 11.5976 40.8979 10.9713C40.9049 10.9161 40.8986 10.8595 40.8986 10.7312L40.8979 10.7305Z" fill="white"/>
<path d="M12.0954 22.15C12.1017 20.5808 12.3438 19.22 12.8468 17.9067C13.0484 17.3804 13.4949 17.1466 13.9651 17.3107C14.4499 17.4804 14.653 17.957 14.452 18.4999C13.5919 20.8264 13.5953 23.1591 14.4346 25.4822C14.6509 26.0816 14.9697 26.6499 15.2878 27.2066C15.5976 27.7466 15.5452 28.2433 15.0771 28.5295C14.632 28.802 14.1458 28.6426 13.8193 28.1108C12.6661 26.2278 12.0989 24.1834 12.0947 22.1493L12.0954 22.15Z" fill="white"/>
<path d="M39.3564 18.1445C39.3648 17.6645 39.7485 17.3031 40.2355 17.3162C40.7057 17.3293 41.065 17.6955 41.0629 18.1604C41.0608 18.6419 40.6868 19.0123 40.2027 19.0123C39.7339 19.0123 39.3488 18.6177 39.3571 18.1445H39.3564Z" fill="white"/>
<path d="M28.2908 7.41213C28.387 8.22396 27.6329 8.58815 27.1152 8.36881C26.7671 8.22189 26.6039 7.95772 26.5878 7.58939C26.5571 6.91137 26.299 6.34439 25.7451 5.92158C25.0321 5.37667 24.0568 5.33322 23.2985 5.81811C22.5297 6.30991 22.162 7.23417 22.3915 8.09912C22.6252 8.97855 23.3878 9.63381 24.2863 9.6752C25.4472 9.72831 26.4727 10.0684 27.2813 10.9312C29.1768 12.9543 28.2838 16.2906 25.6195 17.1073C25.3732 17.1831 25.2721 17.2873 25.3007 17.5356C25.3146 17.6597 25.3056 17.7887 25.2909 17.9136C25.2379 18.355 24.8814 18.6516 24.4265 18.6413C23.9787 18.6316 23.5908 18.3074 23.6187 17.8667C23.6487 17.3845 23.4938 17.1886 23.0194 16.9948C21.5223 16.3858 20.7249 15.2187 20.6154 13.6185C20.577 13.0605 20.923 12.6728 21.4211 12.6459C21.9297 12.6184 22.2932 12.9867 22.3274 13.5654C22.3964 14.7138 23.295 15.5877 24.4224 15.6015C25.5525 15.616 26.4748 14.7683 26.5753 13.6233C26.6771 12.4583 25.7228 11.443 24.4754 11.3878C22.8771 11.3168 21.6681 10.616 20.9712 9.17582C19.9749 7.1176 21.0744 4.66968 23.2887 3.97372C23.535 3.89647 23.6389 3.79646 23.6054 3.54677C23.5901 3.43365 23.5957 3.31639 23.6054 3.20258C23.6431 2.76045 23.994 2.43903 24.4384 2.43213C24.8856 2.42524 25.3223 2.74114 25.2784 3.17292C25.2156 3.78197 25.5449 3.92682 26.0172 4.13306C27.4389 4.75521 28.1617 5.89537 28.2935 7.41213H28.2908Z" fill="white"/>
</svg>
