<svg width="65" height="65" viewBox="0 0 65 65" fill="none" xmlns="http://www.w3.org/2000/svg">
<path d="M37.646 60.075C37.6335 59.945 37.6085 59.815 37.5811 59.6875C37.6035 59.89 37.6285 60.095 37.661 60.3025C37.656 60.2275 37.6535 60.15 37.646 60.0725V60.075Z" fill="white"/>
<path d="M18.6768 48.5971C20.1613 46.7295 20.2613 44.627 20.1613 42.4794C20.0089 39.1418 17.3947 36.4166 13.9732 36.0441C10.8367 35.7016 7.64522 37.9567 6.92294 41.1518C6.34062 43.7369 6.48558 46.2745 8.08008 48.5671C3.49901 49.7272 0.999793 51.9673 0.369989 55.9224C0.0275963 58.0775 0.20754 60.3201 0.182548 62.5227C0.162554 64.1752 0.49495 64.5002 2.12694 64.5002C9.41216 64.5027 16.6974 64.5002 23.9826 64.5002C26.6268 64.5002 26.6143 64.4627 26.6818 61.8776C26.7043 60.9951 26.5018 60.0701 26.6818 59.19C26.6343 56.2249 26.1869 54.6849 25.997 54.1673C24.7774 51.0847 22.3256 49.3196 18.6743 48.5971H18.6768ZM9.17724 42.6794C9.27221 40.7418 10.5018 39.2143 12.3787 38.7017C14.9204 38.0092 17.4696 39.8618 17.6596 42.5444C17.6871 42.9169 17.6621 43.2919 17.6621 43.5769C17.9895 46.9446 15.1804 49.4272 11.9639 48.3346C9.85952 47.6196 9.02229 45.832 9.17724 42.6794ZM24.1626 61.9476H20.9161C20.9161 60.8426 20.8961 59.7376 20.9236 58.635C20.9461 57.7625 20.6162 57.0825 19.7214 57.0599C18.7467 57.0349 18.4019 57.74 18.4193 58.665C18.4418 59.7376 18.4243 60.8076 18.4243 61.9426H8.41997C8.41997 60.8676 8.39998 59.7651 8.42497 58.6625C8.44497 57.7375 8.10257 57.0324 7.12788 57.0599C6.23566 57.085 5.90076 57.765 5.92325 58.6375C5.94825 59.7101 5.92825 60.7851 5.92825 61.9326H2.5743C2.68677 59.8651 2.59679 57.815 2.95418 55.8449C3.41904 53.2848 5.61085 51.3622 8.19005 51.2472C11.674 51.0922 15.1754 51.0722 18.6568 51.2497C21.6458 51.4047 24.0176 54.0598 24.1501 57.0574C24.22 58.635 24.1626 60.2176 24.1626 61.9451V61.9476Z" fill="white"/>
<path d="M64.1525 57.4547C64.1425 55.0546 63.2777 53.0045 61.6133 51.2745C60.1637 49.7669 58.3493 48.9769 56.165 48.6094C57.552 46.7893 57.7195 44.8342 57.6645 42.7991C57.5695 39.239 54.9628 36.3839 51.4114 36.0364C48.2099 35.7239 45.0784 38.0089 44.3811 41.3216C43.8538 43.8242 43.9888 46.2893 45.6182 48.6119C41.672 49.3744 39.1128 51.5445 38.0506 54.8596C38.0131 54.9746 37.9706 55.0846 37.9257 55.1971C37.6033 56.3372 37.3833 57.8497 37.5808 59.6823C37.6108 59.8098 37.6357 59.9398 37.6457 60.0698C37.6532 60.1448 37.6532 60.2223 37.6607 60.2998C37.6632 60.3198 37.6657 60.3373 37.6682 60.3573C37.6682 60.3573 37.6657 60.3573 37.6632 60.3573C37.7157 61.1723 37.6857 61.9974 37.6632 62.8174C37.6282 63.9575 38.1281 64.5025 39.2927 64.5025C47.0353 64.49 54.7779 64.49 62.5205 64.5025C63.6826 64.5025 64.175 63.9675 64.1575 62.8249C64.13 61.0348 64.1575 59.2448 64.1475 57.4522L64.1525 57.4547ZM47.9225 39.824C49.1347 38.594 50.6117 38.2314 52.2712 38.7715C54.1881 39.3965 55.1628 41.0441 55.1603 43.6267C55.1603 46.9793 53.1834 48.9519 50.2118 48.5194C48.5348 48.2768 47.3327 47.2943 46.9278 45.6767C46.418 43.6292 46.2481 41.5241 47.9225 39.824ZM61.6382 61.9374H58.4068C58.4068 60.8698 58.3868 59.7673 58.4118 58.6647C58.4317 57.7397 58.0944 57.0347 57.1172 57.0597C56.2249 57.0822 55.89 57.7622 55.91 58.6347C55.935 59.7073 55.915 60.7823 55.915 62.0074C52.701 62.0074 49.6695 62.0074 46.6379 62.0074C46.438 62.0074 46.2406 61.9799 45.9107 61.9574C45.9107 60.7923 45.8982 59.6798 45.9157 58.5697C45.9282 57.6847 45.5458 57.0472 44.6486 57.0597C43.7538 57.0747 43.3964 57.7297 43.4139 58.6097C43.4339 59.6848 43.4189 60.7623 43.4189 61.9249H40.0725C40.1799 59.8923 40.085 57.8447 40.4399 55.8771C40.9122 53.262 43.109 51.3545 45.7732 51.237C49.2146 51.0844 52.676 51.0745 56.1175 51.247C59.0241 51.3945 61.3783 53.8646 61.6133 56.7847C61.7482 58.4697 61.6382 60.1748 61.6382 61.9399V61.9374Z" fill="white"/>
<path d="M20.1986 28.9235C22.2679 29.0385 24.3473 29.021 26.4191 28.9335V24.2283C26.4191 24.1858 26.4191 24.1433 26.4191 24.1008V23.8233C26.4191 23.8233 26.4191 23.8233 26.4216 23.8233C26.4216 23.6008 26.4216 23.3808 26.4291 23.1583C26.4541 22.2658 26.2242 21.5107 25.1845 21.5282C24.1723 21.5457 23.9149 22.2908 23.9274 23.1833C23.9399 24.2508 23.9299 25.3209 23.9299 26.3884H21.4157C21.4157 24.9234 21.4082 23.5533 21.4157 22.1808C21.4382 18.4056 23.9949 15.6755 27.7612 15.563C30.7153 15.4755 33.6743 15.4855 36.6284 15.563C39.4325 15.638 41.8793 17.2531 42.4766 19.8007C42.9764 21.9308 42.889 24.1958 43.0664 26.4509H40.4022C40.4022 25.2234 40.4072 24.1083 40.4022 22.9933C40.3972 22.1258 40.0274 21.5007 39.0951 21.5232C38.2254 21.5432 37.9005 22.1458 37.908 22.9683C37.9105 23.3158 37.9155 23.6633 37.9205 24.0108V24.1008C37.9205 24.2558 37.9205 24.4134 37.9205 24.5684V28.9185C37.973 28.9285 38.023 28.936 38.0705 28.9385C39.9799 29.0435 41.8993 28.9835 43.8137 28.981C44.8808 28.981 45.4232 28.471 45.4107 27.3735C45.3932 25.4984 45.4207 23.6258 45.4032 21.7508C45.3682 18.0231 42.844 14.633 39.2676 13.5054C38.7278 13.3354 38.1704 13.2204 37.4507 13.0354C38.8302 11.2328 38.9802 9.23526 38.9177 7.17018C38.8052 3.47254 35.8562 0.517423 32.1998 0.504922C28.4835 0.492422 25.5219 3.46504 25.4094 7.22518C25.3469 9.29276 25.5494 11.2678 26.864 13.0479C22.5753 13.9179 19.7662 16.243 19.1039 20.4532C18.7265 22.8533 18.914 25.3534 18.9914 27.8035C19.0039 28.2085 19.7587 28.901 20.1986 28.926V28.9235ZM27.8986 7.5452C27.9436 5.77013 28.6084 4.38757 30.1604 3.52254C32.8321 2.03248 36.1586 3.88255 36.401 6.96517C36.431 7.33769 36.406 7.7152 36.406 7.96771C36.7459 12.1679 32.8596 14.098 30.0655 12.4979C28.1286 11.3878 27.8487 9.56277 27.9011 7.5477L27.8986 7.5452Z" fill="white"/>
<path d="M25.4451 44.9393C24.7753 45.5018 24.308 46.1343 24.9853 46.9493C25.6575 47.7619 26.3648 47.4494 27.0371 46.8718C28.4617 45.6543 29.9362 44.4943 31.3083 43.2217C31.9956 42.5842 32.4154 42.6542 33.0627 43.2517C34.3773 44.4642 35.7769 45.5843 37.1415 46.7443C37.8487 47.3469 38.606 47.8919 39.3758 46.9143C40.088 46.0093 39.4382 45.3968 38.766 44.8293C37.2064 43.5142 35.6269 42.2217 34.1224 40.8441C33.755 40.5091 33.4651 39.8991 33.4476 39.4041C33.3726 37.4065 33.3976 35.4064 33.4226 33.4063C33.4326 32.5263 33.0927 31.8513 32.208 31.8363C31.2408 31.8188 30.8884 32.5213 30.9159 33.4538C30.9459 34.4539 30.9234 35.4539 30.9234 36.4539C30.9234 37.2865 30.8709 38.124 30.9359 38.9515C31.0134 39.9016 30.7235 40.5616 29.9387 41.1666C28.3892 42.3592 26.9446 43.6817 25.4451 44.9418V44.9393Z" fill="white"/>
<path d="M32.208 56.9941C31.2658 56.9966 30.3136 57.0791 30.2811 58.2242C30.2486 59.3667 31.1509 59.5917 32.0731 59.5042C32.3355 59.5042 32.5429 59.5092 32.7504 59.5042C33.6101 59.4842 34.1349 58.9892 34.0624 58.1867C33.965 57.1291 33.1252 56.9941 32.2105 56.9966L32.208 56.9941Z" fill="white"/>
<path d="M26.4199 24.1012C26.4199 24.0087 26.4224 23.9162 26.4224 23.8262H26.4199V24.1037V24.1012Z" fill="white"/>
<path d="M37.6611 60.3047C37.6611 60.3247 37.6611 60.3422 37.6636 60.3622H37.6686C37.6661 60.3422 37.6636 60.3247 37.6611 60.3047Z" fill="white"/>
<path d="M30.0537 29.0057H34.2374C34.9346 29.0057 35.502 28.4382 35.502 27.7406C35.502 27.0431 34.9346 26.4756 34.2374 26.4756H30.0537C29.3564 26.4756 28.7891 27.0431 28.7891 27.7406C28.7891 28.4382 29.3564 29.0057 30.0537 29.0057Z" fill="white"/>
</svg>
